<svg xmlns="http://www.w3.org/2000/svg" viewBox="0 0 252.58 52.77"><defs><style>.cls-1{fill:red;}</style></defs><g id="Layer_2" data-name="Layer 2"><g id="Layer_1-2" data-name="Layer 1"><path d="M76.35,7.63h6.3L95.08,46.71h-5.6L86.24,36.19H72.71L69.47,46.71H63.92Zm8.5,23.93-3.7-12.08c-.52-1.62-1.1-4-1.68-6.19-.46,2.2-1.09,4.51-1.61,6.19L74.1,31.56Z"/><path d="M99.6,28.27c0-7.87,5.26-12.09,11.5-12.09s11.45,4.22,11.45,12.09V46.71h-5.32V28.55c0-5.14-2.54-7.68-6.13-7.68s-6.19,2.54-6.19,7.68V46.71H99.6Z"/><path d="M129.14,8.55a3.3,3.3,0,0,1,3.35-3.24,3.34,3.34,0,0,1,3.36,3.24,3.39,3.39,0,0,1-3.36,3.3A3.31,3.31,0,0,1,129.14,8.55Zm.7,8.38h5.31V46.71h-5.31Z"/><path d="M142.44,28c0-7.87,5-11.8,10.87-11.8a8.78,8.78,0,0,1,8.26,5.67c1.62-3.53,4.51-5.67,8.27-5.67,6.07,0,10.93,3.93,10.93,11.8V46.71h-5.32V28.55c0-5.14-2.2-7.68-5.61-7.68s-5.61,2.94-5.61,8.67V46.71H159V29.54c0-5.73-2.19-8.67-5.66-8.67s-5.55,2.54-5.55,7.68V46.71h-5.32Z"/><path d="M217.31,20.75H212.4l-.12-3.82h5V7.75h5.26v9.18h5.84v3.82h-5.84v26h-5.26Z"/><path d="M241.48,28.79h5.84V27.17c0-4.05-2-6.3-5.73-6.3a37,37,0,0,0-9,1.57V17.8a30,30,0,0,1,9-1.62c6.65,0,11,4.16,11,11V37.8c0,5.44-4.92,9.66-10.87,9.66-6.3,0-11-4.22-11-9.66C230.67,32,235.06,28.79,241.48,28.79Zm.23,14c3.35,0,5.61-2.32,5.61-5V33h-5.84c-3.82,0-5.38,2.14-5.38,4.8S238.18,42.78,241.71,42.78Z"/><path d="M198.12,34.86h-5.84v1.61c0,4.05,2,6.31,5.73,6.31A37.12,37.12,0,0,0,207,41l0,4.85a29.79,29.79,0,0,1-9,1.62c-6.65,0-11-4.16-11-11V25.84c0-5.44,4.92-9.66,10.87-9.66,6.3,0,11,4.22,11,9.66C208.93,31.68,204.54,34.86,198.12,34.86Zm-.23-14c-3.35,0-5.61,2.31-5.61,5v4.85h5.84c3.82,0,5.38-2.14,5.38-4.8S201.42,20.87,197.89,20.87Z"/><path class="cls-1" d="M26.39,0A26.39,26.39,0,1,0,52.77,26.39,26.42,26.42,0,0,0,26.39,0Zm0,49.2A22.81,22.81,0,1,1,49.2,26.39,22.84,22.84,0,0,1,26.39,49.2Z"/><circle class="cls-1" cx="26.39" cy="26.39" r="20.14"/></g></g></svg>