<?xml version="1.0" standalone="no"?>
<!DOCTYPE svg PUBLIC "-//W3C//DTD SVG 1.1//EN" "http://www.w3.org/Graphics/SVG/1.1/DTD/svg11.dtd" >
<svg xmlns="http://www.w3.org/2000/svg" xmlns:xlink="http://www.w3.org/1999/xlink" version="1.1">
<metadata>
Created by FontForge 20170731 at Fri Jul  2 10:36:24 2021
 By Aleksey,,,
Copyright  1997, 2001, Berthold LLC. All rights reserved. Akzidenz-Grotesk is a trademark of Berthold Types Limited.
</metadata>
<defs>
<font id="AkzidenzGroteskBQ-Ext" horiz-adv-x="1492" >
  <font-face 
    font-family="Akzidenz-Grotesk BQ Extended"
    font-weight="500"
    font-stretch="normal"
    units-per-em="2048"
    panose-1="0 0 0 0 0 0 0 0 0 0"
    ascent="1638"
    descent="-410"
    x-height="999"
    cap-height="1446"
    bbox="-213 -481 3011 1903"
    underline-thickness="153"
    underline-position="-665"
    unicode-range="U+0020-2122"
  />
<missing-glyph horiz-adv-x="1024" 
 />
    <glyph glyph-name=".notdef" horiz-adv-x="1024" 
 />
    <glyph glyph-name=".null" horiz-adv-x="0" 
 />
    <glyph glyph-name="nonmarkingreturn" horiz-adv-x="682" 
 />
    <glyph glyph-name="space" unicode=" " horiz-adv-x="681" 
 />
    <glyph glyph-name="exclam" unicode="!" horiz-adv-x="598" 
d="M446 819l-57 -452h-90l-59 450v596h206v-594zM446 0h-204v205h204v-205z" />
    <glyph glyph-name="quotedbl" unicode="&#x22;" horiz-adv-x="716" 
d="M659 1522l-67 -594h-78l-70 594h215zM272 1522l-67 -594h-78l-70 594h215z" />
    <glyph glyph-name="numbersign" unicode="#" horiz-adv-x="1533" 
d="M1454 838h-367l-18 -199h361v-145h-375l-47 -494h-160l53 494h-289l-53 -494h-151l47 494h-373v145h389l18 199h-380v151h393l43 457h160l-46 -457h287l43 457h156l-45 -457h354v-151zM932 838h-287l-20 -199h288z" />
    <glyph glyph-name="dollar" unicode="$" horiz-adv-x="1579" 
d="M1511 422q-2 -117 -56 -211t-155 -152q-63 -36 -143.5 -56.5t-135 -25t-153.5 -8.5v-243h-157v245q-117 8 -185 21q-275 56 -417 219q-37 42 -66 88l197 74q33 -40 48.5 -57t53 -49t86 -54t113.5 -39q60 -17 112 -24q10 -1 30 -3.5t30 -3.5v523q-96 7 -155.5 13.5
t-146 30t-143.5 60.5q-149 100 -147 274q0 35 6.5 70t24 82.5t57.5 94t98 81.5q59 36 134 57t128.5 28t143.5 13v199h161l3 -203q78 -3 141 -14q257 -42 399 -188q24 -24 60 -76l-195 -74q-23 30 -45 49q-97 93 -281 129q-66 10 -84 11l2 -461q17 -1 132 -11q71 -6 123 -15
t113.5 -28t111.5 -54t86 -85q71 -96 71 -227zM713 852v461q-177 -14 -269 -60q-17 -8 -33.5 -19.5t-40.5 -33.5t-39 -56.5t-14 -74.5q0 -66 41 -111q44 -49 122.5 -70t232.5 -36zM1315 414q0 90 -53 141q-48 48 -136 68.5t-256 33.5l2 -518q8 0 26.5 1t27.5 1q201 14 297 86
q92 70 92 187z" />
    <glyph glyph-name="percent" unicode="%" horiz-adv-x="2134" 
d="M2073 453q0 -95 -28.5 -176.5t-60.5 -124.5t-69 -74q-58 -49 -125 -70q-60 -16 -133 -16q-70 0 -123 16q-134 41 -221 176q-64 110 -64 265q0 181 101 311q18 24 42 46.5t63 48.5t94 42t118 16q143 0 258 -96q73 -65 110.5 -162t37.5 -202zM1556 1372l-884 -1397l-101 62
l885 1399zM877 961q0 -95 -28.5 -176.5t-60.5 -124.5t-69 -74q-59 -49 -125 -70q-58 -18 -133 -18q-70 0 -123 16q-136 39 -221 178q-64 114 -64 262q0 184 101 314q19 23 43 45t63 48t94 42t117 16q150 0 258 -96q73 -65 110.5 -161.5t37.5 -200.5zM1927 451
q0 203 -123 297q-62 45 -145 45q-74 0 -133 -41q-53 -38 -93 -115t-40 -193q0 -74 16.5 -132.5t43 -95t62.5 -60.5t71.5 -33.5t72.5 -9.5q69 1 122 30t84 78t46.5 107t15.5 123zM733 956q-2 208 -125 297q-65 47 -143 47q-75 0 -133 -43q-54 -38 -93.5 -114t-39.5 -193
q1 -91 25.5 -159t65 -104t83.5 -52.5t90 -16.5q70 0 123.5 29t84.5 78t46.5 107.5t15.5 123.5z" />
    <glyph glyph-name="ampersand" unicode="&#x26;" horiz-adv-x="1579" 
d="M1526 8q-66 -18 -101 -18q-39 0 -79 12q-25 8 -54.5 24t-48.5 29t-74 52q-13 9 -20 14q-75 -44 -80 -47q-205 -111 -451 -111q-322 0 -464 195q-74 103 -74 221q0 113 51 186q26 39 62.5 71.5t81 55.5t84.5 40t90 35q5 1 7 2t6 2.5t7 2.5q-58 55 -83 92q-58 86 -58 191
q0 83 34 149q18 32 45.5 61t70 56.5t105 43.5t136.5 15q133 0 223 -55q21 -13 42.5 -32t47.5 -51t42 -79t16 -100q0 -190 -191 -299q-36 -18 -117 -49q168 -168 269 -254l102 -88l49 80q16 25 27.5 50.5t18 43t11 42.5t5.5 34t2.5 34.5t1.5 28.5l176 4q-6 -71 -21 -137
q-5 -21 -11.5 -42.5t-13 -39t-15.5 -37t-15.5 -33t-16 -30.5t-15.5 -27t-16 -25t-14 -20.5t-13.5 -19t-10.5 -15.5q22 -19 51 -41q40 -28 77.5 -41.5t63 -12.5t52.5 3v-166zM893 1061q0 79 -50.5 128.5t-129.5 49.5q-76 0 -131.5 -47.5t-55.5 -122.5q0 -63 47 -129
q40 -54 99 -102q16 2 39 10q18 6 34 12t45.5 24t50 39.5t36.5 58t16 79.5zM1010 236q-161 144 -217 198q-41 40 -113.5 114t-95.5 97q-76 -23 -80 -24q-217 -73 -217 -226q0 -64 39 -129q37 -55 118.5 -96t202.5 -41q151 0 303 70q35 17 60 37z" />
    <glyph glyph-name="quotesingle" unicode="'" horiz-adv-x="329" 
d="M272 1522l-67 -594h-78l-70 594h215z" />
    <glyph glyph-name="parenleft" unicode="(" horiz-adv-x="681" 
d="M666 -225l-66 -64q-210 167 -309 299q-101 133 -156 296.5t-55 330.5q0 275 138 512t374 397l59 -61q-129 -130 -205.5 -241t-120.5 -252.5t-44 -315.5q0 -408 211 -709q61 -86 174 -192z" />
    <glyph glyph-name="parenright" unicode=")" horiz-adv-x="681" 
d="M604 614q0 -269 -139.5 -504t-374.5 -395l-59 62q129 130 205.5 239.5t121.5 251.5t45 314q0 194 -53.5 377t-159.5 335q-63 89 -174 193l66 63q71 -57 114 -94.5t98.5 -93.5t96.5 -111q103 -136 158 -301.5t55 -335.5z" />
    <glyph glyph-name="asterisk" unicode="*" horiz-adv-x="714" 
d="M662 1194l-213 -76l129 -170l-99 -76l-135 175l-121 -175l-102 74l121 174l-205 58l35 116l209 -55v211h127v-215l210 70z" />
    <glyph glyph-name="plus" unicode="+" horiz-adv-x="1581" 
d="M1393 518h-502v-467h-201v467h-502v176h502v463h201v-463h502v-176z" />
    <glyph glyph-name="comma" unicode="," horiz-adv-x="512" 
d="M369 -39q0 -119 -52 -176.5t-172 -58.5v112q54 6 73.5 26.5t19.5 74.5v61h-93v221h224v-260z" />
    <glyph glyph-name="hyphen" unicode="-" horiz-adv-x="788" 
d="M717 530h-645v168h645v-168z" />
    <glyph glyph-name="period" unicode="." horiz-adv-x="512" 
d="M367 0h-226v223h226v-223z" />
    <glyph glyph-name="slash" unicode="/" horiz-adv-x="854" 
d="M842 1446l-639 -1446h-180l634 1446h185z" />
    <glyph glyph-name="zero" unicode="0" horiz-adv-x="1449" 
d="M1384 696q0 -27 -1 -53t-7 -76.5t-16.5 -95.5t-32 -103.5t-50.5 -108t-74.5 -100.5t-102.5 -89q-156 -103 -359 -103q-214 0 -362 109q-26 20 -92 86q-127 147 -166 370q-17 115 -17 181q0 170 51 300t113 208q28 36 65 68t94.5 68t139 58t174.5 23q222 0 375 -115
q64 -46 115 -113q61 -82 107 -211t46 -303zM1180 698q0 226 -84 369q-31 56 -82 100q-115 109 -275 105q-134 -6 -231 -82q-197 -155 -197 -502q0 -157 51 -280q22 -55 52 -97q18 -27 41.5 -52t64 -56.5t99 -50.5t126.5 -19q178 0 297 131q138 154 138 434z" />
    <glyph glyph-name="one" unicode="1" horiz-adv-x="1449" 
d="M879 0h-203v1100q-82 -37 -154 -49.5t-237 -18.5v139q88 2 149 14.5t131 51.5q45 23 94 74q41 45 66 96h154v-1407z" />
    <glyph glyph-name="two" unicode="2" horiz-adv-x="1449" 
d="M1311 0h-1155v193q24 12 112 54.5t135 67.5q148 79 297 170q81 51 127 84q44 31 75 56t65 60t55 69.5t35 79.5t14 94q0 154 -106 243t-263 89q-25 0 -54 -3.5t-75.5 -15t-92 -40t-77.5 -71.5q-23 -30 -37 -62.5t-21 -71.5t-9 -65.5t-4 -74.5l-199 31q9 98 17 135
q33 169 178 283q161 125 383 125q208 0 356 -103q96 -66 152.5 -172.5t56.5 -222.5q0 -175 -115 -316q-40 -48 -94 -94t-121.5 -88t-118.5 -70.5t-126 -68.5q-5 -2 -8 -3.5t-7 -4t-8 -4.5q-53 -30 -115 -60l-168 -71q39 4 113 12q62 4 92 4h711v-168z" />
    <glyph glyph-name="three" unicode="3" horiz-adv-x="1449" 
d="M1327 399q0 -165 -121 -278q-160 -150 -475 -150q-70 0 -156 11q-104 14 -178 39t-141 81q-55 46 -88 101q-38 58 -72 178l193 45q15 -76 45 -127q100 -162 401 -162q102 1 178 23.5t119.5 62t64 87t19.5 102.5q0 96 -61 163q-56 60 -166.5 74.5t-327.5 9.5l-2 154
q142 -4 242 4q73 7 123.5 24t89.5 58q47 53 47 125t-43 133q-85 121 -301 121q-125 0 -209 -43t-123 -100q-36 -52 -45 -131l-188 34q22 90 43 133q127 265 518 265q233 0 385 -93q54 -33 90.5 -76t53 -86.5t22.5 -76.5t6 -64q0 -21 -3.5 -44.5t-13.5 -58.5t-35 -70t-61 -62
q-39 -27 -100 -47q23 -8 76 -35q196 -109 194 -324z" />
    <glyph glyph-name="four" unicode="4" horiz-adv-x="1449" 
d="M1341 340h-241v-340h-193v340h-819v162l850 907h160v-907h243v-162zM913 1157q-63 -77 -106 -125l-498 -530h598v469q0 3 6 186z" />
    <glyph glyph-name="five" unicode="5" horiz-adv-x="1449" 
d="M1346 514q0 -36 -5.5 -73.5t-21 -92t-52.5 -111.5t-91 -104q-185 -162 -463 -162q-98 1 -185 21t-150 52.5t-106 65.5t-73 68q-67 77 -103 189l193 41q43 -95 92 -144q51 -51 137.5 -90t208.5 -39q112 0 201 37q98 43 155.5 131.5t57.5 196.5q0 141 -90 231
q-37 36 -86 61t-96 35t-76.5 13.5t-51.5 3.5q-115 0 -221.5 -46t-171.5 -132q-21 -27 -35 -56l-157 31l41 768h1081l-10 -174h-918l-22 -375q51 42 90 64q149 84 348 84q25 0 54 -2.5t80 -9.5t100.5 -25t102 -44.5t100.5 -72.5t81 -104q62 -105 62 -236z" />
    <glyph glyph-name="six" unicode="6" horiz-adv-x="1449" 
d="M1391 469q0 -132 -64 -244q-24 -42 -74 -92q-70 -69 -149 -106t-182 -52q-55 -8 -127 -8q-221 0 -379 103q-90 58 -150 141q-133 183 -133 481q0 121 25 223q63 288 303 426q161 95 366 95q67 0 125 -13q55 -9 135 -40t154 -87q25 -20 41 -34t42 -43.5t54 -67.5l-190 -72
q-2 2 -12 15.5t-22.5 28.5t-27.5 30q-123 117 -315 117q-29 0 -63.5 -5t-86.5 -18.5t-106.5 -46t-97.5 -80.5q-53 -58 -87.5 -139.5t-45.5 -165.5q-9 -71 -9 -139q25 58 62 100q60 67 170.5 117t265.5 49q252 0 414 -127q164 -131 164 -346zM1196 457q0 68 -26 124t-69 93
t-100 61.5t-116.5 34.5t-120.5 8q-135 -4 -221.5 -55.5t-124.5 -116.5q-41 -70 -41 -149q0 -88 47 -160q29 -46 77.5 -79t91 -48.5t95 -24t74 -9.5t43.5 -1q172 0 274 78q48 36 76.5 90.5t34.5 89t6 64.5z" />
    <glyph glyph-name="seven" unicode="7" horiz-adv-x="1449" 
d="M1286 1409l-2 -133q-80 -73 -145 -152q-78 -94 -144 -204t-105.5 -196t-71.5 -178.5t-43.5 -136t-20.5 -83.5q-31 -135 -52 -326h-223q11 80 18.5 125t29 144t58 204.5t87.5 216.5q96 192 174 303q63 91 198 242h-880v174h1122z" />
    <glyph glyph-name="eight" unicode="8" horiz-adv-x="1449" 
d="M1339 391q0 -105 -47 -188q-48 -83 -147 -144q-159 -92 -434 -92q-311 0 -473 139q-134 116 -134 285q0 188 156 291q16 10 34 18.5t35 15t29.5 10.5t25.5 8t15 5q-46 13 -88 35q-78 43 -118.5 113t-40.5 160q0 120 71 210q138 179 508 179q37 0 107 -4q243 -19 364 -156
q84 -89 84 -223q0 -116 -61 -195q-24 -32 -60 -56.5t-61.5 -35.5t-75.5 -29q98 -23 143 -49q79 -45 123.5 -124.5t44.5 -172.5zM1081 1038q0 68 -30 115q-82 133 -359 125l-22 -2q-22 -1 -47.5 -4t-57 -9t-63.5 -18t-56 -28q-37 -21 -61 -66q-29 -48 -29 -109
q0 -111 91 -173t278 -62q178 0 267 63.5t89 167.5zM1137 389q0 80 -50 146q-33 42 -85.5 68.5t-107.5 34.5t-115 11.5t-107 -0.5q-239 -4 -322 -117q-43 -55 -43 -133q0 -112 84 -178q66 -51 150 -67.5t196 -16.5q175 0 267 49q18 9 36.5 23t42.5 38.5t39 61.5t15 80z" />
    <glyph glyph-name="nine" unicode="9" horiz-adv-x="1449" 
d="M1341 733q0 -307 -127 -495q-52 -76 -129 -134q-176 -137 -428 -137q-90 0 -171 18.5t-140 50t-98 60t-70 60.5q-65 70 -102 151l182 74q1 -2 9 -16t18.5 -32.5t19.5 -31.5q124 -170 350 -170q180 2 306.5 98t173.5 269q7 26 11.5 56t6 47.5t3 42t1.5 26.5
q-30 -30 -42.5 -42t-51.5 -39t-86 -50q-149 -74 -322 -74q-141 0 -266 47q-46 13 -102 49q-50 28 -109 92q-104 119 -104 289q0 150 80 262q29 41 73.5 79t109.5 74t158 57.5t199 21.5q181 0 304 -57.5t190 -135.5q153 -173 153 -510zM1118 954q0 86 -41 152
q-42 69 -137.5 119t-239.5 49q-184 0 -301 -86q-123 -89 -123 -242q0 -71 31 -131q27 -53 72.5 -91.5t87 -57t93 -28.5t75.5 -11.5t49 -1.5q182 0 309 92q65 50 94 106q31 61 31 131z" />
    <glyph glyph-name="colon" unicode=":" horiz-adv-x="598" 
d="M449 791h-224v221h224v-221zM451 0h-224v219h224v-219z" />
    <glyph glyph-name="semicolon" unicode=";" horiz-adv-x="598" 
d="M451 795h-224v223h224v-223zM451 -39q0 -89 -28.5 -144t-107.5 -79q-15 -4 -44 -7t-44 -7v112q53 6 72.5 27.5t19.5 73.5v63h-92v221h224v-260z" />
    <glyph glyph-name="less" unicode="&#x3c;" horiz-adv-x="1581" 
d="M1317 47l-1110 467v199l1110 479v-199l-887 -372l887 -367v-207z" />
    <glyph glyph-name="equal" unicode="=" horiz-adv-x="1581" 
d="M1389 721h-1196v176h1196v-176zM1389 307h-1196v176h1196v-176z" />
    <glyph glyph-name="greater" unicode="&#x3e;" horiz-adv-x="1581" 
d="M1374 526l-1108 -479l-2 197l889 372l-887 369v205l1108 -465v-199z" />
    <glyph glyph-name="question" unicode="?" horiz-adv-x="1366" 
d="M1303 1032q0 -92 -43 -166q-14 -24 -33.5 -46.5t-36 -38.5t-45 -34t-45 -27.5t-52 -25.5t-48.5 -21.5t-52 -21.5q-81 -33 -124 -56.5t-66 -49.5q-7 -8 -12.5 -16t-9.5 -19t-7 -18.5t-5 -21t-3 -19.5t-1.5 -21.5t-0.5 -19.5v-21v-18h-152v78q0 75 8 114q9 40 28 70.5
t51.5 53t57 34.5t70.5 31q15 7 45 19.5t48 20.5t43 20t45 24q131 77 131 211q0 72 -39 131q-48 72 -139 109.5t-187 37.5q-111 0 -207.5 -47t-152.5 -137q-34 -57 -58 -144l-180 35l5 18q5 18 7 24t8 25.5t11 30.5t13 30.5t16.5 34t19 33t23.5 35.5t28 33q105 118 283 162
q89 23 194 23q32 0 62.5 -2t90 -13t110 -30.5t109.5 -60t103 -95.5q89 -113 89 -248zM745 0h-206v207h206v-207z" />
    <glyph glyph-name="at" unicode="@" horiz-adv-x="1861" 
d="M1780 852q0 -176 -74.5 -341t-196.5 -266.5t-252 -101.5q-88 0 -135.5 45t-48.5 131q-65 -72 -121 -110q-94 -64 -202 -64q-135 0 -213 90.5t-78 247.5q0 111 39 217.5t103.5 184.5t152.5 126t180 48q89 0 155 -44t103 -128l33 127h153l-96 -396q-43 -173 -43 -245
q0 -57 16 -82t52 -25q42 0 92 33q112 73 186 235t74 330q0 220 -159.5 353t-422.5 133q-176 0 -336 -67.5t-275.5 -181.5t-184 -272t-68.5 -331q0 -187 91.5 -333t256.5 -226t377 -80q189 0 369 67q106 39 181.5 85t199.5 147l73 -84q-129 -108 -208.5 -157t-196.5 -93
q-206 -78 -414 -78q-250 0 -444.5 93.5t-302 262.5t-107.5 387q0 199 78.5 378.5t211 309t316.5 205.5t387 76q315 0 507 -166t192 -440zM1135 711v20q0 91 -51 145t-134 54q-81 0 -154 -61.5t-117 -164.5t-44 -219q0 -97 48 -153t130 -56q80 0 155 62t121 163.5t46 209.5z
" />
    <glyph glyph-name="A" unicode="A" horiz-adv-x="1705" 
d="M1708 0h-238l-176 356h-888l-177 -356h-231l750 1446h219zM1206 522l-354 717l-360 -717h714z" />
    <glyph glyph-name="B" unicode="B" horiz-adv-x="1835" 
d="M1716 403q0 -122 -61 -215q-26 -39 -60.5 -69t-68 -49.5t-80.5 -33.5t-82.5 -21t-89 -10.5t-85.5 -4t-87 -0.5h-928v1446h928q71 0 108 -2q248 -15 357 -144q78 -96 78 -229q0 -57 -14 -105t-38 -80t-46 -51.5t-46 -33.5l-59 -27q30 -10 48 -16.5t55.5 -30t68.5 -55.5
q102 -102 102 -269zM1432 1057q0 117 -97 178q-34 21 -78 31.5t-73.5 12t-83.5 1.5h-719v-444h756q46 0 73 2t65.5 10t67 27.5t50.5 50.5q39 56 39 131zM1501 422q0 84 -41 141q-47 67 -119 87t-178 20h-782v-502h782q98 0 169.5 20t121.5 82q49 68 47 152z" />
    <glyph glyph-name="C" unicode="C" horiz-adv-x="1878" 
d="M1817 395q-53 -95 -103 -155q-48 -57 -111.5 -102.5t-122.5 -73.5t-129.5 -48.5t-122 -30.5t-111 -15.5t-85 -6t-55.5 -0.5q-331 0 -557 146q-55 37 -98 75q-68 68 -107 131q-115 176 -115 418q0 254 127 430q32 50 105 115q82 69 168 113q65 33 141.5 54.5t147 30
t110.5 11t74 2.5q41 0 88 -3.5t128 -15t168.5 -41t160.5 -73.5q80 -50 149 -121q68 -72 119 -166l-219 -47q-15 29 -39 63q-53 72 -129 119q-65 41 -172.5 73t-245.5 32q-278 0 -449 -121q-33 -21 -81 -74q-134 -144 -134 -379q0 -215 115 -364q132 -172 404 -217
q77 -11 165 -11q348 0 519 187q39 41 79 110z" />
    <glyph glyph-name="D" unicode="D" horiz-adv-x="1792" 
d="M1686 733q0 -163 -62.5 -312t-181.5 -249q-57 -48 -126 -81.5t-130 -51t-145 -26.5t-141.5 -11t-147.5 -2h-578v1446h719q80 0 121 -2q208 -6 375 -115q148 -97 222.5 -253t74.5 -343zM1477 741q-2 187 -95 327.5t-266 186.5q-82 21 -223 21h-512v-1102h422q38 0 112 4
q243 8 388 135q57 51 95.5 116t53.5 129t20 104.5t5 78.5z" />
    <glyph glyph-name="E" unicode="E" horiz-adv-x="1622" 
d="M1561 0h-1387v1446h1333v-178h-1128v-430h1100v-172h-1100v-488h1182v-178z" />
    <glyph glyph-name="F" unicode="F" horiz-adv-x="1536" 
d="M1460 1268h-1083v-463h1042v-170h-1042v-635h-203v1446h1286v-178z" />
    <glyph glyph-name="G" unicode="G" horiz-adv-x="1878" 
d="M1737 0h-178v199q-51 -51 -97 -84q-81 -56 -219.5 -102t-314.5 -46q-111 0 -212 22.5t-172.5 55.5t-134 79t-100 84.5t-67.5 80.5q-142 191 -142 438q0 224 119 403q45 67 94 113q43 41 97.5 77t135 75.5t189.5 62.5t230 23q264 0 483 -113q119 -60 194 -145
q28 -30 44 -51.5t43 -71.5l-201 -62l-11 16q-11 17 -17.5 25.5t-20.5 25t-29 30.5q-32 28 -70.5 54t-97 54t-137.5 45t-166 17q-146 0 -277 -45q-179 -62 -281 -199.5t-102 -325.5q0 -99 35 -201t97 -176q48 -59 113 -102t121.5 -64.5t120.5 -34.5t99 -15.5t68 -2.5
q160 0 308 68.5t226 195.5q27 46 38 85.5t20 101.5h-637v172h809v-762z" />
    <glyph glyph-name="H" unicode="H" horiz-adv-x="1878" 
d="M1696 0h-207v684h-1108v-684h-209v1446h207v-590h1108v590h209v-1446z" />
    <glyph glyph-name="I" unicode="I" horiz-adv-x="555" 
d="M381 0h-209v1446h209v-1446z" />
    <glyph glyph-name="J" unicode="J" horiz-adv-x="1449" 
d="M1272 492v-17v-27t-0.5 -31.5t-3 -39t-6 -40t-9.5 -43t-14 -40.5q-32 -76 -95.5 -133.5t-142 -90.5t-159.5 -49t-162 -16q-95 0 -205 23q-61 13 -114.5 35t-91 45.5t-70.5 57t-53 59.5t-39.5 63t-28 57t-21.5 53l209 39q59 -130 148 -188q98 -62 248 -62q177 0 284 66
q63 45 92 104q29 65 29 181v948h205v-954z" />
    <glyph glyph-name="K" unicode="K" horiz-adv-x="1705" 
d="M1749 0h-274l-654 778l-448 -329v-449h-199v1446h203v-770l1042 770h301l-731 -545z" />
    <glyph glyph-name="L" unicode="L" horiz-adv-x="1323" 
d="M1339 0h-1165v1446h205v-1270h960v-176z" />
    <glyph glyph-name="M" unicode="M" horiz-adv-x="2048" 
d="M1913 0h-195l11 1241l-592 -1241h-193l-590 1241l11 -1241h-193v1446h283l589 -1225l590 1225h279v-1446z" />
    <glyph glyph-name="N" unicode="N" horiz-adv-x="1878" 
d="M1698 0h-201l-1132 1196l4 -1196h-197v1446h211l1124 -1194l-6 1194h197v-1446z" />
    <glyph glyph-name="O" unicode="O" horiz-adv-x="1961" 
d="M1855 702q0 -44 -5.5 -89.5t-22 -116.5t-57.5 -146t-103 -139q-42 -44 -100 -84t-141.5 -79.5t-198.5 -63t-244 -23.5q-102 0 -221 19q-42 6 -81 14.5t-109 33t-129 58t-125.5 94t-114.5 137.5q-105 171 -105 390q0 275 146 460q37 49 104 105q250 209 623 209
q249 0 448 -92q196 -91 310 -254q126 -182 126 -433zM1649 723q0 136 -54 252q-32 69 -81.5 123.5t-100.5 88.5t-113.5 58.5t-112 36t-105 17.5t-82.5 6.5t-54 -0.5q-38 -1 -81.5 -7t-119.5 -22.5t-153 -57t-135 -98.5q-83 -83 -121 -194q-33 -95 -33 -211q0 -199 105 -342
q43 -59 114 -109q178 -125 465 -125q135 0 244 29q155 40 259 141t140 252q19 92 19 162z" />
    <glyph glyph-name="P" unicode="P" horiz-adv-x="1662" 
d="M1634 1004q0 -30 -4.5 -62t-17.5 -81t-46.5 -97.5t-82.5 -85.5q-45 -34 -93 -55.5t-105.5 -30t-99 -10.5t-112.5 -2h-694v-580h-209v1446h885q36 0 110 -4q3 0 11 -1q28 -2 47.5 -5t58.5 -10t71.5 -20t71 -32.5t73.5 -51t63 -71.5q73 -107 73 -247zM1411 1016
q0 92 -51 155q-29 36 -68 58.5t-90.5 31.5t-86 11t-93.5 2h-645v-522h667q72 0 117 4t103 27.5t94 68.5q53 62 53 164z" />
    <glyph glyph-name="Q" unicode="Q" horiz-adv-x="2004" 
d="M1942 18l-105 -149l-340 190q-87 -35 -106 -41q-173 -55 -394 -55q-41 0 -80.5 2t-118 13.5t-148 31t-154 61t-152.5 97.5q-65 54 -123 135q-121 177 -121 397q0 230 111 406q49 76 127 147q258 228 668 228q301 0 522 -129q95 -51 186 -150q184 -199 184 -479
q0 -249 -137 -432q-40 -52 -102 -111zM1692 717q0 269 -185 428q-196 169 -532 162q-27 -1 -49 -2.5t-73.5 -7.5t-98.5 -19.5t-103 -34t-108.5 -55t-93.5 -78.5q-75 -80 -111 -190q-31 -96 -31 -203q0 -84 21 -162q46 -191 215 -301q184 -119 461 -119q312 0 487 139
q41 33 86 86q115 151 115 357z" />
    <glyph glyph-name="R" unicode="R" horiz-adv-x="1835" 
d="M1835 0h-268l-490 580h-698v-580h-207v1446h985q141 0 229 -23q145 -38 225.5 -144.5t80.5 -256.5q0 -30 -3 -60t-17 -77.5t-37.5 -87t-69 -80t-107.5 -66.5q-68 -26 -158 -39zM1479 1014q0 79 -37 141q-42 74 -105.5 96.5t-165.5 22.5h-794v-524h715q56 0 92.5 2.5
t85.5 12t88 32.5t67 59q54 68 54 158z" />
    <glyph glyph-name="S" unicode="S" horiz-adv-x="1662" 
d="M1563 436q0 -141 -74 -241q-36 -51 -89.5 -91t-99.5 -61t-102 -36.5t-81.5 -19.5t-53.5 -7q-124 -15 -209 -15q-203 0 -373 43q-84 20 -155 51q-75 33 -152 88q-13 10 -24.5 19.5t-21.5 19.5t-18 17.5t-17 18t-14 16t-12.5 16l-10 14t-9.5 14t-8 11.5l190 78
q20 -24 31 -35q74 -74 199 -125q171 -70 409 -70q262 0 394 99q56 43 77 96.5t21 97.5q0 62 -32.5 107.5t-90.5 70.5q-25 11 -65.5 21t-76 16t-92.5 13t-85.5 9.5t-86.5 7t-65 5.5q-236 20 -340.5 43.5t-177.5 91.5q-103 95 -103 242q0 58 15.5 109t37 84.5t52 63t52 44
t44.5 27.5q172 94 477 94q353 0 563 -137q36 -23 66 -50q16 -13 33 -30.5t27 -30.5t21 -26.5t13 -16.5l-188 -76q-47 47 -88 76q-176 121 -445 121q-190 0 -315 -47q-85 -32 -122.5 -86t-37.5 -109q0 -48 25 -90q23 -36 64 -58t75 -28.5t86 -12.5h3.5t4 -0.5t4.5 -0.5
q87 -11 248.5 -25t231.5 -22q159 -19 249 -60t146 -110q76 -97 76 -228z" />
    <glyph glyph-name="T" unicode="T" horiz-adv-x="1449" 
d="M1415 1274h-592v-1274h-205v1274h-589v172h1386v-172z" />
    <glyph glyph-name="U" unicode="U" horiz-adv-x="1835" 
d="M1655 575q0 -88 -7.5 -148t-33.5 -122q-33 -79 -91 -140t-126.5 -98t-153 -61t-162.5 -32.5t-163 -8.5q-337 0 -539 141q-95 65 -146 160q-39 72 -50 147t-11 183v850h207v-858q0 -89 8 -135q7 -47 22 -83.5t37 -61.5t38.5 -38.5t41.5 -29.5q155 -97 394 -97q26 0 59 2.5
t100 10.5t134.5 31.5t115.5 58.5q60 45 86 104q15 32 23 70.5t9 64.5t1 76v885h207v-871z" />
    <glyph glyph-name="V" unicode="V" horiz-adv-x="1579" 
d="M1581 1446l-682 -1446h-207l-694 1446h227l574 -1219l557 1219h225z" />
    <glyph glyph-name="W" unicode="W" horiz-adv-x="2260" 
d="M2257 1446l-477 -1446h-228l-426 1184l-428 -1184h-233l-471 1446h219l377 -1219l446 1219h183l444 -1213l377 1213h217z" />
    <glyph glyph-name="X" unicode="X" horiz-adv-x="1748" 
d="M1749 0h-289l-594 633l-590 -633h-280l739 766l-649 680h283l499 -547l506 547h281l-662 -678z" />
    <glyph glyph-name="Y" unicode="Y" horiz-adv-x="1662" 
d="M1661 1446l-733 -887v-559h-203v563l-721 883h264l559 -709l572 709h262z" />
    <glyph glyph-name="Z" unicode="Z" horiz-adv-x="1579" 
d="M1505 0h-1444v172l1133 1098h-1047v176h1338v-170l-1135 -1096h1155v-180z" />
    <glyph glyph-name="bracketleft" unicode="[" horiz-adv-x="768" 
d="M698 1411h-249v-1569h245v-155h-448v1880h452v-156z" />
    <glyph glyph-name="backslash" unicode="\" horiz-adv-x="854" 
d="M842 0h-185l-634 1446h180z" />
    <glyph glyph-name="bracketright" unicode="]" horiz-adv-x="768" 
d="M522 -313h-452v155h249v1569h-245v156h448v-1880z" />
    <glyph glyph-name="asciicircum" unicode="^" horiz-adv-x="1581" 
d="M1319 586h-215l-309 647l-318 -647h-215l438 860h201z" />
    <glyph glyph-name="underscore" unicode="_" horiz-adv-x="1024" 
d="M1044 -438h-1064v153h1064v-153z" />
    <glyph glyph-name="grave" unicode="`" horiz-adv-x="768" 
d="M582 1128h-133l-263 281h256z" />
    <glyph glyph-name="a" unicode="a" horiz-adv-x="1409" 
d="M1395 0q-143 -10 -172 -10q-49 0 -84.5 11.5t-54.5 26.5t-31.5 41t-16 44t-6.5 47q-22 -37 -47 -60q-59 -58 -168 -97.5t-262 -39.5q-51 0 -141 10q-164 26 -254 127q-78 90 -78 207q0 60 19 110t50 81t56 48.5t51 28.5q66 29 171.5 37.5t315.5 10.5l285 2v54t-4.5 46.5
t-13 50t-26 37.5t-44.5 35q-77 41 -244 41q-218 0 -309 -72q-23 -18 -45 -59l-197 18q3 12 16 43t29 55q45 68 129 103q130 53 367 53q162 0 285 -31q132 -29 190 -108q23 -31 34.5 -69t13 -64t1.5 -76v-365q0 -99 9 -129q19 -59 104 -59q17 0 72 6v-135zM1030 473h-366
q-127 0 -194.5 -6.5t-111.5 -28.5q-28 -12 -56 -44.5t-28 -84.5q0 -81 74.5 -138.5t214.5 -57.5q57 0 129 12q26 4 55 11.5t78.5 26.5t94.5 57t73 89q9 17 15.5 35t10 32t6 31t3 26t1.5 23t1 17z" />
    <glyph glyph-name="b" unicode="b" 
d="M1399 502q0 -26 -3.5 -56.5t-13 -77.5t-33.5 -98t-59 -94q-31 -38 -71.5 -70.5t-100.5 -64t-144.5 -50t-182.5 -18.5q-190 0 -326 66q-67 32 -111 74v-113h-194v1446h194v-563q50 47 119 78q137 67 315 67q111 0 203 -27q190 -53 299 -180.5t109 -318.5zM1198 498
q0 24 -4 51t-15 66t-37.5 79.5t-64.5 73.5q-50 44 -134 76.5t-200 27.5q-93 -3 -184 -43q-56 -24 -97.5 -60t-63.5 -71.5t-35.5 -77t-17 -70.5t-3.5 -58q0 -84 33 -152q26 -57 74.5 -98.5t94.5 -61t101.5 -31t82 -13t50.5 -1.5q157 0 262 68q24 16 46.5 37.5t50 57.5
t44.5 88t17 112z" />
    <glyph glyph-name="c" unicode="c" horiz-adv-x="1409" 
d="M1356 266q-44 -68 -47 -73q-28 -39 -73 -75.5t-72 -52.5t-48 -26q-162 -74 -368 -74q-376 0 -545 201q-115 136 -115 340q0 158 84 276q2 2 12.5 15.5t22.5 28t26 28.5q75 72 205 123t316 51q240 0 397 -98q63 -35 117 -94q34 -38 78 -111l-187 -53q-31 52 -61 82
q-41 40 -95.5 67t-107.5 37t-83.5 13t-57.5 3q-175 0 -303 -86q-50 -34 -83.5 -77t-48 -86.5t-19.5 -74.5t-5 -61q0 -99 49 -180q48 -75 151.5 -131.5t260.5 -56.5q24 0 53.5 2.5t81 11.5t106 32t97.5 58q16 14 30.5 30t20.5 24.5t24 35.5z" />
    <glyph glyph-name="d" unicode="d" 
d="M1329 0h-194l-2 131q-37 -33 -66 -51q-60 -39 -157 -68.5t-224 -29.5q-233 0 -387 114q-31 22 -61.5 53.5t-66 82t-57.5 123t-22 153.5q0 34 5 70t20 87.5t50 106t87 100.5q68 59 178.5 105.5t259.5 46.5q198 0 350 -82q54 -29 93 -59v563h194v-1446zM1145 510
q0 157 -103 250q-120 108 -342 108q-101 0 -188 -37q-70 -30 -117.5 -77t-67 -99t-26 -89t-6.5 -74q0 -103 45 -175q42 -70 134.5 -123t236.5 -53q110 0 213 37.5t159 114.5q62 85 62 217z" />
    <glyph glyph-name="e" unicode="e" horiz-adv-x="1409" 
d="M1317 477h-1026q12 -80 33 -130.5t71 -98.5t134 -85.5t200 -37.5q204 0 320 125q27 29 61 92l186 -51q-21 -47 -51 -90q-29 -42 -73 -79t-72 -54t-51 -27q-147 -72 -347 -72q-98 0 -188 21.5t-167 65.5t-134 107t-89.5 151.5t-33.5 193.5q0 93 35 186q24 63 61.5 115
t82 85.5t86.5 57.5t88.5 38.5t74 21t55.5 10.5q58 10 125 10q47 0 94.5 -6t123 -25.5t151 -68.5t133.5 -123q97 -121 113 -256q4 -27 4 -76zM1098 623q-29 80 -65 123t-83 75q-53 33 -106 49q-57 17 -133 17q-119 0 -216.5 -46.5t-158.5 -142.5q-24 -37 -39 -75h801z" />
    <glyph glyph-name="f" unicode="f" horiz-adv-x="641" 
d="M645 1444l-2 -174q-54 18 -119 18q-123 0 -149 -82q-8 -25 -8 -69v-138h274v-133h-274v-866h-193v868h-162v131h164v111q0 102 17 162q54 186 294 186q67 0 158 -14z" />
    <glyph glyph-name="g" unicode="g" 
d="M1329 57l1 -21q0 -20 -0.5 -37t-2 -42.5t-6 -51t-12.5 -48.5q-33 -110 -135 -174q-169 -111 -474 -111q-210 0 -346 55q-43 14 -84 43q-29 19 -61 54q-65 77 -74 213l205 8q2 -48 13 -76.5t46 -56.5q99 -76 324 -76q54 0 105.5 6t109.5 20.5t104.5 46t71.5 76.5
q14 24 20.5 53.5t7.5 49.5t1 57v115q-59 -48 -96 -70q-160 -100 -377 -100q-29 0 -62.5 2.5t-94 15t-114.5 33.5t-114.5 64t-102.5 100q-92 124 -92 293q0 101 33 192q25 66 66 119.5t85 86.5t99 58t99 36.5t94 18.5t75 8t51 1q213 0 371 -84q3 -2 80 -53v118h186v-942z
M1139 512q0 82 -39 156q-54 99 -164.5 147t-235.5 45q-82 -2 -154.5 -25.5t-129.5 -67t-90 -112.5t-33 -155q0 -74 24 -129q18 -44 47 -79t60 -57t69 -38.5t68 -24.5t64.5 -12.5t50.5 -5t33 -0.5q157 0 266 69q164 108 164 289z" />
    <glyph glyph-name="h" unicode="h" 
d="M1327 0h-194v512q0 122 -27 186q-38 86 -132.5 127t-201.5 41q-164 0 -283 -78q-55 -36 -96 -83q-24 -30 -41 -58v-647h-194v1446h196v-555q35 27 58 41q155 98 391 98q108 0 196 -23.5t145.5 -63.5t93.5 -84t56 -93q33 -77 33 -219v-547z" />
    <glyph glyph-name="i" unicode="i" horiz-adv-x="512" 
d="M348 1167h-192v197h192v-197zM352 0h-194v999h194v-999z" />
    <glyph glyph-name="j" unicode="j" horiz-adv-x="512" 
d="M352 1165h-194v197h194v-197zM352 -49q0 -111 -12 -160q-53 -207 -320 -207q-61 2 -172 23v182q85 -29 144 -29q16 0 32 2.5t43.5 10.5t49.5 30.5t33 55.5q10 30 10 80v1060h192v-1048z" />
    <glyph glyph-name="k" unicode="k" horiz-adv-x="1409" 
d="M1444 0h-287l-524 483l-275 -211v-272h-198v1446h198v-965l629 518h301l-502 -393z" />
    <glyph glyph-name="l" unicode="l" horiz-adv-x="512" 
d="M350 0h-192v1446h192v-1446z" />
    <glyph glyph-name="m" unicode="m" horiz-adv-x="2390" 
d="M2222 0h-194v506q0 50 -0.5 69.5t-7 58t-19.5 66.5q-29 64 -109.5 111t-208.5 47q-141 0 -237 -53.5t-131 -120.5q-29 -57 -29 -164v-520h-194v514q0 89 -15 148q-13 46 -38.5 82t-58.5 56t-63.5 33t-66.5 18t-53 6t-37 1q-171 0 -299 -96q-48 -35 -78 -86
q-14 -26 -20.5 -56.5t-7.5 -51t-1 -60.5v-508h-196v999h196v-137q29 28 76 64q56 37 151.5 66.5t215.5 29.5q214 0 338 -94q37 -29 84 -88q37 40 79 71q163 113 406 113q100 0 193 -23.5t176.5 -84t119.5 -150.5q17 -43 23 -89.5t6 -137.5v-539z" />
    <glyph glyph-name="n" unicode="n" 
d="M1329 0h-192v528q0 102 -27 164q-31 73 -116.5 121.5t-227.5 48.5q-98 0 -195 -33q-146 -57 -192 -178q-25 -62 -25 -176v-475h-194v999h194v-120q2 2 11.5 10t12.5 10.5t12.5 10t15 11t15.5 10.5t18 11.5t19 10.5t23 11.5t25 10.5q125 53 295 53q183 0 314 -67.5
t181 -182.5q15 -36 23 -80.5t9 -73.5t1 -83v-541z" />
    <glyph glyph-name="o" unicode="o" 
d="M1397 496q0 -146 -70 -258q-30 -48 -76.5 -92t-115.5 -85.5t-169.5 -66.5t-217.5 -25q-149 0 -269 35q-24 7 -50 17t-66 30.5t-74.5 45.5t-72 63.5t-64 83t-43.5 105.5t-17 130q0 152 78 277q46 73 116 126.5t133 79.5t136.5 41.5t111.5 18t74 2.5q212 0 367 -74
q54 -23 102 -63q44 -35 84 -82q103 -124 103 -309zM1202 500q0 95 -47 174q-28 46 -67.5 81t-85 54.5t-84 32t-83.5 16.5t-62 5t-40 1q-202 -3 -323 -108q-121 -102 -121 -264q0 -107 59 -189q52 -71 154 -121.5t256 -50.5q158 0 280 78q25 16 47.5 36t52 55.5t47 87.5
t17.5 112z" />
    <glyph glyph-name="p" unicode="p" 
d="M1395 508q0 -185 -105 -322q-29 -36 -66 -68t-93 -64.5t-136 -52t-172 -19.5q-143 0 -251.5 33.5t-170.5 78.5q-12 8 -49 45v-538h-194v1398h194v-106q22 22 99 63q136 68 333 68q94 0 178 -19t144 -50t101.5 -62t70.5 -64q29 -34 61 -88q56 -103 56 -233zM1184 514
q0 130 -80 221t-211 123q-62 12 -129 12q-184 0 -299 -94q-123 -100 -123 -282q0 -109 47 -181q54 -87 161.5 -131.5t221.5 -44.5q89 0 174 31q61 23 107 59.5t70 73.5t38.5 80.5t18.5 73t4 59.5z" />
    <glyph glyph-name="q" unicode="q" 
d="M1327 -403h-192v503q-2 -2 -36 -23.5t-52 -31.5q-143 -76 -342 -76q-244 0 -410 117q-205 141 -205 401q0 126 51.5 229.5t138 169t196.5 101t231 35.5q184 0 335 -80q46 -25 91 -59v116h194v-1402zM1149 502q0 100 -43 176q-19 33 -49.5 64t-77.5 60.5t-115.5 46.5
t-148.5 15q-77 -1 -141.5 -19.5t-108.5 -47.5t-72 -58.5t-47 -62.5q-49 -83 -49 -182q0 -33 7 -71t35 -96t75 -100q120 -106 317 -106q180 0 299 101t119 280z" />
    <glyph glyph-name="r" unicode="r" horiz-adv-x="854" 
d="M854 821q-85 23 -154 23q-265 0 -329 -174q-17 -52 -17 -129v-541h-194v999h192l2 -112q31 31 56 47q52 36 137.5 65t191.5 29q48 0 115 -16v-191z" />
    <glyph glyph-name="s" unicode="s" horiz-adv-x="1366" 
d="M1272 301q0 -78 -33 -137q-28 -50 -76 -87.5t-106 -58t-110 -33.5t-107.5 -17t-77.5 -4.5t-42 -0.5h-1q-40 0 -76.5 1.5t-124.5 12.5t-162.5 31t-164 62.5t-154.5 101.5l168 111q55 -44 102 -70q166 -86 402 -86q22 0 55.5 1.5t106.5 13.5t114 34q80 43 80 113
q0 59 -64 92q-40 21 -108 31t-200.5 19t-211.5 18q-174 20 -256 79q-94 69 -94 193q0 81 43 144.5t117 101.5q137 71 395 71q271 0 459 -100q81 -44 123 -86l-170 -94q-168 116 -426 116q-203 0 -283 -59q-43 -34 -43 -78q0 -51 49 -78q20 -12 52 -20.5t85.5 -15t92.5 -10
t119 -10t120 -9.5q116 -9 180 -24.5t111 -45.5q57 -38 87 -96t30 -127z" />
    <glyph glyph-name="t" unicode="t" horiz-adv-x="681" 
d="M659 866h-284v-534q0 -43 4 -78q5 -46 34 -71t101 -25q27 0 56.5 3t56.5 7t28 4l-2 -172q-110 -14 -192 -14q-154 0 -219 63q-36 36 -47 82.5t-11 144.5v590h-170v133h174v347h193v-347h278v-133z" />
    <glyph glyph-name="u" unicode="u" 
d="M1323 0h-190l-3 125q-47 -42 -102 -76q-138 -84 -336 -84q-89 0 -188 23q-20 4 -41.5 9.5t-62.5 22t-75.5 38t-71.5 59t-58 82.5q-19 39 -28.5 92t-11 88t-1.5 96v524h192v-503q0 -129 27 -197q20 -47 62.5 -80.5t82 -48.5t91 -23.5t69 -9t37.5 -0.5q144 0 244 53.5
t139 120.5q15 25 21.5 54.5t7.5 47.5t1 58v528h195v-999z" />
    <glyph glyph-name="v" unicode="v" horiz-adv-x="1236" 
d="M1235 999l-516 -999h-217l-504 999h215l397 -802l404 802h221z" />
    <glyph glyph-name="w" unicode="w" horiz-adv-x="1835" 
d="M1827 999l-406 -999h-221l-307 809l-291 -809h-221l-383 999h211l283 -800l280 800h242l297 -806l305 806h211z" />
    <glyph glyph-name="x" unicode="x" horiz-adv-x="1280" 
d="M1286 0h-276l-363 403l-379 -403h-272l512 526l-455 473h271l319 -350l326 350h262l-453 -471z" />
    <glyph glyph-name="y" unicode="y" horiz-adv-x="1236" 
d="M1235 1001l-565 -1097q-25 -48 -43.5 -78.5t-51 -67.5t-69 -57.5t-92.5 -35t-125 -13.5q-103 2 -228 24v177q137 -31 205 -31q88 0 138.5 37.5t103.5 134.5l-508 1007h221l391 -806l406 806h217z" />
    <glyph glyph-name="z" unicode="z" horiz-adv-x="1236" 
d="M1188 0h-1139v162l825 676l-761 -2v163h1036v-151l-823 -678l862 2v-172z" />
    <glyph glyph-name="braceleft" unicode="{" horiz-adv-x="704" 
d="M645 -317h-133q-158 0 -227 75q-33 33 -45 80q-10 38 -13.5 68t-3.5 102v338q0 64 -4.5 89t-19.5 52q-21 33 -55.5 46.5t-112.5 17.5v151q89 5 129 27q23 12 39 37q15 25 20.5 52.5t5.5 88.5v338q0 116 15 170q41 158 272 158h133v-141l-74 -2q-82 -3 -110 -31
q-20 -24 -25 -45q-8 -24 -8 -56v-399q0 -102 -31 -162q-13 -30 -47 -57q-33 -28 -108 -51q72 -27 108 -56q40 -31 58 -81.5t18 -135.5v-401q0 -25 10 -55q12 -40 43.5 -58t91.5 -18h74v-141z" />
    <glyph glyph-name="bar" unicode="|" horiz-adv-x="468" 
d="M336 -313h-203v1880h203v-1880z" />
    <glyph glyph-name="braceright" unicode="}" horiz-adv-x="704" 
d="M672 551q-89 -5 -129 -27q-23 -12 -39 -37q-15 -26 -21 -53.5t-6 -87.5v-338q0 -120 -14 -170q-41 -157 -273 -157h-133v141l74 2q83 3 111 31q18 22 24 45q8 24 8 55v399q0 102 31 162q13 30 47 57q34 29 109 52q-76 29 -109 55q-40 31 -58 81.5t-18 135.5v401
q0 26 -10 56q-12 40 -43.5 58t-91.5 18h-74v141h133q158 0 228 -76q33 -33 45 -80q16 -60 16 -170v-338q0 -63 5 -88.5t20 -52.5q21 -33 55.5 -46.5t112.5 -17.5v-151z" />
    <glyph glyph-name="asciitilde" unicode="~" 
d="M1239 604q-133 -164 -283 -164q-51 0 -111 22.5t-106 49.5t-103.5 49.5t-105.5 22.5q-28 0 -53.5 -9t-40.5 -17t-38.5 -34t-29.5 -34t-32 -44l-82 146q114 174 270 174q52 0 117.5 -22.5t116.5 -49t108 -49t95 -22.5q99 0 200 127z" />
    <glyph glyph-name="exclamdown" unicode="&#xa1;" horiz-adv-x="598" 
d="M350 1208h-207v207h207v-207zM350 0h-205v606l58 441h88l59 -437v-610z" />
    <glyph glyph-name="cent" unicode="&#xa2;" horiz-adv-x="1409" 
d="M1356 266q-38 -69 -89.5 -120.5t-101 -81.5t-113.5 -51t-114 -29.5t-115 -14.5v-215h-145v213q-129 5 -232 40t-168 87t-108.5 120t-62 135.5t-19.5 137.5q-1 106 32 193.5t89 147.5t133 103t160.5 65t175.5 28v184h145v-182q146 -16 244.5 -54.5t159.5 -96t119 -152.5
l-189 -53q-29 53 -67 90t-85.5 58.5t-87 32t-94.5 19.5v-747l13 1q12 2 31 5.5t44 9.5t53 16t55.5 23t55.5 33t49 43q20 20 43 61zM678 123v747q-89 -13 -158.5 -44t-112 -70.5t-69.5 -87.5t-36.5 -92.5t-8.5 -88.5q2 -58 21 -112.5t60.5 -107.5t119.5 -91.5t184 -52.5z" />
    <glyph glyph-name="sterling" unicode="&#xa3;" 
d="M1448 471q0 -61 -2 -92q-9 -229 -141 -332q-87 -72 -215 -72q-53 0 -102 11t-100 35t-85.5 44t-91.5 56q-5 -4 -24.5 -23t-31.5 -28q-53 -40 -123 -63.5t-110.5 -28.5t-73.5 -5q-151 0 -231 88q-56 62 -56 146q0 60 29 110q28 51 90 87t162 36q77 0 136.5 -16.5
t142.5 -54.5q0 12 -5 69q-5 45 -24 86t-38.5 65.5t-59.5 69.5h-367v140h254q-111 134 -111 270q0 60 15.5 112.5t42 89.5t47.5 59t45 40q153 115 403 115q103 0 190.5 -21t148.5 -57t101 -73t68 -79q11 -17 21 -36t17 -35.5t13 -35.5t9.5 -32t7 -30.5t4.5 -25.5t3.5 -23
t2.5 -17l-197 -45q-6 91 -38.5 157t-102.5 115q-103 72 -252 72q-180 0 -274 -96q-68 -68 -68 -160q0 -79 80 -178q8 -11 26.5 -30t22.5 -24t13.5 -16t13.5 -16h426v-142h-326l9 -17q9 -18 13 -26.5t13.5 -28.5t14.5 -36.5t11 -39t8.5 -46t2.5 -47.5q0 -22 -3 -45.5
t-6 -38.5t-7 -32.5t-5 -20.5q13 -7 36 -21.5t36 -21.5q2 -1 20 -11t21.5 -12t20 -10.5t21.5 -11t19.5 -9t22 -8.5t21 -6.5t23.5 -5.5t23 -2.5t25 -1.5q66 0 109 39q27 23 43.5 55t22.5 75.5t7.5 69.5t1.5 74h191zM571 221q-6 3 -26 15t-31 18q-88 43 -174 43q-30 0 -53 -8
q-66 -22 -66 -78q1 -48 45 -70t96 -22q120 0 209 102z" />
    <glyph glyph-name="currency" unicode="&#xa4;" horiz-adv-x="1443" 
d="M1346 1159l-162 -153q58 -85 81 -154.5t23 -155.5q0 -88 -24.5 -162t-81.5 -151l161 -158l-137 -129l-162 158q-98 -59 -165.5 -79.5t-159.5 -20.5q-93 0 -162 21.5t-156 78.5l-165 -156l-136 129l164 156q-57 79 -80.5 150.5t-23.5 162.5q0 92 24 163t82 147l-164 153
l138 131l161 -153q149 100 324 100q181 0 322 -100l163 155zM1096 692q0 163 -105.5 270t-265.5 107q-158 0 -266.5 -107.5t-108.5 -265.5q0 -161 108.5 -267.5t270.5 -106.5q155 0 261 106.5t106 263.5z" />
    <glyph glyph-name="yen" unicode="&#xa5;" horiz-adv-x="1662" 
d="M1661 1436l-524 -631h311v-150h-436l-84 -102v-18l520 -3v-153h-520v-379h-203v379h-520v151h520v29l-80 96h-440v150h317l-518 631h264l568 -715l563 715h262z" />
    <glyph glyph-name="brokenbar" unicode="&#xa6;" horiz-adv-x="468" 
d="M336 793h-203v774h203v-774zM336 -313h-203v774h203v-774z" />
    <glyph glyph-name="section" unicode="&#xa7;" horiz-adv-x="1622" 
d="M1503 522q0 -118 -58 -203t-165 -151q57 -82 57 -178q0 -82 -37 -146q-119 -206 -493 -206q-181 0 -343 47t-345 141l147 166q117 -77 261.5 -118.5t287.5 -41.5q44 0 87 5.5t93 20t80.5 47t30.5 79.5q0 60 -43.5 92t-114.5 51q-108 30 -129 35q-31 7 -134.5 28
t-158.5 37q-80 22 -110 33q-135 50 -218 140.5t-83 224.5q0 115 63 209t168 157q-76 79 -76 183q0 62 25 112t68.5 83t96.5 57t114.5 37t115.5 18.5t107 5.5q366 0 633 -184l-121 -158q-225 155 -533 155q-42 0 -81.5 -4.5t-89 -16.5t-79.5 -41t-30 -71q0 -35 32 -67
q10 -10 29.5 -20.5t39.5 -19t52 -18.5t54 -16.5t59 -15t52.5 -12.5t49 -11t35.5 -8q72 -14 182 -43q69 -18 126 -40t114 -57t95.5 -78t62.5 -104.5t24 -134.5zM1300 508q0 146 -192 209q-69 23 -287.5 74.5t-328.5 103.5q-168 -105 -168 -242q0 -48 21.5 -87t51 -63
t77.5 -43.5t83.5 -29.5t86.5 -22q15 -3 22 -5q41 -10 151 -32t186 -43.5t144 -53.5q74 49 113.5 103t39.5 131z" />
    <glyph glyph-name="dieresis" unicode="&#xa8;" horiz-adv-x="768" 
d="M754 1165h-201v211h201v-211zM213 1165h-199v211h199v-211z" />
    <glyph glyph-name="copyright" unicode="&#xa9;" horiz-adv-x="1720" 
d="M1589 725q0 -152 -56.5 -287.5t-154 -233t-233 -154t-287.5 -56.5q-198 0 -365.5 97t-264.5 264.5t-97 367.5t97 367.5t265 264.5t369 97q200 0 367 -96.5t263.5 -263.5t96.5 -367zM1509 721q0 136 -50.5 258t-137 209.5t-206.5 138.5t-255 51q-132 0 -252 -52t-207 -140
t-138.5 -210t-51.5 -255t51 -254t137.5 -208.5t207 -139t253.5 -51.5t253 51.5t207 139t138 208.5t51 254zM1292 575q-43 -144 -152.5 -221.5t-271.5 -77.5q-202 0 -327 119.5t-125 313.5q0 201 132.5 329.5t338.5 128.5q152 0 254 -67.5t143 -196.5l-139 -35
q-37 92 -99 134t-159 42q-148 0 -237 -88.5t-89 -236.5q0 -141 86 -228.5t227 -87.5q106 0 180.5 52.5t100.5 146.5z" />
    <glyph glyph-name="ordfeminine" unicode="&#xaa;" horiz-adv-x="980" 
d="M979 729q-90 -10 -117 -10q-32 0 -56 7t-38 16t-25 26.5t-15.5 29.5t-10.5 33q-29 -26 -41 -34q-118 -90 -301 -90h-21t-45.5 4.5t-64.5 12.5t-66 26.5t-63.5 43.5t-43.5 66.5t-18 93.5q0 47 14.5 84.5t38 59.5t52.5 39t58.5 23t56 11t45 3t26.5 0h2h367v26q0 53 -13 76
q-42 72 -225 72q-27 0 -43.5 -0.5t-51 -5.5t-57 -13.5t-45.5 -27.5t-34 -46l-148 15q17 49 31 69q44 66 123.5 92.5t210.5 26.5q274 0 354 -100q37 -44 37 -127v-324v-5v-9t0.5 -9.5t1.5 -11t3 -11t5.5 -10.5t8 -9t11 -8t15 -5t18.5 -2q29 0 64 7v-105zM715 1069
q-24 -4 -37 -4q-31 -4 -92 -4h-146q-54 0 -74 -0.5t-54.5 -4.5t-54 -15t-34.5 -29q-20 -25 -20 -58q0 -63 49 -98t143 -35q55 0 129 18.5t117 53.5q28 25 47 57q27 46 27 119z" />
    <glyph glyph-name="guillemotleft" unicode="&#xab;" horiz-adv-x="1024" 
d="M918 111l-416 325v176l416 324v-129l-263 -285l263 -280v-131zM506 111l-416 325v174l416 326v-133l-262 -281l262 -280v-131z" />
    <glyph glyph-name="logicalnot" unicode="&#xac;" horiz-adv-x="1581" 
d="M1395 14h-203l2 504h-1077v176h1278v-680z" />
    <glyph glyph-name="registered" unicode="&#xae;" horiz-adv-x="1720" 
d="M1589 725q0 -152 -56.5 -287.5t-154 -233t-233 -154t-287.5 -56.5q-198 0 -365.5 97t-264.5 264.5t-97 367.5t97 367.5t265 264.5t369 97q200 0 367 -96.5t263.5 -263.5t96.5 -367zM1511 721q0 136 -51 258t-137.5 209.5t-207 138.5t-255.5 51q-132 0 -252 -52t-207 -140
t-138.5 -210t-51.5 -255t51 -254t137.5 -208.5t207 -139t253.5 -51.5t253.5 51.5t207.5 139t138.5 208.5t51.5 254zM1251 301h-172l-254 358h-139v-358h-143v852h309q126 0 184 -8.5t97 -32.5q92 -58 92 -197q0 -109 -53.5 -165.5t-178.5 -81.5zM1081 909q0 66 -39 97
q-22 15 -51.5 20.5t-101.5 5.5h-201v-250h197q103 0 151 31q45 29 45 96z" />
    <glyph glyph-name="macron" unicode="&#xaf;" horiz-adv-x="768" 
d="M754 1165h-740v156h740v-156z" />
    <glyph glyph-name="degree" unicode="&#xb0;" horiz-adv-x="724" 
d="M692 1217q0 -137 -96.5 -234.5t-233.5 -97.5t-233 97.5t-96 234.5t96.5 233t232.5 96q139 0 234.5 -95.5t95.5 -233.5zM524 1221q0 67 -47 114t-115 47t-114.5 -47t-46.5 -114q0 -66 47.5 -114t113.5 -48q68 0 115 47.5t47 114.5z" />
    <glyph glyph-name="plusminus" unicode="&#xb1;" horiz-adv-x="1581" 
d="M1393 780h-502v-458h-201v458h-502v176h502v451h201v-451h502v-176zM1393 0h-1205v176h1205v-176z" />
    <glyph glyph-name="twosuperior" unicode="&#xb2;" horiz-adv-x="937" 
d="M840 504h-744v139q164 73 317.5 165t196.5 142q64 69 64 152q0 30 -12.5 62.5t-38 63.5t-71.5 51t-106 19q-22 -1 -46 -5t-57.5 -19t-59 -37.5t-44 -64.5t-18.5 -97q0 -5 1 -14t1 -14l-143 20q0 82 24 141q35 90 124.5 148.5t226.5 58.5q77 0 141 -21t104.5 -53.5t68 -75
t39 -83.5t11.5 -80q0 -103 -65 -189q-63 -82 -203.5 -164t-263.5 -133q11 1 27 4t29 5t28 2h469v-123z" />
    <glyph glyph-name="threesuperior" unicode="&#xb3;" horiz-adv-x="937" 
d="M854 764q0 -121 -99 -196.5t-284 -75.5q-62 0 -120.5 9t-130 44.5t-111.5 95.5q-29 41 -50 131l138 33q0 -1 1.5 -12t3.5 -21t7 -24.5t12 -26.5q65 -107 258 -107q141 0 195 68q31 39 31 88q0 51 -25 86q-32 43 -96 54.5t-185 11.5h-43v110h68q101 0 149.5 9.5t79.5 48.5
q21 26 21 67q0 61 -57.5 103.5t-153.5 42.5h-18t-39 -5t-56 -14.5t-52.5 -30.5t-45.5 -51q-19 -37 -19 -86l-137 29q0 4 4 22.5t13.5 46.5t19.5 46q83 153 318 159q108 3 192 -28.5t127 -83.5q53 -66 53 -146q0 -98 -84 -155q-29 -19 -45 -19q77 -22 118.5 -86.5
t41.5 -136.5z" />
    <glyph glyph-name="acute" unicode="&#xb4;" horiz-adv-x="768" 
d="M584 1409l-265 -281h-135l144 281h256z" />
    <glyph glyph-name="mu" unicode="&#xb5;" horiz-adv-x="1519" 
d="M1507 0q-32 -4 -34 -4q-96 -8 -119 -8q-102 0 -150.5 35t-58.5 116q-97 -92 -198 -133t-230 -41q-223 0 -371 111v-475h-192v1398h192v-503q0 -127 23 -189q32 -81 121 -125.5t219 -44.5q99 0 187.5 29t150.5 82q58 52 73 119q8 33 8 92v538h195v-735q0 -72 26 -102.5
t89 -30.5q44 0 69 6v-135z" />
    <glyph glyph-name="paragraph" unicode="&#xb6;" horiz-adv-x="1302" 
d="M1110 1313h-70v-1653h-141v1653h-305v-1653h-143v997q-58 13 -87 25t-65 35q-76 47 -118 131t-42 188q0 182 115 297q62 60 143 86.5t207 26.5h506v-133z" />
    <glyph glyph-name="periodcentered" unicode="&#xb7;" horiz-adv-x="512" 
d="M367 385h-226v223h226v-223z" />
    <glyph glyph-name="cedilla" unicode="&#xb8;" horiz-adv-x="768" 
d="M608 -266q-2 -74 -68 -128.5t-194 -54.5q-32 0 -77.5 5t-73.5 9.5t-35 6.5l37 96q3 0 24 -4.5t46 -8t48 -3.5q51 0 80 14q39 20 39 62q0 25 -20 41q-41 34 -162 24l88 225h117l-51 -129q1 0 13.5 -0.5t22 -2t25.5 -4t30 -7.5t29.5 -12t30 -18.5t25.5 -26.5q26 -36 26 -84
z" />
    <glyph glyph-name="onesuperior" unicode="&#xb9;" horiz-adv-x="937" 
d="M582 504h-144v692q-44 -20 -92 -27.5t-137 -7.5h-19v101q114 3 177.5 38.5t105.5 110.5h109v-907z" />
    <glyph glyph-name="ordmasculine" unicode="&#xba;" horiz-adv-x="1024" 
d="M958 1085q0 -26 -3 -52t-17.5 -69.5t-39 -80.5t-72.5 -75.5t-113 -62.5q-89 -32 -197 -32q-115 0 -205 31.5t-143.5 84t-81 116t-27.5 132.5q0 49 13 99t45 101.5t79.5 91t124 64.5t171.5 25h22q96 0 174 -23.5t127 -61.5t82.5 -88t47 -99.5t13.5 -100.5zM813 1090
q0 44 -17 86t-50.5 79t-93 59.5t-136.5 22.5q-71 0 -135 -20q-85 -28 -129.5 -92t-44.5 -142q0 -96 75.5 -169t223.5 -76q82 -1 144 21.5t96 60.5t50.5 81t16.5 89z" />
    <glyph glyph-name="guillemotright" unicode="&#xbb;" horiz-adv-x="1024" 
d="M930 434l-414 -325v131l262 282l-262 281v133l414 -326v-176zM518 436l-414 -330v132l265 284l-265 281v131l414 -328v-170z" />
    <glyph glyph-name="onequarter" unicode="&#xbc;" horiz-adv-x="2134" 
d="M2075 213h-177v-213h-137v213h-522v117l547 575h112v-571h177v-121zM1556 1372l-884 -1397l-101 62l885 1399zM582 504h-144v692q-44 -20 -92 -27.5t-137 -7.5h-19v101q114 3 177.5 38.5t105.5 110.5h109v-907zM1774 739q-14 -24 -37 -53l-336 -354h360v289q0 28 2 49
t6 40t5 29z" />
    <glyph glyph-name="onehalf" unicode="&#xbd;" horiz-adv-x="2134" 
d="M2036 0h-746v141q161 71 314 163t200 142q64 74 64 154q0 30 -12.5 62t-37.5 63.5t-71.5 51t-106.5 18.5q-20 0 -44.5 -4.5t-57.5 -19t-59 -38t-44 -65.5t-18 -97v-28l-141 20q0 89 22 144q37 89 127 146.5t224 57.5q78 0 142 -20.5t104 -53.5t67.5 -75t39 -83t11.5 -81
q0 -109 -65 -188q-64 -82 -208 -166t-259 -129q62 8 84 8h471v-123zM1466 1372l-884 -1397l-101 62l883 1399zM582 504h-144v692q-44 -20 -92 -27.5t-137 -7.5h-19v101q114 3 177.5 38.5t105.5 110.5h109v-907z" />
    <glyph glyph-name="threequarters" unicode="&#xbe;" horiz-adv-x="2134" 
d="M2075 213h-177v-213h-137v213h-522v117l547 575h112v-571h177v-121zM1647 1372l-885 -1397l-100 62l884 1399zM854 764q0 -121 -99 -196.5t-284 -75.5q-62 0 -120.5 9t-130 44.5t-111.5 95.5q-29 41 -50 131l138 33q0 -1 1.5 -12t3.5 -21t7 -24.5t12 -26.5
q65 -107 258 -107q141 0 195 68q31 39 31 88q0 51 -25 86q-32 43 -96 54.5t-185 11.5h-43v110h68q101 0 149.5 9.5t79.5 48.5q21 26 21 67q0 61 -57.5 103.5t-153.5 42.5h-18t-39 -5t-56 -14.5t-52.5 -30.5t-45.5 -51q-19 -37 -19 -86l-137 29q0 4 4 22.5t13.5 46.5t19.5 46
q83 153 318 159q108 3 192 -28.5t127 -83.5q53 -66 53 -146q0 -98 -84 -155q-29 -19 -45 -19q77 -22 118.5 -86.5t41.5 -136.5zM1774 739q-14 -24 -37 -53l-336 -354h360v289q0 28 2 49t6 40t5 29z" />
    <glyph glyph-name="questiondown" unicode="&#xbf;" horiz-adv-x="1366" 
d="M821 1241h-207v205h207v-205zM1227 414q-10 -43 -18.5 -70.5t-38.5 -86.5t-72 -105q-103 -116 -279 -162q-106 -25 -198 -25q-31 0 -62.5 2t-90.5 13.5t-110.5 31t-110.5 59.5t-102 95q-90 112 -90 250q0 90 43 164q16 28 36.5 52t51 46t48 34.5t61 32t54.5 24.5t61 26
q154 63 192 106q7 8 12 16.5t9 19t7 18.5t4.5 21t2.5 19.5t1.5 21.5t0.5 19.5v20.5v18h152v-78q0 -119 -29 -174q-16 -29 -45.5 -53.5t-51.5 -35.5t-63 -29q-169 -72 -217 -101q-119 -74 -119 -205q0 -72 39 -131q48 -72 138.5 -109.5t185.5 -37.5q112 0 207.5 46.5
t152.5 137.5q36 58 58 144z" />
    <glyph glyph-name="Agrave" unicode="&#xc0;" horiz-adv-x="1705" 
d="M958 1546h-135l-245 258h256zM1708 0h-238l-176 356h-888l-177 -356h-231l750 1446h219zM1206 522l-354 717l-360 -717h714z" />
    <glyph glyph-name="Aacute" unicode="&#xc1;" horiz-adv-x="1705" 
d="M1141 1798l-258 -256h-133l131 256h260zM1708 0h-238l-176 356h-888l-177 -356h-231l750 1446h219zM1206 522l-354 717l-360 -717h714z" />
    <glyph glyph-name="Acircumflex" unicode="&#xc2;" horiz-adv-x="1705" 
d="M1184 1542h-168l-166 141l-168 -143h-162l219 256h219zM1708 0h-238l-176 356h-888l-177 -356h-231l750 1446h219zM1206 522l-354 717l-360 -717h714z" />
    <glyph glyph-name="Atilde" unicode="&#xc3;" horiz-adv-x="1705" 
d="M1247 1669q-55 -39 -82.5 -57t-72.5 -37t-82 -19q-52 0 -158.5 41t-159.5 41q-40 0 -70.5 -15.5t-78.5 -53.5l-74 90q49 39 81.5 62t79 43t87.5 20q52 0 156.5 -41t156.5 -41q37 0 67.5 13.5t78.5 45.5zM1708 0h-238l-176 356h-888l-177 -356h-231l750 1446h219z
M1206 522l-354 717l-360 -717h714z" />
    <glyph glyph-name="Adieresis" unicode="&#xc4;" horiz-adv-x="1705" 
d="M1208 1585h-200v211h200v-211zM670 1585h-199v211h199v-211zM1708 0h-238l-176 356h-888l-177 -356h-231l750 1446h219zM1206 522l-354 717l-360 -717h714z" />
    <glyph glyph-name="Aring" unicode="&#xc5;" horiz-adv-x="1705" 
d="M1085 1708q0 -37 -16 -74q-22 -48 -76.5 -85.5t-142.5 -37.5q-47 0 -98 15q-65 21 -104.5 70t-39.5 116q0 47 21 84q57 103 221 107q38 0 88 -13q67 -19 107.5 -67t39.5 -115zM1708 0h-238l-176 356h-888l-177 -356h-231l750 1446h219zM961 1710q0 19 -11 41
q-28 57 -106 55q-32 -1 -55.5 -11.5t-35 -26.5t-17 -31t-5.5 -29q0 -26 14 -47q11 -19 38 -34t67 -15q44 0 77.5 26.5t33.5 71.5zM1206 522l-354 717l-360 -717h714z" />
    <glyph glyph-name="AE" unicode="&#xc6;" horiz-adv-x="2304" 
d="M2241 0h-1168v348h-602l-231 -348h-240l995 1446h1233v-176h-950v-434h893v-168h-893v-488h963v-180zM1075 516v739l-493 -739h493z" />
    <glyph glyph-name="Ccedilla" unicode="&#xc7;" horiz-adv-x="1878" 
d="M1817 395q-49 -85 -83 -130t-81 -87q-68 -61 -159 -105t-162.5 -64t-155.5 -31t-112.5 -12t-57.5 -1l-23 -65q40 0 66 -2.5t64.5 -19.5t64.5 -48q34 -40 34 -100q0 -97 -83.5 -154t-229.5 -57q-74 0 -184 20l41 105q92 -21 133 -21q62 0 99.5 23.5t37.5 62.5
q0 86 -137 86q-24 0 -64 -4l62 176q-3 0 -22.5 1.5t-30.5 2.5t-33 3.5t-40 6t-42 8t-48.5 11t-49.5 14.5q-131 43 -231.5 116.5t-162 167t-93.5 198.5t-34 219q-5 366 248 575q101 82 199 123q188 76 426 76q140 0 290.5 -33.5t264.5 -105.5q17 -11 34 -23.5t29 -22
t26.5 -22.5t21 -19.5t19 -19.5t15.5 -16q74 -82 113 -158l-219 -47q-1 2 -8 14t-11 18.5l-12 19.5t-16 22.5t-19 22.5t-24.5 25.5t-28.5 24.5q-89 74 -218 107t-249 33q-104 0 -197.5 -18.5t-180 -62t-149 -108t-100 -163t-37.5 -220.5q0 -68 13 -133.5t42.5 -134t82 -126
t124.5 -103t179 -71.5t237 -26q361 0 533 195q17 20 32 41.5t26 39.5t13 21z" />
    <glyph glyph-name="Egrave" unicode="&#xc8;" horiz-adv-x="1622" 
d="M958 1546h-135l-245 258h256zM1561 0h-1387v1446h1333v-178h-1128v-430h1100v-172h-1100v-488h1182v-178z" />
    <glyph glyph-name="Eacute" unicode="&#xc9;" horiz-adv-x="1622" 
d="M1141 1798l-258 -256h-133l131 256h260zM1561 0h-1387v1446h1333v-178h-1128v-430h1100v-172h-1100v-488h1182v-178z" />
    <glyph glyph-name="Ecircumflex" unicode="&#xca;" horiz-adv-x="1622" 
d="M1184 1542h-168l-166 141l-168 -143h-162l219 256h219zM1561 0h-1387v1446h1333v-178h-1128v-430h1100v-172h-1100v-488h1182v-178z" />
    <glyph glyph-name="Edieresis" unicode="&#xcb;" horiz-adv-x="1622" 
d="M1206 1583h-198v211h198v-211zM668 1585h-199v211h199v-211zM1561 0h-1387v1446h1333v-178h-1128v-430h1100v-172h-1100v-488h1182v-178z" />
    <glyph glyph-name="Igrave" unicode="&#xcc;" horiz-adv-x="555" 
d="M381 1546h-133l-246 258h256zM381 0h-209v1446h209v-1446z" />
    <glyph glyph-name="Iacute" unicode="&#xcd;" horiz-adv-x="555" 
d="M565 1798l-258 -256h-133l131 256h260zM381 0h-209v1446h209v-1446z" />
    <glyph glyph-name="Icircumflex" unicode="&#xce;" horiz-adv-x="555" 
d="M608 1542h-168l-166 141l-168 -143h-161l219 256h219zM381 0h-209v1446h209v-1446z" />
    <glyph glyph-name="Idieresis" unicode="&#xcf;" horiz-adv-x="555" 
d="M631 1583h-199v211h199v-211zM92 1585h-198v211h198v-211zM381 0h-209v1446h209v-1446z" />
    <glyph glyph-name="Eth" unicode="&#xd0;" horiz-adv-x="1792" 
d="M1686 743q3 -236 -117 -424q-33 -52 -74 -95.5t-80 -74.5t-92 -55.5t-93 -40t-100 -26.5t-96.5 -16t-99.5 -7.5t-92 -3t-90 -0.5h-578v702h-174v140h174v604h719q189 0 283 -25q129 -33 229 -102.5t159.5 -162t90 -197t31.5 -216.5zM1477 729q1 64 -10 126t-37.5 125.5
t-66.5 116t-102.5 95t-140.5 63.5t-227 21h-512v-434h663v-140h-663v-528h422q203 0 313 35q95 30 166 85.5t112.5 126t61.5 147.5t21 161z" />
    <glyph glyph-name="Ntilde" unicode="&#xd1;" horiz-adv-x="1878" 
d="M1333 1669q-55 -39 -82.5 -57t-72.5 -37t-82 -19q-53 0 -160 41t-160 41q-39 0 -68.5 -15t-78.5 -54l-74 90q49 39 81.5 62t79 43t87.5 20q52 0 156 -41t157 -41q37 0 67.5 13.5t78.5 45.5zM1698 0h-201l-1132 1196l4 -1196h-197v1446h211l1124 -1194l-6 1194h197v-1446z
" />
    <glyph glyph-name="Ograve" unicode="&#xd2;" horiz-adv-x="1961" 
d="M1085 1546h-135l-245 258h256zM1855 702q0 -44 -5.5 -89.5t-22 -116.5t-57.5 -146t-103 -139q-42 -44 -100 -84t-141.5 -79.5t-198.5 -63t-244 -23.5q-102 0 -221 19q-42 6 -81 14.5t-109 33t-129 58t-125.5 94t-114.5 137.5q-105 171 -105 390q0 275 146 460
q37 49 104 105q250 209 623 209q249 0 448 -92q196 -91 310 -254q126 -182 126 -433zM1649 723q0 136 -54 252q-32 69 -81.5 123.5t-100.5 88.5t-113.5 58.5t-112 36t-105 17.5t-82.5 6.5t-54 -0.5q-38 -1 -81.5 -7t-119.5 -22.5t-153 -57t-135 -98.5q-83 -83 -121 -194
q-33 -95 -33 -211q0 -199 105 -342q43 -59 114 -109q178 -125 465 -125q135 0 244 29q155 40 259 141t140 252q19 92 19 162z" />
    <glyph glyph-name="Oacute" unicode="&#xd3;" horiz-adv-x="1961" 
d="M1270 1798l-258 -256h-133l131 256h260zM1855 702q0 -44 -5.5 -89.5t-22 -116.5t-57.5 -146t-103 -139q-42 -44 -100 -84t-141.5 -79.5t-198.5 -63t-244 -23.5q-102 0 -221 19q-42 6 -81 14.5t-109 33t-129 58t-125.5 94t-114.5 137.5q-105 171 -105 390q0 275 146 460
q37 49 104 105q250 209 623 209q249 0 448 -92q196 -91 310 -254q126 -182 126 -433zM1649 723q0 136 -54 252q-32 69 -81.5 123.5t-100.5 88.5t-113.5 58.5t-112 36t-105 17.5t-82.5 6.5t-54 -0.5q-38 -1 -81.5 -7t-119.5 -22.5t-153 -57t-135 -98.5q-83 -83 -121 -194
q-33 -95 -33 -211q0 -199 105 -342q43 -59 114 -109q178 -125 465 -125q135 0 244 29q155 40 259 141t140 252q19 92 19 162z" />
    <glyph glyph-name="Ocircumflex" unicode="&#xd4;" horiz-adv-x="1961" 
d="M1311 1542h-168l-164 141l-170 -143h-162l221 256h219zM1855 702q0 -44 -5.5 -89.5t-22 -116.5t-57.5 -146t-103 -139q-42 -44 -100 -84t-141.5 -79.5t-198.5 -63t-244 -23.5q-102 0 -221 19q-42 6 -81 14.5t-109 33t-129 58t-125.5 94t-114.5 137.5q-105 171 -105 390
q0 275 146 460q37 49 104 105q250 209 623 209q249 0 448 -92q196 -91 310 -254q126 -182 126 -433zM1649 723q0 136 -54 252q-32 69 -81.5 123.5t-100.5 88.5t-113.5 58.5t-112 36t-105 17.5t-82.5 6.5t-54 -0.5q-38 -1 -81.5 -7t-119.5 -22.5t-153 -57t-135 -98.5
q-83 -83 -121 -194q-33 -95 -33 -211q0 -199 105 -342q43 -59 114 -109q178 -125 465 -125q135 0 244 29q155 40 259 141t140 252q19 92 19 162z" />
    <glyph glyph-name="Otilde" unicode="&#xd5;" horiz-adv-x="1961" 
d="M1374 1669q-52 -38 -80.5 -57t-73 -37.5t-81.5 -18.5q-53 0 -160 41t-160 41q-40 0 -70.5 -15.5t-76.5 -53.5l-74 90q48 39 81 62t79 43t86 20q53 0 157 -41t156 -41q26 0 52 8.5t43.5 18.5t52.5 32zM1855 702q0 -44 -5.5 -89.5t-22 -116.5t-57.5 -146t-103 -139
q-42 -44 -100 -84t-141.5 -79.5t-198.5 -63t-244 -23.5q-102 0 -221 19q-42 6 -81 14.5t-109 33t-129 58t-125.5 94t-114.5 137.5q-105 171 -105 390q0 275 146 460q37 49 104 105q250 209 623 209q249 0 448 -92q196 -91 310 -254q126 -182 126 -433zM1649 723
q0 136 -54 252q-32 69 -81.5 123.5t-100.5 88.5t-113.5 58.5t-112 36t-105 17.5t-82.5 6.5t-54 -0.5q-38 -1 -81.5 -7t-119.5 -22.5t-153 -57t-135 -98.5q-83 -83 -121 -194q-33 -95 -33 -211q0 -199 105 -342q43 -59 114 -109q178 -125 465 -125q135 0 244 29
q155 40 259 141t140 252q19 92 19 162z" />
    <glyph glyph-name="Odieresis" unicode="&#xd6;" horiz-adv-x="1961" 
d="M1331 1581h-198v211h198v-211zM793 1581h-199v211h199v-211zM1855 702q0 -44 -5.5 -89.5t-22 -116.5t-57.5 -146t-103 -139q-42 -44 -100 -84t-141.5 -79.5t-198.5 -63t-244 -23.5q-102 0 -221 19q-42 6 -81 14.5t-109 33t-129 58t-125.5 94t-114.5 137.5
q-105 171 -105 390q0 275 146 460q37 49 104 105q250 209 623 209q249 0 448 -92q196 -91 310 -254q126 -182 126 -433zM1649 723q0 136 -54 252q-32 69 -81.5 123.5t-100.5 88.5t-113.5 58.5t-112 36t-105 17.5t-82.5 6.5t-54 -0.5q-38 -1 -81.5 -7t-119.5 -22.5t-153 -57
t-135 -98.5q-83 -83 -121 -194q-33 -95 -33 -211q0 -199 105 -342q43 -59 114 -109q178 -125 465 -125q135 0 244 29q155 40 259 141t140 252q19 92 19 162z" />
    <glyph glyph-name="multiply" unicode="&#xd7;" horiz-adv-x="1581" 
d="M1288 281l-147 -144l-359 338l-350 -340l-131 123l350 340l-362 340l147 143l363 -340l350 340l131 -123l-350 -340z" />
    <glyph glyph-name="Oslash" unicode="&#xd8;" horiz-adv-x="2004" 
d="M1933 1343l-200 -157q12 -20 43 -64q23 -37 37 -64t36.5 -79.5t34 -116.5t10.5 -135q0 -51 -7 -103.5t-28 -128.5t-70 -156.5t-122 -148.5q-242 -225 -655 -225q-270 0 -469 92q-48 21 -140 80l-206 -164l-93 123l181 142q-32 40 -55 74.5t-55.5 97t-50.5 142.5t-18 169
q0 49 7 100t27 126t68.5 154.5t119.5 147.5q67 64 152 110.5t155 69.5t149.5 36t121.5 15.5t85 2.5q284 0 500 -113q48 -24 127 -82l221 176zM1694 727q0 159 -66 277q-8 16 -45 65l-1030 -813q68 -40 129 -63q145 -56 317 -56q265 0 451 115q244 156 244 475zM1473 1176
q-56 38 -80 49q-162 86 -396 86q-120 0 -223 -24t-175 -64t-121 -83.5t-81 -92.5q-90 -131 -90 -324q0 -168 76 -297q19 -32 51 -72z" />
    <glyph glyph-name="Ugrave" unicode="&#xd9;" horiz-adv-x="1835" 
d="M1022 1546h-135l-246 258h256zM1655 575q0 -88 -7.5 -148t-33.5 -122q-33 -79 -91 -140t-126.5 -98t-153 -61t-162.5 -32.5t-163 -8.5q-337 0 -539 141q-95 65 -146 160q-39 72 -50 147t-11 183v850h207v-858q0 -89 8 -135q7 -47 22 -83.5t37 -61.5t38.5 -38.5
t41.5 -29.5q155 -97 394 -97q26 0 59 2.5t100 10.5t134.5 31.5t115.5 58.5q60 45 86 104q15 32 23 70.5t9 64.5t1 76v885h207v-871z" />
    <glyph glyph-name="Uacute" unicode="&#xda;" horiz-adv-x="1835" 
d="M1204 1798l-258 -256h-133l133 256h258zM1655 575q0 -88 -7.5 -148t-33.5 -122q-33 -79 -91 -140t-126.5 -98t-153 -61t-162.5 -32.5t-163 -8.5q-337 0 -539 141q-95 65 -146 160q-39 72 -50 147t-11 183v850h207v-858q0 -89 8 -135q7 -47 22 -83.5t37 -61.5t38.5 -38.5
t41.5 -29.5q155 -97 394 -97q26 0 59 2.5t100 10.5t134.5 31.5t115.5 58.5q60 45 86 104q15 32 23 70.5t9 64.5t1 76v885h207v-871z" />
    <glyph glyph-name="Ucircumflex" unicode="&#xdb;" horiz-adv-x="1835" 
d="M1247 1542h-168l-166 141l-168 -143h-161l219 256h219zM1655 575q0 -88 -7.5 -148t-33.5 -122q-33 -79 -91 -140t-126.5 -98t-153 -61t-162.5 -32.5t-163 -8.5q-337 0 -539 141q-95 65 -146 160q-39 72 -50 147t-11 183v850h207v-858q0 -89 8 -135q7 -47 22 -83.5
t37 -61.5t38.5 -38.5t41.5 -29.5q155 -97 394 -97q26 0 59 2.5t100 10.5t134.5 31.5t115.5 58.5q60 45 86 104q15 32 23 70.5t9 64.5t1 76v885h207v-871z" />
    <glyph glyph-name="Udieresis" unicode="&#xdc;" horiz-adv-x="1835" 
d="M1272 1585h-201v211h201v-211zM733 1585h-201v211h201v-211zM1655 575q0 -88 -7.5 -148t-33.5 -122q-33 -79 -91 -140t-126.5 -98t-153 -61t-162.5 -32.5t-163 -8.5q-337 0 -539 141q-95 65 -146 160q-39 72 -50 147t-11 183v850h207v-858q0 -89 8 -135q7 -47 22 -83.5
t37 -61.5t38.5 -38.5t41.5 -29.5q155 -97 394 -97q26 0 59 2.5t100 10.5t134.5 31.5t115.5 58.5q60 45 86 104q15 32 23 70.5t9 64.5t1 76v885h207v-871z" />
    <glyph glyph-name="Yacute" unicode="&#xdd;" horiz-adv-x="1662" 
d="M1120 1798l-258 -256h-133l131 256h260zM1661 1446l-733 -887v-559h-203v563l-721 883h264l559 -709l572 709h262z" />
    <glyph glyph-name="Thorn" unicode="&#xde;" horiz-adv-x="1662" 
d="M1634 766q0 -215 -151 -330q-45 -35 -96 -56.5t-111.5 -29.5t-98.5 -10t-104 -2h-694v-338h-209v1446h207v-240h676q59 0 97.5 -1.5t101.5 -11.5t109 -28t98 -54t91 -87q34 -43 59 -110t25 -148zM1411 772q0 95 -49 158q-24 30 -56.5 50t-60.5 30t-72.5 15.5t-71.5 6
t-79 0.5h-645v-520h667q136 0 208 24t120 95q39 63 39 141z" />
    <glyph glyph-name="germandbls" unicode="&#xdf;" 
d="M1395 473q0 -369 -273 -463q-85 -30 -207 -30q-53 0 -135 10q-1 0 -14 2t-21 4t-25.5 6t-30.5 8t-32 11.5t-34 16t-32.5 20.5t-31 25.5t-26 31t-21.5 37.5q-7 14 -11.5 30t-7 27.5t-4.5 32t-2.5 28t-1 32t-0.5 28.5h193q0 -33 2 -47q9 -81 65 -117q57 -37 152 -37
q114 0 184 49q113 76 113 277q0 190 -84 264q-58 51 -157.5 62.5t-293.5 2.5v152q150 -2 226.5 5t126.5 34q86 47 86 151q0 75 -54 121q-45 39 -137.5 56.5t-177.5 17.5q-193 0 -289 -70q-43 -29 -61 -65q-18 -29 -23.5 -69.5t-5.5 -117.5v-999h-196v1008q0 1 -0.5 13.5
t0 25t0.5 31.5t2 38t5 40t8.5 41.5t12.5 37.5q102 240 561 240q228 0 363 -54q28 -11 65 -35q136 -92 136 -241q0 -162 -129 -225q-21 -10 -74 -27q69 -16 125 -45q79 -44 122.5 -131t43.5 -244z" />
    <glyph glyph-name="agrave" unicode="&#xe0;" horiz-adv-x="1409" 
d="M840 1128h-131l-263 281h259zM1395 0q-143 -10 -172 -10q-49 0 -84.5 11.5t-54.5 26.5t-31.5 41t-16 44t-6.5 47q-22 -37 -47 -60q-59 -58 -168 -97.5t-262 -39.5q-51 0 -141 10q-164 26 -254 127q-78 90 -78 207q0 60 19 110t50 81t56 48.5t51 28.5q66 29 171.5 37.5
t315.5 10.5l285 2v54t-4.5 46.5t-13 50t-26 37.5t-44.5 35q-77 41 -244 41q-218 0 -309 -72q-23 -18 -45 -59l-197 18q3 12 16 43t29 55q45 68 129 103q130 53 367 53q162 0 285 -31q132 -29 190 -108q23 -31 34.5 -69t13 -64t1.5 -76v-365q0 -99 9 -129q19 -59 104 -59
q17 0 72 6v-135zM1030 473h-366q-127 0 -194.5 -6.5t-111.5 -28.5q-28 -12 -56 -44.5t-28 -84.5q0 -81 74.5 -138.5t214.5 -57.5q57 0 129 12q26 4 55 11.5t78.5 26.5t94.5 57t73 89q9 17 15.5 35t10 32t6 31t3 26t1.5 23t1 17z" />
    <glyph glyph-name="aacute" unicode="&#xe1;" horiz-adv-x="1409" 
d="M1012 1409l-264 -281h-136l142 281h258zM1395 0q-143 -10 -172 -10q-49 0 -84.5 11.5t-54.5 26.5t-31.5 41t-16 44t-6.5 47q-22 -37 -47 -60q-59 -58 -168 -97.5t-262 -39.5q-51 0 -141 10q-164 26 -254 127q-78 90 -78 207q0 60 19 110t50 81t56 48.5t51 28.5
q66 29 171.5 37.5t315.5 10.5l285 2v54t-4.5 46.5t-13 50t-26 37.5t-44.5 35q-77 41 -244 41q-218 0 -309 -72q-23 -18 -45 -59l-197 18q3 12 16 43t29 55q45 68 129 103q130 53 367 53q162 0 285 -31q132 -29 190 -108q23 -31 34.5 -69t13 -64t1.5 -76v-365q0 -99 9 -129
q19 -59 104 -59q17 0 72 6v-135zM1030 473h-366q-127 0 -194.5 -6.5t-111.5 -28.5q-28 -12 -56 -44.5t-28 -84.5q0 -81 74.5 -138.5t214.5 -57.5q57 0 129 12q26 4 55 11.5t78.5 26.5t94.5 57t73 89q9 17 15.5 35t10 32t6 31t3 26t1.5 23t1 17z" />
    <glyph glyph-name="acircumflex" unicode="&#xe2;" horiz-adv-x="1409" 
d="M1036 1130h-168l-166 156l-157 -158h-168l217 283h219zM1395 0q-143 -10 -172 -10q-49 0 -84.5 11.5t-54.5 26.5t-31.5 41t-16 44t-6.5 47q-22 -37 -47 -60q-59 -58 -168 -97.5t-262 -39.5q-51 0 -141 10q-164 26 -254 127q-78 90 -78 207q0 60 19 110t50 81t56 48.5
t51 28.5q66 29 171.5 37.5t315.5 10.5l285 2v54t-4.5 46.5t-13 50t-26 37.5t-44.5 35q-77 41 -244 41q-218 0 -309 -72q-23 -18 -45 -59l-197 18q3 12 16 43t29 55q45 68 129 103q130 53 367 53q162 0 285 -31q132 -29 190 -108q23 -31 34.5 -69t13 -64t1.5 -76v-365
q0 -99 9 -129q19 -59 104 -59q17 0 72 6v-135zM1030 473h-366q-127 0 -194.5 -6.5t-111.5 -28.5q-28 -12 -56 -44.5t-28 -84.5q0 -81 74.5 -138.5t214.5 -57.5q57 0 129 12q26 4 55 11.5t78.5 26.5t94.5 57t73 89q9 17 15.5 35t10 32t6 31t3 26t1.5 23t1 17z" />
    <glyph glyph-name="atilde" unicode="&#xe3;" horiz-adv-x="1409" 
d="M1094 1249q-90 -65 -140 -88.5t-98 -23.5q-52 0 -158.5 41t-158.5 41q-41 0 -71.5 -16.5t-78.5 -55.5l-72 92q54 43 84.5 64t76 41t85.5 20q63 0 166 -43q3 -1 20 -8t21.5 -9t19 -7.5t21.5 -7t19 -4.5t22 -4t20 -1q40 0 71.5 14t80.5 47zM1395 0q-143 -10 -172 -10
q-49 0 -84.5 11.5t-54.5 26.5t-31.5 41t-16 44t-6.5 47q-22 -37 -47 -60q-59 -58 -168 -97.5t-262 -39.5q-51 0 -141 10q-164 26 -254 127q-78 90 -78 207q0 60 19 110t50 81t56 48.5t51 28.5q66 29 171.5 37.5t315.5 10.5l285 2v54t-4.5 46.5t-13 50t-26 37.5t-44.5 35
q-77 41 -244 41q-218 0 -309 -72q-23 -18 -45 -59l-197 18q3 12 16 43t29 55q45 68 129 103q130 53 367 53q162 0 285 -31q132 -29 190 -108q23 -31 34.5 -69t13 -64t1.5 -76v-365q0 -99 9 -129q19 -59 104 -59q17 0 72 6v-135zM1030 473h-366q-127 0 -194.5 -6.5
t-111.5 -28.5q-28 -12 -56 -44.5t-28 -84.5q0 -81 74.5 -138.5t214.5 -57.5q57 0 129 12q26 4 55 11.5t78.5 26.5t94.5 57t73 89q9 17 15.5 35t10 32t6 31t3 26t1.5 23t1 17z" />
    <glyph glyph-name="adieresis" unicode="&#xe4;" horiz-adv-x="1409" 
d="M1081 1163h-198v211h198v-211zM543 1161h-199v213h199v-213zM1395 0q-143 -10 -172 -10q-49 0 -84.5 11.5t-54.5 26.5t-31.5 41t-16 44t-6.5 47q-22 -37 -47 -60q-59 -58 -168 -97.5t-262 -39.5q-51 0 -141 10q-164 26 -254 127q-78 90 -78 207q0 60 19 110t50 81
t56 48.5t51 28.5q66 29 171.5 37.5t315.5 10.5l285 2v54t-4.5 46.5t-13 50t-26 37.5t-44.5 35q-77 41 -244 41q-218 0 -309 -72q-23 -18 -45 -59l-197 18q3 12 16 43t29 55q45 68 129 103q130 53 367 53q162 0 285 -31q132 -29 190 -108q23 -31 34.5 -69t13 -64t1.5 -76
v-365q0 -99 9 -129q19 -59 104 -59q17 0 72 6v-135zM1030 473h-366q-127 0 -194.5 -6.5t-111.5 -28.5q-28 -12 -56 -44.5t-28 -84.5q0 -81 74.5 -138.5t214.5 -57.5q57 0 129 12q26 4 55 11.5t78.5 26.5t94.5 57t73 89q9 17 15.5 35t10 32t6 31t3 26t1.5 23t1 17z" />
    <glyph glyph-name="aring" unicode="&#xe5;" horiz-adv-x="1409" 
d="M961 1317q0 -39 -15 -74q-22 -47 -77 -84t-144 -37q-47 0 -98 15q-64 21 -104 69t-40 115q0 49 23 84q30 54 90 80t129 26q41 0 88 -12q67 -19 107.5 -67t40.5 -115zM1395 0q-143 -10 -172 -10q-49 0 -84.5 11.5t-54.5 26.5t-31.5 41t-16 44t-6.5 47q-22 -37 -47 -60
q-59 -58 -168 -97.5t-262 -39.5q-51 0 -141 10q-164 26 -254 127q-78 90 -78 207q0 60 19 110t50 81t56 48.5t51 28.5q66 29 171.5 37.5t315.5 10.5l285 2v54t-4.5 46.5t-13 50t-26 37.5t-44.5 35q-77 41 -244 41q-218 0 -309 -72q-23 -18 -45 -59l-197 18q3 12 16 43t29 55
q45 68 129 103q130 53 367 53q162 0 285 -31q132 -29 190 -108q23 -31 34.5 -69t13 -64t1.5 -76v-365q0 -99 9 -129q19 -59 104 -59q17 0 72 6v-135zM836 1319q0 18 -11 43q-29 55 -106 53q-32 -1 -55.5 -11.5t-35 -26.5t-17 -31t-5.5 -29q0 -21 15 -47q11 -19 37.5 -34
t66.5 -15q45 0 78 26.5t33 71.5zM1030 473h-366q-127 0 -194.5 -6.5t-111.5 -28.5q-28 -12 -56 -44.5t-28 -84.5q0 -81 74.5 -138.5t214.5 -57.5q57 0 129 12q26 4 55 11.5t78.5 26.5t94.5 57t73 89q9 17 15.5 35t10 32t6 31t3 26t1.5 23t1 17z" />
    <glyph glyph-name="ae" unicode="&#xe6;" horiz-adv-x="2347" 
d="M2253 479h-1016q4 -34 6.5 -50.5t10.5 -42t22 -50.5q31 -56 80 -98.5t104 -65t107 -33t100 -10.5q21 0 45 2.5t78 13t108.5 41.5t94.5 78q12 14 23 30.5t18 29.5l8 14l184 -47q-37 -75 -74 -119q-62 -74 -154 -121.5t-172 -63.5t-159 -16q-119 0 -238.5 34.5
t-211.5 113.5q-30 24 -70 69q-65 -68 -100 -92q-74 -54 -192 -92t-265 -39q-300 -3 -428 141q-80 88 -80 211q0 101 51 170q61 84 156.5 112t267.5 28h490q0 131 -87.5 190t-277.5 62q-138 2 -225 -30.5t-125 -107.5l-195 23q22 61 47 94q120 166 490 166q294 0 432 -98
q32 -24 68 -66q50 45 55 49q156 119 399 119q124 0 231 -33t192.5 -98t138.5 -172t63 -246zM2023 625q-14 50 -42 93.5t-72 80.5t-112 58.5t-152 21.5q-234 0 -349 -150q-27 -36 -53 -104h780zM1044 479h-315h-50.5h-50.5h-45t-45 -1t-39 -2t-38 -2.5t-30.5 -3.5t-28.5 -5.5
t-21 -7.5q-52 -21 -78 -62q-24 -34 -24 -82q0 -194 325 -194q50 0 99 6.5t110.5 23.5t113 55t81.5 93q5 10 9.5 21.5t7.5 21t6 25t4.5 23t3 25t2 22.5t2 23.5t1.5 20.5z" />
    <glyph glyph-name="ccedilla" unicode="&#xe7;" horiz-adv-x="1409" 
d="M1356 266q-35 -61 -66 -96q-131 -151 -372 -190q-21 -4 -125 -13l-33 -78q40 -3 61.5 -6t56.5 -19.5t58 -45.5q27 -34 27 -86q-3 -80 -71.5 -130.5t-189.5 -50.5q-67 0 -188 21l39 96q84 -16 119 -16q72 0 106 37q13 13 13 39q0 25 -21.5 40.5t-48.5 21t-57 5.5
q-38 0 -56 -2l68 174q-18 0 -43 1.5t-91.5 14.5t-125 35t-127.5 71t-115 116q-84 124 -86 291q0 180 98 303q52 67 126 115t153.5 71.5t149 33t139.5 9.5q367 0 542 -227q17 -20 50 -76l-187 -53q-23 43 -58.5 77.5t-69 55t-77.5 35.5t-71.5 21t-65 9.5t-42.5 3.5h-19
q-67 0 -132 -14t-125.5 -45t-105.5 -75.5t-72 -111t-26 -145.5q1 -76 30.5 -138.5t76 -103t107 -68.5t122 -40t123.5 -12q19 0 43.5 2t78 9.5t110 30t99.5 56.5q45 38 84 96z" />
    <glyph glyph-name="egrave" unicode="&#xe8;" horiz-adv-x="1409" 
d="M840 1128h-131l-263 281h259zM1317 477h-1026q12 -80 33 -130.5t71 -98.5t134 -85.5t200 -37.5q204 0 320 125q27 29 61 92l186 -51q-21 -47 -51 -90q-29 -42 -73 -79t-72 -54t-51 -27q-147 -72 -347 -72q-98 0 -188 21.5t-167 65.5t-134 107t-89.5 151.5t-33.5 193.5
q0 93 35 186q24 63 61.5 115t82 85.5t86.5 57.5t88.5 38.5t74 21t55.5 10.5q58 10 125 10q47 0 94.5 -6t123 -25.5t151 -68.5t133.5 -123q97 -121 113 -256q4 -27 4 -76zM1098 623q-29 80 -65 123t-83 75q-53 33 -106 49q-57 17 -133 17q-119 0 -216.5 -46.5t-158.5 -142.5
q-24 -37 -39 -75h801z" />
    <glyph glyph-name="eacute" unicode="&#xe9;" horiz-adv-x="1409" 
d="M1012 1409l-264 -281h-136l142 281h258zM1317 477h-1026q12 -80 33 -130.5t71 -98.5t134 -85.5t200 -37.5q204 0 320 125q27 29 61 92l186 -51q-21 -47 -51 -90q-29 -42 -73 -79t-72 -54t-51 -27q-147 -72 -347 -72q-98 0 -188 21.5t-167 65.5t-134 107t-89.5 151.5
t-33.5 193.5q0 93 35 186q24 63 61.5 115t82 85.5t86.5 57.5t88.5 38.5t74 21t55.5 10.5q58 10 125 10q47 0 94.5 -6t123 -25.5t151 -68.5t133.5 -123q97 -121 113 -256q4 -27 4 -76zM1098 623q-29 80 -65 123t-83 75q-53 33 -106 49q-57 17 -133 17q-119 0 -216.5 -46.5
t-158.5 -142.5q-24 -37 -39 -75h801z" />
    <glyph glyph-name="ecircumflex" unicode="&#xea;" horiz-adv-x="1409" 
d="M1036 1130h-168l-166 156l-157 -158h-168l217 283h219zM1317 477h-1026q12 -80 33 -130.5t71 -98.5t134 -85.5t200 -37.5q204 0 320 125q27 29 61 92l186 -51q-21 -47 -51 -90q-29 -42 -73 -79t-72 -54t-51 -27q-147 -72 -347 -72q-98 0 -188 21.5t-167 65.5t-134 107
t-89.5 151.5t-33.5 193.5q0 93 35 186q24 63 61.5 115t82 85.5t86.5 57.5t88.5 38.5t74 21t55.5 10.5q58 10 125 10q47 0 94.5 -6t123 -25.5t151 -68.5t133.5 -123q97 -121 113 -256q4 -27 4 -76zM1098 623q-29 80 -65 123t-83 75q-53 33 -106 49q-57 17 -133 17
q-119 0 -216.5 -46.5t-158.5 -142.5q-24 -37 -39 -75h801z" />
    <glyph glyph-name="edieresis" unicode="&#xeb;" horiz-adv-x="1409" 
d="M1063 1165h-199v211h199v-211zM524 1165h-198v211h198v-211zM1317 477h-1026q12 -80 33 -130.5t71 -98.5t134 -85.5t200 -37.5q204 0 320 125q27 29 61 92l186 -51q-21 -47 -51 -90q-29 -42 -73 -79t-72 -54t-51 -27q-147 -72 -347 -72q-98 0 -188 21.5t-167 65.5
t-134 107t-89.5 151.5t-33.5 193.5q0 93 35 186q24 63 61.5 115t82 85.5t86.5 57.5t88.5 38.5t74 21t55.5 10.5q58 10 125 10q47 0 94.5 -6t123 -25.5t151 -68.5t133.5 -123q97 -121 113 -256q4 -27 4 -76zM1098 623q-29 80 -65 123t-83 75q-53 33 -106 49q-57 17 -133 17
q-119 0 -216.5 -46.5t-158.5 -142.5q-24 -37 -39 -75h801z" />
    <glyph glyph-name="igrave" unicode="&#xec;" horiz-adv-x="512" 
d="M393 1128h-133l-260 281h256zM352 0h-194v999h194v-999z" />
    <glyph glyph-name="iacute" unicode="&#xed;" horiz-adv-x="512" 
d="M563 1409l-264 -281h-135l141 281h258zM352 0h-194v999h194v-999z" />
    <glyph glyph-name="icircumflex" unicode="&#xee;" horiz-adv-x="512" 
d="M588 1130h-166l-168 156l-156 -158h-168l215 283h222zM352 0h-194v999h194v-999z" />
    <glyph glyph-name="idieresis" unicode="&#xef;" horiz-adv-x="512" 
d="M616 1165h-198v211h198v-211zM78 1165h-201v211h201v-211zM352 0h-194v999h194v-999z" />
    <glyph glyph-name="eth" unicode="&#xf0;" 
d="M1399 551q0 -231 -133 -379q-81 -92 -185 -139q-135 -64 -333 -64q-109 0 -222 23.5t-198 77.5q-58 36 -105 86q-129 129 -131 319q-2 153 78 277q74 117 221.5 194.5t349.5 77.5q126 0 224 -34.5t159 -86.5q-44 96 -149 213q-26 28 -98 86l-404 -100l-47 98l338 86
q-40 26 -106.5 66.5t-100.5 62.5l211 49q85 -48 133 -82q13 -8 32.5 -23.5t31.5 -23.5l299 76l55 -98l-250 -62q81 -81 113 -118q109 -133 164 -284t53 -298zM1202 498q0 103 -53 184q-47 72 -126 115.5t-148 55.5t-142 11q-77 0 -151 -18q-133 -35 -211.5 -127.5
t-81.5 -216.5q-2 -105 49 -183q55 -86 161.5 -137t256.5 -51q60 0 121 13t120 42t104 71t73 104.5t28 136.5z" />
    <glyph glyph-name="ntilde" unicode="&#xf1;" 
d="M1137 1249q-90 -65 -140 -88.5t-98 -23.5q-52 0 -158.5 41t-158.5 41q-41 0 -71.5 -16.5t-78.5 -55.5l-72 92q56 44 84.5 64.5t74.5 40.5t87 20q63 0 166 -43q3 -1 20 -8t21.5 -9t19 -7.5t21.5 -7t19 -4.5t22 -4t20 -1q28 0 55 9t43.5 18.5t53.5 33.5zM1329 0h-192v528
q0 102 -27 164q-31 73 -116.5 121.5t-227.5 48.5q-98 0 -195 -33q-146 -57 -192 -178q-25 -62 -25 -176v-475h-194v999h194v-120q2 2 11.5 10t12.5 10.5t12.5 10t15 11t15.5 10.5t18 11.5t19 10.5t23 11.5t25 10.5q125 53 295 53q183 0 314 -67.5t181 -182.5
q15 -36 23 -80.5t9 -73.5t1 -83v-541z" />
    <glyph glyph-name="ograve" unicode="&#xf2;" 
d="M883 1128h-131l-263 281h259zM1397 496q0 -146 -70 -258q-30 -48 -76.5 -92t-115.5 -85.5t-169.5 -66.5t-217.5 -25q-149 0 -269 35q-24 7 -50 17t-66 30.5t-74.5 45.5t-72 63.5t-64 83t-43.5 105.5t-17 130q0 152 78 277q46 73 116 126.5t133 79.5t136.5 41.5t111.5 18
t74 2.5q212 0 367 -74q54 -23 102 -63q44 -35 84 -82q103 -124 103 -309zM1202 500q0 95 -47 174q-28 46 -67.5 81t-85 54.5t-84 32t-83.5 16.5t-62 5t-40 1q-202 -3 -323 -108q-121 -102 -121 -264q0 -107 59 -189q52 -71 154 -121.5t256 -50.5q158 0 280 78q25 16 47.5 36
t52 55.5t47 87.5t17.5 112z" />
    <glyph glyph-name="oacute" unicode="&#xf3;" 
d="M1055 1409l-264 -281h-136l142 281h258zM1397 496q0 -146 -70 -258q-30 -48 -76.5 -92t-115.5 -85.5t-169.5 -66.5t-217.5 -25q-149 0 -269 35q-24 7 -50 17t-66 30.5t-74.5 45.5t-72 63.5t-64 83t-43.5 105.5t-17 130q0 152 78 277q46 73 116 126.5t133 79.5t136.5 41.5
t111.5 18t74 2.5q212 0 367 -74q54 -23 102 -63q44 -35 84 -82q103 -124 103 -309zM1202 500q0 95 -47 174q-28 46 -67.5 81t-85 54.5t-84 32t-83.5 16.5t-62 5t-40 1q-202 -3 -323 -108q-121 -102 -121 -264q0 -107 59 -189q52 -71 154 -121.5t256 -50.5q158 0 280 78
q25 16 47.5 36t52 55.5t47 87.5t17.5 112z" />
    <glyph glyph-name="ocircumflex" unicode="&#xf4;" 
d="M1079 1130h-168l-166 156l-157 -158h-168l215 283h221zM1397 496q0 -146 -70 -258q-30 -48 -76.5 -92t-115.5 -85.5t-169.5 -66.5t-217.5 -25q-149 0 -269 35q-24 7 -50 17t-66 30.5t-74.5 45.5t-72 63.5t-64 83t-43.5 105.5t-17 130q0 152 78 277q46 73 116 126.5
t133 79.5t136.5 41.5t111.5 18t74 2.5q212 0 367 -74q54 -23 102 -63q44 -35 84 -82q103 -124 103 -309zM1202 500q0 95 -47 174q-28 46 -67.5 81t-85 54.5t-84 32t-83.5 16.5t-62 5t-40 1q-202 -3 -323 -108q-121 -102 -121 -264q0 -107 59 -189q52 -71 154 -121.5
t256 -50.5q158 0 280 78q25 16 47.5 36t52 55.5t47 87.5t17.5 112z" />
    <glyph glyph-name="otilde" unicode="&#xf5;" 
d="M1137 1249q-90 -65 -140 -88.5t-98 -23.5q-52 0 -158.5 41t-158.5 41q-41 0 -71.5 -16.5t-78.5 -55.5l-72 92q56 44 84.5 64.5t74.5 40.5t87 20q63 0 166 -43q3 -1 20 -8t21.5 -9t19 -7.5t21.5 -7t19 -4.5t22 -4t20 -1q28 0 55 9t43.5 18.5t53.5 33.5zM1397 496
q0 -146 -70 -258q-30 -48 -76.5 -92t-115.5 -85.5t-169.5 -66.5t-217.5 -25q-149 0 -269 35q-24 7 -50 17t-66 30.5t-74.5 45.5t-72 63.5t-64 83t-43.5 105.5t-17 130q0 152 78 277q46 73 116 126.5t133 79.5t136.5 41.5t111.5 18t74 2.5q212 0 367 -74q54 -23 102 -63
q44 -35 84 -82q103 -124 103 -309zM1202 500q0 95 -47 174q-28 46 -67.5 81t-85 54.5t-84 32t-83.5 16.5t-62 5t-40 1q-202 -3 -323 -108q-121 -102 -121 -264q0 -107 59 -189q52 -71 154 -121.5t256 -50.5q158 0 280 78q25 16 47.5 36t52 55.5t47 87.5t17.5 112z" />
    <glyph glyph-name="odieresis" unicode="&#xf6;" 
d="M1102 1161h-199v211h199v-211zM563 1159h-198v211h198v-211zM1397 496q0 -146 -70 -258q-30 -48 -76.5 -92t-115.5 -85.5t-169.5 -66.5t-217.5 -25q-149 0 -269 35q-24 7 -50 17t-66 30.5t-74.5 45.5t-72 63.5t-64 83t-43.5 105.5t-17 130q0 152 78 277q46 73 116 126.5
t133 79.5t136.5 41.5t111.5 18t74 2.5q212 0 367 -74q54 -23 102 -63q44 -35 84 -82q103 -124 103 -309zM1202 500q0 95 -47 174q-28 46 -67.5 81t-85 54.5t-84 32t-83.5 16.5t-62 5t-40 1q-202 -3 -323 -108q-121 -102 -121 -264q0 -107 59 -189q52 -71 154 -121.5
t256 -50.5q158 0 280 78q25 16 47.5 36t52 55.5t47 87.5t17.5 112z" />
    <glyph glyph-name="divide" unicode="&#xf7;" horiz-adv-x="1581" 
d="M901 827h-223v220h223v-220zM1436 518h-1291v178h1291v-178zM903 160h-223v219h223v-219z" />
    <glyph glyph-name="oslash" unicode="&#xf8;" 
d="M1397 492q0 -116 -56 -226q-41 -79 -109.5 -138t-151 -92t-168 -49t-175.5 -16q-213 0 -358 74q-21 10 -92 57l-146 -106l-84 117l123 90q-3 5 -15 23t-18 28q-59 107 -59 240q0 189 127 331q95 105 233.5 154t296.5 49q192 0 340 -67q25 -10 80 -43l146 102l78 -111
l-117 -88q41 -52 47 -61q78 -124 78 -268zM1212 502q0 65 -17 110t-58 111l-699 -512q53 -32 60 -35q38 -18 107 -34.5t149 -16.5q25 0 54.5 3t77.5 11.5t100 30.5t93 55q40 33 66 70q67 89 67 207zM1022 811q-134 63 -279 63q-189 0 -307 -81q-54 -36 -94 -88
q-70 -87 -70 -209q0 -74 29 -146q8 -18 27 -41z" />
    <glyph glyph-name="ugrave" unicode="&#xf9;" 
d="M883 1128h-131l-263 281h259zM1323 0h-190l-3 125q-47 -42 -102 -76q-138 -84 -336 -84q-89 0 -188 23q-20 4 -41.5 9.5t-62.5 22t-75.5 38t-71.5 59t-58 82.5q-19 39 -28.5 92t-11 88t-1.5 96v524h192v-503q0 -129 27 -197q20 -47 62.5 -80.5t82 -48.5t91 -23.5t69 -9
t37.5 -0.5q144 0 244 53.5t139 120.5q15 25 21.5 54.5t7.5 47.5t1 58v528h195v-999z" />
    <glyph glyph-name="uacute" unicode="&#xfa;" 
d="M1055 1409l-264 -281h-136l142 281h258zM1323 0h-190l-3 125q-47 -42 -102 -76q-138 -84 -336 -84q-89 0 -188 23q-20 4 -41.5 9.5t-62.5 22t-75.5 38t-71.5 59t-58 82.5q-19 39 -28.5 92t-11 88t-1.5 96v524h192v-503q0 -129 27 -197q20 -47 62.5 -80.5t82 -48.5
t91 -23.5t69 -9t37.5 -0.5q144 0 244 53.5t139 120.5q15 25 21.5 54.5t7.5 47.5t1 58v528h195v-999z" />
    <glyph glyph-name="ucircumflex" unicode="&#xfb;" 
d="M1079 1130h-168l-166 156l-157 -158h-168l215 283h221zM1323 0h-190l-3 125q-47 -42 -102 -76q-138 -84 -336 -84q-89 0 -188 23q-20 4 -41.5 9.5t-62.5 22t-75.5 38t-71.5 59t-58 82.5q-19 39 -28.5 92t-11 88t-1.5 96v524h192v-503q0 -129 27 -197q20 -47 62.5 -80.5
t82 -48.5t91 -23.5t69 -9t37.5 -0.5q144 0 244 53.5t139 120.5q15 25 21.5 54.5t7.5 47.5t1 58v528h195v-999z" />
    <glyph glyph-name="udieresis" unicode="&#xfc;" 
d="M1096 1163h-201v211h201v-211zM555 1161h-199v211h199v-211zM1323 0h-190l-3 125q-47 -42 -102 -76q-138 -84 -336 -84q-89 0 -188 23q-20 4 -41.5 9.5t-62.5 22t-75.5 38t-71.5 59t-58 82.5q-19 39 -28.5 92t-11 88t-1.5 96v524h192v-503q0 -129 27 -197
q20 -47 62.5 -80.5t82 -48.5t91 -23.5t69 -9t37.5 -0.5q144 0 244 53.5t139 120.5q15 25 21.5 54.5t7.5 47.5t1 58v528h195v-999z" />
    <glyph glyph-name="yacute" unicode="&#xfd;" horiz-adv-x="1236" 
d="M926 1409l-264 -281h-136l144 281h256zM1235 1001l-565 -1097q-25 -48 -43.5 -78.5t-51 -67.5t-69 -57.5t-92.5 -35t-125 -13.5q-103 2 -228 24v177q137 -31 205 -31q88 0 138.5 37.5t103.5 134.5l-508 1007h221l391 -806l406 806h217z" />
    <glyph glyph-name="thorn" unicode="&#xfe;" 
d="M1395 496q-2 -103 -38 -194t-115 -168t-193 -118q-96 -34 -228 -34q-110 0 -230.5 28t-201.5 92q-5 4 -11.5 10.5l-11.5 11.5l-10 10l-4 5v-538h-194v1845h194v-553q38 30 84 55q141 76 350 76q89 0 176 -19.5t167 -62t140 -102.5t94.5 -149t31.5 -195zM1184 512
q0 70 -23.5 129t-57 95.5t-77 64.5t-76.5 40t-63 19q-53 10 -121 10q-64 0 -125 -12q-37 -8 -71.5 -21t-77 -40.5t-74 -64.5t-53.5 -96t-23 -132t20.5 -132.5t55 -96.5t80.5 -64.5t87.5 -41t86 -21.5t67 -9.5t37.5 -1.5q113 1 203.5 42t147.5 127.5t57 205.5z" />
    <glyph glyph-name="ydieresis" unicode="&#xff;" horiz-adv-x="1236" 
d="M979 1165h-199v211h199v-211zM440 1165h-198v211h198v-211zM1235 1001l-565 -1097q-25 -48 -43.5 -78.5t-51 -67.5t-69 -57.5t-92.5 -35t-125 -13.5q-103 2 -228 24v177q137 -31 205 -31q88 0 138.5 37.5t103.5 134.5l-508 1007h221l391 -806l406 806h217z" />
    <glyph glyph-name="OE" unicode="&#x152;" horiz-adv-x="2347" 
d="M2279 0h-1077q-204 -20 -309 -20q-159 0 -286 35.5t-240 121.5q-91 68 -154 164q-52 79 -84 195q-31 108 -31 229q0 41 3.5 81.5t19 108t41.5 127.5t76.5 129t119.5 123q216 172 557 172q120 0 267 -20h1089v-180h-876v-439h817v-168h-817v-481h884v-178zM1198 178v1092
q-152 35 -272 35q-30 0 -57.5 -2t-79 -8.5t-100 -23.5t-102 -43t-103 -71t-87.5 -104q-90 -141 -90 -334q0 -37 3 -73t18 -97.5t41 -113.5t78 -109.5t122 -96.5q154 -86 351 -86q50 0 101.5 5.5t78 10.5t98.5 19z" />
    <glyph glyph-name="oe" unicode="&#x153;" horiz-adv-x="2347" 
d="M2251 477h-983q6 -115 73 -201q59 -73 147 -109t189 -36q170 0 281 98q30 23 53 58q20 27 31 51l184 -49q-16 -34 -47 -84q-87 -123 -229 -180q-124 -52 -281 -52q-67 0 -139 13q-84 14 -149 41t-130 77q-27 18 -73 64q-30 -30 -54.5 -50.5t-68.5 -50t-103 -50.5
t-129 -33q-88 -13 -145 -13q-121 0 -227.5 35.5t-188 101.5t-129 168.5t-47.5 227.5q0 179 109 313q88 105 217.5 158t273.5 53q31 0 66.5 -3t92.5 -13t119 -35t115 -62q20 -15 39 -31t34.5 -31t18.5 -17q42 42 76 69q163 121 398 121q126 0 222 -33t154 -75
q135 -93 193 -248q31 -80 37 -193zM2023 623q-10 34 -22 59q-47 98 -141.5 147.5t-208.5 49.5q-92 0 -175 -33t-135 -98q-37 -47 -61 -125h743zM1092 494q0 195 -158 305q-44 30 -101.5 46t-91 18.5t-61.5 0.5q-77 0 -148 -26q-62 -22 -109 -57.5t-73 -72.5t-42.5 -80
t-21.5 -74.5t-5 -61.5q0 -61 24 -127q20 -53 53 -93.5t72.5 -64.5t76.5 -39.5t77.5 -22t63 -8.5t44.5 -2q28 0 58 3.5t80 15.5t100 43t88 77q74 91 74 220z" />
    <glyph glyph-name="Scaron" unicode="&#x160;" horiz-adv-x="1662" 
d="M1163 1794l-223 -254h-217l-223 258h168l163 -145l168 141h164zM1563 428q-2 -151 -88 -252q-172 -211 -621 -211q-86 0 -171 8.5t-186 30t-196 66t-166 108.5q-57 52 -96 115l188 78q49 -58 118 -101t137 -67.5t146 -39t138 -19t121 -3.5q213 3 341.5 77.5t131.5 209.5
q0 118 -111 178q-40 22 -111 36.5t-135 20.5t-187.5 16.5t-201.5 18.5q-131 15 -182 27q-137 32 -212.5 121.5t-74.5 218.5q3 206 181.5 312t492.5 106q234 0 403.5 -59t268.5 -164q3 -3 55 -68l-188 -76q-38 38 -74 66q-167 131 -457 131q-329 0 -434 -125
q-46 -57 -43 -125q2 -52 35 -94q9 -12 19.5 -22t24.5 -18t24 -14t27.5 -11t25.5 -7.5t28.5 -5.5t25 -4t26 -3.5t22.5 -2.5q87 -11 199 -21t184.5 -15t157 -18t141.5 -31.5t112 -54.5t93 -88q71 -100 68 -225z" />
    <glyph glyph-name="scaron" unicode="&#x161;" horiz-adv-x="1366" 
d="M1006 1417l-215 -282h-222l-219 280h164l166 -155l160 157h166zM1272 303q0 -63 -22 -114.5t-57.5 -86t-85.5 -61t-99 -41t-105.5 -23.5t-98.5 -11.5t-83 -2.5q-232 0 -405 56.5t-279 152.5l168 113q60 -47 98 -68q164 -90 406 -90q69 0 129.5 8.5t113 26t83 50
t30.5 75.5q0 42 -23.5 69t-82.5 41t-95.5 18.5t-123.5 10.5q-17 1 -25 2q-18 1 -54 4l-100.5 7.5t-89.5 9t-85.5 14t-71 20.5t-66 29t-49.5 40t-41 54q-27 51 -27 121q2 61 26.5 110.5t60.5 81t89 55t100.5 35.5t105.5 19t94.5 8.5t76.5 1.5q280 0 473 -108q75 -42 111 -78
l-170 -94q-178 121 -439 116q-202 0 -272 -61q-41 -36 -41 -76q0 -45 55 -82q29 -18 159 -34t274 -27.5t159 -13.5q20 -3 35.5 -6.5t46 -13t54 -21.5t52 -34t47 -48.5t31.5 -66.5t13 -87z" />
    <glyph glyph-name="Ydieresis" unicode="&#x178;" horiz-adv-x="1662" 
d="M1186 1583h-199v211h199v-211zM647 1585h-201v211h201v-211zM1661 1446l-733 -887v-559h-203v563l-721 883h264l559 -709l572 709h262z" />
    <glyph glyph-name="florin" unicode="&#x192;" horiz-adv-x="641" 
d="M743 1425l-20 -174q-83 19 -117 19q-107 0 -155 -74q-15 -25 -21 -78l-14 -133h274l-16 -133h-275l-96 -852q-1 -10 -4 -30q-18 -154 -37 -208q-29 -78 -104 -131q-82 -59 -215 -59q-53 0 -156 14l18 174q71 -18 119 -18q44 0 76 11t49 24.5t28.5 39t15 41.5t7.5 44
q1 8 11 98l98 852h-164l14 133h166l13 105q0 6 3 33t12.5 72t22.5 71q23 50 62 86t73 52.5t77 25.5t60.5 9.5t36.5 0.5h2h1q44 0 155 -15z" />
    <glyph glyph-name="circumflex" unicode="&#x2c6;" horiz-adv-x="768" 
d="M713 1130h-166l-168 156l-156 -158h-168l215 283h222z" />
    <glyph glyph-name="tilde" unicode="&#x2dc;" horiz-adv-x="768" 
d="M774 1249q-91 -65 -141 -88.5t-96 -23.5q-53 0 -160 41t-160 41q-39 0 -68.5 -16t-80.5 -56l-74 92q54 43 84.5 64t76.5 41t87 20q63 0 164 -43q7 -3 24 -10t25 -10t23 -8t25 -7t23 -4t25 -2q39 0 69.5 14t79.5 47z" />
    <glyph glyph-name="endash" unicode="&#x2013;" horiz-adv-x="1282" 
d="M1210 530h-1138v168h1138v-168z" />
    <glyph glyph-name="emdash" unicode="&#x2014;" horiz-adv-x="1908" 
d="M1837 530h-1765v168h1765v-168z" />
    <glyph glyph-name="quoteleft" unicode="&#x2018;" horiz-adv-x="512" 
d="M352 961h-225v262q0 90 29 143t108 78q14 4 44 7t44 7v-112q-54 -6 -73 -26.5t-19 -74.5v-63h92v-221z" />
    <glyph glyph-name="quoteright" unicode="&#x2019;" horiz-adv-x="512" 
d="M379 1182q0 -90 -29 -143t-108 -78q-15 -4 -44.5 -7.5t-43.5 -7.5v113q54 6 73 26t19 74v64h-92v223h225v-264z" />
    <glyph glyph-name="quotesinglbase" unicode="&#x201a;" horiz-adv-x="512" 
d="M369 -39q0 -119 -52 -176.5t-172 -58.5v112q54 6 73.5 26.5t19.5 74.5v61h-93v221h224v-260z" />
    <glyph glyph-name="quotedblleft" unicode="&#x201c;" horiz-adv-x="894" 
d="M748 961h-226v262q0 90 29 143t108 78q14 4 44.5 7t44.5 7v-112q-54 -6 -73.5 -26.5t-19.5 -74.5v-63h93v-221zM367 961h-226v262q0 90 29 143t109 78q15 4 44.5 7t43.5 7v-112q-54 -6 -73.5 -26.5t-19.5 -74.5v-63h93v-221z" />
    <glyph glyph-name="quotedblright" unicode="&#x201d;" horiz-adv-x="894" 
d="M745 1184q0 -118 -53 -176.5t-172 -59.5v113q54 6 73 26t19 74v62h-92v223h225v-262zM362 1184q0 -119 -51.5 -177t-171.5 -59v113q54 6 73 26t19 74v62h-92v223h223v-262z" />
    <glyph glyph-name="quotedblbase" unicode="&#x201e;" horiz-adv-x="894" 
d="M748 -39q0 -91 -28.5 -144.5t-109.5 -78.5q-16 -4 -46 -8t-42 -6v112q55 6 74.5 27t19.5 74v63h-94v221h226v-260zM369 -39q0 -119 -52 -176.5t-172 -58.5v112q54 6 73.5 26.5t19.5 74.5v61h-93v221h224v-260z" />
    <glyph glyph-name="dagger" unicode="&#x2020;" horiz-adv-x="1236" 
d="M1155 821h-440v-1075h-195v1075h-444v162h444v463h195v-461h440v-164z" />
    <glyph glyph-name="daggerdbl" unicode="&#x2021;" horiz-adv-x="1236" 
d="M1155 168h-440v-424h-193v424h-444v147h444v594h-444v150h444v387h193v-387h440v-150h-440v-594h440v-147z" />
    <glyph glyph-name="bullet" unicode="&#x2022;" horiz-adv-x="681" 
d="M578 487h-476v471h476v-471z" />
    <glyph glyph-name="ellipsis" unicode="&#x2026;" horiz-adv-x="2048" 
d="M1808 0h-202v199h202v-199zM1126 0h-200v199h200v-199zM440 0h-202v199h202v-199z" />
    <glyph glyph-name="perthousand" unicode="&#x2030;" horiz-adv-x="3072" 
d="M3011 453q0 -88 -26.5 -169t-76 -147t-129.5 -105.5t-178 -39.5q-99 0 -178.5 36.5t-129.5 98.5t-77 140t-29 167q0 262 170 395q102 81 242 84q85 1 152.5 -27t111.5 -69q39 -31 62 -67q86 -122 86 -297zM2073 453q0 -88 -26.5 -169t-76 -147t-130 -105.5t-179.5 -39.5
t-178 36.5t-128.5 98.5t-76.5 140.5t-29 166.5q0 262 170 395q102 81 242 84q152 2 264 -96q37 -32 62 -67q86 -122 86 -297zM1556 1372l-884 -1397l-101 62l885 1399zM877 961q0 -88 -26.5 -169.5t-76 -147.5t-129.5 -106t-178 -40q-99 0 -178.5 36.5t-129.5 98.5t-77 141
t-29 168q0 260 170 393q107 84 242 84q152 2 264 -96q30 -23 62 -68q86 -122 86 -294zM2867 449q0 86 -22.5 153.5t-61 108t-85.5 61.5t-99 21q-36 0 -66 -9q-86 -25 -142.5 -111t-59.5 -220q-1 -49 7 -95.5t27.5 -91.5t49.5 -78.5t77.5 -54t106.5 -20.5q72 0 126.5 31
t84 82.5t43.5 107.5t14 115zM1927 449q0 167 -78 255.5t-188 88.5q-36 0 -66 -9q-86 -25 -142.5 -111t-59.5 -220q-2 -62 11.5 -119.5t43.5 -108.5t85 -81.5t128 -30.5q58 0 104.5 21t76 54.5t49.5 78.5t28 90t8 92zM733 956q0 86 -22.5 153.5t-61 108t-85.5 61.5t-99 21
q-33 0 -66 -10q-85 -23 -141 -110t-59 -222q-1 -62 12.5 -119t42.5 -108t83.5 -82t127.5 -31q72 0 126.5 31.5t84 83t43.5 108t14 115.5z" />
    <glyph glyph-name="guilsinglleft" unicode="&#x2039;" horiz-adv-x="598" 
d="M498 111l-414 325v176l414 324v-129l-262 -285l262 -280v-131z" />
    <glyph glyph-name="guilsinglright" unicode="&#x203a;" horiz-adv-x="598" 
d="M512 434l-416 -325v131l264 282l-264 281v133l416 -326v-176z" />
    <glyph glyph-name="Euro" unicode="&#x20ac;" horiz-adv-x="1910" 
d="M1802 1245l-98 -188q-35 52 -120 110.5t-169 87.5q-146 52 -348 52q-168 0 -296 -46.5t-200 -132.5q-38 -45 -68.5 -109.5t-41.5 -117.5h1177l-61 -127h-1131q0 -47 7 -102h1071l-62 -125h-991q57 -198 217.5 -301t415.5 -103q138 0 285.5 37t242.5 96q68 44 135 111
v-254q-285 -170 -677 -170q-347 0 -568 153.5t-272 430.5h-187l68 125h100q-2 20 -2 47q0 5 4 55h-170l68 127h115q54 280 274 433t567 153q238 0 427.5 -64t287.5 -178z" />
    <glyph glyph-name="trademark" unicode="&#x2122;" horiz-adv-x="1406" 
d="M1278 766h-117l10 549l-174 -549h-102l-174 557l14 -557h-117v680h162l170 -541l162 541h166v-680zM561 1346h-213v-580h-121v580h-219v100h553v-100z" />
    </font>
</defs>
</svg>
