<?xml version="1.0" standalone="no"?>
<!DOCTYPE svg PUBLIC "-//W3C//DTD SVG 1.1//EN" "http://www.w3.org/Graphics/SVG/1.1/DTD/svg11.dtd" >
<svg xmlns="http://www.w3.org/2000/svg" xmlns:xlink="http://www.w3.org/1999/xlink" version="1.1">
<metadata>
Created by FontForge 20170731 at Fri Apr 10 21:46:42 2015
 By Aleksey,,,
Copyright (c) 2014 by Jeff Schreiber. All rights reserved.
</metadata>
<defs>
<font id="FatFrank-Heavy" horiz-adv-x="569" >
  <font-face 
    font-family="FatFrank Heavy"
    font-weight="900"
    font-stretch="normal"
    units-per-em="2048"
    panose-1="0 0 10 0 0 0 0 0 0 0"
    ascent="1485"
    descent="-563"
    x-height="1126"
    cap-height="1413"
    bbox="-80 -475 2122 1852.12"
    underline-thickness="102"
    underline-position="-306"
    unicode-range="U+0020-25FC"
  />
<missing-glyph horiz-adv-x="748" 
d="M68 0v1365h544v-1365h-544zM136 68h408v1229h-408v-1229z" />
    <glyph glyph-name=".notdef" horiz-adv-x="748" 
d="M68 0v1365h544v-1365h-544zM136 68h408v1229h-408v-1229z" />
    <glyph glyph-name="glyph1" horiz-adv-x="0" 
 />
    <glyph glyph-name="glyph2" horiz-adv-x="682" 
 />
    <glyph glyph-name="space" unicode=" " horiz-adv-x="266" 
 />
    <glyph glyph-name="exclam" unicode="!" horiz-adv-x="720" 
d="M135 143q0 -32 11 -60.5t35.5 -54.5t70.5 -41.5t108 -15.5q120 0 173 51t53 121q0 30 -11 58t-35.5 53.5t-70.5 41t-109 15.5q-118 0 -171.5 -50.5t-53.5 -117.5zM150 1382l30 -1009q0 -11 9.5 -20t21.5 -9h297q12 0 21.5 9t9.5 20l32 1009q0 12 -9 21.5t-21 9.5h-361
q-12 0 -21 -9.5t-9 -21.5z" />
    <glyph glyph-name="quotedbl" unicode="&#x22;" horiz-adv-x="755" 
d="M33 1036q-3 -28 41 -18l137 29q35 6 51 55l90 274q6 37 -28 37h-218q-46 0 -49 -51zM403 1036q-3 -28 41 -18l138 29q35 6 51 55l90 274q6 37 -29 37h-217q-46 0 -49 -51z" />
    <glyph glyph-name="numbersign" unicode="#" horiz-adv-x="1083" 
d="M74 221v195q0 11 7 19.5t19 8.5h138l22 70h-160q-12 0 -19 8t-7 19v196q0 11 7.5 21t18.5 10h238l51 168q3 9 14 17t21 8h201q10 0 15.5 -8t2.5 -17l-51 -168h78l53 168q3 9 14 17t21 8h198q12 0 18 -8t3 -17l-53 -168h59q10 0 18.5 -10t8.5 -21v-196q0 -11 -8 -19
t-19 -8h-137l-21 -70h158q10 0 18.5 -8.5t8.5 -19.5v-195q0 -12 -8 -20t-19 -8h-238l-51 -168q-3 -9 -14 -17t-21 -8h-200q-10 0 -16 8t-3 17l54 168h-80l-54 -168q-3 -9 -13.5 -17t-20.5 -8h-199q-10 0 -15.5 8t-2.5 17l51 168h-60q-12 0 -19 8t-7 20zM492 444h79l21 70
h-78z" />
    <glyph glyph-name="dollar" unicode="$" horiz-adv-x="1095" 
d="M41 987q0 181 112 302t302 147v86q0 12 8 21t20 9h127q13 0 22 -9t9 -21v-84q96 -12 196.5 -50t180.5 -92q27 -17 16 -36l-129 -289q-5 -15 -15 -19.5t-22 2.5q-76 43 -155.5 73t-132.5 34q-47 0 -76 -20t-29 -54q0 -24 32 -45t83 -41t113 -44t124 -61t113 -84t83 -121.5
t32 -166.5q0 -178 -112 -298t-302 -149v-77q0 -12 -9 -20.5t-22 -8.5h-127q-12 0 -20 8.5t-8 20.5v73q-111 9 -213 44t-168 87q-27 20 -17 37l129 289q10 33 37 16q71 -40 149 -67t136 -31q49 0 78.5 21.5t29.5 56.5q0 21 -24.5 40.5t-65 35t-92.5 37.5t-105.5 45.5
t-105.5 61t-92.5 82.5t-65 112t-24.5 147z" />
    <glyph glyph-name="ampersand" unicode="&#x26;" horiz-adv-x="1552" 
d="M41 426q0 104 48 190t130 134q-60 40 -94.5 111.5t-34.5 160.5q0 190 132 306t349 116q239 0 386 -121t147 -319v-109h235q13 0 22 -8.5t9 -20.5l-22 -280q-2 -13 -10.5 -22t-20.5 -9h-213v-174q0 -51 29.5 -82t76.5 -31h105q17 0 24 -26v-209q0 -15 -8 -24t-22 -9h-199
q-104 0 -207 41q-160 -70 -344 -70q-233 0 -375.5 125.5t-142.5 329.5zM449 451q0 -54 37 -86.5t98 -32.5q54 0 86 25t32 65v133h-118q-61 0 -98 -28.5t-37 -75.5zM471 997q0 -46 31 -74t82 -28h118v88q0 48 -32 77.5t-86 29.5q-51 0 -82 -26t-31 -67z" />
    <glyph glyph-name="quotesingle" unicode="'" horiz-adv-x="385" 
d="M33 1036q-3 -28 41 -18l137 29q35 6 51 55l90 274q6 37 -28 37h-218q-46 0 -49 -51z" />
    <glyph glyph-name="parenleft" unicode="(" horiz-adv-x="622" 
d="M41 647q0 463 303 821q12 14 28.5 14.5t28.5 -12.5l138 -141q22 -26 2 -49q-234 -286 -234 -635q0 -176 57.5 -355.5t161.5 -275.5q14 -12 15 -27.5t-11 -29.5l-129 -131q-12 -14 -28.5 -14t-28.5 14q-303 359 -303 821z" />
    <glyph glyph-name="parenright" unicode=")" horiz-adv-x="622" 
d="M81 -13.5q1 15.5 15 27.5q104 96 161.5 275.5t57.5 355.5q0 350 -233 635q-20 23 2 49l137 141q12 13 29 12.5t29 -14.5q303 -358 303 -821q0 -462 -303 -821q-12 -14 -29 -14t-29 14l-129 131q-12 14 -11 29.5z" />
    <glyph glyph-name="asterisk" unicode="*" horiz-adv-x="636" 
d="M82 1167v74q0 11 8 19t19 8h145v118q0 10 8 18.5t19 8.5h73q13 0 21 -8.5t8 -20.5v-116h145q10 0 18.5 -8t8.5 -19v-74q0 -12 -8 -20t-21 -8h-106l82 -117q6 -9 3.5 -21t-11.5 -18l-60 -41q-24 -17 -41 6l-74 109l-75 -109q-17 -23 -41 -6l-60 41q-9 6 -11.5 18t3.5 21
l82 117h-106q-12 0 -20.5 8t-8.5 20z" />
    <glyph glyph-name="plus" unicode="+" horiz-adv-x="876" 
d="M82 469v199q0 12 9 20t20 8h198v199q0 11 9 20t22 9h199q12 0 20 -9t8 -20v-199h197q12 0 21.5 -8t9.5 -20v-199q0 -13 -9.5 -22t-21.5 -9h-197v-196q0 -12 -8 -21.5t-20 -9.5h-199q-13 0 -22 9.5t-9 21.5v196h-198q-11 0 -20 9t-9 22z" />
    <glyph glyph-name="comma" unicode="," horiz-adv-x="421" 
d="M2.5 -132q6.5 -17 28.5 -20l215 -53q33 -7 49 37l123 303q16 41 -41 41h-158q-18 0 -47 -33l-166 -239q-10 -19 -3.5 -36z" />
    <glyph glyph-name="hyphen" unicode="-" horiz-adv-x="811" 
d="M74 455v225q0 12 8.5 20.5t19.5 8.5h605q12 0 21 -8.5t9 -20.5v-225q0 -13 -9 -22t-21 -9h-605q-11 0 -19.5 9t-8.5 22z" />
    <glyph glyph-name="period" unicode="." horiz-adv-x="454" 
d="M47 139q0 -75 49.5 -121.5t130.5 -46.5q82 0 131.5 46.5t49.5 121.5q0 77 -50 124.5t-131 47.5t-130.5 -47.5t-49.5 -124.5z" />
    <glyph glyph-name="slash" unicode="/" horiz-adv-x="776" 
d="M2 -172q-5 -14 2.5 -23.5t22.5 -9.5h194q14 0 27.5 10t17.5 23l508 1640q5 14 -2 23.5t-22 9.5h-195q-14 0 -27.5 -10t-17.5 -23z" />
    <glyph glyph-name="zero" unicode="0" horiz-adv-x="1316" 
d="M-6 707q0 -332 183 -535t482 -203q298 0 481 203.5t183 534.5t-183 534t-481 203q-299 0 -482 -202.5t-183 -534.5zM428 707q0 166 63.5 267t167.5 101q103 0 166.5 -101.5t63.5 -266.5q0 -166 -63.5 -267.5t-166.5 -101.5q-104 0 -167.5 101.5t-63.5 267.5z" />
    <glyph glyph-name="one" unicode="1" horiz-adv-x="675" 
d="M12 1065v252q0 12 9 21t24 10l528 82q29 3 29 -21v-1378q0 -12 -8.5 -21.5t-20.5 -9.5h-362q-13 0 -22 9.5t-9 21.5v1009h-141q-11 0 -19.5 7t-7.5 18z" />
    <glyph glyph-name="two" unicode="2" horiz-adv-x="1060" 
d="M35 29v227q0 26 20 49q482 499 482 690q0 38 -26.5 59t-74.5 21q-104 0 -233 -90q-11 -6 -21.5 -0.5t-13.5 16.5l-109 248q-7 17 17 35q105 75 223 117.5t225 42.5q215 0 336 -106.5t121 -295.5q0 -157 -83 -330t-249 -343h348q12 0 21.5 -8.5t9.5 -20.5v-311
q0 -12 -9.5 -20.5t-21.5 -8.5h-931q-13 0 -22 8.5t-9 20.5z" />
    <glyph glyph-name="three" unicode="3" horiz-adv-x="1167" 
d="M76 152l100 284q3 10 16 15t21 2q191 -93 317 -93q78 0 121 27t43 68q0 44 -47 72t-123 28h-202q-13 0 -23 8.5t-12 18.5l-29 286q-2 10 6 18.5t21 8.5h239q66 0 107 25.5t41 66.5q0 34 -38 57t-104 23q-76 0 -254 -53q-10 -3 -20.5 2.5t-15.5 13.5l-99 264q-8 21 17 35
q100 54 219 84.5t231 30.5q221 0 345 -110t124 -306q0 -85 -36.5 -156t-100.5 -112q88 -57 137 -147.5t49 -196.5q0 -209 -138.5 -327t-385.5 -118q-138 0 -273.5 39.5t-238.5 108.5q-7 4 -12.5 13.5t-1.5 19.5z" />
    <glyph glyph-name="four" unicode="4" horiz-adv-x="1173" 
d="M53 295v240q0 26 15 53l434 805q10 20 30 20h500q12 0 20.5 -8t8.5 -19v-790h61q12 0 21.5 -8.5t9.5 -20.5v-291q0 -13 -9.5 -21.5t-21.5 -8.5h-61v-215q0 -12 -8.5 -21.5t-20.5 -9.5h-362q-13 0 -22 9.5t-9 21.5v215h-541q-21 0 -33 13.5t-12 35.5zM457 596h182v401z
" />
    <glyph glyph-name="five" unicode="5" horiz-adv-x="1142" 
d="M35 145q-4 -9 1.5 -18.5t12.5 -13.5q116 -69 243.5 -105.5t242.5 -36.5q271 0 423 132.5t152 367.5q0 211 -115 329t-321 118q-125 -4 -205 -46l18 172h469q12 0 22 8.5t11 20.5l37 313q0 12 -8.5 21.5t-20.5 9.5h-833q-12 0 -21 -8.5t-10 -22.5l-57 -798
q-2 -14 6.5 -22.5t23.5 -8.5h412q79 0 121.5 -26t42.5 -68q0 -51 -42.5 -79t-119.5 -28q-196 0 -348 90q-5 3 -19 -1.5t-18 -14.5z" />
    <glyph glyph-name="six" unicode="6" horiz-adv-x="1247" 
d="M33 709q0 331 174.5 534t458.5 203q213 0 393 -115q23 -16 16 -35l-100 -272q-4 -9 -15 -15t-22 -1q-141 63 -246 63q-123 0 -187.5 -75.5t-64.5 -204.5q103 114 291 114q215 0 335 -115t120 -319q0 -224 -143.5 -362t-378.5 -138q-298 0 -464.5 195.5t-166.5 542.5z
M473 487q0 -63 43 -99t119 -36q67 0 108 32t41 85q0 49 -39 79t-102 30q-58 0 -103 -24t-67 -67z" />
    <glyph glyph-name="seven" unicode="7" horiz-adv-x="1013" 
d="M12 1073q0 -12 7.5 -20.5t19.5 -8.5h455l-433 -901q-5 -11 0 -23t17 -16l323 -163q12 -5 24.5 -0.5t16.5 14.5l545 1143q14 28 14 57v227q0 12 -8.5 21.5t-19.5 9.5h-928q-13 0 -23 -9t-10 -20v-311z" />
    <glyph glyph-name="eight" unicode="8" horiz-adv-x="1214" 
d="M61 385q0 100 51.5 186.5t139.5 137.5q-72 39 -115 124.5t-43 194.5q0 187 147 301.5t386 114.5t385.5 -114.5t146.5 -301.5q0 -106 -46.5 -184.5t-123.5 -108.5q92 -53 144.5 -142t52.5 -194q0 -192 -154.5 -310t-406.5 -118q-253 0 -408.5 114t-155.5 300zM461 438
q0 -54 45 -87.5t117 -33.5q73 0 118 33.5t45 87.5q0 38 -43.5 73.5t-115.5 57.5q-75 0 -120.5 -36t-45.5 -95zM494 977q0 -32 31.5 -62t84.5 -47q67 3 108.5 33t41.5 76q0 51 -36.5 82t-96.5 31t-96.5 -31t-36.5 -82z" />
    <glyph glyph-name="nine" unicode="9" horiz-adv-x="1245" 
d="M61 946q0 224 144 361t379 137q298 0 464 -194t166 -541q0 -332 -174 -535t-458 -203q-214 0 -394 115q-23 16 -16 35l100 272q4 9 15 15.5t22 1.5q144 -64 246 -64q123 0 187.5 75.5t64.5 205.5q-103 -115 -291 -115q-215 0 -335 115t-120 319zM463 963q0 -49 39 -79
t102 -30q59 0 103.5 23.5t66.5 66.5q0 63 -43 99t-119 36q-67 0 -108 -31.5t-41 -84.5z" />
    <glyph glyph-name="colon" unicode=":" horiz-adv-x="454" 
d="M47 168q0 -75 49.5 -121.5t130.5 -46.5q82 0 131.5 46.5t49.5 121.5q0 77 -50 124.5t-131 47.5t-130.5 -47.5t-49.5 -124.5zM47 743q0 -75 49.5 -121.5t130.5 -46.5q82 0 131.5 46.5t49.5 121.5q0 77 -50 124.5t-131 47.5t-130.5 -47.5t-49.5 -124.5z" />
    <glyph glyph-name="semicolon" unicode=";" horiz-adv-x="454" 
d="M-71.5 -132q6.5 -17 28.5 -20l215 -53q33 -7 49 37l123 303q16 41 -41 41h-158q-18 0 -47 -33l-166 -239q-10 -19 -3.5 -36zM47 743q0 -75 49.5 -121.5t130.5 -46.5q82 0 131.5 46.5t49.5 121.5q0 77 -50 124.5t-131 47.5t-130.5 -47.5t-49.5 -124.5z" />
    <glyph glyph-name="less" unicode="&#x3c;" horiz-adv-x="598" 
d="M14 567.5q0 -11.5 9 -20.5l301 -301q9 -9 21.5 -9t21.5 9l141 141q8 7 7.5 19.5t-9.5 21.5l-139 139l141 142q8 7 8 19t-8 20l-141 141q-9 9 -21.5 9.5t-19.5 -7.5l-303 -303q-9 -9 -9 -20.5z" />
    <glyph glyph-name="equal" unicode="=" horiz-adv-x="708" 
d="M74 281v198q0 12 8.5 20.5t19.5 6.5h500q12 0 21.5 -8.5t9.5 -20.5v-198q0 -13 -9.5 -22t-21.5 -7h-500q-11 0 -19.5 9t-8.5 22zM76 662v198q0 12 8.5 20.5t19.5 6.5h500q12 0 21.5 -8.5t9.5 -20.5v-199q0 -13 -9.5 -21.5t-21.5 -6.5h-500q-11 0 -19.5 9t-8.5 22z" />
    <glyph glyph-name="greater" unicode="&#x3e;" horiz-adv-x="598" 
d="M82 728q0 -12 8 -19l141 -142l-139 -139q-9 -9 -9.5 -21.5t7.5 -19.5l141 -141q9 -9 21.5 -9t21.5 9l301 301q9 9 9 20.5t-9 20.5l-303 303q-7 8 -19.5 7.5t-21.5 -9.5l-141 -141q-8 -8 -8 -20z" />
    <glyph glyph-name="question" unicode="?" horiz-adv-x="860" 
d="M2 1348q-7 20 14 26q103 34 181.5 52t164.5 18q234 0 350.5 -109.5t116.5 -290.5q0 -64 -16 -120.5t-41.5 -98.5t-56 -80.5t-61 -72.5t-56 -67.5t-41.5 -73t-16 -82.5v-93q0 -10 -8.5 -17t-20.5 -7h-342q-30 0 -33 24v93q0 91 28 169t68.5 130.5t80.5 97t68 88.5t28 84
q0 35 -30.5 57.5t-60.5 22.5q-76 0 -213 -43q-8 -2 -16.5 2.5t-9.5 11.5q-72 267 -78 279zM115 143q0 -32 11 -60.5t35.5 -54.5t70.5 -41.5t108 -15.5q120 0 172.5 51t52.5 121q0 30 -11 58t-35 53.5t-70 41t-109 15.5q-118 0 -171.5 -50.5t-53.5 -117.5z" />
    <glyph glyph-name="A" unicode="A" horiz-adv-x="1376" 
d="M-33 27l463 1359q5 10 20 18.5t29 8.5h418q14 0 29 -8.5t20 -18.5l463 -1359q5 -9 -0.5 -18t-17.5 -9h-406q-29 0 -43 27l-61 215h-385l-62 -215q-14 -27 -43 -27h-405q-12 0 -18 9t-1 18zM578 535h221l-111 389z" />
    <glyph glyph-name="B" unicode="B" horiz-adv-x="1239" 
d="M74 29v1353q0 11 8.5 21t19.5 10h617q201 0 323.5 -109.5t122.5 -289.5q0 -110 -49 -187t-133 -102q98 -25 155.5 -112t57.5 -214q0 -180 -122 -289.5t-322 -109.5h-650q-12 0 -20 9t-8 20zM496 367h166q44 0 72 27t28 71t-28 71t-72 27h-166v-196zM496 858h129
q46 0 74 25.5t28 68.5t-28 69t-74 26h-129v-189z" />
    <glyph glyph-name="C" unicode="C" horiz-adv-x="1236" 
d="M41 707q0 219 87.5 386.5t247.5 259t369 91.5q113 0 227 -31.5t204 -87.5q28 -14 18 -37l-135 -284q-13 -30 -39 -17q-101 57 -238 57q-138 0 -222.5 -92.5t-84.5 -244.5t84.5 -245t222.5 -93q137 0 238 57q26 13 39 -16l135 -285q10 -23 -18 -37q-90 -56 -204 -87.5
t-227 -31.5q-316 0 -510 203t-194 535z" />
    <glyph glyph-name="D" unicode="D" horiz-adv-x="1341" 
d="M74 31v1351q0 12 8.5 21.5t19.5 9.5h476q326 0 524 -193.5t198 -512.5q0 -317 -198.5 -512t-523.5 -195h-476q-11 0 -19.5 9.5t-8.5 21.5zM496 369h106q119 0 191.5 93t72.5 245t-72.5 244.5t-191.5 92.5h-106v-675z" />
    <glyph glyph-name="E" unicode="E" horiz-adv-x="1126" 
d="M70 31v1353q0 29 28 29h932q13 0 23 -9t10 -20v-309q0 -13 -9.5 -22t-23.5 -9h-534v-161h434q13 0 20.5 -8.5t5.5 -18.5l-28 -287q-2 -10 -12 -18t-23 -8h-397v-174h559q12 0 21 -8t9 -19v-313q0 -11 -9 -20t-21 -9h-953q-10 0 -19.5 10t-12.5 21z" />
    <glyph glyph-name="F" unicode="F" horiz-adv-x="1058" 
d="M74 31v1353q0 11 8 20t20 9h914q13 0 22 -9t9 -20v-309q0 -13 -8.5 -22t-22.5 -9h-520v-186h411q13 0 21 -8.5t6 -18.5l-29 -286q-2 -10 -12 -18.5t-23 -8.5h-374v-489q0 -11 -9.5 -20t-21.5 -9h-363q-11 0 -19.5 10t-8.5 21z" />
    <glyph glyph-name="G" unicode="G" horiz-adv-x="1372" 
d="M41 709q0 164 53.5 301.5t149 233t233 149t301.5 53.5q113 0 226.5 -31.5t203.5 -87.5q12 -6 17 -17t2 -20l-103 -301q-10 -23 -39 -16q-133 71 -294 71q-141 0 -228.5 -92.5t-87.5 -242.5q0 -153 87.5 -246.5t228.5 -93.5q113 0 149 39v118h-188q-30 0 -33 23l-27 282
q-2 15 7 25t26 10h555q12 0 21.5 -8.5t9.5 -19.5v-652q0 -28 -25 -49q-92 -78 -226.5 -122t-281.5 -44q-331 0 -534 203t-203 535zM952 430v8v-8z" />
    <glyph glyph-name="H" unicode="H" horiz-adv-x="1318" 
d="M74 29v1353q0 12 8.5 21.5t19.5 9.5h383q13 0 22 -9.5t9 -21.5v-534h287v534q0 12 8 21.5t20 9.5h383q13 0 22 -9.5t9 -21.5v-1353q0 -11 -9 -20t-22 -9h-383q-12 0 -20 9t-8 20v458h-287v-458q0 -11 -9 -20t-22 -9h-383q-10 0 -19 9t-9 20z" />
    <glyph glyph-name="I" unicode="I" 
d="M74 29v1353q0 12 8.5 21.5t19.5 9.5h363q13 0 22 -9.5t9 -21.5v-1353q0 -11 -9 -20t-22 -9h-363q-10 0 -19 9t-9 20z" />
    <glyph glyph-name="J" unicode="J" horiz-adv-x="925" 
d="M33 109l100 280q4 13 16.5 14.5t22.5 -6.5q64 -51 154 -51q58 0 94.5 36.5t42.5 98.5v901q0 14 8.5 22.5t22.5 8.5h360q14 0 21.5 -9t3.5 -22v-944q0 -221 -130 -345t-360 -124q-98 0 -192 28.5t-150 74.5q-20 17 -14 37z" />
    <glyph glyph-name="K" unicode="K" horiz-adv-x="1286" 
d="M74 29v1353q0 12 8.5 21.5t19.5 9.5h363q13 0 22 -9.5t9 -21.5v-458l245 465q14 24 47 24h449q12 0 16 -6.5t-2 -17.5l-405 -650l436 -714q7 -11 2.5 -18t-16.5 -7h-475q-11 0 -24 7.5t-19 17.5l-254 512v-508q0 -11 -9 -20t-22 -9h-363q-10 0 -19 9t-9 20z" />
    <glyph glyph-name="L" unicode="L" horiz-adv-x="917" 
d="M74 29v1353q0 12 9 21.5t21 9.5h363q12 0 21.5 -9.5t9.5 -21.5v-1013h381q11 0 18.5 -8.5t7.5 -20.5l-28 -311q-2 -11 -11.5 -20t-21.5 -9h-740q-12 0 -21 9t-9 20z" />
    <glyph glyph-name="M" unicode="M" horiz-adv-x="1765" 
d="M74 29v1353q0 12 8 21.5t20 9.5h428q20 0 40.5 -12t29.5 -29l283 -782l282 782q9 17 29.5 29t40.5 12h428q12 0 20.5 -9.5t8.5 -21.5v-1353q0 -11 -8.5 -20t-20.5 -9h-379q-12 0 -21.5 9t-9.5 20v602l-206 -600q-4 -12 -21 -21.5t-31 -9.5h-225q-14 0 -30.5 9.5
t-20.5 21.5l-207 600v-602q0 -11 -9.5 -20t-21.5 -9h-379q-12 0 -20 9t-8 20z" />
    <glyph glyph-name="N" unicode="N" horiz-adv-x="1353" 
d="M74 29v1353q0 12 8 21.5t20 9.5h355q33 0 47 -27l354 -636v632q0 12 9 21.5t20 9.5h362q13 0 22 -9.5t9 -21.5v-1353q0 -11 -9 -20t-22 -9h-354q-26 0 -43 27l-356 637v-635q0 -11 -9 -20t-22 -9h-363q-12 0 -20 9t-8 20z" />
    <glyph glyph-name="O" unicode="O" horiz-adv-x="1562" 
d="M53 707q0 -218 90.5 -385t255.5 -259t381 -92t381 92t255.5 259t90.5 385q0 333 -200 536t-527 203t-527 -203t-200 -536zM500 707q0 146 77 235.5t203 89.5t203.5 -89.5t77.5 -235.5t-77.5 -236t-203.5 -90t-203 90t-77 236z" />
    <glyph glyph-name="P" unicode="P" horiz-adv-x="1171" 
d="M74 29v1353q0 12 8.5 21.5t19.5 9.5h484q266 0 419.5 -132.5t153.5 -354.5t-153.5 -355t-419.5 -133h-84v-409q0 -11 -10 -20t-23 -9h-367q-10 0 -19 9t-9 20zM498 805h106q54 0 87.5 33.5t33.5 87.5t-33.5 87.5t-87.5 33.5h-106v-242z" />
    <glyph glyph-name="Q" unicode="Q" horiz-adv-x="1574" 
d="M53 707q0 333 200 536t527 203t527 -203t200 -536q0 -249 -116 -431l168 -135q27 -21 4 -41l-252 -250q-22 -17 -41 5l-152 186q-152 -70 -338 -70q-216 0 -381 92t-255.5 259t-90.5 385zM487 707q0 -152 80.5 -245t212.5 -93q34 0 64 6l-62 76q-18 21 2 41l134 131
q21 21 38 6l91 -74q26 65 26 152q0 152 -80.5 244.5t-212.5 92.5t-212.5 -92.5t-80.5 -244.5z" />
    <glyph glyph-name="R" unicode="R" horiz-adv-x="1247" 
d="M74 29v1353q0 12 9 21.5t21 9.5h541q236 0 380 -127t144 -336q0 -124 -68.5 -233t-182.5 -158l325 -526q7 -13 -0.5 -23t-21.5 -10h-439q-32 0 -47 33l-213 446h-24v-450q0 -11 -10 -20t-23 -9h-361q-12 0 -21 9t-9 20zM498 827h120q53 0 85 30t32 79t-32 78.5t-85 29.5
h-120v-217z" />
    <glyph glyph-name="S" unicode="S" horiz-adv-x="1095" 
d="M41 987q0 206 142.5 331.5t375.5 125.5q109 0 235.5 -41t223.5 -107q27 -17 16 -36l-129 -289q-5 -15 -15 -19.5t-22 2.5q-76 43 -155.5 73t-132.5 34q-47 0 -76 -20t-29 -54q0 -24 32 -45t83 -41t113 -44t124 -61t113 -84t83 -121.5t32 -166.5q0 -204 -145.5 -329.5
t-381.5 -125.5q-129 0 -253.5 37t-200.5 98q-27 20 -17 37l129 289q10 33 37 16q71 -40 149 -67t136 -31q49 0 78.5 21.5t29.5 56.5q0 21 -24.5 40.5t-65 35t-92.5 37.5t-105.5 45.5t-105.5 61t-92.5 82.5t-65 112t-24.5 147z" />
    <glyph glyph-name="T" unicode="T" horiz-adv-x="1159" 
d="M0 1073v309q0 12 9 21.5t20 9.5h1101q13 0 22 -9t7 -20l-31 -311q-1 -12 -11 -20.5t-21 -8.5h-305v-1015q0 -11 -8.5 -20t-20.5 -9h-363q-12 0 -21 9t-9 20v1015h-340q-11 0 -20 8.5t-9 20.5z" />
    <glyph glyph-name="U" unicode="U" horiz-adv-x="1253" 
d="M61 524v854q0 14 10.5 24.5t24.5 10.5h353q15 0 24.5 -10.5t9.5 -24.5v-891q0 -70 38 -109.5t106 -39.5q67 0 105 39t38 108v893q0 14 11 24.5t24 10.5h352q15 0 25 -10.5t10 -24.5v-854q0 -272 -143.5 -412.5t-421.5 -140.5q-275 0 -419 140.5t-147 412.5z" />
    <glyph glyph-name="V" unicode="V" horiz-adv-x="1466" 
d="M2 1384q-4 10 2.5 19.5t18.5 9.5h456q13 0 24.5 -9t14.5 -20l215 -841l215 841q3 11 14.5 20t24.5 9h457q12 0 18.5 -9t1.5 -20l-469 -1355q-3 -11 -14 -20t-23 -9h-450q-12 0 -23 9t-14 20z" />
    <glyph glyph-name="W" unicode="W" horiz-adv-x="1978" 
d="M-18 1378q-5 14 2 24.5t22 10.5h459q15 0 29.5 -11t17.5 -24l117 -612l157 612q4 15 20.5 25t35.5 10h295q19 0 35 -10t20 -25l158 -612l116 612q3 13 17.5 24t29.5 11h459q15 0 22.5 -10.5t2.5 -24.5l-373 -1345q-4 -13 -17.5 -23t-27.5 -10h-356q-14 0 -29 10t-18 23
l-187 721l-186 -721q-3 -13 -18 -23t-29 -10h-357q-14 0 -27.5 10t-17.5 23z" />
    <glyph glyph-name="X" unicode="X" horiz-adv-x="1339" 
d="M4 33l367 674l-367 673q-7 13 0.5 23t22.5 10h426q13 0 27 -10t20 -23l170 -362l170 362q6 13 20 23t27 10h426q15 0 22 -9.5t0 -23.5l-366 -673l366 -674q7 -13 0 -23t-22 -10h-428q-13 0 -27 10t-20 23l-168 342l-168 -342q-6 -13 -20 -23t-27 -10h-428q-15 0 -22.5 10
t-0.5 23z" />
    <glyph glyph-name="Y" unicode="Y" horiz-adv-x="1294" 
d="M-16 1380q-7 13 0.5 23t21.5 10h426q32 0 47 -33l168 -368l168 368q15 33 47 33h426q14 0 22 -10t1 -23l-453 -815v-536q0 -11 -9.5 -20t-21.5 -9h-360q-12 0 -21.5 9t-9.5 20v536z" />
    <glyph glyph-name="Z" unicode="Z" horiz-adv-x="1212" 
d="M41 29q0 9 20 51l465 964h-413q-11 0 -20 9.5t-9 21.5v307q0 12 9 21.5t20 9.5h1013q14 0 22.5 -8.5t8.5 -22.5q0 -13 -20 -55l-461 -958h465q13 0 21.5 -8.5t8.5 -20.5v-311q0 -11 -8.5 -20t-21.5 -9h-1071q-12 0 -20.5 8.5t-8.5 20.5z" />
    <glyph glyph-name="bracketleft" unicode="[" horiz-adv-x="600" 
d="M41 -178v1653q0 11 8.5 18.5t20.5 7.5h430q11 0 18.5 -8t7.5 -20v-193q0 -12 -7.5 -20.5t-18.5 -8.5h-209v-1206h209q11 0 18.5 -8.5t7.5 -20.5v-192q0 -12 -7.5 -20.5t-18.5 -8.5h-430q-12 0 -20.5 8t-8.5 19z" />
    <glyph glyph-name="backslash" unicode="\" horiz-adv-x="776" 
d="M2 1468l508 -1640q4 -13 17.5 -23t27.5 -10h195q15 0 22 9.5t2 23.5l-508 1640q-4 13 -17.5 23t-27.5 10h-194q-15 0 -22.5 -9.5t-2.5 -23.5z" />
    <glyph glyph-name="bracketright" unicode="]" horiz-adv-x="600" 
d="M74 16q0 12 7.5 20.5t18.5 8.5h209v1206h-209q-11 0 -18.5 8.5t-7.5 20.5v193q0 12 7.5 20t18.5 8h430q12 0 20.5 -7.5t8.5 -18.5v-1653q0 -11 -8.5 -19t-20.5 -8h-430q-11 0 -18.5 8.5t-7.5 20.5v192z" />
    <glyph glyph-name="asciicircum" unicode="^" horiz-adv-x="727" 
d="M33 1164q1 -12 10 -21l141 -142q8 -7 19 -7t18 7l144 142l137 -139q24 -20 41 -3l141 142q9 9 9.5 21.5t-9.5 21.5l-299 299q-9 11 -21.5 11t-21.5 -11l-303 -301q-7 -8 -6 -20z" />
    <glyph glyph-name="underscore" unicode="_" horiz-adv-x="1040" 
d="M82 31v198q0 12 9 20.5t20 8.5h817q12 0 21 -8.5t9 -20.5v-198q0 -13 -9 -22t-21 -9h-817q-11 0 -20 9t-9 22z" />
    <glyph glyph-name="grave" unicode="`" horiz-adv-x="1228" 
d="M371 1386l80 150q6 13 19 17.5t22 -3.5l368 -217q11 -8 13 -20.5t-5 -24.5l-39 -84q-6 -15 -19 -21.5t-24 -0.5l-399 164q-30 12 -16 40z" />
    <glyph glyph-name="a" unicode="a" horiz-adv-x="1191" 
d="M41 346q1 151 108.5 242.5t280.5 91.5q89 0 162 -30t104 -79v86q0 66 -43 106t-114 40q-60 0 -127.5 -18.5t-118.5 -47.5q-16 -10 -31 17l-117 245q-9 22 11 39q88 56 204.5 86.5t239.5 30.5q266 0 392 -144t126 -450v-530q0 -12 -9.5 -21.5t-21.5 -9.5h-258
q-12 0 -22 9.5t-10 21.5l-15 55q-51 -54 -145.5 -85.5t-206.5 -31.5q-177 0 -284 104q-105 102 -105 267v6zM498 346q0 -34 24 -54t62 -20q60 0 112 52v45q-51 51 -112 51q-38 0 -62 -20t-24 -54z" />
    <glyph glyph-name="b" unicode="b" horiz-adv-x="1327" 
d="M74 31v1425q0 11 9 20t21 9h361q12 0 21.5 -9t9.5 -20v-379q97 78 249 78q243 0 392 -163t149 -429q0 -267 -149 -430.5t-392 -163.5q-102 0 -194.5 36.5t-151.5 98.5l-30 -73q-14 -31 -33 -31h-232q-12 0 -21 9.5t-9 21.5zM496 432q19 -51 63 -82t98 -31q85 0 137 68
t52 178q0 107 -52 172.5t-137 65.5q-54 0 -98 -31t-63 -82v-258z" />
    <glyph glyph-name="c" unicode="c" horiz-adv-x="1091" 
d="M41 561q0 267 169 430.5t447 163.5q88 0 192 -32t187 -85q22 -19 13 -34l-119 -250q-15 -29 -37 -13q-38 28 -92 45t-105 17q-112 0 -179.5 -66.5t-67.5 -175.5t67.5 -175.5t179.5 -66.5q51 0 105 17t92 45q23 16 37 -12l119 -250q10 -16 -13 -35q-83 -53 -187 -85
t-192 -32q-278 0 -447 163.5t-169 430.5z" />
    <glyph glyph-name="d" unicode="d" horiz-adv-x="1327" 
d="M41 563q0 266 149 429t392 163q152 0 249 -78v379q0 11 9.5 20t21.5 9h361q12 0 21 -9t9 -20v-1425q0 -12 -9 -21.5t-21 -9.5h-232q-19 0 -33 31l-30 73q-59 -62 -151.5 -98.5t-194.5 -36.5q-243 0 -392 163.5t-149 430.5zM481 565q0 -110 52 -178t137 -68q54 0 98 31
t63 82v258q-19 51 -63 82t-98 31q-85 0 -137 -65.5t-52 -172.5z" />
    <glyph glyph-name="e" unicode="e" horiz-adv-x="1216" 
d="M41 561q0 267 163.5 430.5t430.5 163.5q255 0 398 -156t143 -436q0 -45 -9 -92q-3 -25 -30 -25h-658q0 -5 1 -14t10.5 -31t25.5 -39t51.5 -31t83.5 -14q169 0 314 68q10 4 18.5 -0.5t11.5 -15.5l88 -254q6 -20 -14 -31q-82 -54 -194 -84.5t-230 -30.5q-271 0 -437.5 163
t-166.5 429zM477 662h291q0 67 -37.5 108t-99.5 41q-69 0 -111.5 -41t-42.5 -108z" />
    <glyph glyph-name="f" unicode="f" horiz-adv-x="751" 
d="M20 897v199q0 13 9 21.5t20 8.5h113q7 183 99 271t274 88h178q28 0 28 -29v-199q0 -30 -28 -30q-117 0 -131 -101h139q13 0 22 -8t9 -20l-23 -199q-2 -12 -10.5 -21.5t-20.5 -9.5h-118v-839q0 -29 -29 -29h-365q-28 0 -28 29v839h-109q-11 0 -20 8.5t-9 20.5z" />
    <glyph glyph-name="g" unicode="g" horiz-adv-x="1280" 
d="M41 578q0 272 131.5 424.5t366.5 152.5q119 0 207 -31t128 -86l37 58q20 30 47 30h218q14 0 22 -8t8 -22v-992q0 -151 -84.5 -270t-227 -182.5t-316.5 -63.5q-153 0 -281 34t-203 95q-20 16 -12 35l104 254q11 25 31 12q66 -54 162 -84t199 -30q97 0 151.5 48.5
t54.5 135.5v59q-25 -49 -91.5 -78.5t-153.5 -29.5q-224 0 -361 148t-137 391zM481 578q0 -92 43 -144.5t119 -52.5q31 0 57 9.5t41 23t25 27t14 23.5l4 9v207q-1 4 -4 10t-14 22t-25.5 28t-40.5 22t-57 10q-77 0 -119.5 -51t-42.5 -143z" />
    <glyph glyph-name="h" unicode="h" horiz-adv-x="1212" 
d="M74 31v1423q0 12 9 21.5t21 9.5h361q12 0 21.5 -9.5t9.5 -21.5v-414q41 54 111 84.5t153 30.5q185 0 288 -99.5t103 -277.5v-747q0 -12 -9.5 -21.5t-21.5 -9.5h-360q-12 0 -21 9.5t-8 21.5v643q0 61 -26.5 95t-73.5 34q-33 0 -59 -12t-39.5 -28.5t-22.5 -33.5t-12 -29
l-2 -12v-657q0 -12 -9.5 -21.5t-21.5 -9.5h-361q-12 0 -21 9.5t-9 21.5z" />
    <glyph glyph-name="i" unicode="i" horiz-adv-x="573" 
d="M61 1366q0 95 62.5 153t163.5 58t163 -58t62 -153q0 -91 -62 -147t-163 -56t-163.5 56t-62.5 147zM78 31v1067q0 11 9.5 19.5t21.5 8.5h360q12 0 21.5 -8.5t9.5 -19.5v-1067q0 -12 -9.5 -21.5t-21.5 -9.5h-360q-12 0 -21.5 9.5t-9.5 21.5z" />
    <glyph glyph-name="j" unicode="j" horiz-adv-x="573" 
d="M-53 -158q-15 20 12 47q119 113 119 234v975q0 12 9.5 21t21.5 9h360q12 0 21.5 -9t9.5 -21v-969q0 -189 -92 -336.5t-256 -220.5q-25 -12 -39 10zM61 1366q0 95 62.5 153t163.5 58t163 -58t62 -153q0 -91 -62 -147t-163 -56t-163.5 56t-62.5 147z" />
    <glyph glyph-name="k" unicode="k" horiz-adv-x="1249" 
d="M74 31v1425q0 11 9 20t21 9h361q12 0 21.5 -9t9.5 -20v-680l190 326q14 24 47 24h410q12 0 16 -7t-2 -17l-303 -502l371 -575q7 -11 2 -18t-17 -7h-436q-11 0 -24 7.5t-19 17.5l-235 405v-399q0 -12 -9.5 -21.5t-21.5 -9.5h-361q-12 0 -21 9.5t-9 21.5z" />
    <glyph glyph-name="l" unicode="l" 
d="M74 31v1425q0 11 9 20t21 9h361q12 0 21.5 -9t9.5 -20v-1425q0 -12 -9.5 -21.5t-21.5 -9.5h-361q-12 0 -21 9.5t-9 21.5z" />
    <glyph glyph-name="m" unicode="m" horiz-adv-x="1869" 
d="M74 29v1069q0 28 28 28h230q24 0 33 -20l26 -66q50 54 135 84.5t187 30.5q110 0 190.5 -43t114.5 -119q60 77 153.5 119.5t200.5 42.5q206 0 321 -119t115 -331v-676q0 -29 -28 -29h-365q-29 0 -29 29v614q-3 62 -29 95.5t-71 33.5q-33 0 -58.5 -12t-39.5 -29
t-22.5 -33.5t-11 -28.5t-1.5 -12v-628q0 -29 -29 -29h-364q-29 0 -29 29v614q0 64 -26.5 96.5t-73.5 32.5q-52 0 -85.5 -29t-41.5 -57l-8 -29v-628q0 -29 -29 -29h-365q-28 0 -28 29z" />
    <glyph glyph-name="n" unicode="n" horiz-adv-x="1212" 
d="M74 31v1067q0 28 28 28h230q24 0 33 -20l26 -66q48 53 140.5 84t189.5 31q215 0 322.5 -107t107.5 -341v-676q0 -12 -9.5 -21.5t-21.5 -9.5h-360q-12 0 -21 9.5t-8 21.5v612q0 61 -26.5 95t-73.5 34q-52 0 -85.5 -29t-41.5 -57l-8 -29v-626q0 -12 -9.5 -21.5t-21.5 -9.5
h-361q-12 0 -21 9.5t-9 21.5z" />
    <glyph glyph-name="o" unicode="o" horiz-adv-x="1286" 
d="M41 561q0 267 166 430.5t436 163.5t436 -163t166 -429q0 -267 -166 -430.5t-436 -163.5t-436 163t-166 429zM440 561q0 -100 56 -161.5t147 -61.5t147 62t56 163q0 100 -56 161.5t-147 61.5t-147 -62t-56 -163z" />
    <glyph glyph-name="p" unicode="p" horiz-adv-x="1327" 
d="M74 -352v1448q0 12 9 21t21 9h232q20 0 33 -30l30 -74q59 62 151.5 98.5t194.5 36.5q243 0 392 -163.5t149 -430.5q0 -266 -149 -429t-392 -163q-152 0 -249 78v-401q0 -11 -9.5 -20t-21.5 -9h-361q-12 0 -21 9t-9 20zM496 436q19 -51 63 -81.5t98 -30.5q85 0 137 65
t52 172q0 110 -52 178t-137 68q-54 0 -98 -31t-63 -82v-258z" />
    <glyph glyph-name="q" unicode="q" horiz-adv-x="1327" 
d="M41 561q0 267 149 430.5t392 163.5q102 0 194.5 -36.5t151.5 -98.5l30 74q13 30 33 30h232q12 0 21 -9t9 -21v-1448q0 -11 -9 -20t-21 -9h-361q-12 0 -21.5 9t-9.5 20v401q-97 -78 -249 -78q-243 0 -392 163t-149 429zM481 559q0 -107 52 -172t137 -65q54 0 98 30.5
t63 81.5v258q-19 51 -63 82t-98 31q-85 0 -137 -68t-52 -178z" />
    <glyph glyph-name="r" unicode="r" horiz-adv-x="792" 
d="M74 31v1065q0 11 9 19.5t21 8.5h232q22 0 33 -30l30 -90q46 57 117.5 89.5t153.5 32.5h53q12 0 20.5 -8t8.5 -20v-267q0 -12 -8.5 -20t-20.5 -8h-53q-58 0 -106 -24t-68 -62v-686q0 -12 -9.5 -21.5t-21.5 -9.5h-361q-12 0 -21 9.5t-9 21.5z" />
    <glyph glyph-name="s" unicode="s" horiz-adv-x="970" 
d="M41 788q0 164 128 265.5t337 101.5q99 0 209 -32t192 -85q18 -15 13 -28l-105 -242q-3 -9 -11.5 -11t-15.5 3q-132 84 -235 84q-32 3 -52 -10.5t-20 -38.5q0 -22 25 -39t64.5 -32t87.5 -32.5t95.5 -46t87 -67t64.5 -101t25 -141.5q0 -164 -124.5 -265.5t-328.5 -101.5
q-100 0 -214 32t-200 85q-17 17 -12 33l105 237q7 20 26 9q143 -84 236 -84q31 -3 51 12t20 39q0 21 -24.5 37.5t-64 31.5t-87.5 32.5t-96 46.5t-87.5 67t-64 100.5t-24.5 140.5z" />
    <glyph glyph-name="t" unicode="t" horiz-adv-x="792" 
d="M20 897v199q0 13 9 21.5t20 8.5h117v224q0 10 9.5 18t21.5 10l360 35q12 1 21.5 -8.5t9.5 -20.5v-258h153q13 0 22 -8t9 -20l-22 -199q-2 -12 -10.5 -21.5t-20.5 -9.5h-131v-837q0 -12 -9.5 -21.5t-21.5 -9.5h-360q-12 0 -21.5 9.5t-9.5 21.5v837h-117q-11 0 -20 8.5
t-9 20.5z" />
    <glyph glyph-name="u" unicode="u" horiz-adv-x="1212" 
d="M61 418v678q0 12 9.5 21t21.5 9h361q12 0 21 -9t9 -21v-627q0 -53 30 -85t79 -32q36 0 67 16.5t45 33.5l13 16v678q0 12 9.5 21t21.5 9h360q12 0 21.5 -9t9.5 -21v-1067q0 -11 -9.5 -20t-21.5 -9h-231q-21 0 -33 31l-31 73q-56 -62 -143 -98.5t-185 -36.5
q-199 0 -311.5 119.5t-112.5 329.5z" />
    <glyph glyph-name="v" unicode="v" horiz-adv-x="1222" 
d="M2 1098q-4 10 2.5 19t18.5 9h385q28 0 38 -28l164 -592l164 592q3 13 14 20.5t23 7.5h387q13 0 19.5 -8.5t3.5 -19.5l-363 -1069q-5 -11 -17 -20t-24 -9h-414q-12 0 -22.5 9t-13.5 20z" />
    <glyph glyph-name="w" unicode="w" horiz-adv-x="1777" 
d="M2 1098q-4 10 2.5 19t18.5 9h413q14 0 25 -8t14 -20l107 -449l110 449q6 28 37 28h320q15 0 22.5 -3.5t9.5 -8t4 -16.5l111 -449l107 449q3 12 14 20t24 8h414q12 0 18.5 -9t2.5 -19l-334 -1069q-3 -11 -14 -20t-23 -9h-318q-12 0 -23.5 9t-16.5 20l-158 544l-158 -544
q-5 -11 -17 -20t-24 -9h-317q-12 0 -23 9t-14 20z" />
    <glyph glyph-name="x" unicode="x" horiz-adv-x="1173" 
d="M2 1098q-4 12 1.5 20t16.5 8h388q21 0 36 -26l142 -289l141 289q15 26 37 26h387q11 0 16.5 -8t1.5 -20l-284 -520l274 -549q6 -11 -0.5 -20t-17.5 -9h-398q-29 0 -36 27l-121 264l-121 -264q-7 -27 -37 -27h-397q-11 0 -18 9t-1 20l275 549z" />
    <glyph glyph-name="y" unicode="y" horiz-adv-x="1251" 
d="M2 1098q-4 10 2.5 19t18.5 9h411q28 0 39 -28l158 -643l155 643q3 13 14 20.5t23 7.5h404q13 0 19 -8.5t3 -19.5l-350 -1098q-71 -224 -199 -318t-331 -94q-105 0 -201.5 30.5t-147.5 80.5q-14 14 -10 35l115 231q10 23 25 12q106 -73 200 -73q78 0 121.5 38.5
t65.5 127.5h-168q-29 0 -37 28z" />
    <glyph glyph-name="z" unicode="z" horiz-adv-x="1079" 
d="M45 17.5q-10 17.5 2 37.5l399 674h-315q-11 0 -20 9.5t-9 21.5v336q0 12 9 21t20 9h870q23 0 32.5 -17t-1.5 -36l-399 -684h362q13 0 22 -8.5t9 -20.5v-331q0 -11 -9 -20t-22 -9h-917q-23 0 -33 17.5z" />
    <glyph glyph-name="bar" unicode="|" horiz-adv-x="362" 
d="M74 -444q0 -12 9 -21.5t21 -9.5h154q12 0 21.5 9.5t9.5 21.5v1917q0 11 -9.5 19.5t-21.5 8.5h-154q-12 0 -21 -8.5t-9 -19.5v-1917z" />
    <glyph glyph-name="uni00A0" unicode="&#xa0;" horiz-adv-x="266" 
 />
    <glyph glyph-name="exclamdown" unicode="&#xa1;" horiz-adv-x="720" 
d="M135 983q0 -30 11 -58t35 -53.5t70 -41t109 -15.5q62 0 108 15.5t70.5 41t36 53.5t11.5 58q0 32 -11.5 60.5t-36 54.5t-70.5 41.5t-108 15.5q-120 0 -172.5 -51t-52.5 -121zM150 -256q0 -12 9 -21.5t21 -9.5h361q12 0 21 9.5t9 21.5l-30 1010q0 11 -9.5 19.5t-21.5 8.5
h-297q-12 0 -21.5 -8.5t-9.5 -19.5z" />
    <glyph glyph-name="cent" unicode="&#xa2;" horiz-adv-x="1228" 
d="M74 707q0 250 147.5 409.5t394.5 181.5v150q0 31 29 31h127q13 0 22 -9.5t9 -21.5v-158q161 -25 289 -106q20 -16 14 -31l-102 -264q-10 -27 -31 -17q-111 66 -250 66q-87 0 -149.5 -65t-59.5 -166q-3 -100 60 -165t149 -65q139 0 250 66q21 10 31 -17l102 -264
q6 -15 -14 -31q-128 -81 -289 -106v-160q0 -11 -9 -19.5t-22 -8.5h-127q-12 0 -20.5 8.5t-8.5 19.5v152q-247 22 -394.5 182t-147.5 408z" />
    <glyph glyph-name="sterling" unicode="&#xa3;" horiz-adv-x="978" 
d="M33 1026q0 84 28 158t81.5 132.5t139 93t191.5 34.5q92 0 193.5 -30.5t173.5 -80.5q17 -10 10 -28l-88 -277q-7 -30 -33 -10q-33 25 -86.5 41t-91.5 16q-63 0 -92 -33.5t-29 -76.5q0 -44 22.5 -93.5t63.5 -116t59 -104.5h193q14 0 23.5 -8t9.5 -20v-68q0 -13 -9.5 -22
t-23.5 -9h-156l2 -26q0 -99 -69 -174h395q11 0 19 -8.5t8 -20.5l-39 -266q-2 -11 -11.5 -20t-21.5 -9h-832q-10 0 -19 9t-9 20v264q0 12 8 21.5t20 9.5q57 0 99.5 50.5t42.5 123.5l-2 26h-135q-14 0 -23.5 9t-9.5 22v68q0 12 9.5 20t23.5 8h96q-8 15 -40 71t-46.5 86.5
t-29.5 91.5t-15 126z" />
    <glyph glyph-name="yen" unicode="&#xa5;" horiz-adv-x="1349" 
d="M10 1380q-7 13 1 23t22 10h426q32 0 47 -33l168 -368l168 368q15 33 47 33h426q14 0 21.5 -10t0.5 -23l-426 -766h131q13 0 23 -8.5t10 -19.5v-80q0 -14 -9.5 -23.5t-23.5 -9.5h-157v-63h157q14 0 23.5 -8.5t9.5 -20.5v-80q0 -13 -9.5 -22t-23.5 -9h-157v-241
q0 -11 -9.5 -20t-21.5 -9h-360q-12 0 -21.5 9t-9.5 20v241h-164q-12 0 -21.5 9t-9.5 22v80q0 12 9.5 20.5t21.5 8.5h164v63h-164q-12 0 -21.5 10t-9.5 23v80q0 11 9.5 19.5t21.5 8.5h137z" />
    <glyph glyph-name="dieresis" unicode="&#xa8;" horiz-adv-x="1134" 
d="M203 1343q0 -68 42 -109.5t111 -41.5q68 0 111 42t43 109q0 70 -43 113t-111 43q-69 0 -111 -43t-42 -113zM623 1343q0 -68 42 -109.5t111 -41.5q68 0 111 42t43 109q0 70 -43 113t-111 43q-69 0 -111 -43t-42 -113z" />
    <glyph glyph-name="copyright" unicode="&#xa9;" horiz-adv-x="1597" 
d="M164 821v199q0 6 6 6h90q28 0 47 -18.5t19 -46.5q0 -20 -12 -36t-31 -24l43 -78q4 -8 -7 -8h-40l-5 2l-34 72l-29 -8v-60q0 -6 -4 -6h-37q-6 0 -6 6zM211 922l45 14q9 2 16 9t7 16t-7 15.5t-16 6.5h-45v-61zM350 102q0 -6 6 -6h37q4 0 4 6v205q0 6 -4 6h-37q-6 0 -6 -6
v-205zM350 371v387q0 6 6 6q0 2 2 2h562q6 0 6 -8v-31q0 -6 -6 -6h-525v-311h441q4 0 4 -7v-260h73q7 0 7 -6v-35q0 -4 -7 -4h-114q-6 0 -6 4v263h-437q-6 0 -6 6zM367 821v199q0 6 6 6h123q6 0 6 -6v-33q0 -6 -6 -6h-82v-37h35q8 0 8 -6v-35q0 -6 -8 -6h-35v-37h82
q6 0 6 -6v-33q0 -6 -6 -6h-123q-6 0 -6 6zM420 276q0 -6 6 -6h43v-168q0 -4 4 -4h37q6 0 6 4v168h43q6 0 6 6v33q0 1 -2.5 3.5t-3.5 2.5h-133q-6 0 -6 -6v-33zM446 465v199q0 6 7 6h90q27 0 46 -19t19 -47q0 -25 -16 -41q14 -17 14 -39q0 -27 -19 -46t-46 -19h-88q-7 0 -7 6
zM494 502h43q9 0 15.5 6.5t6.5 15.5q0 11 -6 17l-59 -17v-22zM494 565l45 15q22 4 22 24q0 9 -6.5 16t-15.5 7h-45v-62zM526 920q0 45 32 76.5t77 31.5q40 0 74 -27q3 -6 0 -8l-23 -26q-4 -4 -8 0q-17 14 -39 14q-25 0 -42 -17.5t-17 -43.5q0 -25 17 -42.5t42 -17.5
q12 0 27 6v19l-21 -4q-6 0 -6 6v31q0 6 6 6l62 14q6 0 6 -6v-94q0 -1 -1 -3.5t-1 -3.5q-31 -18 -76 -18q-44 0 -76.5 31.5t-32.5 75.5zM578 102v127q0 35 25.5 59.5t60.5 24.5t60.5 -24.5t25.5 -59.5v-127q0 -4 -7 -4h-36q-7 0 -7 4v45l-73 -18v-27q0 -4 -6 -4h-37
q-6 0 -6 4zM627 174l73 16v37q0 16 -10 27.5t-26 11.5q-15 0 -26 -12t-11 -27v-53zM631 565q0 -46 31 -77t75 -31q46 0 77.5 31t31.5 77q0 45 -32 77t-77 32q-44 0 -75 -32t-31 -77zM678 565q0 25 17 42.5t42 17.5q26 0 44 -17.5t18 -42.5t-18 -43t-44 -18q-25 0 -42 18
t-17 43zM750 897v123q0 6 6 6h37q6 0 6 -6v-121q0 -17 11 -28t26 -11q17 0 27.5 11t10.5 28v121q0 6 5 6h36q7 0 7 -6v-123q0 -35 -25.5 -59.5t-60.5 -24.5t-60.5 24.5t-25.5 59.5zM879 371v293q0 6 6 6h35q6 0 6 -6v-254h276v311h-235q-6 0 -6 4v295q0 4 6 4h34q7 0 7 -4
v-254h233q6 0 6 -8v-387q0 -6 -6 -6h-356q-6 0 -6 6zM963 102q0 -4 6 -4h37q4 0 4 4v207q0 4 -4 4h-37q-6 0 -6 -4v-207zM967 465q0 -6 6 -6h74q43 0 73.5 31t30.5 75q0 43 -30.5 74t-73.5 31h-74q-6 0 -6 -6v-199zM1014 504v123h28q26 0 43 -18t17 -44t-17 -43.5t-43 -17.5
h-28zM1053 205q0 -46 32 -78.5t76 -32.5q40 0 76 31q4 4 0 8l-25 25q-2 2 -8 2q-17 -17 -41 -17q-26 0 -42.5 18.5t-16.5 45.5t16.5 45t42.5 18q25 0 41 -16q4 -4 8 0l25 27q2 1 1.5 4t-3.5 4q-31 28 -74 28q-45 0 -76.5 -32.5t-31.5 -79.5zM1053 821v125q0 34 25.5 59
t60.5 25t60.5 -25t25.5 -59v-125q0 -1 -2.5 -3.5t-3.5 -2.5h-37q-6 0 -6 6v41l-74 -16v-25q0 -1 -2 -3.5t-4 -2.5h-37q-6 0 -6 6zM1102 889l74 18v37q0 15 -11 26t-26 11q-17 0 -27 -10.5t-10 -26.5v-55zM1272 821v199q0 6 6 6h88q28 0 48 -19t20 -46q0 -40 -45 -60l43 -78
q4 -8 -5 -8h-41l-4 2l-36 72l-27 -8v-60q0 -6 -6 -6h-35q-6 0 -6 6zM1319 922l45 14q22 7 22 25q0 9 -6.5 15.5t-15.5 6.5h-45v-61z" />
    <glyph glyph-name="uni00AD" unicode="&#xad;" horiz-adv-x="811" 
d="M74 455v225q0 12 8.5 20.5t19.5 8.5h605q12 0 21 -8.5t9 -20.5v-225q0 -13 -9 -22t-21 -9h-605q-11 0 -19.5 9t-8.5 22z" />
    <glyph glyph-name="acute" unicode="&#xb4;" horiz-adv-x="1228" 
d="M339 1312.5q2 12.5 13 20.5l369 217q9 8 22 3.5t19 -17.5l80 -150q14 -28 -17 -40l-399 -164q-11 -6 -24 0.5t-19 21.5l-39 84q-7 12 -5 24.5z" />
    <glyph glyph-name="cedilla" unicode="&#xb8;" horiz-adv-x="1228" 
d="M414 -248q-29 -22 4 -45l149 -92q22 -16 43 8l189 252q13 17 7 28t-28 11h-135q-23 0 -41 -12z" />
    <glyph glyph-name="questiondown" unicode="&#xbf;" horiz-adv-x="952" 
d="M82 82q0 87 30 161t72 125.5t84.5 98t72.5 100t30 111.5v92q0 11 8 18t20 7h342q29 0 33 -25v-92q0 -91 -28 -169t-68 -130.5t-80 -97t-68 -88.5t-28 -84q0 -35 30 -57.5t60 -22.5q76 0 213 43q8 2 16.5 -3t9.5 -12q72 -266 78 -278q7 -21 -14 -27q-207 -69 -346 -69
q-234 0 -350.5 109t-116.5 290zM346 983q0 -30 11 -58t35 -53.5t70 -41t109 -15.5q62 0 108 15.5t70.5 41t36 53.5t11.5 58q0 32 -11.5 60.5t-36 54.5t-70.5 41.5t-108 15.5q-120 0 -172.5 -51t-52.5 -121z" />
    <glyph glyph-name="Agrave" unicode="&#xc0;" horiz-adv-x="1376" 
d="M-33 27l463 1359q5 10 20 18.5t29 8.5h418q14 0 29 -8.5t20 -18.5l463 -1359q5 -9 -0.5 -18t-17.5 -9h-406q-29 0 -43 27l-61 215h-385l-62 -215q-14 -27 -43 -27h-405q-12 0 -18 9t-1 18zM438 1683l80 150q6 13 19 17.5t22 -3.5l369 -217q11 -8 13 -20.5t-5 -24.5
l-39 -84q-6 -15 -19 -21.5t-24 -0.5l-399 163q-31 12 -17 41zM578 535h221l-111 389z" />
    <glyph glyph-name="Aacute" unicode="&#xc1;" horiz-adv-x="1376" 
d="M-33 27l463 1359q5 10 20 18.5t29 8.5h418q14 0 29 -8.5t20 -18.5l463 -1359q5 -9 -0.5 -18t-17.5 -9h-406q-29 0 -43 27l-61 215h-385l-62 -215q-14 -27 -43 -27h-405q-12 0 -18 9t-1 18zM435.5 1609.5q2.5 12.5 13.5 20.5l368 217q9 8 22 3.5t19 -17.5l80 -150
q14 -29 -16 -41l-400 -163q-11 -6 -24 0.5t-19 21.5l-39 84q-7 12 -4.5 24.5zM578 535h221l-111 389z" />
    <glyph glyph-name="Acircumflex" unicode="&#xc2;" horiz-adv-x="1376" 
d="M-33 27l463 1359q5 10 20 18.5t29 8.5h418q14 0 29 -8.5t20 -18.5l463 -1359q5 -9 -0.5 -18t-17.5 -9h-406q-29 0 -43 27l-61 215h-385l-62 -215q-14 -27 -43 -27h-405q-12 0 -18 9t-1 18zM353 1608.5q5 12.5 16 17.5l290 168q12 6 28.5 6t27.5 -6l291 -168
q10 -4 15.5 -17t0.5 -24l-37 -88q-4 -10 -16 -15.5t-23 -2.5l-258 88l-260 -88q-11 -3 -23 2.5t-16 15.5l-35 88q-6 11 -1 23.5zM578 535h221l-111 389z" />
    <glyph glyph-name="Adieresis" unicode="&#xc4;" horiz-adv-x="1376" 
d="M-33 27l463 1359q5 10 20 18.5t29 8.5h418q14 0 29 -8.5t20 -18.5l463 -1359q5 -9 -0.5 -18t-17.5 -9h-406q-29 0 -43 27l-61 215h-385l-62 -215q-14 -27 -43 -27h-405q-12 0 -18 9t-1 18zM324 1632q0 70 42 113t111 43q68 0 111 -43t43 -113q0 -67 -43 -109t-111 -42
q-69 0 -111 41.5t-42 109.5zM578 535h221l-111 389zM743 1632q0 70 42.5 113t111.5 43q68 0 111 -43t43 -113q0 -67 -43 -109t-111 -42q-69 0 -111.5 41.5t-42.5 109.5z" />
    <glyph glyph-name="Aring" unicode="&#xc5;" horiz-adv-x="1376" 
d="M-33 27l463 1359q5 10 20 18.5t29 8.5h170q-65 14 -108 65.5t-43 118.5q0 79 56 136t134 57t134.5 -57t56.5 -136q0 -67 -43.5 -118.5t-108.5 -65.5h170q14 0 29 -8.5t20 -18.5l463 -1359q5 -9 -0.5 -18t-17.5 -9h-406q-29 0 -43 27l-61 215h-385l-62 -215
q-14 -27 -43 -27h-405q-12 0 -18 9t-1 18zM578 535h221l-111 389zM612 1597q0 -29 22 -50t54 -21q31 0 54.5 21t23.5 50q0 32 -23.5 54t-54.5 22q-32 0 -54 -22t-22 -54z" />
    <glyph glyph-name="AE" unicode="&#xc6;" horiz-adv-x="1669" 
d="M-33 27l447 1359q5 10 17.5 18.5t25.5 8.5h1116q13 0 23 -9t10 -20v-309q0 -13 -9.5 -22t-23.5 -9h-463v-161h363q13 0 20.5 -8.5t5.5 -18.5l-29 -287q-2 -10 -11.5 -18t-22.5 -8h-326v-174h487q12 0 21.5 -8.5t9.5 -20.5v-309q0 -11 -9.5 -21t-21.5 -10h-880
q-10 0 -19.5 10t-9.5 21v211h-223l-66 -215q-13 -27 -43 -27h-370q-12 0 -18 9t-1 18zM549 535h137v460z" />
    <glyph glyph-name="Ccedilla" unicode="&#xc7;" horiz-adv-x="1236" 
d="M41 707q0 219 87.5 386.5t247.5 259t369 91.5q113 0 227 -31.5t204 -87.5q28 -14 18 -37l-135 -284q-13 -30 -39 -17q-101 57 -238 57q-138 0 -222.5 -92.5t-84.5 -244.5t84.5 -245t222.5 -93q137 0 238 57q26 13 39 -16l135 -285q10 -23 -18 -37q-90 -56 -204 -87.5
t-227 -31.5q-316 0 -510 203t-194 535zM459 -248q-29 -22 4 -45l149 -92q22 -16 43 8l189 252q13 17 7 28t-28 11h-135q-23 0 -41 -12z" />
    <glyph glyph-name="Egrave" unicode="&#xc8;" horiz-adv-x="1126" 
d="M70 31v1353q0 29 28 29h932q13 0 23 -9t10 -20v-309q0 -13 -9.5 -22t-23.5 -9h-534v-161h434q13 0 20.5 -8.5t5.5 -18.5l-28 -287q-2 -10 -12 -18t-23 -8h-397v-174h559q12 0 21 -8t9 -19v-313q0 -11 -9 -20t-21 -9h-953q-10 0 -19.5 10t-12.5 21zM307 1683l80 150
q6 13 19 17.5t22 -3.5l369 -217q11 -8 13 -20.5t-5 -24.5l-39 -84q-6 -15 -19 -21.5t-24 -0.5l-399 163q-31 12 -17 41z" />
    <glyph glyph-name="Eacute" unicode="&#xc9;" horiz-adv-x="1126" 
d="M70 31v1353q0 29 28 29h932q13 0 23 -9t10 -20v-309q0 -13 -9.5 -22t-23.5 -9h-534v-161h434q13 0 20.5 -8.5t5.5 -18.5l-28 -287q-2 -10 -12 -18t-23 -8h-397v-174h559q12 0 21 -8t9 -19v-313q0 -11 -9 -20t-21 -9h-953q-10 0 -19.5 10t-12.5 21zM304 1609.5
q2 12.5 13 20.5l369 217q9 8 22 3.5t19 -17.5l80 -150q14 -29 -16 -41l-400 -163q-11 -6 -24 0.5t-19 21.5l-39 84q-7 12 -5 24.5z" />
    <glyph glyph-name="Ecircumflex" unicode="&#xca;" horiz-adv-x="1126" 
d="M70 31v1353q0 29 28 29h932q13 0 23 -9t10 -20v-309q0 -13 -9.5 -22t-23.5 -9h-534v-161h434q13 0 20.5 -8.5t5.5 -18.5l-28 -287q-2 -10 -12 -18t-23 -8h-397v-174h559q12 0 21 -8t9 -19v-313q0 -11 -9 -20t-21 -9h-953q-10 0 -19.5 10t-12.5 21zM222 1588.5
q5 12.5 16 17.5l290 168q12 6 29 6t27 -6l290 -168q11 -5 16 -18t1 -23l-37 -88q-4 -10 -16 -16t-23 -3l-258 88l-260 -88q-11 -3 -23 3t-16 16l-35 88q-6 11 -1 23.5z" />
    <glyph glyph-name="Edieresis" unicode="&#xcb;" horiz-adv-x="1126" 
d="M70 31v1353q0 29 28 29h932q13 0 23 -9t10 -20v-309q0 -13 -9.5 -22t-23.5 -9h-534v-161h434q13 0 20.5 -8.5t5.5 -18.5l-28 -287q-2 -10 -12 -18t-23 -8h-397v-174h559q12 0 21 -8t9 -19v-313q0 -11 -9 -20t-21 -9h-953q-10 0 -19.5 10t-12.5 21zM197 1602
q0 70 42 112.5t111 42.5q68 0 111 -42.5t43 -112.5q0 -67 -43 -109.5t-111 -42.5q-69 0 -111 42t-42 110zM612 1602q0 70 42.5 112.5t111.5 42.5q68 0 111 -42.5t43 -112.5q0 -67 -43 -109.5t-111 -42.5q-69 0 -111.5 42t-42.5 110z" />
    <glyph glyph-name="Igrave" unicode="&#xcc;" 
d="M35 1683l80 150q6 13 19 17.5t22 -3.5l368 -217q11 -8 13 -20.5t-5 -24.5l-38 -84q-6 -15 -19 -21.5t-24 -0.5l-400 163q-30 12 -16 41zM74 29v1353q0 12 8.5 21.5t19.5 9.5h363q13 0 22 -9.5t9 -21.5v-1353q0 -11 -9 -20t-22 -9h-363q-10 0 -19 9t-9 20z" />
    <glyph glyph-name="Iacute" unicode="&#xcd;" 
d="M32 1609.5q2 12.5 13 20.5l369 217q9 8 22 3.5t19 -17.5l80 -150q14 -29 -17 -41l-399 -163q-11 -6 -24 0.5t-19 21.5l-39 84q-7 12 -5 24.5zM74 29v1353q0 12 8.5 21.5t19.5 9.5h363q13 0 22 -9.5t9 -21.5v-1353q0 -11 -9 -20t-22 -9h-363q-10 0 -19 9t-9 20z" />
    <glyph glyph-name="Icircumflex" unicode="&#xce;" 
d="M-50.5 1588.5q4.5 12.5 15.5 17.5l291 168q12 6 28.5 6t26.5 -6l291 -168q10 -4 15.5 -17t0.5 -24l-36 -88q-4 -10 -16 -16t-23 -3l-258 88l-260 -88q-11 -3 -23 3t-16 16l-35 88q-6 11 -1.5 23.5zM74 29v1353q0 12 8.5 21.5t19.5 9.5h363q13 0 22 -9.5t9 -21.5v-1353
q0 -11 -9 -20t-22 -9h-363q-10 0 -19 9t-9 20z" />
    <glyph glyph-name="Idieresis" unicode="&#xcf;" 
d="M-76 1602q0 -68 42.5 -110t111.5 -42q68 0 110.5 42.5t42.5 109.5q0 70 -42.5 112.5t-110.5 42.5q-69 0 -111.5 -42.5t-42.5 -112.5zM74 29v1353q0 12 8.5 21.5t19.5 9.5h363q13 0 22 -9.5t9 -21.5v-1353q0 -11 -9 -20t-22 -9h-363q-10 0 -19 9t-9 20zM340 1602
q0 -68 42.5 -110t111.5 -42q68 0 110.5 42.5t42.5 109.5q0 70 -42.5 112.5t-110.5 42.5q-69 0 -111.5 -42.5t-42.5 -112.5z" />
    <glyph glyph-name="Eth" unicode="&#xd0;" horiz-adv-x="1495" 
d="M-31 649v127q0 12 9 20.5t20 8.5h76v577q0 12 8.5 21.5t19.5 9.5h476q326 0 524 -193.5t198 -512.5q0 -317 -198.5 -512t-523.5 -195h-476q-11 0 -19.5 9.5t-8.5 21.5v587h-76q-11 0 -20 9t-9 22zM496 369h106q119 0 191.5 93t72.5 245t-72.5 244.5t-191.5 92.5h-106
v-239h55q12 0 21.5 -8.5t9.5 -20.5v-127q0 -13 -9.5 -22t-21.5 -9h-55v-249z" />
    <glyph glyph-name="Ntilde" unicode="&#xd1;" horiz-adv-x="1353" 
d="M74 29v1353q0 12 8 21.5t20 9.5h355q33 0 47 -27l354 -636v632q0 12 9 21.5t20 9.5h362q13 0 22 -9.5t9 -21.5v-1353q0 -11 -9 -20t-22 -9h-354q-26 0 -43 27l-356 637v-635q0 -11 -9 -20t-22 -9h-363q-12 0 -20 9t-8 20zM436 1536v147q0 31 31 19q39 -18 87 -14.5
t89 19.5t90 29.5t90 15.5t88 -23q17 -9 17 -29v-148q0 -30 -31 -18q-39 19 -87 15.5t-89 -19.5t-90 -29.5t-90 -15.5t-88 22q-17 9 -17 29z" />
    <glyph glyph-name="Ograve" unicode="&#xd2;" horiz-adv-x="1562" 
d="M53 707q0 -218 90.5 -385t255.5 -259t381 -92t381 92t255.5 259t90.5 385q0 333 -200 536t-527 203t-527 -203t-200 -536zM500 707q0 146 77 235.5t203 89.5t203.5 -89.5t77.5 -235.5t-77.5 -236t-203.5 -90t-203 90t-77 236zM530 1683l80 150q6 13 19 17.5t22 -3.5
l369 -217q11 -8 13 -20.5t-5 -24.5l-39 -84q-6 -15 -19 -21.5t-24 -0.5l-399 163q-31 12 -17 41z" />
    <glyph glyph-name="Oacute" unicode="&#xd3;" horiz-adv-x="1562" 
d="M53 707q0 -218 90.5 -385t255.5 -259t381 -92t381 92t255.5 259t90.5 385q0 333 -200 536t-527 203t-527 -203t-200 -536zM500 707q0 146 77 235.5t203 89.5t203.5 -89.5t77.5 -235.5t-77.5 -236t-203.5 -90t-203 90t-77 236zM527.5 1609.5q2.5 12.5 13.5 20.5l368 217
q9 8 22 3.5t19 -17.5l80 -150q14 -29 -16 -41l-400 -163q-11 -6 -24 0.5t-19 21.5l-39 84q-7 12 -4.5 24.5z" />
    <glyph glyph-name="Ocircumflex" unicode="&#xd4;" horiz-adv-x="1562" 
d="M53 707q0 -218 90.5 -385t255.5 -259t381 -92t381 92t255.5 259t90.5 385q0 333 -200 536t-527 203t-527 -203t-200 -536zM445 1588.5q5 12.5 16 17.5l291 168q12 6 28 6t27 -6l291 -168q10 -4 15.5 -17t0.5 -24l-37 -88q-4 -10 -16 -16t-23 -3l-258 88l-260 -88
q-11 -3 -23 3t-16 16l-35 88q-6 11 -1 23.5zM500 707q0 146 77 235.5t203 89.5t203.5 -89.5t77.5 -235.5t-77.5 -236t-203.5 -90t-203 90t-77 236z" />
    <glyph glyph-name="Otilde" unicode="&#xd5;" horiz-adv-x="1562" 
d="M53 707q0 -218 90.5 -385t255.5 -259t381 -92t381 92t255.5 259t90.5 385q0 333 -200 536t-527 203t-527 -203t-200 -536zM500 707q0 146 77 235.5t203 89.5t203.5 -89.5t77.5 -235.5t-77.5 -236t-203.5 -90t-203 90t-77 236zM539 1536q0 -21 16 -29q40 -23 88 -22.5
t89.5 16t90 29.5t89.5 19t87 -15q31 -12 31 18v148q0 21 -16 29q-40 23 -88 23t-90 -15t-90.5 -29.5t-89.5 -20t-87 14.5q-30 12 -30 -19v-147z" />
    <glyph glyph-name="Odieresis" unicode="&#xd6;" horiz-adv-x="1562" 
d="M53 707q0 -218 90.5 -385t255.5 -259t381 -92t381 92t255.5 259t90.5 385q0 333 -200 536t-527 203t-527 -203t-200 -536zM420 1602q0 -68 42 -110t111 -42q68 0 111 42.5t43 109.5q0 70 -43 112.5t-111 42.5q-69 0 -111 -42.5t-42 -112.5zM500 707q0 146 77 235.5
t203 89.5t203.5 -89.5t77.5 -235.5t-77.5 -236t-203.5 -90t-203 90t-77 236zM836 1602q0 -68 42 -110t111 -42q68 0 111 42.5t43 109.5q0 70 -43 112.5t-111 42.5q-69 0 -111 -42.5t-42 -112.5z" />
    <glyph glyph-name="multiply" unicode="&#xd7;" horiz-adv-x="827" 
d="M82.5 728.5q0.5 12.5 9.5 21.5l141 141q7 7 19 7t20 -7l463 -463q9 -9 9.5 -21.5t-7.5 -19.5l-141 -141q-9 -9 -21.5 -9t-21.5 9l-463 463q-8 7 -7.5 19.5z" />
    <glyph glyph-name="Oslash" unicode="&#xd8;" horiz-adv-x="1679" 
d="M84 707q0 151 56.5 287t155 235t240.5 157t304 58q260 0 460 -144l41 41q9 10 21.5 10.5t21.5 -8.5l91 -90q9 -9 9 -21.5t-9 -21.5l-39 -39q159 -198 159 -462q0 -151 -56.5 -287t-155 -235.5t-240 -157.5t-303.5 -58q-261 0 -461 144l-53 -54q-9 -9 -21.5 -8.5
t-21.5 10.5l-90 89q-7 9 -7 21.5t7 21.5l51 51q-160 196 -160 461zM575 707q0 -56 19 -111l377 375q-58 39 -131 39q-115 0 -190 -89.5t-75 -213.5zM709 444q56 -38 131 -38q115 0 189.5 89.5t74.5 213.5q0 57 -19 112z" />
    <glyph glyph-name="Ugrave" unicode="&#xd9;" horiz-adv-x="1253" 
d="M61 524v854q0 14 10.5 24.5t24.5 10.5h353q15 0 24.5 -10.5t9.5 -24.5v-891q0 -70 38 -109.5t106 -39.5q67 0 105 39t38 108v893q0 14 11 24.5t24 10.5h352q15 0 25 -10.5t10 -24.5v-854q0 -272 -143.5 -412.5t-421.5 -140.5q-275 0 -419 140.5t-147 412.5zM377 1683
l80 150q6 13 19 17.5t22 -3.5l368 -217q11 -8 13 -20.5t-5 -24.5l-38 -84q-6 -15 -19 -21.5t-24 -0.5l-400 163q-30 12 -16 41z" />
    <glyph glyph-name="Uacute" unicode="&#xda;" horiz-adv-x="1253" 
d="M61 524v854q0 14 10.5 24.5t24.5 10.5h353q15 0 24.5 -10.5t9.5 -24.5v-891q0 -70 38 -109.5t106 -39.5q67 0 105 39t38 108v893q0 14 11 24.5t24 10.5h352q15 0 25 -10.5t10 -24.5v-854q0 -272 -143.5 -412.5t-421.5 -140.5q-275 0 -419 140.5t-147 412.5zM374 1609.5
q2 12.5 13 20.5l369 217q9 8 22 3.5t19 -17.5l80 -150q14 -29 -17 -41l-399 -163q-11 -6 -24 0.5t-19 21.5l-39 84q-7 12 -5 24.5z" />
    <glyph glyph-name="Ucircumflex" unicode="&#xdb;" horiz-adv-x="1253" 
d="M61 524v854q0 14 10.5 24.5t24.5 10.5h353q15 0 24.5 -10.5t9.5 -24.5v-891q0 -70 38 -109.5t106 -39.5q67 0 105 39t38 108v893q0 14 11 24.5t24 10.5h352q15 0 25 -10.5t10 -24.5v-854q0 -272 -143.5 -412.5t-421.5 -140.5q-275 0 -419 140.5t-147 412.5zM291.5 1588.5
q4.5 12.5 15.5 17.5l291 168q12 6 28 6t27 -6l291 -168q11 -5 16 -18t1 -23l-37 -88q-4 -10 -16 -16t-23 -3l-258 88l-260 -88q-11 -3 -23 3t-16 16l-35 88q-6 11 -1.5 23.5z" />
    <glyph glyph-name="Udieresis" unicode="&#xdc;" horiz-adv-x="1253" 
d="M61 524v854q0 14 10.5 24.5t24.5 10.5h353q15 0 24.5 -10.5t9.5 -24.5v-891q0 -70 38 -109.5t106 -39.5q67 0 105 39t38 108v893q0 14 11 24.5t24 10.5h352q15 0 25 -10.5t10 -24.5v-854q0 -272 -143.5 -412.5t-421.5 -140.5q-275 0 -419 140.5t-147 412.5zM266 1602
q0 -68 42.5 -110t111.5 -42q68 0 110.5 42.5t42.5 109.5q0 70 -42.5 112.5t-110.5 42.5q-69 0 -111.5 -42.5t-42.5 -112.5zM682 1602q0 -68 42.5 -110t111.5 -42q68 0 110.5 42.5t42.5 109.5q0 70 -42.5 112.5t-110.5 42.5q-69 0 -111.5 -42.5t-42.5 -112.5z" />
    <glyph glyph-name="Yacute" unicode="&#xdd;" horiz-adv-x="1294" 
d="M-16 1380q-7 13 0.5 23t21.5 10h426q32 0 47 -33l168 -368l168 368q15 33 47 33h426q14 0 22 -10t1 -23l-453 -815v-536q0 -11 -9.5 -20t-21.5 -9h-360q-12 0 -21.5 9t-9.5 20v536zM396.5 1609.5q2.5 12.5 13.5 20.5l368 217q9 8 22 3.5t19 -17.5l80 -150q14 -29 -16 -41
l-400 -163q-11 -6 -24 0.5t-19 21.5l-39 84q-7 12 -4.5 24.5z" />
    <glyph glyph-name="germandbls" unicode="&#xdf;" horiz-adv-x="1245" 
d="M20 557v311q0 12 8.5 20.5t20.5 8.5h53v53q0 209 149.5 336t391.5 127q235 0 369.5 -108.5t134.5 -290.5q0 -110 -44.5 -186t-121.5 -101q100 -26 158.5 -119.5t58.5 -230.5q0 -169 -113 -273t-297 -104h-163q-12 0 -20.5 8.5t-8.5 20.5v333q0 12 8.5 20.5t20.5 8.5h57
q29 0 49.5 20t20.5 48q0 29 -20.5 49t-49.5 20h-57q-12 0 -20.5 8.5t-8.5 20.5v311q0 12 8.5 20.5t20.5 8.5h32q25 0 42.5 17t17.5 40q0 28 -19.5 44t-54.5 16q-119 0 -119 -92v-893q0 -12 -8 -20.5t-20 -8.5h-365q-12 0 -20.5 9t-8.5 20v499h-53q-12 0 -20.5 8.5t-8.5 20.5
z" />
    <glyph glyph-name="agrave" unicode="&#xe0;" horiz-adv-x="1191" 
d="M41 346q1 151 108.5 242.5t280.5 91.5q89 0 162 -30t104 -79v86q0 66 -43 106t-114 40q-60 0 -127.5 -18.5t-118.5 -47.5q-16 -10 -31 17l-117 245q-9 22 11 39q88 56 204.5 86.5t239.5 30.5q266 0 392 -144t126 -450v-530q0 -12 -9.5 -21.5t-21.5 -9.5h-258
q-12 0 -22 9.5t-10 21.5l-15 55q-51 -54 -145.5 -85.5t-206.5 -31.5q-177 0 -284 104t-105 273zM377 1386l80 150q6 13 19 17.5t22 -3.5l368 -217q11 -8 13 -20.5t-5 -24.5l-38 -84q-6 -15 -19 -21.5t-24 -0.5l-400 164q-30 12 -16 40zM498 346q0 -34 24 -54t62 -20
q60 0 112 52v45q-51 51 -112 51q-38 0 -62 -20t-24 -54z" />
    <glyph glyph-name="aacute" unicode="&#xe1;" horiz-adv-x="1191" 
d="M41 346q1 151 108.5 242.5t280.5 91.5q89 0 162 -30t104 -79v86q0 66 -43 106t-114 40q-60 0 -127.5 -18.5t-118.5 -47.5q-16 -10 -31 17l-117 245q-9 22 11 39q88 56 204.5 86.5t239.5 30.5q266 0 392 -144t126 -450v-530q0 -12 -9.5 -21.5t-21.5 -9.5h-258
q-12 0 -22 9.5t-10 21.5l-15 55q-51 -54 -145.5 -85.5t-206.5 -31.5q-177 0 -284 104t-105 273zM374 1312.5q2 12.5 13 20.5l369 217q9 8 22 3.5t19 -17.5l80 -150q14 -28 -17 -40l-399 -164q-11 -6 -24 0.5t-19 21.5l-39 84q-7 12 -5 24.5zM498 346q0 -34 24 -54t62 -20
q60 0 112 52v45q-51 51 -112 51q-38 0 -62 -20t-24 -54z" />
    <glyph glyph-name="acircumflex" unicode="&#xe2;" horiz-adv-x="1171" 
d="M41 346q1 151 108.5 242.5t280.5 91.5q89 0 162 -30t104 -79v86q0 66 -43 106t-114 40q-60 0 -127.5 -18.5t-118.5 -47.5q-16 -10 -31 17l-117 245q-9 22 11 39q88 56 204.5 86.5t239.5 30.5q266 0 392 -144t126 -450v-530q0 -12 -9.5 -21.5t-21.5 -9.5h-258
q-12 0 -22 9.5t-10 21.5l-15 55q-51 -54 -145.5 -85.5t-206.5 -31.5q-177 0 -284 104t-105 273zM279.5 1319.5q4.5 12.5 15.5 17.5l291 168q12 6 28 6t27 -6l291 -168q10 -4 15.5 -17t0.5 -24l-37 -88q-4 -10 -16 -15.5t-23 -2.5l-258 88l-260 -88q-11 -3 -23 2.5t-16 15.5
l-34 88q-6 11 -1.5 23.5zM498 346q0 -34 24 -54t62 -20q60 0 112 52v45q-51 51 -112 51q-38 0 -62 -20t-24 -54z" />
    <glyph glyph-name="adieresis" unicode="&#xe4;" horiz-adv-x="1191" 
d="M41 346q1 151 108.5 242.5t280.5 91.5q89 0 162 -30t104 -79v86q0 66 -43 106t-114 40q-60 0 -127.5 -18.5t-118.5 -47.5q-16 -10 -31 17l-117 245q-9 22 11 39q88 56 204.5 86.5t239.5 30.5q266 0 392 -144t126 -450v-530q0 -12 -9.5 -21.5t-21.5 -9.5h-258
q-12 0 -22 9.5t-10 21.5l-15 55q-51 -54 -145.5 -85.5t-206.5 -31.5q-177 0 -284 104t-105 273zM262 1343q0 70 42.5 113t111.5 43q68 0 110.5 -43t42.5 -113q0 -67 -42.5 -109t-110.5 -42q-69 0 -111.5 41.5t-42.5 109.5zM498 346q0 -34 24 -54t62 -20q60 0 112 52v45
q-51 51 -112 51q-38 0 -62 -20t-24 -54zM682 1343q0 70 42.5 113t111.5 43q68 0 110.5 -43t42.5 -113q0 -67 -42.5 -109t-110.5 -42q-69 0 -111.5 41.5t-42.5 109.5z" />
    <glyph glyph-name="aring" unicode="&#xe5;" horiz-adv-x="1191" 
d="M41 346q1 151 108.5 242.5t280.5 91.5q89 0 162 -30t104 -79v86q0 66 -43 106t-114 40q-60 0 -127.5 -18.5t-118.5 -47.5q-16 -10 -31 17l-117 245q-9 22 11 39q88 56 204.5 86.5t239.5 30.5q266 0 392 -144t126 -450v-530q0 -12 -9.5 -21.5t-21.5 -9.5h-258
q-12 0 -22 9.5t-10 21.5l-15 55q-51 -54 -145.5 -85.5t-206.5 -31.5q-177 0 -284 104t-105 273zM436 1352q0 79 56.5 135.5t134.5 56.5t134 -56.5t56 -135.5q0 -77 -56 -133t-134 -56t-134.5 56t-56.5 133zM498 346q0 -34 24 -54t62 -20q60 0 112 52v45q-51 51 -112 51
q-38 0 -62 -20t-24 -54zM551 1352q0 -30 22 -51t54 -21q31 0 54.5 21.5t23.5 50.5q0 32 -23.5 53.5t-54.5 21.5q-32 0 -54 -21.5t-22 -53.5z" />
    <glyph glyph-name="ae" unicode="&#xe6;" horiz-adv-x="1927" 
d="M33 346q1 151 108.5 242.5t280.5 91.5q89 0 162 -30t104 -79v86q0 66 -43.5 106t-114.5 40q-59 0 -126 -18t-119 -48q-16 -10 -31 17l-117 245q-10 23 10 39q88 55 205 86t240 31q219 0 344 -98q148 102 356 102q255 0 398 -156t143 -436q0 -51 -8 -92q-3 -24 -31 -24
h-657q0 -5 1 -14t10.5 -31t25.5 -39t51.5 -31t83.5 -14q170 0 313 67q10 4 19 -0.5t12 -15.5l88 -254q6 -19 -15 -31q-82 -54 -193.5 -84.5t-229.5 -30.5q-213 0 -363 103q-178 -107 -446 -107q-209 0 -336 104t-125 273zM489 346q0 -34 24 -54t62 -20q61 0 113 52v45
q-51 51 -113 51q-38 0 -62 -20t-24 -54zM1135 666h290q0 67 -37.5 108t-99.5 41q-69 0 -111 -41t-42 -108z" />
    <glyph glyph-name="ccedilla" unicode="&#xe7;" horiz-adv-x="1091" 
d="M41 561q0 267 169 430.5t447 163.5q88 0 192 -32t187 -85q22 -19 13 -34l-119 -250q-15 -29 -37 -13q-38 28 -92 45t-105 17q-112 0 -179.5 -66.5t-67.5 -175.5t67.5 -175.5t179.5 -66.5q51 0 105 17t92 45q23 16 37 -12l119 -250q10 -16 -13 -35q-83 -53 -187 -85
t-192 -32q-278 0 -447 163.5t-169 430.5zM352 -248q-29 -22 4 -45l150 -92q22 -16 43 8l188 252q13 17 7.5 28t-27.5 11h-135q-23 0 -41 -12z" />
    <glyph glyph-name="egrave" unicode="&#xe8;" horiz-adv-x="1216" 
d="M41 561q0 267 163.5 430.5t430.5 163.5q255 0 398 -156t143 -436q0 -45 -9 -92q-3 -25 -30 -25h-658q0 -5 1 -14t10.5 -31t25.5 -39t51.5 -31t83.5 -14q169 0 314 68q10 4 18.5 -0.5t11.5 -15.5l88 -254q6 -20 -14 -31q-82 -54 -194 -84.5t-230 -30.5q-271 0 -437.5 163
t-166.5 429zM397 1386l80 150q6 13 19 17.5t22 -3.5l369 -217q11 -8 13 -20.5t-5 -24.5l-39 -84q-6 -15 -19 -21.5t-24 -0.5l-399 164q-31 12 -17 40zM477 662h291q0 67 -37.5 108t-99.5 41q-69 0 -111.5 -41t-42.5 -108z" />
    <glyph glyph-name="eacute" unicode="&#xe9;" horiz-adv-x="1216" 
d="M41 561q0 267 163.5 430.5t430.5 163.5q255 0 398 -156t143 -436q0 -45 -9 -92q-3 -25 -30 -25h-658q0 -5 1 -14t10.5 -31t25.5 -39t51.5 -31t83.5 -14q169 0 314 68q10 4 18.5 -0.5t11.5 -15.5l88 -254q6 -20 -14 -31q-82 -54 -194 -84.5t-230 -30.5q-271 0 -437.5 163
t-166.5 429zM394.5 1312.5q2.5 12.5 13.5 20.5l368 217q9 8 22 3.5t19 -17.5l80 -150q14 -28 -16 -40l-400 -164q-11 -6 -24 0.5t-19 21.5l-39 84q-7 12 -4.5 24.5zM477 662h291q0 67 -37.5 108t-99.5 41q-69 0 -111.5 -41t-42.5 -108z" />
    <glyph glyph-name="ecircumflex" unicode="&#xea;" horiz-adv-x="1216" 
d="M41 561q0 267 163.5 430.5t430.5 163.5q255 0 398 -156t143 -436q0 -45 -9 -92q-3 -25 -30 -25h-658q0 -5 1 -14t10.5 -31t25.5 -39t51.5 -31t83.5 -14q169 0 314 68q10 4 18.5 -0.5t11.5 -15.5l88 -254q6 -20 -14 -31q-82 -54 -194 -84.5t-230 -30.5q-271 0 -437.5 163
t-166.5 429zM312 1319.5q5 12.5 16 17.5l290 168q12 6 29 6t27 -6l291 -168q10 -4 15.5 -17t0.5 -24l-37 -88q-4 -10 -16 -15.5t-23 -2.5l-258 88l-260 -88q-11 -3 -23 2.5t-16 15.5l-35 88q-6 11 -1 23.5zM477 662h291q0 67 -37.5 108t-99.5 41q-69 0 -111.5 -41
t-42.5 -108z" />
    <glyph glyph-name="edieresis" unicode="&#xeb;" horiz-adv-x="1216" 
d="M41 561q0 267 163.5 430.5t430.5 163.5q255 0 398 -156t143 -436q0 -45 -9 -92q-3 -25 -30 -25h-658q0 -5 1 -14t10.5 -31t25.5 -39t51.5 -31t83.5 -14q169 0 314 68q10 4 18.5 -0.5t11.5 -15.5l88 -254q6 -20 -14 -31q-82 -54 -194 -84.5t-230 -30.5q-271 0 -437.5 163
t-166.5 429zM283 1343q0 -68 42 -109.5t111 -41.5q68 0 111 42t43 109q0 70 -43 113t-111 43q-69 0 -111 -43t-42 -113zM477 662h291q0 67 -37.5 108t-99.5 41q-69 0 -111.5 -41t-42.5 -108zM702 1343q0 -68 42.5 -109.5t111.5 -41.5q68 0 111 42t43 109q0 70 -43 113
t-111 43q-69 0 -111.5 -43t-42.5 -113z" />
    <glyph glyph-name="igrave" unicode="&#xec;" 
d="M35 1386l80 150q6 13 19 17.5t22 -3.5l368 -217q11 -8 13 -20.5t-5 -24.5l-38 -84q-6 -15 -19 -21.5t-24 -0.5l-400 164q-30 12 -16 40zM74 31q0 -12 9 -21.5t21 -9.5h361q12 0 21.5 9.5t9.5 21.5v1065q0 11 -9.5 19.5t-21.5 8.5h-361q-12 0 -21 -8.5t-9 -19.5v-1065z
" />
    <glyph glyph-name="iacute" unicode="&#xed;" 
d="M32 1312.5q2 12.5 13 20.5l369 217q9 8 22 3.5t19 -17.5l80 -150q14 -28 -17 -40l-399 -164q-11 -6 -24 0.5t-19 21.5l-39 84q-7 12 -5 24.5zM74 31q0 -12 9 -21.5t21 -9.5h361q12 0 21.5 9.5t9.5 21.5v1065q0 11 -9.5 19.5t-21.5 8.5h-361q-12 0 -21 -8.5t-9 -19.5
v-1065z" />
    <glyph glyph-name="icircumflex" unicode="&#xee;" 
d="M-50.5 1319.5q4.5 12.5 15.5 17.5l291 168q12 6 28.5 6t26.5 -6l291 -168q10 -4 15.5 -17t0.5 -24l-36 -88q-4 -10 -16 -15.5t-23 -2.5l-258 88l-260 -88q-11 -3 -23 2.5t-16 15.5l-35 88q-6 11 -1.5 23.5zM74 31q0 -12 9 -21.5t21 -9.5h361q12 0 21.5 9.5t9.5 21.5v1065
q0 11 -9.5 19.5t-21.5 8.5h-361q-12 0 -21 -8.5t-9 -19.5v-1065z" />
    <glyph glyph-name="idieresis" unicode="&#xef;" 
d="M-80 1343q0 -68 42.5 -109.5t111.5 -41.5q68 0 110.5 42t42.5 109q0 70 -42.5 113t-110.5 43q-69 0 -111.5 -43t-42.5 -113zM74 31q0 -12 9 -21.5t21 -9.5h361q12 0 21.5 9.5t9.5 21.5v1065q0 11 -9.5 19.5t-21.5 8.5h-361q-12 0 -21 -8.5t-9 -19.5v-1065zM340 1343
q0 -68 42.5 -109.5t111.5 -41.5q68 0 110.5 42t42.5 109q0 70 -42.5 113t-110.5 43q-69 0 -111.5 -43t-42.5 -113z" />
    <glyph glyph-name="ntilde" unicode="&#xf1;" horiz-adv-x="1212" 
d="M74 31v1067q0 28 28 28h230q24 0 33 -20l26 -66q48 53 140.5 84t189.5 31q215 0 322.5 -107t107.5 -341v-676q0 -12 -9.5 -21.5t-21.5 -9.5h-360q-12 0 -21 9.5t-8 21.5v612q0 61 -26.5 95t-73.5 34q-52 0 -85.5 -29t-41.5 -57l-8 -29v-626q0 -12 -9.5 -21.5t-21.5 -9.5
h-361q-12 0 -21 9.5t-9 21.5zM334 1262q0 -21 16 -29q40 -23 88 -22.5t90 16t90.5 29.5t89 19t87.5 -15q30 -12 30 18v147q0 21 -16 29q-40 23 -88 23t-89.5 -15t-90 -29.5t-89.5 -20t-87 14.5q-31 12 -31 -18v-147z" />
    <glyph glyph-name="ograve" unicode="&#xf2;" horiz-adv-x="1286" 
d="M41 561q0 267 166 430.5t436 163.5t436 -163t166 -429q0 -267 -166 -430.5t-436 -163.5t-436 163t-166 429zM393 1386l80 150q6 13 19 17.5t22 -3.5l369 -217q11 -8 13 -20.5t-5 -24.5l-39 -84q-6 -15 -19 -21.5t-24 -0.5l-399 164q-31 12 -17 40zM440 561
q0 -100 56 -161.5t147 -61.5t147 62t56 163q0 100 -56 161.5t-147 61.5t-147 -62t-56 -163z" />
    <glyph glyph-name="oacute" unicode="&#xf3;" horiz-adv-x="1286" 
d="M41 561q0 267 166 430.5t436 163.5t436 -163t166 -429q0 -267 -166 -430.5t-436 -163.5t-436 163t-166 429zM390 1312.5q2 12.5 13 20.5l369 217q9 8 22 3.5t19 -17.5l80 -150q14 -28 -16 -40l-400 -164q-11 -6 -24 0.5t-19 21.5l-39 84q-7 12 -5 24.5zM440 561
q0 -100 56 -161.5t147 -61.5t147 62t56 163q0 100 -56 161.5t-147 61.5t-147 -62t-56 -163z" />
    <glyph glyph-name="ocircumflex" unicode="&#xf4;" horiz-adv-x="1286" 
d="M41 561q0 267 166 430.5t436 163.5t436 -163t166 -429q0 -267 -166 -430.5t-436 -163.5t-436 163t-166 429zM308 1319.5q5 12.5 16 17.5l290 168q12 6 29 6t27 -6l291 -168q10 -4 15.5 -17t0.5 -24l-37 -88q-4 -10 -16 -15.5t-23 -2.5l-258 88l-260 -88q-11 -3 -23 2.5
t-16 15.5l-35 88q-6 11 -1 23.5zM440 561q0 -100 56 -161.5t147 -61.5t147 62t56 163q0 100 -56 161.5t-147 61.5t-147 -62t-56 -163z" />
    <glyph glyph-name="otilde" unicode="&#xf5;" horiz-adv-x="1286" 
d="M41 561q0 267 166 430.5t436 163.5t436 -163t166 -429q0 -267 -166 -430.5t-436 -163.5t-436 163t-166 429zM401 1262q0 -20 17 -29q40 -23 88 -22.5t89.5 16t90 29.5t89.5 19t87 -15q31 -12 31 18v147q0 21 -16 29q-40 23 -88 23t-90 -15t-90.5 -29.5t-89.5 -20
t-87 14.5q-31 12 -31 -18v-147zM440 561q0 -100 56 -161.5t147 -61.5t147 62t56 163q0 100 -56 161.5t-147 61.5t-147 -62t-56 -163z" />
    <glyph glyph-name="odieresis" unicode="&#xf6;" horiz-adv-x="1286" 
d="M41 561q0 267 166 430.5t436 163.5t436 -163t166 -429q0 -267 -166 -430.5t-436 -163.5t-436 163t-166 429zM279 1343q0 -68 42 -109.5t111 -41.5q68 0 111 42t43 109q0 70 -43 113t-111 43q-69 0 -111 -43t-42 -113zM440 561q0 -100 56 -161.5t147 -61.5t147 62t56 163
q0 100 -56 161.5t-147 61.5t-147 -62t-56 -163zM698 1343q0 -68 42.5 -109.5t111.5 -41.5q68 0 111 42t43 109q0 70 -43 113t-111 43q-69 0 -111.5 -43t-42.5 -113z" />
    <glyph glyph-name="oslash" unicode="&#xf8;" horiz-adv-x="1349" 
d="M66 563q0 163 77 298.5t217 215.5t314 80q201 0 352 -102l57 57q9 10 21.5 10.5t21.5 -8.5l91 -90q9 -9 9 -21.5t-9 -21.5l-56 -55q121 -152 121 -361q0 -163 -77 -298.5t-217 -215.5t-314 -80q-206 0 -359 109l-69 -70q-9 -9 -21.5 -8.5t-21.5 10.5l-90 88q-7 9 -7 21.5
t7 21.5l67 68q-114 151 -114 352zM496 563q0 -25 2 -35l231 230q-27 10 -55 10q-78 0 -128 -60.5t-50 -144.5zM608 373q33 -13 66 -13q78 0 128 60.5t50 144.5q0 15 -4 47z" />
    <glyph glyph-name="ugrave" unicode="&#xf9;" horiz-adv-x="1212" 
d="M61 418v678q0 12 9.5 21t21.5 9h361q12 0 21 -9t9 -21v-627q0 -53 30 -85t79 -32q36 0 67 16.5t45 33.5l13 16v678q0 12 9.5 21t21.5 9h360q12 0 21.5 -9t9.5 -21v-1067q0 -11 -9.5 -20t-21.5 -9h-231q-21 0 -33 31l-31 73q-56 -62 -143 -98.5t-185 -36.5
q-199 0 -311.5 119.5t-112.5 329.5zM342 1386l80 150q6 13 19 17.5t22 -3.5l368 -217q11 -8 13.5 -20.5t-4.5 -24.5l-39 -84q-6 -15 -19 -21.5t-24 -0.5l-400 164q-30 12 -16 40z" />
    <glyph glyph-name="uacute" unicode="&#xfa;" horiz-adv-x="1212" 
d="M61 418v678q0 12 9.5 21t21.5 9h361q12 0 21 -9t9 -21v-627q0 -53 30 -85t79 -32q36 0 67 16.5t45 33.5l13 16v678q0 12 9.5 21t21.5 9h360q12 0 21.5 -9t9.5 -21v-1067q0 -11 -9.5 -20t-21.5 -9h-231q-21 0 -33 31l-31 73q-56 -62 -143 -98.5t-185 -36.5
q-199 0 -311.5 119.5t-112.5 329.5zM339 1312.5q2 12.5 13 20.5l369 217q9 8 22 3.5t19 -17.5l80 -150q14 -28 -17 -40l-399 -164q-11 -6 -24 0.5t-19 21.5l-39 84q-7 12 -5 24.5z" />
    <glyph glyph-name="ucircumflex" unicode="&#xfb;" horiz-adv-x="1212" 
d="M61 418v678q0 12 9.5 21t21.5 9h361q12 0 21 -9t9 -21v-627q0 -53 30 -85t79 -32q36 0 67 16.5t45 33.5l13 16v678q0 12 9.5 21t21.5 9h360q12 0 21.5 -9t9.5 -21v-1067q0 -11 -9.5 -20t-21.5 -9h-231q-21 0 -33 31l-31 73q-56 -62 -143 -98.5t-185 -36.5
q-199 0 -311.5 119.5t-112.5 329.5zM256.5 1319.5q4.5 12.5 15.5 17.5l291 168q12 6 28.5 6t26.5 -6l291 -168q11 -5 16 -18t1 -23l-37 -88q-4 -10 -16 -15.5t-23 -2.5l-258 88l-260 -88q-11 -3 -23 2.5t-16 15.5l-35 88q-6 11 -1.5 23.5z" />
    <glyph glyph-name="udieresis" unicode="&#xfc;" horiz-adv-x="1212" 
d="M61 418v678q0 12 9.5 21t21.5 9h361q12 0 21 -9t9 -21v-627q0 -53 30 -85t79 -32q36 0 67 16.5t45 33.5l13 16v678q0 12 9.5 21t21.5 9h360q12 0 21.5 -9t9.5 -21v-1067q0 -11 -9.5 -20t-21.5 -9h-231q-21 0 -33 31l-31 73q-56 -62 -143 -98.5t-185 -36.5
q-199 0 -311.5 119.5t-112.5 329.5zM227 1343q0 -68 42.5 -109.5t111.5 -41.5q68 0 111 42t43 109q0 70 -43 113t-111 43q-69 0 -111.5 -43t-42.5 -113zM647 1343q0 -68 42.5 -109.5t111.5 -41.5q68 0 110.5 42t42.5 109q0 70 -42.5 113t-110.5 43q-69 0 -111.5 -43
t-42.5 -113z" />
    <glyph glyph-name="yacute" unicode="&#xfd;" horiz-adv-x="1251" 
d="M2 1098q-4 10 2.5 19t18.5 9h411q28 0 39 -28l158 -643l155 643q3 13 14 20.5t23 7.5h404q13 0 19 -8.5t3 -19.5l-350 -1098q-71 -224 -199 -318t-331 -94q-105 0 -201.5 30.5t-147.5 80.5q-14 14 -10 35l115 231q10 23 25 12q106 -73 200 -73q78 0 121.5 38.5
t65.5 127.5h-168q-29 0 -37 28zM353.5 1312.5q2.5 12.5 13.5 20.5l368 217q9 8 22 3.5t19 -17.5l80 -150q14 -28 -16 -40l-400 -164q-11 -6 -24 0.5t-19 21.5l-39 84q-7 12 -4.5 24.5z" />
    <glyph glyph-name="thorn" unicode="&#xfe;" horiz-adv-x="1327" 
d="M74 -352v1808q0 11 9 20t21 9h361q12 0 21.5 -9t9.5 -20v-360q113 61 249 61q243 0 392 -163.5t149 -430.5q0 -266 -149 -429t-392 -163q-152 0 -249 78v-401q0 -11 -9.5 -20t-21.5 -9h-361q-12 0 -21 9t-9 20zM496 436q19 -51 63 -81.5t98 -30.5q85 0 137 65t52 172
q0 110 -52 178t-137 68q-54 0 -98 -31t-63 -82v-258z" />
    <glyph glyph-name="ydieresis" unicode="&#xff;" horiz-adv-x="1251" 
d="M2 1098q-4 10 2.5 19t18.5 9h411q28 0 39 -28l158 -643l155 643q3 13 14 20.5t23 7.5h404q13 0 19 -8.5t3 -19.5l-350 -1098q-71 -224 -199 -318t-331 -94q-105 0 -201.5 30.5t-147.5 80.5q-14 14 -10 35l115 231q10 23 25 12q106 -73 200 -73q78 0 121.5 38.5
t65.5 127.5h-168q-29 0 -37 28zM242 1343q0 70 42 113t111 43q68 0 111 -43t43 -113q0 -67 -43 -109t-111 -42q-69 0 -111 41.5t-42 109.5zM662 1343q0 70 42 113t111 43q68 0 111 -43t43 -113q0 -67 -43 -109t-111 -42q-69 0 -111 41.5t-42 109.5z" />
    <glyph glyph-name="OE" unicode="&#x152;" horiz-adv-x="1898" 
d="M33 705q0 144 56 275t151 226t226 151t275 56h1061q13 0 23 -9t10 -20v-362q0 -13 -9.5 -22t-23.5 -9h-520v-104h363q13 0 20.5 -9t5.5 -20l-37 -303q-2 -11 -12 -20t-23 -9h-317v-104h545q12 0 21.5 -8.5t9.5 -20.5v-362q0 -11 -9.5 -21t-21.5 -10h-1086q-144 0 -275 56
t-226 150.5t-151 225t-56 273.5zM489 707q0 -127 73 -206t192 -79h106v569h-106q-119 0 -192 -78.5t-73 -205.5z" />
    <glyph glyph-name="oe" unicode="&#x153;" horiz-adv-x="2037" 
d="M33 563q0 163 77 298.5t217 215.5t314 80q221 0 381 -125q155 127 391 127q255 0 398 -156t143 -436q0 -51 -8 -92q-3 -24 -31 -24h-658q0 -5 1 -14t10.5 -31t26 -39t52 -31t83.5 -14q170 0 313 67q10 4 19 -0.5t12 -15.5l88 -254q6 -19 -15 -31q-82 -54 -194 -84.5
t-230 -30.5q-240 0 -395 127q-164 -129 -387 -129q-174 0 -314 79.5t-217 214.5t-77 298zM463 563q0 -91 49 -147t129 -56t129 56.5t49 148.5q0 91 -49 147t-129 56t-129 -56.5t-49 -148.5zM1255 666h291q0 67 -37.5 108t-99.5 41q-69 0 -111.5 -41t-42.5 -108z" />
    <glyph glyph-name="Ydieresis" unicode="&#x178;" horiz-adv-x="1294" 
d="M-16 1380q-7 13 0.5 23t21.5 10h426q32 0 47 -33l168 -368l168 368q15 33 47 33h426q14 0 22 -10t1 -23l-453 -815v-536q0 -11 -9.5 -20t-21.5 -9h-360q-12 0 -21.5 9t-9.5 20v536zM289 1602q0 70 42 112.5t111 42.5q68 0 111 -42.5t43 -112.5q0 -67 -43 -109.5
t-111 -42.5q-69 0 -111 42t-42 110zM705 1602q0 70 42 112.5t111 42.5q68 0 111 -42.5t43 -112.5q0 -67 -43 -109.5t-111 -42.5q-69 0 -111 42t-42 110z" />
    <glyph glyph-name="circumflex" unicode="&#x2c6;" horiz-adv-x="1228" 
d="M285.5 1319.5q4.5 12.5 15.5 17.5l291 168q12 6 28.5 6t26.5 -6l291 -168q10 -4 15.5 -17t0.5 -24l-36 -88q-4 -10 -16 -15.5t-23 -2.5l-258 88l-261 -88q-11 -3 -22.5 2.5t-15.5 15.5l-35 88q-6 11 -1.5 23.5z" />
    <glyph glyph-name="tilde" unicode="&#x2dc;" horiz-adv-x="1228" 
d="M326 1262q0 -21 16 -29q40 -23 88 -22.5t89.5 16t90 29.5t89.5 19t87 -15q31 -12 31 18v147q0 21 -16 29q-40 23 -88 23t-90 -15t-90.5 -29.5t-89.5 -20t-87 14.5q-30 12 -30 -18v-147z" />
    <glyph glyph-name="uni2000" unicode="&#x2000;" horiz-adv-x="926" 
 />
    <glyph glyph-name="uni2001" unicode="&#x2001;" horiz-adv-x="1852" 
 />
    <glyph glyph-name="uni2002" unicode="&#x2002;" horiz-adv-x="926" 
 />
    <glyph glyph-name="uni2003" unicode="&#x2003;" horiz-adv-x="1852" 
 />
    <glyph glyph-name="uni2004" unicode="&#x2004;" horiz-adv-x="617" 
 />
    <glyph glyph-name="uni2005" unicode="&#x2005;" horiz-adv-x="463" 
 />
    <glyph glyph-name="uni2006" unicode="&#x2006;" horiz-adv-x="308" 
 />
    <glyph glyph-name="uni2007" unicode="&#x2007;" horiz-adv-x="308" 
 />
    <glyph glyph-name="uni2008" unicode="&#x2008;" horiz-adv-x="231" 
 />
    <glyph glyph-name="uni2009" unicode="&#x2009;" horiz-adv-x="370" 
 />
    <glyph glyph-name="uni200A" unicode="&#x200a;" horiz-adv-x="102" 
 />
    <glyph glyph-name="uni2010" unicode="&#x2010;" horiz-adv-x="811" 
d="M74 455v225q0 12 8.5 20.5t19.5 8.5h605q12 0 21 -8.5t9 -20.5v-225q0 -13 -9 -22t-21 -9h-605q-11 0 -19.5 9t-8.5 22z" />
    <glyph glyph-name="uni2011" unicode="&#x2011;" horiz-adv-x="811" 
d="M74 455v225q0 12 8.5 20.5t19.5 8.5h605q12 0 21 -8.5t9 -20.5v-225q0 -13 -9 -22t-21 -9h-605q-11 0 -19.5 9t-8.5 22z" />
    <glyph glyph-name="figuredash" unicode="&#x2012;" horiz-adv-x="811" 
d="M74 455v225q0 12 8.5 20.5t19.5 8.5h605q12 0 21 -8.5t9 -20.5v-225q0 -13 -9 -22t-21 -9h-605q-11 0 -19.5 9t-8.5 22z" />
    <glyph glyph-name="endash" unicode="&#x2013;" horiz-adv-x="1172" 
d="M74 455v225q0 12 13 20.5t30 8.5h935q18 0 32 -8.5t14 -20.5v-225q0 -13 -14 -22t-32 -9h-935q-17 0 -30 9t-13 22z" />
    <glyph glyph-name="emdash" unicode="&#x2014;" horiz-adv-x="2196" 
d="M74 455v225q0 12 26.5 20.5t59.5 8.5h1869q37 0 65 -8.5t28 -20.5v-225q0 -13 -28 -22t-65 -9h-1869q-33 0 -59.5 9t-26.5 22z" />
    <glyph glyph-name="uni202F" unicode="&#x202f;" horiz-adv-x="370" 
 />
    <glyph glyph-name="uni205F" unicode="&#x205f;" horiz-adv-x="463" 
 />
    <glyph glyph-name="Euro" unicode="&#x20ac;" horiz-adv-x="1236" 
d="M-74 588v67q0 12 9.5 20.5t23.5 8.5h82v25v26h-82q-14 0 -23.5 9t-9.5 22v68q0 12 9.5 20t23.5 8h94q43 268 229 426t463 158q113 0 227 -31.5t204 -87.5q25 -13 18 -37l-102 -299q-13 -29 -39 -16q-126 72 -275 72q-97 0 -168.5 -49t-107.5 -136h372q14 0 23.5 -8
t9.5 -20v-68q0 -13 -9.5 -22t-23.5 -9h-399v-26v-25h399q14 0 23.5 -8.5t9.5 -20.5v-67q0 -13 -9.5 -22t-23.5 -9h-372q34 -88 106 -137t170 -49q151 0 275 71q26 13 39 -16l102 -299q7 -25 -18 -37q-90 -56 -204 -87.5t-227 -31.5q-277 0 -463 159t-229 427h-94
q-14 0 -23.5 9t-9.5 22z" />
    <glyph glyph-name="uni25FC" unicode="&#x25fc;" horiz-adv-x="1126" 
d="M0 0v1126h1126v-1126h-1126z" />
    </font>
</defs>
</svg>
