<?xml version="1.0" standalone="no"?>
<!DOCTYPE svg PUBLIC "-//W3C//DTD SVG 1.1//EN" "http://www.w3.org/Graphics/SVG/1.1/DTD/svg11.dtd" >
<svg xmlns="http://www.w3.org/2000/svg" xmlns:xlink="http://www.w3.org/1999/xlink" version="1.1">
<metadata>
Created by FontForge 20170731 at Wed Nov 30 15:39:46 2022
 By Aleksey,,,
Copyright (C) 2001, 2008 Hoefler &#38; Frere-Jones. http://www.typography.com
</metadata>
<defs>
<font id="Gotham-LightItalic" horiz-adv-x="1228" >
  <font-face 
    font-family="Gotham Light"
    font-weight="300"
    font-style="italic"
    font-stretch="normal"
    units-per-em="2048"
    panose-1="0 0 0 0 0 0 0 0 0 0"
    ascent="1638"
    descent="-410"
    x-height="1044"
    cap-height="1434"
    bbox="-625 -461 2470 2019"
    underline-thickness="102"
    underline-position="-307"
    slope="-15"
    unicode-range="U+0020-FB04"
  />
<missing-glyph horiz-adv-x="1024" 
d="M0 -410v2048h1024v-2048h-1024zM102 -156l353 770l-353 770v-1540zM145 -307h734l-367 799zM512 737l367 799h-734zM922 -156v1540l-353 -770z" />
    <glyph glyph-name="f_f" unicode="ff" horiz-adv-x="1482" 
d="M113 0l256 952h-152l25 92h151l41 152q36 136 113 213q86 86 221 86q119 0 209 -49l-25 -90q-104 49 -188 49q-178 0 -236 -231l-34 -130h376l-24 -92h-377l-256 -952h-100zM854 0l256 952h-152l25 92h152l41 152q37 138 112 213q86 86 221 86q119 0 209 -49l-24 -90
q-104 49 -189 49q-177 0 -235 -231l-35 -130h377l-25 -92h-377l-256 -952h-100z" />
    <glyph glyph-name="fi" unicode="fi" horiz-adv-x="1253" 
d="M113 0l256 952h-152l25 92h151l41 152q36 136 113 213q86 86 221 86q119 0 209 -49l-25 -90q-104 49 -188 49q-178 0 -236 -231l-34 -130h376l-24 -92h-377l-256 -952h-100zM807 0l280 1044h101l-281 -1044h-100zM1149 1317l37 137h125l-37 -137h-125z" />
    <glyph glyph-name="fl" unicode="fl" horiz-adv-x="1253" 
d="M113 0l256 952h-152l25 92h151l41 152q36 136 113 213q86 86 221 86q119 0 209 -49l-25 -90q-104 49 -188 49q-178 0 -236 -231l-34 -130h376l-24 -92h-377l-256 -952h-100zM807 0l401 1495h101l-402 -1495h-100z" />
    <glyph glyph-name="f_f_i" unicode="ffi" horiz-adv-x="1994" 
d="M113 0l256 952h-152l25 92h151l41 152q36 136 113 213q86 86 221 86q119 0 209 -49l-25 -90q-104 49 -188 49q-178 0 -236 -231l-34 -130h376l-24 -92h-377l-256 -952h-100zM854 0l256 952h-152l25 92h152l41 152q37 138 112 213q86 86 221 86q119 0 209 -49l-24 -90
q-104 49 -189 49q-177 0 -235 -231l-35 -130h377l-25 -92h-377l-256 -952h-100zM1548 0l281 1044h100l-280 -1044h-101zM1890 1317l37 137h125l-37 -137h-125z" />
    <glyph glyph-name="f_f_l" unicode="ffl" horiz-adv-x="1994" 
d="M113 0l256 952h-152l25 92h151l41 152q36 136 113 213q86 86 221 86q119 0 209 -49l-25 -90q-104 49 -188 49q-178 0 -236 -231l-34 -130h376l-24 -92h-377l-256 -952h-100zM854 0l256 952h-152l25 92h152l41 152q37 138 112 213q86 86 221 86q119 0 209 -49l-24 -90
q-104 49 -189 49q-177 0 -235 -231l-35 -130h377l-25 -92h-377l-256 -952h-100zM1548 0l402 1495h100l-401 -1495h-101z" />
    <glyph glyph-name=".notdef" horiz-adv-x="1024" 
d="M0 -410v2048h1024v-2048h-1024zM102 -156l353 770l-353 770v-1540zM145 -307h734l-367 799zM512 737l367 799h-734zM922 -156v1540l-353 -770z" />
    <glyph glyph-name=".null" horiz-adv-x="0" 
 />
    <glyph glyph-name="nonmarkingreturn" horiz-adv-x="682" 
 />
    <glyph glyph-name="space" unicode=" " horiz-adv-x="614" 
 />
    <glyph glyph-name="exclam" unicode="!" horiz-adv-x="514" 
d="M188 375l215 915l39 144h119l-39 -144l-276 -915h-58zM49 0l47 174h135l-47 -174h-135z" />
    <glyph glyph-name="quotedbl" unicode="&#x22;" horiz-adv-x="839" 
d="M207 913l190 521h129v-11l-260 -510h-59zM575 913l191 521h129v-11l-260 -510h-60z" />
    <glyph glyph-name="numbersign" unicode="#" horiz-adv-x="1388" 
d="M186 0l133 383h-247l24 96h256l170 484h-272l24 96h281l131 375h98l-131 -375h424l131 375h99l-131 -375h247l-24 -96h-256l-170 -484h272l-24 -96h-281l-133 -383h-98l133 383h-424l-133 -383h-99zM453 479h421l170 484h-423z" />
    <glyph glyph-name="dollar" unicode="$" horiz-adv-x="1265" 
d="M870 1552h101l-37 -137q207 -40 352 -182l-74 -74q-125 125 -313 164l-149 -557q188 -70 271 -153t83 -207q0 -176 -145.5 -291t-376.5 -115h-39l-54 -201h-100l57 211q-140 21 -256 84t-192 156l78 67q150 -176 405 -213l158 590q-199 73 -283 153t-84 204
q0 164 136.5 273.5t339.5 109.5q32 0 90 -4zM995 395q0 86 -61 149.5t-211 121.5l-154 -570h33q177 0 285 85t108 214zM381 1061q0 -90 64.5 -147.5t220.5 -116.5l145 536q-50 4 -74 4q-156 0 -256 -79.5t-100 -196.5z" />
    <glyph glyph-name="percent" unicode="%" horiz-adv-x="1681" 
d="M471 709q-123 0 -202 84.5t-79 207.5q0 95 37.5 184t102.5 154q111 111 252 111q123 0 201.5 -84.5t78.5 -208.5q0 -96 -37 -184.5t-102 -153.5q-110 -110 -252 -110zM1204 -16q-123 0 -201.5 84.5t-78.5 207.5q0 96 37 184.5t102 153.5q111 111 252 111
q123 0 201.5 -84.5t78.5 -208.5q0 -96 -37 -184.5t-102 -153.5q-110 -110 -252 -110zM1212 72q92 0 170 78q53 53 83 125t30 147q0 98 -49.5 156.5t-138.5 58.5q-92 0 -170 -78q-53 -53 -83 -125t-30 -147q0 -98 49.5 -156.5t138.5 -58.5zM479 797q93 0 170 77
q53 53 83 125.5t30 147.5q0 98 -50 156.5t-139 58.5q-92 0 -170 -78q-53 -52 -82.5 -124.5t-29.5 -147.5q0 -98 49.5 -156.5t138.5 -58.5zM133 0l1397 1434h123l-1397 -1434h-123z" />
    <glyph glyph-name="ampersand" unicode="&#x26;" horiz-adv-x="1413" 
d="M1247 698l80 -47q-144 -238 -260 -364l184 -262l-80 -54l-174 248q-126 -125 -246.5 -182t-277.5 -57q-176 0 -293 96.5t-117 261.5q0 173 127.5 298t374.5 189q-96 155 -96 273q0 153 111 256.5t266 103.5q152 0 244 -81.5t92 -215.5q0 -61 -22.5 -113.5t-74 -103.5
t-143.5 -95.5t-223 -80.5l291 -414q122 140 237 344zM485 74q239 0 457 215l-326 461q-223 -53 -333.5 -159.5t-110.5 -240.5q0 -127 85 -201.5t228 -74.5zM573 1100q0 -64 22 -123.5t73 -134.5q409 106 409 315q0 94 -64 152.5t-171 58.5q-109 0 -189 -78.5t-80 -189.5z
" />
    <glyph glyph-name="quotesingle" unicode="'" horiz-adv-x="471" 
d="M207 913l190 521h129v-11l-260 -510h-59z" />
    <glyph glyph-name="parenleft" unicode="(" horiz-adv-x="880" 
d="M559 -287q-356 318 -356 733q0 191 75.5 371t227.5 332q199 199 508 324l35 -76q-282 -120 -461 -299q-142 -142 -210.5 -308.5t-68.5 -340.5q0 -111 23 -209t68.5 -181t95.5 -148.5t120 -137.5z" />
    <glyph glyph-name="parenright" unicode=")" horiz-adv-x="880" 
d="M358 1475q357 -319 357 -734q0 -191 -75.5 -370.5t-227.5 -331.5q-199 -199 -508 -324l-35 76q282 120 461 299q142 142 210 308.5t68 340.5q0 111 -23 209t-68.5 181t-95.5 148.5t-120 137.5z" />
    <glyph glyph-name="asterisk" unicode="*" horiz-adv-x="880" 
d="M553 831l-84 21l86 248l-248 -86l-24 84l264 49l-205 172l64 61l172 -198l49 256l84 -21l-86 -248l247 86l25 -84l-264 -49l205 -172l-64 -61l-172 198z" />
    <glyph glyph-name="plus" unicode="+" horiz-adv-x="1269" 
d="M506 231l119 441h-445l27 98h444l119 440h102l-118 -440h444l-27 -98h-444l-119 -441h-102z" />
    <glyph glyph-name="comma" unicode="," horiz-adv-x="473" 
d="M-66 -217l-14 49q143 50 164 168h-55l47 174h135l-41 -151q-31 -106 -82.5 -158.5t-153.5 -81.5z" />
    <glyph glyph-name="hyphen" unicode="-" horiz-adv-x="837" 
d="M152 551l30 115h549l-31 -115h-548z" />
    <glyph glyph-name="period" unicode="." horiz-adv-x="473" 
d="M29 0l47 174h135l-47 -174h-135z" />
    <glyph glyph-name="slash" unicode="/" horiz-adv-x="1024" 
d="M-248 -262l1467 1896h110l-1466 -1896h-111z" />
    <glyph glyph-name="zero" unicode="0" horiz-adv-x="1452" 
d="M905 1458q229 0 355 -149t126 -387q0 -210 -79.5 -411.5t-216.5 -338.5q-197 -197 -441 -197q-153 0 -263.5 71t-164 190.5t-53.5 275.5q0 210 80 411.5t217 338.5q196 196 440 196zM655 72q188 0 349 161q124 124 198 310t74 379q0 192 -98.5 316t-278.5 124
q-186 0 -348 -162q-124 -124 -198 -309.5t-74 -378.5q0 -192 98 -316t278 -124z" />
    <glyph glyph-name="one" unicode="1" horiz-adv-x="684" 
d="M190 0l355 1321l-301 -94l-4 96l360 121h84l-387 -1444h-107z" />
    <glyph glyph-name="two" unicode="2" horiz-adv-x="1204" 
d="M-39 0l19 80l839 665q132 105 192 187.5t60 177.5q0 109 -82 178.5t-225 69.5q-218 0 -410 -205l-75 66q228 235 489 235q183 0 298.5 -95t115.5 -247q0 -119 -72.5 -217t-224.5 -219l-725 -574h827l-26 -102h-1000z" />
    <glyph glyph-name="three" unicode="3" horiz-adv-x="1241" 
d="M512 -25q-178 0 -304 75t-188 206l89 49q122 -233 409 -233q190 0 315 101.5t125 258.5q0 135 -107 204t-294 69h-59l-23 53l639 575h-768l29 101h921l-20 -76l-629 -567q117 -5 211 -45t153.5 -119.5t59.5 -186.5q0 -172 -125 -297q-79 -79 -192.5 -123.5t-241.5 -44.5z
" />
    <glyph glyph-name="four" unicode="4" horiz-adv-x="1320" 
d="M756 0l94 350h-776l-17 80l1092 1014h98l-268 -1002h233l-24 -92h-234l-94 -350h-104zM203 442h671l224 832z" />
    <glyph glyph-name="five" unicode="5" horiz-adv-x="1230" 
d="M516 -25q-314 0 -483 256l88 56q148 -219 401 -219q102 0 190 33.5t147 89t92.5 128t33.5 150.5q0 144 -96.5 225.5t-247.5 81.5q-166 0 -330 -90l-67 53l227 695h774l-28 -103h-680l-177 -526q46 26 132 46.5t149 20.5q208 0 331.5 -107.5t123.5 -291.5
q0 -190 -140 -330q-79 -79 -191.5 -123.5t-248.5 -44.5z" />
    <glyph glyph-name="six" unicode="6" horiz-adv-x="1310" 
d="M649 -25q-102 0 -190.5 35t-149.5 96q-139 139 -139 396q0 229 79 425.5t208 325.5q205 205 458 205q260 0 418 -190l-78 -68q-145 162 -346 162q-202 0 -370 -168q-100 -100 -170 -248.5t-80 -296.5q71 106 185 174t261 68q106 0 194 -34.5t145 -92.5t88.5 -133
t31.5 -158q0 -195 -141 -336q-162 -162 -404 -162zM655 70q187 0 312 125q116 116 116 278q0 59 -21.5 114.5t-63.5 102t-111.5 75t-157.5 28.5q-199 0 -328 -129q-110 -110 -110 -252q0 -148 94 -242q100 -100 270 -100z" />
    <glyph glyph-name="seven" unicode="7" horiz-adv-x="1183" 
d="M164 0l964 1331h-825l29 103h950l-22 -78l-973 -1356h-123z" />
    <glyph glyph-name="eight" unicode="8" horiz-adv-x="1312" 
d="M604 -20q-231 0 -376.5 108.5t-145.5 265.5q0 166 122.5 271.5t315.5 134.5q-95 34 -157 114.5t-62 190.5q0 166 147.5 277.5t362.5 111.5q207 0 341 -103t134 -264q0 -144 -106 -243.5t-265 -128.5q104 -37 178 -123t74 -201q0 -118 -74 -212.5t-202.5 -146.5
t-286.5 -52zM610 76q201 0 324 89t123 230q0 122 -114 208.5t-300 86.5q-204 0 -327 -94.5t-123 -228.5q0 -129 114 -210t303 -81zM768 778q191 0 299.5 90.5t108.5 212.5t-102 199.5t-263 77.5q-179 0 -289 -85.5t-110 -215.5q0 -120 99.5 -199.5t256.5 -79.5z" />
    <glyph glyph-name="nine" unicode="9" horiz-adv-x="1310" 
d="M498 -25q-132 0 -242 54t-188 149l77 68q154 -174 359 -174q200 0 368 168q101 99 169.5 244t80.5 294q-33 -49 -73.5 -90.5t-95.5 -79.5t-127.5 -60t-153.5 -22q-106 0 -194 35t-145 94.5t-88 136t-30 160.5q0 197 147 344q162 162 402 162q102 0 189.5 -35t148.5 -96
q139 -139 139 -395q0 -229 -79 -426t-208 -326q-205 -205 -456 -205zM686 625q189 0 318 129q54 54 85 126t31 146q0 142 -94 236q-102 102 -270 102q-184 0 -307 -123q-120 -120 -123 -289q-1 -61 20 -118t63 -104.5t114 -76t163 -28.5z" />
    <glyph glyph-name="colon" unicode=":" horiz-adv-x="493" 
d="M39 0l47 174h135l-47 -174h-135zM272 870l47 174h136l-47 -174h-136z" />
    <glyph glyph-name="semicolon" unicode=";" horiz-adv-x="493" 
d="M-55 -217l-15 49q143 50 164 168h-55l47 174h135l-41 -151q-31 -107 -82 -159t-153 -81zM272 870l47 174h136l-47 -174h-136z" />
    <glyph glyph-name="less" unicode="&#x3c;" horiz-adv-x="1269" 
d="M987 186l-819 494l22 82l1084 493l-31 -120l-938 -422l711 -426z" />
    <glyph glyph-name="equal" unicode="=" horiz-adv-x="1269" 
d="M145 438l29 105h930l-29 -105h-930zM270 899l27 105h930l-27 -105h-930z" />
    <glyph glyph-name="greater" unicode="&#x3e;" horiz-adv-x="1269" 
d="M100 186l31 121l938 422l-711 426l29 100l819 -493l-22 -82z" />
    <glyph glyph-name="question" unicode="?" horiz-adv-x="1093" 
d="M397 375l62 332l14 10q231 18 371.5 116.5t140.5 258.5q0 125 -88 194.5t-223 69.5q-116 0 -220 -51t-182 -129l-65 69q207 207 475 207q188 0 300 -100t112 -258q0 -99 -43.5 -181t-119.5 -138t-172 -92t-208 -52l-88 -256h-66zM262 0l47 174h135l-47 -174h-135z" />
    <glyph glyph-name="at" unicode="@" horiz-adv-x="2007" 
d="M995 -330q-194 0 -354.5 58t-271.5 162.5t-172.5 254t-61.5 328.5q0 130 36.5 256t101.5 234t158 200t203 157t240.5 101.5t266.5 36.5q186 0 338.5 -56t253 -154t155 -230t54.5 -283q0 -112 -26.5 -209.5t-69.5 -165t-98.5 -116t-113.5 -71.5t-114 -23q-107 0 -170.5 54
t-77.5 150q-164 -209 -381 -209q-137 0 -229.5 93t-92.5 247q0 109 43 210.5t112.5 173.5t160 115.5t182.5 43.5q122 0 201.5 -62.5t113.5 -158.5l62 201l96 -27l-154 -496q-16 -56 -16 -98q0 -72 41.5 -117t118.5 -45q54 0 111.5 31.5t109.5 91t85.5 161t33.5 226.5
q0 110 -31.5 209.5t-93.5 181t-149 141.5t-203.5 93t-251.5 33q-151 0 -293.5 -48t-257 -134.5t-201.5 -200.5t-134.5 -253t-47.5 -284q0 -332 215.5 -534.5t572.5 -202.5q221 0 424 92l29 -59q-214 -99 -453 -99zM911 242q102 0 200 60.5t160 159.5t62 204q0 117 -71 191.5
t-191 74.5q-159 0 -273 -131t-114 -312q0 -116 63 -181.5t164 -65.5z" />
    <glyph glyph-name="A" unicode="A" horiz-adv-x="1554" 
d="M-70 0l1055 1444h102l281 -1444h-108l-74 401h-846l-291 -401h-119zM410 498h755l-153 829z" />
    <glyph glyph-name="B" unicode="B" horiz-adv-x="1468" 
d="M74 0l385 1434h530q197 0 313.5 -87t116.5 -239q0 -102 -52 -184t-136 -132t-191 -71q123 -32 199 -106.5t76 -192.5q0 -187 -161.5 -304.5t-434.5 -117.5h-645zM207 98h518q222 0 351.5 86.5t129.5 237.5q0 122 -105 187t-274 65h-467zM387 772h442q217 0 348.5 90
t131.5 236q0 117 -86.5 177t-243.5 60h-440z" />
    <glyph glyph-name="C" unicode="C" horiz-adv-x="1511" 
d="M774 -27q-119 0 -225.5 40.5t-186.5 114t-127 184.5t-47 243q0 182 73.5 352.5t203.5 300.5q117 117 266.5 183.5t312.5 66.5q188 0 322.5 -84.5t204.5 -224.5l-92 -49q-74 129 -177.5 195.5t-263.5 66.5q-138 0 -264 -56t-225 -155q-117 -117 -183.5 -273t-66.5 -319
q0 -222 135.5 -354.5t349.5 -132.5q151 0 265.5 54.5t220.5 160.5l71 -66q-111 -116 -247 -182t-320 -66z" />
    <glyph glyph-name="D" unicode="D" horiz-adv-x="1579" 
d="M74 0l385 1434h321q171 0 316.5 -49t240.5 -144q158 -158 158 -410q0 -163 -57.5 -305t-165.5 -250q-130 -130 -320 -203t-409 -73h-469zM1251 1174q-161 161 -477 161h-235l-332 -1237h350q192 0 354 63.5t281 182.5q192 192 192 479q0 221 -133 351z" />
    <glyph glyph-name="E" unicode="E" horiz-adv-x="1329" 
d="M74 0l385 1434h1009l-26 -99h-903l-152 -563h811l-27 -98h-811l-153 -576h913l-26 -98h-1020z" />
    <glyph glyph-name="F" unicode="F" horiz-adv-x="1343" 
d="M74 0l385 1434h1009l-26 -99h-903l-158 -587h811l-27 -99h-811l-174 -649h-106z" />
    <glyph glyph-name="G" unicode="G" horiz-adv-x="1609" 
d="M811 -27q-178 0 -318 73.5t-220 212t-80 319.5q0 171 70.5 334t197.5 290q120 120 275 188t331 68q355 0 524 -266l-84 -55q-72 108 -174 166.5t-276 58.5q-148 0 -279.5 -58t-234.5 -161q-113 -113 -176.5 -260.5t-63.5 -300.5q0 -237 141 -374.5t373 -137.5
q240 0 414 116l131 459h-477l26 98h582l-176 -616q-237 -154 -506 -154z" />
    <glyph glyph-name="H" unicode="H" horiz-adv-x="1548" 
d="M74 0l385 1434h106l-178 -664h907l179 664h106l-385 -1434h-107l181 672h-908l-180 -672h-106z" />
    <glyph glyph-name="I" unicode="I" horiz-adv-x="561" 
d="M88 0l385 1434h107l-385 -1434h-107z" />
    <glyph glyph-name="J" unicode="J" horiz-adv-x="1122" 
d="M401 -20q-170 0 -271.5 90.5t-139.5 238.5l94 33q41 -134 116 -200t197 -66q154 0 260 106q102 102 160 314l252 938h107l-256 -953q-63 -238 -191 -366q-65 -65 -152 -100t-176 -35z" />
    <glyph glyph-name="K" unicode="K" horiz-adv-x="1462" 
d="M74 0l385 1434h106l-250 -932l1147 932h158l-797 -641l434 -793h-122l-400 731l-459 -373l-96 -358h-106z" />
    <glyph glyph-name="L" unicode="L" 
d="M74 0l385 1434h106l-358 -1336h842l-27 -98h-948z" />
    <glyph glyph-name="M" unicode="M" horiz-adv-x="1779" 
d="M74 0l385 1434h88l348 -848l803 848h112l-385 -1434h-106l334 1245l-789 -825h-8l-346 825l-334 -1245h-102z" />
    <glyph glyph-name="N" unicode="N" horiz-adv-x="1609" 
d="M74 0l385 1434h98l645 -1256l338 1256h102l-385 -1434h-77l-660 1282l-344 -1282h-102z" />
    <glyph glyph-name="O" unicode="O" horiz-adv-x="1732" 
d="M1022 1458q133 0 248.5 -48t196.5 -130t127 -196t46 -242q0 -175 -70.5 -339.5t-193.5 -287.5q-113 -113 -258.5 -177.5t-302.5 -64.5q-178 0 -320 82t-220 222.5t-78 312.5q0 175 70.5 339.5t193.5 287.5q113 113 258 177t303 64zM815 70q137 0 259.5 54.5t219.5 151.5
q111 111 173.5 260t62.5 306q0 223 -141.5 371.5t-366.5 148.5q-137 0 -259.5 -55t-219.5 -152q-111 -111 -173.5 -259.5t-62.5 -305.5q0 -223 141.5 -371.5t366.5 -148.5z" />
    <glyph glyph-name="P" unicode="P" horiz-adv-x="1357" 
d="M74 0l385 1434h446q266 0 395 -129q99 -99 99 -256q0 -197 -129 -326q-91 -91 -239.5 -138.5t-340.5 -47.5h-364l-146 -537h-106zM1219 1235q-100 100 -316 100h-364l-189 -702h344q347 0 498 151q100 100 100 260q0 118 -73 191z" />
    <glyph glyph-name="Q" unicode="Q" horiz-adv-x="1732" 
d="M1022 1458q133 0 248.5 -48t196.5 -130t127 -196t46 -242q0 -174 -71 -338.5t-195 -288.5l-33 -33l154 -166l-78 -65l-147 174q-207 -152 -455 -152q-178 0 -320 82t-220 222.5t-78 312.5q0 175 70.5 339.5t193.5 287.5q113 113 258 177t303 64zM815 70q210 0 389 129
l-239 266l77 67l234 -274l18 18q111 111 173.5 260t62.5 306q0 223 -141.5 371.5t-366.5 148.5q-137 0 -259.5 -55t-219.5 -152q-111 -111 -173.5 -259.5t-62.5 -305.5q0 -223 141.5 -371.5t366.5 -148.5z" />
    <glyph glyph-name="R" unicode="R" horiz-adv-x="1460" 
d="M1092 0l-308 594h-59h-385l-160 -594h-106l385 1434h514q258 0 385 -127q90 -90 90 -234q0 -172 -127 -299q-138 -138 -422 -170l315 -604h-122zM365 690h430q154 0 268 39t182 107q96 96 96 231q0 107 -63 170q-98 98 -309 98h-430z" />
    <glyph glyph-name="S" unicode="S" horiz-adv-x="1306" 
d="M612 -20q-190 0 -334.5 72t-236.5 202l82 59q94 -121 213 -179t287 -58q177 0 295 89t118 224q0 93 -69.5 157t-243.5 132q-227 89 -318.5 171t-91.5 210q0 141 105 246q149 149 409 149q156 0 286.5 -60t211.5 -159l-82 -66q-162 189 -426 189q-178 0 -286.5 -86
t-108.5 -205q0 -96 78 -159t264 -134q204 -77 292.5 -162t88.5 -215q0 -149 -113 -262q-73 -73 -181.5 -114t-238.5 -41z" />
    <glyph glyph-name="T" unicode="T" horiz-adv-x="1259" 
d="M428 0l358 1335h-499l26 99h1106l-26 -99h-500l-358 -1335h-107z" />
    <glyph glyph-name="U" unicode="U" horiz-adv-x="1548" 
d="M713 -23q-249 0 -382.5 125.5t-133.5 325.5q0 109 28 221l209 785h107l-222 -834q-18 -74 -18 -164q0 -162 106.5 -262t313.5 -100q203 0 350 147q134 134 201 381l223 832h107l-230 -854q-72 -267 -227 -422q-181 -181 -432 -181z" />
    <glyph glyph-name="V" unicode="V" horiz-adv-x="1462" 
d="M530 -10l-239 1444h110l203 -1319l914 1319h120l-1013 -1444h-95z" />
    <glyph glyph-name="W" unicode="W" horiz-adv-x="2199" 
d="M440 -10l-133 1444h111l108 -1276l762 1280h82l78 -1280l793 1276h118l-907 -1444h-86l-86 1245l-754 -1245h-86z" />
    <glyph glyph-name="X" unicode="X" horiz-adv-x="1417" 
d="M-47 0l749 741l-380 693h114l342 -631l635 631h137l-721 -711l394 -723h-115l-354 662l-664 -662h-137z" />
    <glyph glyph-name="Y" unicode="Y" horiz-adv-x="1368" 
d="M479 0l156 582l-375 852h117l330 -770l745 770h143l-862 -879l-147 -555h-107z" />
    <glyph glyph-name="Z" unicode="Z" horiz-adv-x="1355" 
d="M-39 0l16 59l1303 1278h-926l27 97h1092l-17 -60l-1302 -1278h966l-26 -96h-1133z" />
    <glyph glyph-name="bracketleft" unicode="[" horiz-adv-x="880" 
d="M33 -266l456 1700h560l-23 -78h-465l-414 -1544h465l-20 -78h-559z" />
    <glyph glyph-name="backslash" unicode="\" horiz-adv-x="1024" 
d="M754 -262l-453 1896h90l453 -1896h-90z" />
    <glyph glyph-name="bracketright" unicode="]" horiz-adv-x="880" 
d="M879 1434l-457 -1700h-559l22 78h465l414 1544h-465l20 78h560z" />
    <glyph glyph-name="asciicircum" unicode="^" horiz-adv-x="1024" 
d="M264 1010l438 430h91l208 -430h-96l-170 342l-354 -342h-117z" />
    <glyph glyph-name="underscore" unicode="_" 
d="M-233 -328l24 90h1239l-24 -90h-1239z" />
    <glyph glyph-name="grave" unicode="`" horiz-adv-x="1024" 
d="M754 1219l-162 211l127 61l106 -272h-71z" />
    <glyph glyph-name="a" unicode="a" horiz-adv-x="1169" 
d="M389 -25q-90 0 -166 31.5t-126 100t-50 161.5q0 148 100 248q131 131 371 131q190 0 402 -59l8 28q14 54 14 105q0 119 -81 182.5t-234 63.5q-143 0 -303 -56l-19 90q165 60 330 60q191 0 298 -87t107 -239q0 -59 -20 -137l-160 -598h-98l47 180q-172 -205 -420 -205z
M408 68q153 0 288.5 97t177.5 251l25 92q-192 49 -395 49q-179 0 -277 -98q-73 -73 -73 -178q0 -97 68.5 -155t185.5 -58z" />
    <glyph glyph-name="b" unicode="b" horiz-adv-x="1339" 
d="M639 -27q-162 0 -266.5 83.5t-149.5 209.5l-71 -266h-101l402 1495h100l-178 -655q191 229 434 229q182 0 301 -123.5t119 -316.5q0 -143 -52.5 -268.5t-144.5 -217.5q-81 -81 -182.5 -125.5t-210.5 -44.5zM635 68q186 0 321 135q78 78 121 186.5t43 226.5q0 161 -90 260
t-233 99q-94 0 -186 -42.5t-167 -117.5q-78 -78 -124 -178.5t-46 -204.5q0 -154 101 -259t260 -105z" />
    <glyph glyph-name="c" unicode="c" horiz-adv-x="1153" 
d="M557 -25q-69 0 -135 19t-124 57.5t-101.5 91.5t-69 126t-25.5 157q0 130 52 250t143 211q85 85 194 133.5t226 48.5q149 0 252.5 -71.5t156.5 -180.5l-84 -47q-54 95 -132 150t-199 55q-92 0 -178.5 -39.5t-155.5 -108.5q-77 -77 -121.5 -180.5t-44.5 -214.5
q0 -86 29.5 -156t78.5 -114t112 -68t132 -24q179 0 338 149l68 -65q-186 -179 -412 -179z" />
    <glyph glyph-name="d" unicode="d" horiz-adv-x="1339" 
d="M909 0l56 203q-191 -230 -435 -230q-182 0 -300.5 124t-118.5 317q0 143 52 268t144 217q81 81 182.5 125.5t210.5 44.5q162 0 266.5 -83.5t149.5 -209.5l193 719h100l-399 -1495h-101zM543 68q94 0 185.5 42t166.5 117q78 78 124 178.5t46 204.5q0 154 -101 259.5
t-259 105.5q-187 0 -322 -135q-78 -78 -121 -186.5t-43 -227.5q0 -160 90.5 -259t233.5 -99z" />
    <glyph glyph-name="e" unicode="e" horiz-adv-x="1193" 
d="M1073 487h-858q-4 -25 -4 -69q0 -157 95.5 -252.5t250.5 -95.5q110 0 191 35t165 104l60 -72q-95 -78 -190.5 -120t-225.5 -42q-200 0 -327.5 123t-127.5 316q0 131 54 257.5t149 221.5q176 176 402 176q126 0 217.5 -55.5t134.5 -144.5t43 -199q0 -98 -29 -183zM383 838
q-108 -108 -150 -260h758q8 36 8 86q0 135 -74.5 224t-219.5 89q-183 0 -322 -139z" />
    <glyph glyph-name="f" unicode="f" horiz-adv-x="741" 
d="M113 0l256 952h-152l25 92h151l41 152q36 136 113 213q86 86 221 86q119 0 209 -49l-25 -90q-104 49 -188 49q-178 0 -236 -231l-34 -130h376l-24 -92h-377l-256 -952h-100z" />
    <glyph glyph-name="g" unicode="g" horiz-adv-x="1339" 
d="M483 -332q-137 0 -267.5 52.5t-225.5 142.5l73 74q187 -175 424 -175q205 0 322 117q91 91 143 275l37 131q-194 -207 -430 -207q-84 0 -162 28t-139.5 78.5t-98 128.5t-36.5 170q0 238 170 408q85 85 195.5 131.5t226.5 46.5q87 0 156.5 -23t117 -65.5t78 -87.5
t55.5 -102l68 253h100l-243 -915q-55 -202 -164 -311q-150 -150 -400 -150zM578 172q99 0 192.5 42t165.5 114q66 66 103.5 147t37.5 164q0 132 -101 233t-265 101q-94 0 -182 -37t-156 -105q-142 -142 -142 -342q0 -100 51 -174t128 -108.5t168 -34.5z" />
    <glyph glyph-name="h" unicode="h" horiz-adv-x="1247" 
d="M51 0l402 1495h100l-174 -645q87 105 180 162t215 57q155 0 248.5 -90.5t93.5 -241.5q0 -57 -22 -147l-156 -590h-100l159 598q17 66 17 129q0 117 -72 184.5t-197 67.5q-136 0 -263.5 -111t-172.5 -278l-157 -590h-101z" />
    <glyph glyph-name="i" unicode="i" horiz-adv-x="512" 
d="M66 0l280 1044h100l-280 -1044h-100zM408 1317l36 137h125l-37 -137h-124z" />
    <glyph glyph-name="j" unicode="j" horiz-adv-x="509" 
d="M-106 -334q-66 0 -130 21l25 90q62 -17 96 -17q115 0 154 142l307 1142h100l-309 -1150q-29 -108 -92.5 -168t-150.5 -60zM408 1317l36 137h125l-37 -137h-124z" />
    <glyph glyph-name="k" unicode="k" horiz-adv-x="1146" 
d="M51 0l402 1495h100l-297 -1108l811 657h145l-581 -466l311 -578h-117l-278 516l-328 -262l-67 -254h-101z" />
    <glyph glyph-name="l" unicode="l" horiz-adv-x="512" 
d="M66 0l401 1495h100l-401 -1495h-100z" />
    <glyph glyph-name="m" unicode="m" horiz-adv-x="1947" 
d="M51 0l279 1044h100l-51 -194q57 70 106 114t119 74.5t150 30.5q68 0 123.5 -22t91.5 -59.5t58.5 -81.5t31.5 -93q73 121 184 188.5t254 67.5q142 0 234 -93t92 -239q0 -37 -27 -147l-156 -590h-100l160 598q16 62 16 129q0 116 -67 184t-181 68q-128 0 -249.5 -112
t-165.5 -277l-156 -590h-100l159 598q17 66 17 129q0 116 -67 184t-181 68q-128 0 -250 -112t-166 -277l-157 -590h-101z" />
    <glyph glyph-name="n" unicode="n" horiz-adv-x="1251" 
d="M51 0l279 1044h100l-51 -194q87 105 180 162t215 57q155 0 248.5 -90.5t93.5 -241.5q0 -57 -22 -147l-156 -590h-100l159 598q17 66 17 129q0 117 -72 184.5t-197 67.5q-136 0 -263.5 -111t-172.5 -278l-157 -590h-101z" />
    <glyph glyph-name="o" unicode="o" horiz-adv-x="1296" 
d="M725 1069q206 0 335.5 -130.5t129.5 -332.5q0 -124 -50.5 -239t-140.5 -205q-87 -87 -198.5 -137t-231.5 -50q-206 0 -335.5 130.5t-129.5 332.5q0 124 51 240t140 205q87 87 198.5 136.5t231.5 49.5zM580 70q93 0 181 40t157 109q76 76 119.5 176t43.5 207
q0 174 -100.5 273.5t-265.5 99.5q-93 0 -180.5 -40t-157.5 -110q-77 -77 -120.5 -176.5t-43.5 -206.5q0 -174 100.5 -273t266.5 -99z" />
    <glyph glyph-name="p" unicode="p" horiz-adv-x="1339" 
d="M639 -27q-162 0 -266.5 83.5t-149.5 209.5l-160 -594h-100l367 1372h100l-55 -204q191 229 434 229q182 0 301 -123.5t119 -316.5q0 -143 -52.5 -268.5t-144.5 -217.5q-81 -81 -182.5 -125.5t-210.5 -44.5zM635 68q186 0 321 135q78 78 121 186.5t43 226.5q0 161 -90 260
t-233 99q-94 0 -186 -42.5t-167 -117.5q-78 -78 -124 -178.5t-46 -204.5q0 -154 101 -259t260 -105z" />
    <glyph glyph-name="q" unicode="q" horiz-adv-x="1339" 
d="M530 -27q-182 0 -300.5 124t-118.5 317q0 143 52 268t144 217q81 81 182.5 125.5t210.5 44.5q162 0 266.5 -83.5t149.5 -209.5l72 268h100l-366 -1372h-101l144 531q-191 -230 -435 -230zM543 68q94 0 185.5 42t166.5 117q78 78 124 178.5t46 204.5q0 154 -101 259.5
t-259 105.5q-187 0 -322 -135q-78 -78 -121 -186.5t-43 -227.5q0 -160 90.5 -259t233.5 -99z" />
    <glyph glyph-name="r" unicode="r" horiz-adv-x="811" 
d="M51 0l279 1044h100l-78 -296q234 329 537 313l-29 -111h-8q-189 0 -355.5 -141t-230.5 -381l-114 -428h-101z" />
    <glyph glyph-name="s" unicode="s" horiz-adv-x="1013" 
d="M444 -23q-123 0 -238.5 46.5t-203.5 134.5l72 71q165 -159 383 -159q105 0 187.5 58t82.5 148q0 64 -48.5 111t-178.5 96q-156 58 -224.5 120t-68.5 161q0 128 107 215.5t280 87.5q104 0 205 -39.5t172 -99.5l-66 -76q-65 54 -149.5 88.5t-171.5 34.5q-125 0 -198 -58
t-73 -137q0 -63 47.5 -106.5t188.5 -98.5q157 -62 221 -125t64 -157q0 -89 -53.5 -162t-142.5 -113.5t-194 -40.5z" />
    <glyph glyph-name="t" unicode="t" horiz-adv-x="811" 
d="M422 -18q-111 0 -180.5 52t-69.5 154q0 47 12 101l178 663h-151l25 92h151l90 334h101l-91 -334h361l-25 -92h-360l-178 -665q-11 -50 -11 -88q0 -63 45 -94t125 -31q70 0 152 32l-27 -98q-71 -26 -147 -26z" />
    <glyph glyph-name="u" unicode="u" horiz-adv-x="1247" 
d="M473 -25q-155 0 -248.5 90.5t-93.5 241.5q0 54 23 148l155 589h101l-160 -598q-17 -66 -17 -129q0 -117 72 -184t197 -67q136 0 263.5 111t172.5 278l158 589h100l-278 -1044h-101l51 195q-87 -105 -180 -162.5t-215 -57.5z" />
    <glyph glyph-name="v" unicode="v" horiz-adv-x="1140" 
d="M367 -8l-185 1052h109l145 -931l641 931h121l-745 -1052h-86z" />
    <glyph glyph-name="w" unicode="w" horiz-adv-x="1730" 
d="M303 -8l-100 1052h102l76 -909l559 914h80l72 -914l563 909h110l-665 -1052h-88l-72 895l-553 -895h-84z" />
    <glyph glyph-name="x" unicode="x" horiz-adv-x="1144" 
d="M360 1044l230 -440l459 440h135l-549 -512l289 -532h-115l-242 469l-491 -469h-135l581 541l-276 503h114z" />
    <glyph glyph-name="y" unicode="y" horiz-adv-x="1163" 
d="M387 6l-213 1038h107l182 -933l629 933h120l-743 -1081q-112 -161 -212.5 -229t-215.5 -68q-117 0 -221 72l55 82q32 -26 84 -43t94 -17q82 0 161 56t173 190z" />
    <glyph glyph-name="z" unicode="z" horiz-adv-x="1118" 
d="M-35 0l17 57l972 897h-704l24 90h869l-17 -57l-972 -897h739l-25 -90h-903z" />
    <glyph glyph-name="braceleft" unicode="{" horiz-adv-x="983" 
d="M639 -289q-114 24 -189 79t-105 120t-30 143q0 50 9.5 96.5t37.5 149.5q19 68 19 113q0 68 -46 102.5t-149 34.5h-53l21 78h53q148 0 223 75q78 78 125 312q22 101 52.5 173.5t88.5 131.5q128 128 412 145l-6 -75q-220 -11 -328 -119q-82 -82 -117 -248
q-35 -162 -59 -223q-32 -83 -80 -131q-66 -66 -180 -84q141 -43 141 -170q0 -56 -18 -117q-45 -158 -45 -236q0 -106 59 -177.5t193 -108.5z" />
    <glyph glyph-name="bar" unicode="|" horiz-adv-x="585" 
d="M39 -262l508 1896h90l-510 -1896h-88z" />
    <glyph glyph-name="braceright" unicode="}" horiz-adv-x="983" 
d="M379 1464q86 -18 150 -53.5t101 -82t54.5 -98t17.5 -108.5q0 -50 -9.5 -96t-37.5 -149q-18 -65 -18 -113q0 -68 45.5 -102.5t148.5 -34.5h54l-21 -78h-53q-147 0 -223 -76q-78 -79 -125 -311q-22 -101 -52.5 -173.5t-88.5 -131.5q-129 -129 -412 -146l6 76
q220 11 328 119q80 80 116 248q36 164 62 229q31 78 78 125q66 66 180 84q-141 43 -141 170q0 56 18 117q45 157 45 235q0 106 -59 178t-193 109z" />
    <glyph glyph-name="asciitilde" unicode="~" horiz-adv-x="942" 
d="M256 502l-78 30q51 103 100 150t113 47q29 0 54 -10.5t40 -22.5t43 -39q38 -37 56.5 -49t42.5 -12q31 0 57 28.5t64 94.5l77 -31q-51 -103 -100 -149.5t-113 -46.5q-42 0 -69.5 16t-67.5 55q-29 28 -39.5 37t-26 17t-32.5 8q-31 0 -57 -28.5t-64 -94.5z" />
    <glyph glyph-name="uni00A0" unicode="&#xa0;" horiz-adv-x="614" 
 />
    <glyph glyph-name="exclamdown" unicode="&#xa1;" horiz-adv-x="514" 
d="M430 1059l-215 -916l-39 -143h-119l39 143l277 916h57zM569 1434l-47 -174h-135l47 174h135z" />
    <glyph glyph-name="cent" unicode="&#xa2;" horiz-adv-x="1142" 
d="M903 1446h103l-78 -193q102 -28 171 -89t105 -142l-84 -47q-41 74 -95.5 122t-137.5 68l-348 -886q40 -7 73 -7q201 0 367 150l68 -66q-193 -178 -441 -178q-57 0 -98 8l-78 -198h-102l90 227q-121 52 -192.5 160t-71.5 246q0 134 51.5 256t142.5 213q86 86 197 134
t233 48q9 0 28 -1t28 -1zM262 623q0 -110 51 -195.5t144 -124.5l344 873q-5 0 -14.5 1t-14.5 1q-196 0 -344 -148q-78 -78 -122 -183.5t-44 -223.5z" />
    <glyph glyph-name="sterling" unicode="&#xa3;" horiz-adv-x="1277" 
d="M-4 0l14 51l187 41l143 533h-176l26 98h177l71 268q56 210 164 318q139 139 334 139q257 0 381 -225l-88 -54q-56 91 -126 137t-173 46q-145 0 -248 -103q-93 -93 -143 -276l-68 -250h610l-26 -98h-611l-141 -529h766l-27 -96h-1046z" />
    <glyph glyph-name="yen" unicode="&#xa5;" horiz-adv-x="1433" 
d="M514 0l68 256h-430l24 92h430l53 201h-430l25 92h389l-348 793h121l329 -770l746 770h139l-778 -793h377l-25 -92h-438l-53 -201h438l-25 -92h-438l-67 -256h-107z" />
    <glyph glyph-name="section" unicode="&#xa7;" horiz-adv-x="1294" 
d="M1208 692q0 -81 -57 -141.5t-147.5 -90.5t-198.5 -30h-4q76 -34 118 -85.5t42 -111.5q0 -116 -106.5 -184.5t-264.5 -68.5q-134 0 -257.5 48.5t-195.5 118.5l68 76q67 -64 173 -107.5t226 -43.5q106 0 178 44t72 115q0 63 -66 110t-219 101q-204 72 -294.5 138t-90.5 161
q0 81 57 142t148 91t199 30h2q-75 34 -116.5 85t-41.5 111q0 116 106.5 185t264.5 69q134 0 257 -48.5t195 -119.5l-67 -76q-68 64 -174 108t-226 44q-106 0 -177.5 -44.5t-71.5 -115.5q0 -63 65.5 -110t218.5 -101q204 -72 294.5 -138t90.5 -161zM291 750q0 -60 62 -107
t210 -98q122 -43 240 -43q127 0 213 53.5t86 128.5q0 60 -62.5 107t-210.5 98q-125 43 -239 43q-127 0 -213 -53.5t-86 -128.5z" />
    <glyph glyph-name="dieresis" unicode="&#xa8;" horiz-adv-x="1024" 
d="M436 1219l45 163h142l-45 -163h-142zM770 1219l45 163h141l-45 -163h-141z" />
    <glyph glyph-name="copyright" unicode="&#xa9;" horiz-adv-x="1699" 
d="M840 340q-130 0 -217.5 81.5t-87.5 221.5q0 98 36.5 187t104.5 157q129 129 297 129q99 0 170 -44t110 -118l-75 -43q-73 123 -205 123q-134 0 -232 -98q-116 -116 -116 -287q0 -109 62.5 -168t158.5 -59q71 0 124 27t105 77l58 -57q-125 -129 -293 -129zM1638 805
q0 -164 -63.5 -320t-179.5 -272q-238 -238 -572 -238q-195 0 -346 86.5t-231 235t-80 332.5q0 164 64 320t180 272q237 237 571 237q195 0 346 -86.5t231 -234.5t80 -332zM231 627q0 -122 40.5 -229.5t115 -189t189 -128.5t253.5 -47q299 0 514 215q110 110 170 254t60 305
q0 122 -40.5 229.5t-115 189t-189 128.5t-253.5 47q-299 0 -514 -215q-110 -110 -170 -254t-60 -305z" />
    <glyph glyph-name="ordfeminine" unicode="&#xaa;" horiz-adv-x="798" 
d="M391 840q-74 0 -124 42t-50 111q0 97 75 157t193 60q81 0 199 -30l4 12q8 28 8 55q0 119 -159 119q-76 0 -164 -31l-15 72q100 35 193 35q108 0 167.5 -48t59.5 -132q0 -26 -12 -80l-88 -330h-82l29 102q-102 -114 -234 -114zM412 905q78 0 153 56.5t97 132.5l8 28
q-106 25 -185 25q-80 0 -131 -41t-51 -105q0 -43 30 -69.5t79 -26.5zM119 600l20 82h500l-21 -82h-499z" />
    <glyph glyph-name="guillemotleft" unicode="&#xab;" horiz-adv-x="1054" 
d="M305 86l-213 428l4 16l443 428l73 -57l-393 -393l170 -377zM723 86l-213 428l4 16l442 428l74 -57l-393 -393l170 -377z" />
    <glyph glyph-name="registered" unicode="&#xae;" horiz-adv-x="851" 
d="M618 1454q142 0 230 -90t88 -223q0 -170 -117 -287t-276 -117q-142 0 -230 90.5t-88 223.5q0 169 117 286t276 117zM547 776q138 0 239 101q109 109 109 260q0 120 -75.5 199t-205.5 79q-139 0 -239 -100q-109 -109 -109 -260q0 -120 75.5 -199.5t205.5 -79.5zM492 1055
l-35 -131h-58l97 358h129q73 0 102 -30.5t29 -71.5q0 -45 -30.5 -79.5t-88.5 -43.5l61 -133h-59l-57 131h-90zM504 1102h84q64 0 90 26q18 18 18 48q0 55 -78 55h-79z" />
    <glyph glyph-name="macron" unicode="&#xaf;" horiz-adv-x="1024" 
d="M401 1272l27 96h623l-27 -96h-623z" />
    <glyph glyph-name="degree" unicode="&#xb0;" horiz-adv-x="749" 
d="M520 1444q113 0 185.5 -73.5t72.5 -184.5q0 -68 -27.5 -131.5t-74.5 -110.5q-102 -102 -238 -102q-113 0 -185.5 73.5t-72.5 184.5q0 67 28 130.5t75 110.5q103 103 237 103zM449 928q92 0 161 69q76 76 76 181q0 82 -49 131t-127 49q-92 0 -162 -70q-76 -76 -76 -180
q0 -82 49.5 -131t127.5 -49z" />
    <glyph glyph-name="plusminus" unicode="&#xb1;" horiz-adv-x="1269" 
d="M528 317l113 416h-424l27 98h424l110 416h103l-111 -416h424l-27 -98h-424l-112 -416h-103zM23 0l26 98h948l-26 -98h-948z" />
    <glyph glyph-name="two.sup" unicode="&#xb2;" horiz-adv-x="819" 
d="M227 872l17 68l444 338q71 54 107 100t36 103q0 61 -43.5 96t-115.5 35q-112 0 -221 -113l-52 45q125 139 281 139q103 0 167 -54t64 -142q0 -68 -42 -127.5t-132 -126.5l-375 -285h443l-21 -76h-557z" />
    <glyph glyph-name="three.sup" unicode="&#xb3;" horiz-adv-x="819" 
d="M535 852q-98 0 -169 41t-106 111l64 36q33 -55 86 -85.5t120 -30.5q98 0 162 49t64 129q0 73 -52.5 109t-146.5 36h-35l-24 47l344 293h-408l23 76h512l-19 -66l-342 -288q97 -5 163.5 -55.5t66.5 -143.5q0 -110 -90 -184t-213 -74z" />
    <glyph glyph-name="acute" unicode="&#xb4;" horiz-adv-x="1024" 
d="M514 1219l254 272l127 -61l-277 -211h-104z" />
    <glyph glyph-name="paragraph" unicode="&#xb6;" horiz-adv-x="995" 
d="M532 0l144 539q-253 13 -375 135q-92 92 -92 239q0 209 131 340q178 181 537 181h149l-385 -1434h-109z" />
    <glyph glyph-name="periodcentered" unicode="&#xb7;" horiz-adv-x="473" 
d="M168 522l47 174h135l-47 -174h-135z" />
    <glyph glyph-name="cedilla" unicode="&#xb8;" horiz-adv-x="1024" 
d="M242 -303l-99 53l256 270h88z" />
    <glyph glyph-name="one.sup" unicode="&#xb9;" horiz-adv-x="665" 
d="M432 872l191 717l-201 -69v75l237 82h68l-215 -805h-80z" />
    <glyph glyph-name="ordmasculine" unicode="&#xba;" horiz-adv-x="798" 
d="M123 600l20 82h549l-20 -82h-549zM322 1102q0 -87 52 -140t134 -53q96 0 170 74q36 36 58 87.5t22 105.5q0 87 -52 139.5t-135 52.5q-96 0 -170 -74q-79 -79 -79 -192zM844 1180q0 -68 -27.5 -132t-75.5 -112q-102 -102 -239 -102q-119 0 -192.5 74.5t-73.5 189.5
q0 141 102 243q103 103 240 103q119 0 192.5 -74.5t73.5 -189.5z" />
    <glyph glyph-name="guillemotright" unicode="&#xbb;" horiz-adv-x="1054" 
d="M748 956l213 -428l-5 -16l-442 -428l-74 57l394 394l-170 376zM330 956l213 -428l-4 -16l-443 -428l-73 57l393 394l-170 376z" />
    <glyph glyph-name="onequarter" unicode="&#xbc;" horiz-adv-x="1689" 
d="M1206 -4l49 186h-389l-6 72l537 549h100l-147 -551h112l-18 -70h-113l-49 -186h-76zM92 0l696 729l662 705h98l-698 -729l-660 -705h-98zM309 643l191 717l-201 -70v76l238 82h67l-215 -805h-80zM954 252h320l121 448z" />
    <glyph glyph-name="onehalf" unicode="&#xbd;" horiz-adv-x="1689" 
d="M834 0l16 68l444 338q72 54 108 99.5t36 102.5q0 61 -44 96t-116 35q-113 0 -221 -112l-51 45q125 139 280 139q103 0 167.5 -54.5t64.5 -142.5q0 -68 -42.5 -127.5t-132.5 -126.5l-374 -284h442l-20 -76h-557zM72 0l696 729l662 705h98l-699 -729l-659 -705h-98z
M309 643l191 717l-201 -70v76l238 82h67l-215 -805h-80z" />
    <glyph glyph-name="threequarters" unicode="&#xbe;" horiz-adv-x="1843" 
d="M1360 -4l49 186h-389l-6 72l536 549h101l-148 -551h113l-19 -70h-112l-49 -186h-76zM420 623q-98 0 -169 40.5t-106 110.5l64 37q33 -55 87 -86t120 -31q98 0 161.5 48.5t63.5 129.5q0 73 -52.5 109.5t-146.5 36.5h-34l-25 47l344 293h-408l23 76h512l-18 -66l-342 -289
q97 -5 163 -55t66 -143q0 -110 -90 -184t-213 -74zM236 0l696 729l661 705h99l-699 -729l-659 -705h-98zM1108 252h319l121 448z" />
    <glyph glyph-name="questiondown" unicode="&#xbf;" horiz-adv-x="1093" 
d="M801 1059l-62 -332l-14 -10q-231 -18 -371.5 -116.5t-140.5 -258.5q0 -125 88 -194.5t223 -69.5q116 0 220 51t182 129l65 -70q-206 -206 -475 -206q-188 0 -300 100t-112 258q0 99 43.5 181t119.5 138t172 92t208 52l88 256h66zM936 1434l-47 -174h-135l47 174h135z" />
    <glyph glyph-name="Agrave" unicode="&#xc0;" horiz-adv-x="1554" 
d="M-70 0l1055 1444h102l281 -1444h-108l-74 401h-846l-291 -401h-119zM410 498h755l-153 829zM1010 1587l-170 185l118 57l127 -242h-75z" />
    <glyph glyph-name="Aacute" unicode="&#xc1;" horiz-adv-x="1554" 
d="M-70 0l1055 1444h102l281 -1444h-108l-74 401h-846l-291 -401h-119zM410 498h755l-153 829zM1016 1587l254 242l123 -57l-269 -185h-108z" />
    <glyph glyph-name="Acircumflex" unicode="&#xc2;" horiz-adv-x="1554" 
d="M-70 0l1055 1444h102l281 -1444h-108l-74 401h-846l-291 -401h-119zM410 498h755l-153 829zM805 1587l270 219h94l152 -219h-102l-115 125l-184 -125h-115z" />
    <glyph glyph-name="Atilde" unicode="&#xc3;" horiz-adv-x="1554" 
d="M-70 0l1055 1444h102l281 -1444h-108l-74 401h-846l-291 -401h-119zM410 498h755l-153 829zM858 1569l-74 20q45 97 91.5 138.5t105.5 41.5q40 0 127 -38q5 -2 25 -10.5t27 -11.5t22 -8t25.5 -7t19.5 -2q36 0 61 20t58 74l73 -21q-45 -97 -90.5 -137.5t-105.5 -40.5
q-38 0 -127 39q-5 2 -25 10.5t-27 11.5t-22 8t-25.5 7t-19.5 2q-36 0 -61 -20.5t-58 -75.5z" />
    <glyph glyph-name="Adieresis" unicode="&#xc4;" horiz-adv-x="1554" 
d="M-70 0l1055 1444h102l281 -1444h-108l-74 401h-846l-291 -401h-119zM410 498h755l-153 829zM823 1587l43 156h152l-43 -156h-152zM1184 1587l43 156h149l-43 -156h-149z" />
    <glyph glyph-name="Aring" unicode="&#xc5;" horiz-adv-x="1554" 
d="M-70 0l1002 1370q-92 47 -92 148q0 93 74.5 156t172.5 63q84 0 138.5 -48t54.5 -122t-50.5 -132t-125.5 -79l264 -1356h-108l-74 401h-846l-291 -401h-119zM410 498h755l-153 829zM1040 1413q63 0 111.5 42.5t48.5 105.5q0 48 -32 79t-89 31q-63 0 -111 -42t-48 -105
q0 -51 33 -81t87 -30z" />
    <glyph glyph-name="AE" unicode="&#xc6;" horiz-adv-x="2154" 
d="M-66 0l1252 1434h1108l-27 -99h-883l-151 -563h790l-26 -98h-791l-153 -576h893l-27 -98h-999l108 401h-616l-349 -401h-129zM496 498h557l225 839h-55z" />
    <glyph glyph-name="Ccedilla" unicode="&#xc7;" horiz-adv-x="1511" 
d="M555 -303l-98 53l217 232q-102 15 -190.5 61t-154.5 118t-103.5 173.5t-37.5 220.5q0 182 73.5 352.5t203.5 300.5q117 117 266.5 183.5t312.5 66.5q188 0 322.5 -84.5t204.5 -224.5l-92 -49q-74 129 -177.5 195.5t-263.5 66.5q-138 0 -264 -56t-225 -155
q-117 -117 -183.5 -273t-66.5 -319q0 -222 135.5 -354.5t349.5 -132.5q151 0 265.5 54.5t220.5 160.5l71 -66q-111 -116 -247 -182t-320 -66h-10z" />
    <glyph glyph-name="Egrave" unicode="&#xc8;" horiz-adv-x="1329" 
d="M74 0l385 1434h1009l-26 -99h-903l-152 -563h811l-27 -98h-811l-153 -576h913l-26 -98h-1020zM920 1567l-170 184l118 57l127 -241h-75z" />
    <glyph glyph-name="Eacute" unicode="&#xc9;" horiz-adv-x="1329" 
d="M74 0l385 1434h1009l-26 -99h-903l-152 -563h811l-27 -98h-811l-153 -576h913l-26 -98h-1020zM926 1567l254 241l123 -57l-269 -184h-108z" />
    <glyph glyph-name="Ecircumflex" unicode="&#xca;" horiz-adv-x="1329" 
d="M74 0l385 1434h1009l-26 -99h-903l-152 -563h811l-27 -98h-811l-153 -576h913l-26 -98h-1020zM715 1567l270 219h94l152 -219h-103l-114 125l-185 -125h-114z" />
    <glyph glyph-name="Edieresis" unicode="&#xcb;" horiz-adv-x="1329" 
d="M74 0l385 1434h1009l-26 -99h-903l-152 -563h811l-27 -98h-811l-153 -576h913l-26 -98h-1020zM731 1567l43 155h152l-43 -155h-152zM1092 1567l43 155h149l-43 -155h-149z" />
    <glyph glyph-name="Igrave" unicode="&#xcc;" horiz-adv-x="561" 
d="M88 0l385 1434h107l-385 -1434h-107zM494 1567l-170 184l118 57l127 -241h-75z" />
    <glyph glyph-name="Iacute" unicode="&#xcd;" horiz-adv-x="561" 
d="M88 0l385 1434h107l-385 -1434h-107zM500 1567l254 241l123 -57l-269 -184h-108z" />
    <glyph glyph-name="Icircumflex" unicode="&#xce;" horiz-adv-x="561" 
d="M88 0l385 1434h107l-385 -1434h-107zM289 1567l270 219h94l152 -219h-103l-114 125l-185 -125h-114z" />
    <glyph glyph-name="Idieresis" unicode="&#xcf;" horiz-adv-x="561" 
d="M88 0l385 1434h107l-385 -1434h-107zM305 1567l43 155h152l-43 -155h-152zM666 1567l43 155h149l-43 -155h-149z" />
    <glyph glyph-name="Eth" unicode="&#xd0;" horiz-adv-x="1640" 
d="M162 672l26 98h154l178 664h322q171 0 316.5 -49t240.5 -144q157 -157 157 -410q0 -163 -57.5 -305t-165.5 -250q-130 -130 -320 -203t-409 -73h-469l180 672h-153zM1313 1174q-161 161 -477 161h-236l-151 -565h475l-27 -98h-475l-154 -574h350q192 0 354 63.5
t281 182.5q193 193 193 479q0 221 -133 351z" />
    <glyph glyph-name="Ntilde" unicode="&#xd1;" horiz-adv-x="1609" 
d="M74 0l385 1434h98l645 -1256l338 1256h102l-385 -1434h-77l-660 1282l-344 -1282h-102zM864 1538l-73 21q45 97 91 138.5t105 41.5q38 0 127 -39q5 -2 25 -10.5t27 -11.5t22 -8t25.5 -7t19.5 -2q36 0 61 20t58 74l73 -20q-45 -97 -91 -138t-105 -41q-38 0 -127 39
q-5 2 -25 10.5t-27 11.5t-22 8t-25.5 7t-19.5 2q-36 0 -61 -20.5t-58 -75.5z" />
    <glyph glyph-name="Ograve" unicode="&#xd2;" horiz-adv-x="1732" 
d="M1022 1458q133 0 248.5 -48t196.5 -130t127 -196t46 -242q0 -175 -70.5 -339.5t-193.5 -287.5q-113 -113 -258.5 -177.5t-302.5 -64.5q-178 0 -320 82t-220 222.5t-78 312.5q0 175 70.5 339.5t193.5 287.5q113 113 258 177t303 64zM815 70q137 0 259.5 54.5t219.5 151.5
q111 111 173.5 260t62.5 306q0 223 -141.5 371.5t-366.5 148.5q-137 0 -259.5 -55t-219.5 -152q-111 -111 -173.5 -259.5t-62.5 -305.5q0 -223 141.5 -371.5t366.5 -148.5zM1057 1587l-170 185l119 57l127 -242h-76z" />
    <glyph glyph-name="Oacute" unicode="&#xd3;" horiz-adv-x="1732" 
d="M1022 1458q133 0 248.5 -48t196.5 -130t127 -196t46 -242q0 -175 -70.5 -339.5t-193.5 -287.5q-113 -113 -258.5 -177.5t-302.5 -64.5q-178 0 -320 82t-220 222.5t-78 312.5q0 175 70.5 339.5t193.5 287.5q113 113 258 177t303 64zM815 70q137 0 259.5 54.5t219.5 151.5
q111 111 173.5 260t62.5 306q0 223 -141.5 371.5t-366.5 148.5q-137 0 -259.5 -55t-219.5 -152q-111 -111 -173.5 -259.5t-62.5 -305.5q0 -223 141.5 -371.5t366.5 -148.5zM1063 1587l254 242l123 -57l-269 -185h-108z" />
    <glyph glyph-name="Ocircumflex" unicode="&#xd4;" horiz-adv-x="1732" 
d="M1022 1458q133 0 248.5 -48t196.5 -130t127 -196t46 -242q0 -175 -70.5 -339.5t-193.5 -287.5q-113 -113 -258.5 -177.5t-302.5 -64.5q-178 0 -320 82t-220 222.5t-78 312.5q0 175 70.5 339.5t193.5 287.5q113 113 258 177t303 64zM815 70q137 0 259.5 54.5t219.5 151.5
q111 111 173.5 260t62.5 306q0 223 -141.5 371.5t-366.5 148.5q-137 0 -259.5 -55t-219.5 -152q-111 -111 -173.5 -259.5t-62.5 -305.5q0 -223 141.5 -371.5t366.5 -148.5zM852 1587l270 219h95l151 -219h-102l-115 125l-184 -125h-115z" />
    <glyph glyph-name="Otilde" unicode="&#xd5;" horiz-adv-x="1732" 
d="M1022 1458q133 0 248.5 -48t196.5 -130t127 -196t46 -242q0 -175 -70.5 -339.5t-193.5 -287.5q-113 -113 -258.5 -177.5t-302.5 -64.5q-178 0 -320 82t-220 222.5t-78 312.5q0 175 70.5 339.5t193.5 287.5q113 113 258 177t303 64zM815 70q137 0 259.5 54.5t219.5 151.5
q111 111 173.5 260t62.5 306q0 223 -141.5 371.5t-366.5 148.5q-137 0 -259.5 -55t-219.5 -152q-111 -111 -173.5 -259.5t-62.5 -305.5q0 -223 141.5 -371.5t366.5 -148.5zM905 1569l-74 20q45 97 91.5 138.5t105.5 41.5q40 0 127 -38q5 -2 25 -10.5t27 -11.5t22 -8t25.5 -7
t19.5 -2q36 0 61 20t58 74l73 -21q-45 -97 -90.5 -137.5t-105.5 -40.5q-38 0 -127 39q-5 2 -25 10.5t-27 11.5t-22 8t-25.5 7t-19.5 2q-36 0 -61 -20.5t-58 -75.5z" />
    <glyph glyph-name="Odieresis" unicode="&#xd6;" horiz-adv-x="1732" 
d="M1022 1458q133 0 248.5 -48t196.5 -130t127 -196t46 -242q0 -175 -70.5 -339.5t-193.5 -287.5q-113 -113 -258.5 -177.5t-302.5 -64.5q-178 0 -320 82t-220 222.5t-78 312.5q0 175 70.5 339.5t193.5 287.5q113 113 258 177t303 64zM815 70q137 0 259.5 54.5t219.5 151.5
q111 111 173.5 260t62.5 306q0 223 -141.5 371.5t-366.5 148.5q-137 0 -259.5 -55t-219.5 -152q-111 -111 -173.5 -259.5t-62.5 -305.5q0 -223 141.5 -371.5t366.5 -148.5zM868 1587l43 156h152l-43 -156h-152zM1229 1587l43 156h149l-43 -156h-149z" />
    <glyph glyph-name="multiply" unicode="&#xd7;" horiz-adv-x="1269" 
d="M203 279l-56 75l476 375l-275 369l84 63l270 -373l474 377l55 -78l-475 -372l274 -369l-84 -63l-270 372z" />
    <glyph glyph-name="Oslash" unicode="&#xd8;" horiz-adv-x="1732" 
d="M1022 1458q143 0 263 -54.5t206 -150.5l227 191h142l-316 -264q96 -151 96 -338q0 -175 -70.5 -339.5t-193.5 -287.5q-113 -113 -258.5 -177.5t-302.5 -64.5q-145 0 -264.5 53.5t-204.5 151.5l-227 -190h-142l314 262q-94 153 -94 340q0 175 70.5 339.5t193.5 287.5
q113 113 258 177t303 64zM307 590q0 -153 66 -273l1040 871q-144 174 -391 174q-137 0 -259.5 -55t-219.5 -152q-111 -111 -173.5 -259.5t-62.5 -305.5zM815 70q137 0 259.5 54.5t219.5 151.5q111 111 173.5 260t62.5 306q0 144 -66 270l-1040 -870q68 -81 168 -126.5
t223 -45.5z" />
    <glyph glyph-name="Ugrave" unicode="&#xd9;" horiz-adv-x="1548" 
d="M713 -23q-249 0 -382.5 125.5t-133.5 325.5q0 109 28 221l209 785h107l-222 -834q-18 -74 -18 -164q0 -162 106.5 -262t313.5 -100q203 0 350 147q134 134 201 381l223 832h107l-230 -854q-72 -267 -227 -422q-181 -181 -432 -181zM963 1556l-170 185l118 57l127 -242
h-75z" />
    <glyph glyph-name="Uacute" unicode="&#xda;" horiz-adv-x="1548" 
d="M713 -23q-249 0 -382.5 125.5t-133.5 325.5q0 109 28 221l209 785h107l-222 -834q-18 -74 -18 -164q0 -162 106.5 -262t313.5 -100q203 0 350 147q134 134 201 381l223 832h107l-230 -854q-72 -267 -227 -422q-181 -181 -432 -181zM969 1556l254 242l123 -57l-269 -185
h-108z" />
    <glyph glyph-name="Ucircumflex" unicode="&#xdb;" horiz-adv-x="1548" 
d="M713 -23q-249 0 -382.5 125.5t-133.5 325.5q0 109 28 221l209 785h107l-222 -834q-18 -74 -18 -164q0 -162 106.5 -262t313.5 -100q203 0 350 147q134 134 201 381l223 832h107l-230 -854q-72 -267 -227 -422q-181 -181 -432 -181zM758 1556l270 220h94l152 -220h-103
l-114 125l-185 -125h-114z" />
    <glyph glyph-name="Udieresis" unicode="&#xdc;" horiz-adv-x="1548" 
d="M713 -23q-249 0 -382.5 125.5t-133.5 325.5q0 109 28 221l209 785h107l-222 -834q-18 -74 -18 -164q0 -162 106.5 -262t313.5 -100q203 0 350 147q134 134 201 381l223 832h107l-230 -854q-72 -267 -227 -422q-181 -181 -432 -181zM776 1556l43 156h152l-43 -156h-152z
M1137 1556l43 156h149l-43 -156h-149z" />
    <glyph glyph-name="Yacute" unicode="&#xdd;" horiz-adv-x="1368" 
d="M479 0l156 582l-375 852h117l330 -770l745 770h143l-862 -879l-147 -555h-107zM870 1556l254 242l123 -57l-268 -185h-109z" />
    <glyph glyph-name="Thorn" unicode="&#xde;" horiz-adv-x="1368" 
d="M74 0l385 1434h104l-67 -260h340q265 0 395 -130q98 -98 98 -256q0 -196 -129 -325q-91 -91 -239 -139t-340 -48h-365l-76 -276h-106zM281 373h344q346 0 497 151q101 101 101 260q0 117 -74 191q-100 100 -315 100h-365z" />
    <glyph glyph-name="germandbls" unicode="&#xdf;" horiz-adv-x="1269" 
d="M451 -4l24 90q137 1 242 28.5t167.5 73.5t94 103t31.5 123q0 218 -371 286l25 93q236 56 345 151t109 232q0 106 -75 172.5t-207 66.5q-149 0 -257 -111.5t-161 -310.5l-266 -993h-101l275 1024q59 223 178 342q143 143 340 143q166 0 274.5 -93.5t108.5 -235.5
q0 -311 -434 -432q147 -38 236 -121.5t89 -214.5q0 -184 -180 -301.5t-487 -114.5z" />
    <glyph glyph-name="agrave" unicode="&#xe0;" horiz-adv-x="1169" 
d="M389 -25q-90 0 -166 31.5t-126 100t-50 161.5q0 148 100 248q131 131 371 131q190 0 402 -59l8 28q14 54 14 105q0 119 -81 182.5t-234 63.5q-143 0 -303 -56l-19 90q165 60 330 60q191 0 298 -87t107 -239q0 -59 -20 -137l-160 -598h-98l47 180q-172 -205 -420 -205z
M408 68q153 0 288.5 97t177.5 251l25 92q-192 49 -395 49q-179 0 -277 -98q-73 -73 -73 -178q0 -97 68.5 -155t185.5 -58zM672 1219l-162 211l127 61l106 -272h-71z" />
    <glyph glyph-name="aacute" unicode="&#xe1;" horiz-adv-x="1169" 
d="M389 -25q-90 0 -166 31.5t-126 100t-50 161.5q0 148 100 248q131 131 371 131q190 0 402 -59l8 28q14 54 14 105q0 119 -81 182.5t-234 63.5q-143 0 -303 -56l-19 90q165 60 330 60q191 0 298 -87t107 -239q0 -59 -20 -137l-160 -598h-98l47 180q-172 -205 -420 -205z
M408 68q153 0 288.5 97t177.5 251l25 92q-192 49 -395 49q-179 0 -277 -98q-73 -73 -73 -178q0 -97 68.5 -155t185.5 -58zM670 1219l254 272l127 -61l-277 -211h-104z" />
    <glyph glyph-name="acircumflex" unicode="&#xe2;" horiz-adv-x="1169" 
d="M389 -25q-90 0 -166 31.5t-126 100t-50 161.5q0 148 100 248q131 131 371 131q190 0 402 -59l8 28q14 54 14 105q0 119 -81 182.5t-234 63.5q-143 0 -303 -56l-19 90q165 60 330 60q191 0 298 -87t107 -239q0 -59 -20 -137l-160 -598h-98l47 180q-172 -205 -420 -205z
M408 68q153 0 288.5 97t177.5 251l25 92q-192 49 -395 49q-179 0 -277 -98q-73 -73 -73 -178q0 -97 68.5 -155t185.5 -58zM475 1219l273 249h81l138 -249h-90l-107 139l-197 -139h-98z" />
    <glyph glyph-name="atilde" unicode="&#xe3;" horiz-adv-x="1169" 
d="M389 -25q-90 0 -166 31.5t-126 100t-50 161.5q0 148 100 248q131 131 371 131q190 0 402 -59l8 28q14 54 14 105q0 119 -81 182.5t-234 63.5q-143 0 -303 -56l-19 90q165 60 330 60q191 0 298 -87t107 -239q0 -59 -20 -137l-160 -598h-98l47 180q-172 -205 -420 -205z
M408 68q153 0 288.5 97t177.5 251l25 92q-192 49 -395 49q-179 0 -277 -98q-73 -73 -73 -178q0 -97 68.5 -155t185.5 -58zM1004 1427l71 -18q-48 -107 -94 -148.5t-109 -41.5q-41 0 -129 43q-84 41 -116 41q-37 0 -63 -22t-58 -81l-72 19q48 107 94 148.5t109 41.5
q41 0 129 -43q84 -41 117 -41q37 0 63 22t58 80z" />
    <glyph glyph-name="adieresis" unicode="&#xe4;" horiz-adv-x="1169" 
d="M389 -25q-90 0 -166 31.5t-126 100t-50 161.5q0 148 100 248q131 131 371 131q190 0 402 -59l8 28q14 54 14 105q0 119 -81 182.5t-234 63.5q-143 0 -303 -56l-19 90q165 60 330 60q191 0 298 -87t107 -239q0 -59 -20 -137l-160 -598h-98l47 180q-172 -205 -420 -205z
M408 68q153 0 288.5 97t177.5 251l25 92q-192 49 -395 49q-179 0 -277 -98q-73 -73 -73 -178q0 -97 68.5 -155t185.5 -58zM492 1219l45 163h141l-45 -163h-141zM825 1219l45 163h142l-45 -163h-142z" />
    <glyph glyph-name="aring" unicode="&#xe5;" horiz-adv-x="1169" 
d="M389 -25q-90 0 -166 31.5t-126 100t-50 161.5q0 148 100 248q131 131 371 131q190 0 402 -59l8 28q14 54 14 105q0 119 -81 182.5t-234 63.5q-143 0 -303 -56l-19 90q165 60 330 60q191 0 298 -87t107 -239q0 -59 -20 -137l-160 -598h-98l47 180q-172 -205 -420 -205z
M408 68q153 0 288.5 97t177.5 251l25 92q-192 49 -395 49q-179 0 -277 -98q-73 -73 -73 -178q0 -97 68.5 -155t185.5 -58zM1008 1436q0 -90 -73.5 -156t-168.5 -66q-90 0 -147.5 54.5t-57.5 134.5q0 90 73.5 155.5t168.5 65.5q90 0 147.5 -54t57.5 -134zM635 1405
q0 -54 36 -89.5t97 -35.5q67 0 116.5 45t49.5 109q0 54 -36 89.5t-97 35.5q-67 0 -116.5 -45t-49.5 -109z" />
    <glyph glyph-name="ae" unicode="&#xe6;" horiz-adv-x="1980" 
d="M1350 -25q-154 0 -261.5 69t-156.5 187q-246 -256 -535 -256q-93 0 -171 31.5t-128.5 100t-50.5 161.5q0 148 100 248q131 131 371 131q190 0 402 -59l8 28q14 54 14 105q0 119 -81 182.5t-234 63.5q-143 0 -303 -56l-19 90q165 60 330 60t268 -65t129 -183
q86 116 206.5 186t254.5 70q126 0 217.5 -55.5t134.5 -144.5t43 -199q0 -101 -28 -183h-859q-4 -25 -4 -69q0 -157 95.5 -252.5t250.5 -95.5q110 0 191.5 35t165.5 104l59 -72q-196 -162 -409 -162zM414 68q256 0 491 256q-15 86 -2 182q-178 51 -399 51q-179 0 -277 -98
q-73 -73 -73 -178q0 -97 71 -155t189 -58zM1169 838q-107 -107 -149 -260h758q8 36 8 86q0 135 -75 224t-220 89q-183 0 -322 -139z" />
    <glyph glyph-name="ccedilla" unicode="&#xe7;" horiz-adv-x="1153" 
d="M340 -303l-98 53l221 236q-74 14 -138.5 50t-114.5 90.5t-79 132t-29 167.5q0 130 52 250t143 211q85 85 194 133.5t226 48.5q149 0 252.5 -71.5t156.5 -180.5l-84 -47q-54 95 -132 150t-199 55q-92 0 -178.5 -39.5t-155.5 -108.5q-77 -77 -121.5 -180.5t-44.5 -214.5
q0 -86 29.5 -156t78.5 -114t112 -68t132 -24q179 0 338 149l68 -65q-186 -179 -412 -179h-6z" />
    <glyph glyph-name="egrave" unicode="&#xe8;" horiz-adv-x="1193" 
d="M1073 487h-858q-4 -25 -4 -69q0 -157 95.5 -252.5t250.5 -95.5q110 0 191 35t165 104l60 -72q-95 -78 -190.5 -120t-225.5 -42q-200 0 -327.5 123t-127.5 316q0 131 54 257.5t149 221.5q176 176 402 176q126 0 217.5 -55.5t134.5 -144.5t43 -199q0 -98 -29 -183zM383 838
q-108 -108 -150 -260h758q8 36 8 86q0 135 -74.5 224t-219.5 89q-183 0 -322 -139zM731 1219l-162 211l127 61l107 -272h-72z" />
    <glyph glyph-name="eacute" unicode="&#xe9;" horiz-adv-x="1193" 
d="M1073 487h-858q-4 -25 -4 -69q0 -157 95.5 -252.5t250.5 -95.5q110 0 191 35t165 104l60 -72q-95 -78 -190.5 -120t-225.5 -42q-200 0 -327.5 123t-127.5 316q0 131 54 257.5t149 221.5q176 176 402 176q126 0 217.5 -55.5t134.5 -144.5t43 -199q0 -98 -29 -183zM383 838
q-108 -108 -150 -260h758q8 36 8 86q0 135 -74.5 224t-219.5 89q-183 0 -322 -139zM729 1219l254 272l127 -61l-276 -211h-105z" />
    <glyph glyph-name="ecircumflex" unicode="&#xea;" horiz-adv-x="1193" 
d="M1073 487h-858q-4 -25 -4 -69q0 -157 95.5 -252.5t250.5 -95.5q110 0 191 35t165 104l60 -72q-95 -78 -190.5 -120t-225.5 -42q-200 0 -327.5 123t-127.5 316q0 131 54 257.5t149 221.5q176 176 402 176q126 0 217.5 -55.5t134.5 -144.5t43 -199q0 -98 -29 -183zM383 838
q-108 -108 -150 -260h758q8 36 8 86q0 135 -74.5 224t-219.5 89q-183 0 -322 -139zM532 1219l273 249h82l137 -249h-90l-107 139l-196 -139h-99z" />
    <glyph glyph-name="edieresis" unicode="&#xeb;" horiz-adv-x="1193" 
d="M1073 487h-858q-4 -25 -4 -69q0 -157 95.5 -252.5t250.5 -95.5q110 0 191 35t165 104l60 -72q-95 -78 -190.5 -120t-225.5 -42q-200 0 -327.5 123t-127.5 316q0 131 54 257.5t149 221.5q176 176 402 176q126 0 217.5 -55.5t134.5 -144.5t43 -199q0 -98 -29 -183zM383 838
q-108 -108 -150 -260h758q8 36 8 86q0 135 -74.5 224t-219.5 89q-183 0 -322 -139zM551 1219l45 163h141l-45 -163h-141zM885 1219l45 163h141l-45 -163h-141z" />
    <glyph glyph-name="igrave" unicode="&#xec;" horiz-adv-x="512" 
d="M66 0l280 1044h100l-280 -1044h-100zM385 1219l-162 211l127 61l107 -272h-72z" />
    <glyph glyph-name="iacute" unicode="&#xed;" horiz-adv-x="512" 
d="M66 0l280 1044h100l-280 -1044h-100zM383 1219l254 272l127 -61l-277 -211h-104z" />
    <glyph glyph-name="icircumflex" unicode="&#xee;" horiz-adv-x="512" 
d="M66 0l280 1044h100l-280 -1044h-100zM186 1219l273 249h82l137 -249h-90l-107 139l-196 -139h-99z" />
    <glyph glyph-name="idieresis" unicode="&#xef;" horiz-adv-x="512" 
d="M66 0l280 1044h100l-280 -1044h-100zM205 1219l45 163h141l-45 -163h-141zM539 1219l45 163h141l-45 -163h-141z" />
    <glyph glyph-name="eth" unicode="&#xf0;" horiz-adv-x="1273" 
d="M539 1167l-41 80l274 125q-54 72 -98 123h131l59 -82l221 100l41 -79l-211 -97q265 -401 265 -712q0 -284 -187 -471q-84 -84 -194 -131.5t-234 -47.5q-208 0 -335.5 134.5t-127.5 336.5q0 123 47.5 233.5t131.5 194.5q80 80 182.5 125t214.5 45q248 0 397 -225
q-63 210 -250 477zM575 70q96 0 186 39t161 110q70 70 109.5 161t39.5 193q0 163 -108.5 272t-282.5 109q-185 0 -318 -133q-71 -71 -111 -167t-40 -201q0 -172 98 -277.5t266 -105.5z" />
    <glyph glyph-name="ntilde" unicode="&#xf1;" horiz-adv-x="1251" 
d="M51 0l279 1044h100l-51 -194q87 105 180 162t215 57q155 0 248.5 -90.5t93.5 -241.5q0 -57 -22 -147l-156 -590h-100l159 598q17 66 17 129q0 117 -72 184.5t-197 67.5q-136 0 -263.5 -111t-172.5 -278l-157 -590h-101zM1083 1427l72 -18q-48 -107 -94 -148.5t-109 -41.5
q-41 0 -129 43q-84 41 -116 41q-37 0 -63 -22t-58 -81l-72 19q48 107 94 148.5t109 41.5q41 0 129 -43q84 -41 117 -41q37 0 62.5 21.5t57.5 80.5z" />
    <glyph glyph-name="ograve" unicode="&#xf2;" horiz-adv-x="1296" 
d="M725 1069q206 0 335.5 -130.5t129.5 -332.5q0 -124 -50.5 -239t-140.5 -205q-87 -87 -198.5 -137t-231.5 -50q-206 0 -335.5 130.5t-129.5 332.5q0 124 51 240t140 205q87 87 198.5 136.5t231.5 49.5zM580 70q93 0 181 40t157 109q76 76 119.5 176t43.5 207
q0 174 -100.5 273.5t-265.5 99.5q-93 0 -180.5 -40t-157.5 -110q-77 -77 -120.5 -176.5t-43.5 -206.5q0 -174 100.5 -273t266.5 -99zM764 1219l-162 211l127 61l107 -272h-72z" />
    <glyph glyph-name="oacute" unicode="&#xf3;" horiz-adv-x="1296" 
d="M725 1069q206 0 335.5 -130.5t129.5 -332.5q0 -124 -50.5 -239t-140.5 -205q-87 -87 -198.5 -137t-231.5 -50q-206 0 -335.5 130.5t-129.5 332.5q0 124 51 240t140 205q87 87 198.5 136.5t231.5 49.5zM580 70q93 0 181 40t157 109q76 76 119.5 176t43.5 207
q0 174 -100.5 273.5t-265.5 99.5q-93 0 -180.5 -40t-157.5 -110q-77 -77 -120.5 -176.5t-43.5 -206.5q0 -174 100.5 -273t266.5 -99zM762 1219l254 272l127 -61l-277 -211h-104z" />
    <glyph glyph-name="ocircumflex" unicode="&#xf4;" horiz-adv-x="1296" 
d="M725 1069q206 0 335.5 -130.5t129.5 -332.5q0 -124 -50.5 -239t-140.5 -205q-87 -87 -198.5 -137t-231.5 -50q-206 0 -335.5 130.5t-129.5 332.5q0 124 51 240t140 205q87 87 198.5 136.5t231.5 49.5zM580 70q93 0 181 40t157 109q76 76 119.5 176t43.5 207
q0 174 -100.5 273.5t-265.5 99.5q-93 0 -180.5 -40t-157.5 -110q-77 -77 -120.5 -176.5t-43.5 -206.5q0 -174 100.5 -273t266.5 -99zM565 1219l273 249h82l137 -249h-90l-107 139l-196 -139h-99z" />
    <glyph glyph-name="otilde" unicode="&#xf5;" horiz-adv-x="1296" 
d="M725 1069q206 0 335.5 -130.5t129.5 -332.5q0 -124 -50.5 -239t-140.5 -205q-87 -87 -198.5 -137t-231.5 -50q-206 0 -335.5 130.5t-129.5 332.5q0 124 51 240t140 205q87 87 198.5 136.5t231.5 49.5zM580 70q93 0 181 40t157 109q76 76 119.5 176t43.5 207
q0 174 -100.5 273.5t-265.5 99.5q-93 0 -180.5 -40t-157.5 -110q-77 -77 -120.5 -176.5t-43.5 -206.5q0 -174 100.5 -273t266.5 -99zM1096 1427l71 -18q-48 -108 -93.5 -149t-108.5 -41q-41 0 -129 43q-84 41 -117 41q-37 0 -63 -22t-58 -81l-72 19q48 107 94 148.5
t109 41.5q41 0 129 -43q84 -41 117 -41q37 0 63 22t58 80z" />
    <glyph glyph-name="odieresis" unicode="&#xf6;" horiz-adv-x="1296" 
d="M725 1069q206 0 335.5 -130.5t129.5 -332.5q0 -124 -50.5 -239t-140.5 -205q-87 -87 -198.5 -137t-231.5 -50q-206 0 -335.5 130.5t-129.5 332.5q0 124 51 240t140 205q87 87 198.5 136.5t231.5 49.5zM580 70q93 0 181 40t157 109q76 76 119.5 176t43.5 207
q0 174 -100.5 273.5t-265.5 99.5q-93 0 -180.5 -40t-157.5 -110q-77 -77 -120.5 -176.5t-43.5 -206.5q0 -174 100.5 -273t266.5 -99zM584 1219l45 163h141l-45 -163h-141zM918 1219l45 163h141l-45 -163h-141z" />
    <glyph glyph-name="divide" unicode="&#xf7;" horiz-adv-x="1269" 
d="M477 236l49 182h164l-49 -182h-164zM180 672l27 98h991l-27 -98h-991zM688 1024l49 182h164l-49 -182h-164z" />
    <glyph glyph-name="oslash" unicode="&#xf8;" horiz-adv-x="1296" 
d="M725 1069q216 0 346 -143l160 131h137l-244 -201q66 -113 66 -250q0 -124 -50.5 -239t-140.5 -205q-87 -87 -198.5 -137t-231.5 -50q-216 0 -348 142l-158 -129h-137l244 198q-66 111 -66 252q0 124 51 240t140 205q87 87 198.5 136.5t231.5 49.5zM715 975
q-93 0 -180.5 -40t-157.5 -110q-77 -77 -120.5 -176.5t-43.5 -206.5q0 -108 39 -188l743 608q-101 113 -280 113zM1081 602q0 106 -39 189l-743 -611q96 -110 281 -110q93 0 181 40t157 109q76 76 119.5 176t43.5 207z" />
    <glyph glyph-name="ugrave" unicode="&#xf9;" horiz-adv-x="1247" 
d="M473 -25q-155 0 -248.5 90.5t-93.5 241.5q0 54 23 148l155 589h101l-160 -598q-17 -66 -17 -129q0 -117 72 -184t197 -67q136 0 263.5 111t172.5 278l158 589h100l-278 -1044h-101l51 195q-87 -105 -180 -162.5t-215 -57.5zM727 1219l-162 211l127 61l107 -272h-72z" />
    <glyph glyph-name="uacute" unicode="&#xfa;" horiz-adv-x="1247" 
d="M473 -25q-155 0 -248.5 90.5t-93.5 241.5q0 54 23 148l155 589h101l-160 -598q-17 -66 -17 -129q0 -117 72 -184t197 -67q136 0 263.5 111t172.5 278l158 589h100l-278 -1044h-101l51 195q-87 -105 -180 -162.5t-215 -57.5zM725 1219l254 272l127 -61l-277 -211h-104z
" />
    <glyph glyph-name="ucircumflex" unicode="&#xfb;" horiz-adv-x="1247" 
d="M473 -25q-155 0 -248.5 90.5t-93.5 241.5q0 54 23 148l155 589h101l-160 -598q-17 -66 -17 -129q0 -117 72 -184t197 -67q136 0 263.5 111t172.5 278l158 589h100l-278 -1044h-101l51 195q-87 -105 -180 -162.5t-215 -57.5zM530 1219l273 249h82l137 -249h-90l-107 139
l-196 -139h-99z" />
    <glyph glyph-name="udieresis" unicode="&#xfc;" horiz-adv-x="1247" 
d="M473 -25q-155 0 -248.5 90.5t-93.5 241.5q0 54 23 148l155 589h101l-160 -598q-17 -66 -17 -129q0 -117 72 -184t197 -67q136 0 263.5 111t172.5 278l158 589h100l-278 -1044h-101l51 195q-87 -105 -180 -162.5t-215 -57.5zM547 1219l45 163h141l-45 -163h-141zM881 1219
l45 163h141l-45 -163h-141z" />
    <glyph glyph-name="yacute" unicode="&#xfd;" horiz-adv-x="1163" 
d="M387 6l-213 1038h107l182 -933l629 933h120l-743 -1081q-112 -161 -212.5 -229t-215.5 -68q-117 0 -221 72l55 82q32 -26 84 -43t94 -17q82 0 161 56t173 190zM649 1219l254 272l127 -61l-276 -211h-105z" />
    <glyph glyph-name="thorn" unicode="&#xfe;" horiz-adv-x="1339" 
d="M553 1495l-178 -655q191 229 434 229q182 0 301 -123.5t119 -316.5q0 -143 -52.5 -268.5t-144.5 -217.5q-81 -81 -182.5 -125.5t-210.5 -44.5q-162 0 -266.5 83.5t-149.5 209.5l-160 -594h-100l490 1823h100zM635 68q186 0 321 135q78 78 121 186.5t43 226.5
q0 161 -90 260t-233 99q-94 0 -186 -42.5t-167 -117.5q-78 -78 -124 -178.5t-46 -204.5q0 -154 101 -259t260 -105z" />
    <glyph glyph-name="ydieresis" unicode="&#xff;" horiz-adv-x="1163" 
d="M387 6l-213 1038h107l182 -933l629 933h120l-743 -1081q-112 -161 -212.5 -229t-215.5 -68q-117 0 -221 72l55 82q32 -26 84 -43t94 -17q82 0 161 56t173 190zM471 1219l45 163h141l-45 -163h-141zM805 1219l45 163h141l-45 -163h-141z" />
    <glyph glyph-name="Amacron" unicode="&#x100;" horiz-adv-x="1554" 
d="M-70 0l1055 1444h102l281 -1444h-108l-74 401h-846l-291 -401h-119zM410 498h755l-153 829zM776 1640l27 101h635l-27 -101h-635z" />
    <glyph glyph-name="amacron" unicode="&#x101;" horiz-adv-x="1169" 
d="M389 -25q-90 0 -166 31.5t-126 100t-50 161.5q0 148 100 248q131 131 371 131q190 0 402 -59l8 28q14 54 14 105q0 119 -81 182.5t-234 63.5q-143 0 -303 -56l-19 90q165 60 330 60q191 0 298 -87t107 -239q0 -59 -20 -137l-160 -598h-98l47 180q-172 -205 -420 -205z
M408 68q153 0 288.5 97t177.5 251l25 92q-192 49 -395 49q-179 0 -277 -98q-73 -73 -73 -178q0 -97 68.5 -155t185.5 -58zM434 1272l27 96h622l-26 -96h-623z" />
    <glyph glyph-name="Abreve" unicode="&#x102;" horiz-adv-x="1554" 
d="M-70 0l1055 1444h102l281 -1444h-108l-74 401h-846l-291 -401h-119zM410 498h755l-153 829zM1085 1583q-116 0 -175.5 55t-41.5 150h86q2 -53 37 -80t117 -27q145 0 211 107h94q-33 -95 -122.5 -150t-205.5 -55z" />
    <glyph glyph-name="abreve" unicode="&#x103;" horiz-adv-x="1169" 
d="M389 -25q-90 0 -166 31.5t-126 100t-50 161.5q0 148 100 248q131 131 371 131q190 0 402 -59l8 28q14 54 14 105q0 119 -81 182.5t-234 63.5q-143 0 -303 -56l-19 90q165 60 330 60q191 0 298 -87t107 -239q0 -59 -20 -137l-160 -598h-98l47 180q-172 -205 -420 -205z
M408 68q153 0 288.5 97t177.5 251l25 92q-192 49 -395 49q-179 0 -277 -98q-73 -73 -73 -178q0 -97 68.5 -155t185.5 -58zM737 1214q-118 0 -176.5 62t-36.5 168h78q-2 -65 34 -98t120 -33q147 0 225 131h88q-36 -106 -126.5 -168t-205.5 -62z" />
    <glyph glyph-name="Aogonek" unicode="&#x104;" horiz-adv-x="1554" 
d="M1317 -262l-19 -74q-113 8 -167 41t-54 94q0 57 46.5 109.5t131.5 107.5l-69 385h-846l-291 -401h-119l1055 1444h102l281 -1444h-22q-164 -106 -164 -184q0 -33 31 -51t104 -27zM410 498h755l-153 829z" />
    <glyph glyph-name="aogonek" unicode="&#x105;" horiz-adv-x="1169" 
d="M823 -262l-18 -74q-113 8 -167 41t-54 94q0 59 47.5 111.5t134.5 107.5l43 162q-172 -205 -420 -205q-90 0 -166 31.5t-126 100t-50 161.5q0 148 100 248q131 131 371 131q190 0 402 -59l8 28q14 54 14 105q0 119 -81 182.5t-234 63.5q-143 0 -303 -56l-19 90
q165 60 330 60q191 0 298 -87t107 -239q0 -59 -20 -137l-160 -598h-8q-164 -106 -164 -184q0 -33 31 -51t104 -27zM408 68q153 0 288.5 97t177.5 251l25 92q-192 49 -395 49q-179 0 -277 -98q-73 -73 -73 -178q0 -97 68.5 -155t185.5 -58z" />
    <glyph glyph-name="Cacute" unicode="&#x106;" horiz-adv-x="1511" 
d="M774 -27q-119 0 -225.5 40.5t-186.5 114t-127 184.5t-47 243q0 182 73.5 352.5t203.5 300.5q117 117 266.5 183.5t312.5 66.5q188 0 322.5 -84.5t204.5 -224.5l-92 -49q-74 129 -177.5 195.5t-263.5 66.5q-138 0 -264 -56t-225 -155q-117 -117 -183.5 -273t-66.5 -319
q0 -222 135.5 -354.5t349.5 -132.5q151 0 265.5 54.5t220.5 160.5l71 -66q-111 -116 -247 -182t-320 -66zM1018 1587l254 242l123 -57l-269 -185h-108z" />
    <glyph glyph-name="cacute" unicode="&#x107;" horiz-adv-x="1153" 
d="M557 -25q-69 0 -135 19t-124 57.5t-101.5 91.5t-69 126t-25.5 157q0 130 52 250t143 211q85 85 194 133.5t226 48.5q149 0 252.5 -71.5t156.5 -180.5l-84 -47q-54 95 -132 150t-199 55q-92 0 -178.5 -39.5t-155.5 -108.5q-77 -77 -121.5 -180.5t-44.5 -214.5
q0 -86 29.5 -156t78.5 -114t112 -68t132 -24q179 0 338 149l68 -65q-186 -179 -412 -179zM707 1219l254 272l126 -61l-276 -211h-104z" />
    <glyph glyph-name="Cdotaccent" unicode="&#x10a;" horiz-adv-x="1511" 
d="M774 -27q-119 0 -225.5 40.5t-186.5 114t-127 184.5t-47 243q0 182 73.5 352.5t203.5 300.5q117 117 266.5 183.5t312.5 66.5q188 0 322.5 -84.5t204.5 -224.5l-92 -49q-74 129 -177.5 195.5t-263.5 66.5q-138 0 -264 -56t-225 -155q-117 -117 -183.5 -273t-66.5 -319
q0 -222 135.5 -354.5t349.5 -132.5q151 0 265.5 54.5t220.5 160.5l71 -66q-111 -116 -247 -182t-320 -66zM1001 1587l43 156h156l-43 -156h-156z" />
    <glyph glyph-name="cdotaccent" unicode="&#x10b;" horiz-adv-x="1153" 
d="M557 -25q-69 0 -135 19t-124 57.5t-101.5 91.5t-69 126t-25.5 157q0 130 52 250t143 211q85 85 194 133.5t226 48.5q149 0 252.5 -71.5t156.5 -180.5l-84 -47q-54 95 -132 150t-199 55q-92 0 -178.5 -39.5t-155.5 -108.5q-77 -77 -121.5 -180.5t-44.5 -214.5
q0 -86 29.5 -156t78.5 -114t112 -68t132 -24q179 0 338 149l68 -65q-186 -179 -412 -179zM698 1214l47 175h136l-47 -175h-136z" />
    <glyph glyph-name="Ccaron" unicode="&#x10c;" horiz-adv-x="1511" 
d="M774 -27q-119 0 -225.5 40.5t-186.5 114t-127 184.5t-47 243q0 182 73.5 352.5t203.5 300.5q117 117 266.5 183.5t312.5 66.5q188 0 322.5 -84.5t204.5 -224.5l-92 -49q-74 129 -177.5 195.5t-263.5 66.5q-138 0 -264 -56t-225 -155q-117 -117 -183.5 -273t-66.5 -319
q0 -222 135.5 -354.5t349.5 -132.5q151 0 265.5 54.5t220.5 160.5l71 -66q-111 -116 -247 -182t-320 -66zM1411 1806l-270 -219h-94l-152 219h102l115 -125l184 125h115z" />
    <glyph glyph-name="ccaron" unicode="&#x10d;" horiz-adv-x="1153" 
d="M557 -25q-69 0 -135 19t-124 57.5t-101.5 91.5t-69 126t-25.5 157q0 130 52 250t143 211q85 85 194 133.5t226 48.5q149 0 252.5 -71.5t156.5 -180.5l-84 -47q-54 95 -132 150t-199 55q-92 0 -178.5 -39.5t-155.5 -108.5q-77 -77 -121.5 -180.5t-44.5 -214.5
q0 -86 29.5 -156t78.5 -114t112 -68t132 -24q179 0 338 149l68 -65q-186 -179 -412 -179zM690 1219l-137 249h90l107 -139l196 139h98l-272 -249h-82z" />
    <glyph glyph-name="Dcaron" unicode="&#x10e;" horiz-adv-x="1579" 
d="M74 0l385 1434h321q171 0 316.5 -49t240.5 -144q158 -158 158 -410q0 -163 -57.5 -305t-165.5 -250q-130 -130 -320 -203t-409 -73h-469zM1251 1174q-161 161 -477 161h-235l-332 -1237h350q192 0 354 63.5t281 182.5q192 192 192 479q0 221 -133 351zM1323 1786
l-270 -219h-95l-151 219h102l115 -125l184 125h115z" />
    <glyph glyph-name="dcaron" unicode="&#x10f;" horiz-adv-x="1339" 
d="M909 0l56 203q-191 -230 -435 -230q-182 0 -300.5 124t-118.5 317q0 143 52 268t144 217q81 81 182.5 125.5t210.5 44.5q162 0 266.5 -83.5t149.5 -209.5l193 719h100l-399 -1495h-101zM543 68q94 0 185.5 42t166.5 117q78 78 124 178.5t46 204.5q0 154 -101 259.5
t-259 105.5q-187 0 -322 -135q-78 -78 -121 -186.5t-43 -227.5q0 -160 90.5 -259t233.5 -99zM1475 1190l114 305h125v-6l-180 -299h-59z" />
    <glyph glyph-name="Dcroat" unicode="&#x110;" horiz-adv-x="1640" 
d="M162 672l26 98h154l178 664h322q171 0 316.5 -49t240.5 -144q157 -157 157 -410q0 -163 -57.5 -305t-165.5 -250q-130 -130 -320 -203t-409 -73h-469l180 672h-153zM1313 1174q-161 161 -477 161h-236l-151 -565h475l-27 -98h-475l-154 -574h350q192 0 354 63.5
t281 182.5q193 193 193 479q0 221 -133 351z" />
    <glyph glyph-name="dcroat" unicode="&#x111;" horiz-adv-x="1339" 
d="M868 1266l25 92h379l37 137h100l-37 -137h144l-25 -92h-143l-338 -1266h-101l56 203q-191 -230 -435 -230q-182 0 -300.5 124t-118.5 317q0 143 52 268t144 217q81 81 182.5 125.5t210.5 44.5q162 0 266.5 -83.5t149.5 -209.5l131 490h-379zM543 68q94 0 185.5 42
t166.5 117q78 78 124 178.5t46 204.5q0 154 -101 259.5t-259 105.5q-187 0 -322 -135q-78 -78 -121 -186.5t-43 -227.5q0 -160 90.5 -259t233.5 -99z" />
    <glyph glyph-name="Emacron" unicode="&#x112;" horiz-adv-x="1329" 
d="M74 0l385 1434h1009l-26 -99h-903l-152 -563h811l-27 -98h-811l-153 -576h913l-26 -98h-1020zM686 1620l27 100h635l-27 -100h-635z" />
    <glyph glyph-name="emacron" unicode="&#x113;" horiz-adv-x="1193" 
d="M1073 487h-858q-4 -25 -4 -69q0 -157 95.5 -252.5t250.5 -95.5q110 0 191 35t165 104l60 -72q-95 -78 -190.5 -120t-225.5 -42q-200 0 -327.5 123t-127.5 316q0 131 54 257.5t149 221.5q176 176 402 176q126 0 217.5 -55.5t134.5 -144.5t43 -199q0 -98 -29 -183zM383 838
q-108 -108 -150 -260h758q8 36 8 86q0 135 -74.5 224t-219.5 89q-183 0 -322 -139zM492 1272l26 96h623l-27 -96h-622z" />
    <glyph glyph-name="Ebreve" unicode="&#x114;" horiz-adv-x="1329" 
d="M74 0l385 1434h1009l-26 -99h-903l-152 -563h811l-27 -98h-811l-153 -576h913l-26 -98h-1020zM993 1563q-116 0 -175.5 54.5t-41.5 149.5h86q2 -53 37 -79.5t117 -26.5q145 0 211 106h94q-33 -95 -122.5 -149.5t-205.5 -54.5z" />
    <glyph glyph-name="ebreve" unicode="&#x115;" horiz-adv-x="1193" 
d="M1073 487h-858q-4 -25 -4 -69q0 -157 95.5 -252.5t250.5 -95.5q110 0 191 35t165 104l60 -72q-95 -78 -190.5 -120t-225.5 -42q-200 0 -327.5 123t-127.5 316q0 131 54 257.5t149 221.5q176 176 402 176q126 0 217.5 -55.5t134.5 -144.5t43 -199q0 -98 -29 -183zM383 838
q-108 -108 -150 -260h758q8 36 8 86q0 135 -74.5 224t-219.5 89q-183 0 -322 -139zM795 1214q-118 0 -176.5 62t-36.5 168h77q-2 -65 34 -98t120 -33q147 0 225 131h88q-36 -106 -126 -168t-205 -62z" />
    <glyph glyph-name="Edotaccent" unicode="&#x116;" horiz-adv-x="1329" 
d="M74 0l385 1434h1009l-26 -99h-903l-152 -563h811l-27 -98h-811l-153 -576h913l-26 -98h-1020zM909 1567l43 155h156l-43 -155h-156z" />
    <glyph glyph-name="edotaccent" unicode="&#x117;" horiz-adv-x="1193" 
d="M1073 487h-858q-4 -25 -4 -69q0 -157 95.5 -252.5t250.5 -95.5q110 0 191 35t165 104l60 -72q-95 -78 -190.5 -120t-225.5 -42q-200 0 -327.5 123t-127.5 316q0 131 54 257.5t149 221.5q176 176 402 176q126 0 217.5 -55.5t134.5 -144.5t43 -199q0 -98 -29 -183zM383 838
q-108 -108 -150 -260h758q8 36 8 86q0 135 -74.5 224t-219.5 89q-183 0 -322 -139zM721 1214l47 175h135l-47 -175h-135z" />
    <glyph glyph-name="Eogonek" unicode="&#x118;" horiz-adv-x="1329" 
d="M74 0l385 1434h1009l-26 -99h-903l-152 -563h811l-27 -98h-811l-153 -576h913l-26 -98h-4q-164 -106 -164 -184q0 -33 31 -51t104 -27l-19 -74q-113 8 -167 41t-54 94q0 97 154 201h-901z" />
    <glyph glyph-name="eogonek" unicode="&#x119;" horiz-adv-x="1193" 
d="M913 209l60 -72q-24 -18 -65 -49t-57.5 -43.5t-44 -33.5t-39.5 -30.5t-29 -23t-27 -23t-19 -18.5q-55 -55 -55 -100q0 -33 31 -51t104 -27l-18 -74q-222 15 -222 135q0 48 32 92t98 93q-74 -9 -105 -9q-200 0 -327.5 123t-127.5 316q0 131 54 257.5t149 221.5
q176 176 402 176q126 0 217.5 -55.5t134.5 -144.5t43 -199q0 -98 -29 -183h-858q-4 -25 -4 -69q0 -157 95.5 -252.5t250.5 -95.5q110 0 191 35t165 104zM383 838q-108 -108 -150 -260h758q8 36 8 86q0 135 -74.5 224t-219.5 89q-183 0 -322 -139z" />
    <glyph glyph-name="Ecaron" unicode="&#x11a;" horiz-adv-x="1329" 
d="M74 0l385 1434h1009l-26 -99h-903l-152 -563h811l-27 -98h-811l-153 -576h913l-26 -98h-1020zM1319 1786l-270 -219h-95l-151 219h102l115 -125l184 125h115z" />
    <glyph glyph-name="ecaron" unicode="&#x11b;" horiz-adv-x="1193" 
d="M1073 487h-858q-4 -25 -4 -69q0 -157 95.5 -252.5t250.5 -95.5q110 0 191 35t165 104l60 -72q-95 -78 -190.5 -120t-225.5 -42q-200 0 -327.5 123t-127.5 316q0 131 54 257.5t149 221.5q176 176 402 176q126 0 217.5 -55.5t134.5 -144.5t43 -199q0 -98 -29 -183zM383 838
q-108 -108 -150 -260h758q8 36 8 86q0 135 -74.5 224t-219.5 89q-183 0 -322 -139zM713 1219l-138 249h91l106 -139l197 139h98l-272 -249h-82z" />
    <glyph glyph-name="Gbreve" unicode="&#x11e;" horiz-adv-x="1609" 
d="M811 -27q-178 0 -318 73.5t-220 212t-80 319.5q0 171 70.5 334t197.5 290q120 120 275 188t331 68q355 0 524 -266l-84 -55q-72 108 -174 166.5t-276 58.5q-148 0 -279.5 -58t-234.5 -161q-113 -113 -176.5 -260.5t-63.5 -300.5q0 -237 141 -374.5t373 -137.5
q240 0 414 116l131 459h-477l26 98h582l-176 -616q-237 -154 -506 -154zM1112 1583q-116 0 -175.5 55t-41.5 150h86q2 -53 37 -80t117 -27q145 0 211 107h94q-33 -95 -122.5 -150t-205.5 -55z" />
    <glyph glyph-name="gbreve" unicode="&#x11f;" horiz-adv-x="1339" 
d="M483 -332q-137 0 -267.5 52.5t-225.5 142.5l73 74q187 -175 424 -175q205 0 322 117q91 91 143 275l37 131q-194 -207 -430 -207q-84 0 -162 28t-139.5 78.5t-98 128.5t-36.5 170q0 238 170 408q85 85 195.5 131.5t226.5 46.5q87 0 156.5 -23t117 -65.5t78 -87.5
t55.5 -102l68 253h100l-243 -915q-55 -202 -164 -311q-150 -150 -400 -150zM578 172q99 0 192.5 42t165.5 114q66 66 103.5 147t37.5 164q0 132 -101 233t-265 101q-94 0 -182 -37t-156 -105q-142 -142 -142 -342q0 -100 51 -174t128 -108.5t168 -34.5zM856 1214
q-118 0 -176.5 62t-36.5 168h78q-2 -65 33.5 -98t119.5 -33q148 0 226 131h88q-36 -106 -126.5 -168t-205.5 -62z" />
    <glyph glyph-name="Gdotaccent" unicode="&#x120;" horiz-adv-x="1609" 
d="M811 -27q-178 0 -318 73.5t-220 212t-80 319.5q0 171 70.5 334t197.5 290q120 120 275 188t331 68q355 0 524 -266l-84 -55q-72 108 -174 166.5t-276 58.5q-148 0 -279.5 -58t-234.5 -161q-113 -113 -176.5 -260.5t-63.5 -300.5q0 -237 141 -374.5t373 -137.5
q240 0 414 116l131 459h-477l26 98h582l-176 -616q-237 -154 -506 -154zM1028 1587l43 156h156l-43 -156h-156z" />
    <glyph glyph-name="gdotaccent" unicode="&#x121;" horiz-adv-x="1339" 
d="M483 -332q-137 0 -267.5 52.5t-225.5 142.5l73 74q187 -175 424 -175q205 0 322 117q91 91 143 275l37 131q-194 -207 -430 -207q-84 0 -162 28t-139.5 78.5t-98 128.5t-36.5 170q0 238 170 408q85 85 195.5 131.5t226.5 46.5q87 0 156.5 -23t117 -65.5t78 -87.5
t55.5 -102l68 253h100l-243 -915q-55 -202 -164 -311q-150 -150 -400 -150zM578 172q99 0 192.5 42t165.5 114q66 66 103.5 147t37.5 164q0 132 -101 233t-265 101q-94 0 -182 -37t-156 -105q-142 -142 -142 -342q0 -100 51 -174t128 -108.5t168 -34.5zM782 1214l47 175h136
l-47 -175h-136z" />
    <glyph glyph-name="Gcommaaccent" unicode="&#x122;" horiz-adv-x="1609" 
d="M811 -27q-178 0 -318 73.5t-220 212t-80 319.5q0 171 70.5 334t197.5 290q120 120 275 188t331 68q355 0 524 -266l-84 -55q-72 108 -174 166.5t-276 58.5q-148 0 -279.5 -58t-234.5 -161q-113 -113 -176.5 -260.5t-63.5 -300.5q0 -237 141 -374.5t373 -137.5
q240 0 414 116l131 459h-477l26 98h582l-176 -616q-237 -154 -506 -154zM508 -461v49q66 12 98.5 38t46.5 77h-65l39 145h147l-35 -127q-24 -90 -77 -130.5t-154 -51.5z" />
    <glyph glyph-name="gcommaaccent" unicode="&#x123;" horiz-adv-x="1339" 
d="M483 -332q-137 0 -267.5 52.5t-225.5 142.5l73 74q187 -175 424 -175q205 0 322 117q91 91 143 275l37 131q-194 -207 -430 -207q-84 0 -162 28t-139.5 78.5t-98 128.5t-36.5 170q0 238 170 408q85 85 195.5 131.5t226.5 46.5q87 0 156.5 -23t117 -65.5t78 -87.5
t55.5 -102l68 253h100l-243 -915q-55 -202 -164 -311q-150 -150 -400 -150zM578 172q99 0 192.5 42t165.5 114q66 66 103.5 147t37.5 164q0 132 -101 233t-265 101q-94 0 -182 -37t-156 -105q-142 -142 -142 -342q0 -100 51 -174t128 -108.5t168 -34.5zM1036 1524v-49
q-66 -12 -98.5 -38t-46.5 -77h65l-38 -146h-148l35 127q24 91 77.5 131.5t153.5 51.5z" />
    <glyph glyph-name="Hbar" unicode="&#x126;" horiz-adv-x="1548" 
d="M201 1042l24 93h152l82 299h106l-80 -299h908l80 299h106l-82 -299h156l-25 -93h-155l-279 -1042h-107l179 662h-908l-178 -662h-106l278 1042h-151zM385 760h907l76 282h-907z" />
    <glyph glyph-name="hbar" unicode="&#x127;" horiz-adv-x="1247" 
d="M248 1266l24 92h144l37 137h100l-37 -137h379l-25 -92h-378l-113 -416q87 105 180 162t215 57q155 0 248.5 -90.5t93.5 -241.5q0 -57 -22 -147l-156 -590h-100l159 598q17 66 17 129q0 117 -72 184.5t-197 67.5q-136 0 -263.5 -111t-172.5 -278l-157 -590h-101l340 1266
h-143z" />
    <glyph glyph-name="Imacron" unicode="&#x12a;" horiz-adv-x="561" 
d="M88 0l385 1434h107l-385 -1434h-107zM260 1620l27 100h635l-27 -100h-635z" />
    <glyph glyph-name="imacron" unicode="&#x12b;" horiz-adv-x="512" 
d="M66 0l280 1044h100l-280 -1044h-100zM145 1272l27 96h623l-27 -96h-623z" />
    <glyph glyph-name="Ibreve" unicode="&#x12c;" horiz-adv-x="561" 
d="M88 0l385 1434h107l-385 -1434h-107zM567 1563q-116 0 -175.5 54.5t-41.5 149.5h86q2 -53 37 -79.5t117 -26.5q145 0 211 106h94q-33 -95 -122.5 -149.5t-205.5 -54.5z" />
    <glyph glyph-name="ibreve" unicode="&#x12d;" horiz-adv-x="512" 
d="M66 0l280 1044h100l-280 -1044h-100zM449 1214q-118 0 -176.5 62t-36.5 168h77q-2 -65 34 -98t120 -33q147 0 225 131h88q-36 -106 -126 -168t-205 -62z" />
    <glyph glyph-name="Iogonek" unicode="&#x12e;" horiz-adv-x="561" 
d="M160 -262l-19 -74q-113 8 -167 41t-54 94q0 56 44.5 107t125.5 104l383 1424h107l-385 -1434h-7q-163 -106 -163 -184q0 -33 31 -51t104 -27z" />
    <glyph glyph-name="iogonek" unicode="&#x12f;" horiz-adv-x="512" 
d="M131 -262l-18 -74q-222 15 -222 135q0 57 46.5 109.5t132.5 107.5l276 1028h100l-280 -1044h-6q-164 -106 -164 -184q0 -33 31 -51t104 -27zM408 1317l36 137h125l-37 -137h-124z" />
    <glyph glyph-name="Idotaccent" unicode="&#x130;" horiz-adv-x="561" 
d="M88 0l385 1434h107l-385 -1434h-107zM483 1567l43 155h156l-43 -155h-156z" />
    <glyph glyph-name="dotlessi" unicode="&#x131;" horiz-adv-x="512" 
d="M66 0l280 1044h100l-280 -1044h-100z" />
    <glyph glyph-name="Kcommaaccent" unicode="&#x136;" horiz-adv-x="1462" 
d="M74 0l385 1434h106l-250 -932l1147 932h158l-797 -641l434 -793h-122l-400 731l-459 -373l-96 -358h-106zM399 -451v50q66 12 99.5 37.5t46.5 76.5h-66l39 146h148l-35 -127q-24 -90 -78 -131t-154 -52z" />
    <glyph glyph-name="kcommaaccent" unicode="&#x137;" horiz-adv-x="1146" 
d="M51 0l402 1495h100l-297 -1108l811 657h145l-581 -466l311 -578h-117l-278 516l-328 -262l-67 -254h-101zM229 -461v49q66 12 99.5 38t46.5 77h-66l39 145h148l-35 -127q-24 -90 -77.5 -130.5t-154.5 -51.5z" />
    <glyph glyph-name="Lacute" unicode="&#x139;" 
d="M74 0l385 1434h106l-358 -1336h842l-27 -98h-948zM518 1567l254 241l123 -57l-268 -184h-109z" />
    <glyph glyph-name="lacute" unicode="&#x13a;" horiz-adv-x="512" 
d="M66 0l401 1495h100l-401 -1495h-100zM506 1614l254 241l123 -57l-269 -184h-108z" />
    <glyph glyph-name="Lcommaaccent" unicode="&#x13b;" 
d="M74 0l385 1434h106l-358 -1336h842l-27 -98h-948zM291 -461v49q66 12 98.5 38t46.5 77h-65l39 145h147l-35 -127q-24 -90 -77 -130.5t-154 -51.5z" />
    <glyph glyph-name="lcommaaccent" unicode="&#x13c;" horiz-adv-x="512" 
d="M66 0l401 1495h100l-401 -1495h-100zM-100 -461v49q66 12 98.5 38t46.5 77h-65l38 145h148l-35 -127q-24 -90 -77 -130.5t-154 -51.5z" />
    <glyph glyph-name="Lcaron" unicode="&#x13d;" 
d="M74 0l385 1434h106l-358 -1336h842l-27 -98h-948zM655 1128l115 306h125v-7l-180 -299h-60z" />
    <glyph glyph-name="lcaron" unicode="&#x13e;" horiz-adv-x="512" 
d="M66 0l401 1495h100l-401 -1495h-100zM633 1190l115 305h124v-6l-180 -299h-59z" />
    <glyph glyph-name="Ldot" unicode="&#x13f;" horiz-adv-x="1267" 
d="M901 659l45 166h148l-45 -166h-148zM76 0l385 1434h106l-358 -1336h842l-27 -98h-948z" />
    <glyph glyph-name="ldot" unicode="&#x140;" horiz-adv-x="634" 
d="M539 666l43 165h147l-43 -165h-147zM66 0l401 1495h100l-401 -1495h-100z" />
    <glyph glyph-name="Lslash" unicode="&#x141;" horiz-adv-x="1331" 
d="M186 600l25 98l166 47l184 689h107l-176 -656l497 142l-26 -99l-498 -143l-156 -580h842l-27 -98h-948l174 645z" />
    <glyph glyph-name="lslash" unicode="&#x142;" horiz-adv-x="632" 
d="M145 639l27 102l166 47l190 707h101l-183 -676l172 49l-28 -102l-170 -49l-193 -717h-100l184 686z" />
    <glyph glyph-name="Nacute" unicode="&#x143;" horiz-adv-x="1609" 
d="M74 0l385 1434h98l645 -1256l338 1256h102l-385 -1434h-77l-660 1282l-344 -1282h-102zM1022 1556l254 242l123 -57l-269 -185h-108z" />
    <glyph glyph-name="nacute" unicode="&#x144;" horiz-adv-x="1251" 
d="M51 0l279 1044h100l-51 -194q87 105 180 162t215 57q155 0 248.5 -90.5t93.5 -241.5q0 -57 -22 -147l-156 -590h-100l159 598q17 66 17 129q0 117 -72 184.5t-197 67.5q-136 0 -263.5 -111t-172.5 -278l-157 -590h-101zM750 1219l254 272l126 -61l-276 -211h-104z" />
    <glyph glyph-name="Ncommaaccent" unicode="&#x145;" horiz-adv-x="1609" 
d="M74 0l385 1434h98l645 -1256l338 1256h102l-385 -1434h-77l-660 1282l-344 -1282h-102zM453 -451v50q66 12 99 37.5t46 76.5h-66l39 146h148l-35 -127q-24 -91 -77.5 -131.5t-153.5 -51.5z" />
    <glyph glyph-name="ncommaaccent" unicode="&#x146;" horiz-adv-x="1251" 
d="M51 0l279 1044h100l-51 -194q87 105 180 162t215 57q155 0 248.5 -90.5t93.5 -241.5q0 -57 -22 -147l-156 -590h-100l159 598q17 66 17 129q0 117 -72 184.5t-197 67.5q-136 0 -263.5 -111t-172.5 -278l-157 -590h-101zM268 -461v49q66 12 99.5 38t46.5 77h-66l39 145
h148l-35 -127q-24 -90 -77.5 -130.5t-154.5 -51.5z" />
    <glyph glyph-name="Ncaron" unicode="&#x147;" horiz-adv-x="1609" 
d="M74 0l385 1434h98l645 -1256l338 1256h102l-385 -1434h-77l-660 1282l-344 -1282h-102zM1413 1776l-270 -220h-94l-152 220h102l115 -125l184 125h115z" />
    <glyph glyph-name="ncaron" unicode="&#x148;" horiz-adv-x="1251" 
d="M51 0l279 1044h100l-51 -194q87 105 180 162t215 57q155 0 248.5 -90.5t93.5 -241.5q0 -57 -22 -147l-156 -590h-100l159 598q17 66 17 129q0 117 -72 184.5t-197 67.5q-136 0 -263.5 -111t-172.5 -278l-157 -590h-101zM735 1219l-137 249h90l107 -139l196 139h99
l-273 -249h-82z" />
    <glyph glyph-name="Omacron" unicode="&#x14c;" horiz-adv-x="1732" 
d="M1022 1458q133 0 248.5 -48t196.5 -130t127 -196t46 -242q0 -175 -70.5 -339.5t-193.5 -287.5q-113 -113 -258.5 -177.5t-302.5 -64.5q-178 0 -320 82t-220 222.5t-78 312.5q0 175 70.5 339.5t193.5 287.5q113 113 258 177t303 64zM815 70q137 0 259.5 54.5t219.5 151.5
q111 111 173.5 260t62.5 306q0 223 -141.5 371.5t-366.5 148.5q-137 0 -259.5 -55t-219.5 -152q-111 -111 -173.5 -259.5t-62.5 -305.5q0 -223 141.5 -371.5t366.5 -148.5zM823 1640l27 101h635l-27 -101h-635z" />
    <glyph glyph-name="omacron" unicode="&#x14d;" horiz-adv-x="1296" 
d="M725 1069q206 0 335.5 -130.5t129.5 -332.5q0 -124 -50.5 -239t-140.5 -205q-87 -87 -198.5 -137t-231.5 -50q-206 0 -335.5 130.5t-129.5 332.5q0 124 51 240t140 205q87 87 198.5 136.5t231.5 49.5zM580 70q93 0 181 40t157 109q76 76 119.5 176t43.5 207
q0 174 -100.5 273.5t-265.5 99.5q-93 0 -180.5 -40t-157.5 -110q-77 -77 -120.5 -176.5t-43.5 -206.5q0 -174 100.5 -273t266.5 -99zM524 1272l27 96h623l-27 -96h-623z" />
    <glyph glyph-name="Obreve" unicode="&#x14e;" horiz-adv-x="1732" 
d="M1022 1458q133 0 248.5 -48t196.5 -130t127 -196t46 -242q0 -175 -70.5 -339.5t-193.5 -287.5q-113 -113 -258.5 -177.5t-302.5 -64.5q-178 0 -320 82t-220 222.5t-78 312.5q0 175 70.5 339.5t193.5 287.5q113 113 258 177t303 64zM815 70q137 0 259.5 54.5t219.5 151.5
q111 111 173.5 260t62.5 306q0 223 -141.5 371.5t-366.5 148.5q-137 0 -259.5 -55t-219.5 -152q-111 -111 -173.5 -259.5t-62.5 -305.5q0 -223 141.5 -371.5t366.5 -148.5zM1130 1583q-116 0 -175.5 55t-41.5 150h86q2 -53 37 -80t117 -27q145 0 211 107h94
q-33 -95 -122.5 -150t-205.5 -55z" />
    <glyph glyph-name="obreve" unicode="&#x14f;" horiz-adv-x="1296" 
d="M725 1069q206 0 335.5 -130.5t129.5 -332.5q0 -124 -50.5 -239t-140.5 -205q-87 -87 -198.5 -137t-231.5 -50q-206 0 -335.5 130.5t-129.5 332.5q0 124 51 240t140 205q87 87 198.5 136.5t231.5 49.5zM580 70q93 0 181 40t157 109q76 76 119.5 176t43.5 207
q0 174 -100.5 273.5t-265.5 99.5q-93 0 -180.5 -40t-157.5 -110q-77 -77 -120.5 -176.5t-43.5 -206.5q0 -174 100.5 -273t266.5 -99zM827 1214q-118 0 -176.5 62t-36.5 168h78q-2 -65 34 -98t120 -33q147 0 225 131h88q-36 -106 -126.5 -168t-205.5 -62z" />
    <glyph glyph-name="Ohungarumlaut" unicode="&#x150;" horiz-adv-x="1732" 
d="M1022 1458q133 0 248.5 -48t196.5 -130t127 -196t46 -242q0 -175 -70.5 -339.5t-193.5 -287.5q-113 -113 -258.5 -177.5t-302.5 -64.5q-178 0 -320 82t-220 222.5t-78 312.5q0 175 70.5 339.5t193.5 287.5q113 113 258 177t303 64zM815 70q137 0 259.5 54.5t219.5 151.5
q111 111 173.5 260t62.5 306q0 223 -141.5 371.5t-366.5 148.5q-137 0 -259.5 -55t-219.5 -152q-111 -111 -173.5 -259.5t-62.5 -305.5q0 -223 141.5 -371.5t366.5 -148.5zM891 1587l254 242l123 -57l-269 -185h-108zM1178 1587l254 242l122 -57l-268 -185h-108z" />
    <glyph glyph-name="ohungarumlaut" unicode="&#x151;" horiz-adv-x="1296" 
d="M725 1069q206 0 335.5 -130.5t129.5 -332.5q0 -124 -50.5 -239t-140.5 -205q-87 -87 -198.5 -137t-231.5 -50q-206 0 -335.5 130.5t-129.5 332.5q0 124 51 240t140 205q87 87 198.5 136.5t231.5 49.5zM580 70q93 0 181 40t157 109q76 76 119.5 176t43.5 207
q0 174 -100.5 273.5t-265.5 99.5q-93 0 -180.5 -40t-157.5 -110q-77 -77 -120.5 -176.5t-43.5 -206.5q0 -174 100.5 -273t266.5 -99zM592 1219l256 272l96 -59l-264 -213h-88zM903 1219l256 272l96 -59l-264 -213h-88z" />
    <glyph glyph-name="OE" unicode="&#x152;" horiz-adv-x="2330" 
d="M903 0q-171 0 -316.5 49t-240.5 144q-158 158 -158 409q0 163 58 305t166 250q131 131 320.5 204t408.5 73h1329l-27 -99h-880l-152 -563h789l-27 -98h-789l-153 -576h891l-27 -98h-1192zM432 260q162 -162 477 -162h215l332 1237h-330q-389 0 -634 -245
q-193 -193 -193 -480q0 -217 133 -350z" />
    <glyph glyph-name="oe" unicode="&#x153;" horiz-adv-x="2146" 
d="M2025 487h-858q-4 -25 -4 -69q0 -157 95.5 -252.5t250.5 -95.5q110 0 191.5 35t165.5 104l59 -72q-196 -162 -409 -162q-166 0 -283 87t-150 231q-84 -140 -216.5 -229t-301.5 -89q-202 0 -331.5 130.5t-129.5 332.5q0 124 51 240t140 205q87 87 198.5 136.5t231.5 49.5
q172 0 284.5 -94.5t145.5 -239.5q37 69 84.5 126t109 105.5t141 75.5t169.5 27q126 0 217.5 -55.5t134.5 -144.5t43 -199q0 -98 -29 -183zM580 70q93 0 181 40t157 109q76 76 119.5 176t43.5 207q0 174 -100.5 273.5t-265.5 99.5q-93 0 -180.5 -40t-157.5 -110
q-77 -77 -120.5 -176.5t-43.5 -206.5q0 -174 100.5 -273t266.5 -99zM1335 838q-107 -107 -149 -260h758q8 36 8 86q0 135 -75 224t-220 89q-183 0 -322 -139z" />
    <glyph glyph-name="Racute" unicode="&#x154;" horiz-adv-x="1460" 
d="M1092 0l-308 594h-59h-385l-160 -594h-106l385 1434h514q258 0 385 -127q90 -90 90 -234q0 -172 -127 -299q-138 -138 -422 -170l315 -604h-122zM365 690h430q154 0 268 39t182 107q96 96 96 231q0 107 -63 170q-98 98 -309 98h-430zM874 1567l254 241l123 -57l-268 -184
h-109z" />
    <glyph glyph-name="racute" unicode="&#x155;" horiz-adv-x="811" 
d="M51 0l279 1044h100l-78 -296q234 329 537 313l-29 -111h-8q-189 0 -355.5 -141t-230.5 -381l-114 -428h-101zM526 1219l254 272l127 -61l-276 -211h-105z" />
    <glyph glyph-name="Rcommaaccent" unicode="&#x156;" horiz-adv-x="1460" 
d="M1092 0l-308 594h-59h-385l-160 -594h-106l385 1434h514q258 0 385 -127q90 -90 90 -234q0 -172 -127 -299q-138 -138 -422 -170l315 -604h-122zM365 690h430q154 0 268 39t182 107q96 96 96 231q0 107 -63 170q-98 98 -309 98h-430zM375 -451v50q66 12 99 37.5t46 76.5
h-65l39 146h147l-35 -127q-24 -91 -77.5 -131.5t-153.5 -51.5z" />
    <glyph glyph-name="rcommaaccent" unicode="&#x157;" horiz-adv-x="811" 
d="M51 0l279 1044h100l-78 -296q234 329 537 313l-29 -111h-8q-189 0 -355.5 -141t-230.5 -381l-114 -428h-101zM-100 -461v49q66 12 98.5 38t46.5 77h-65l38 145h148l-35 -127q-24 -90 -77 -130.5t-154 -51.5z" />
    <glyph glyph-name="Rcaron" unicode="&#x158;" horiz-adv-x="1460" 
d="M1092 0l-308 594h-59h-385l-160 -594h-106l385 1434h514q258 0 385 -127q90 -90 90 -234q0 -172 -127 -299q-138 -138 -422 -170l315 -604h-122zM365 690h430q154 0 268 39t182 107q96 96 96 231q0 107 -63 170q-98 98 -309 98h-430zM1268 1786l-271 -219h-94l-151 219
h102l115 -125l184 125h115z" />
    <glyph glyph-name="rcaron" unicode="&#x159;" horiz-adv-x="811" 
d="M51 0l279 1044h100l-78 -296q234 329 537 313l-29 -111h-8q-189 0 -355.5 -141t-230.5 -381l-114 -428h-101zM510 1219l-137 249h90l106 -139l197 139h98l-272 -249h-82z" />
    <glyph glyph-name="Sacute" unicode="&#x15a;" horiz-adv-x="1306" 
d="M612 -20q-190 0 -334.5 72t-236.5 202l82 59q94 -121 213 -179t287 -58q177 0 295 89t118 224q0 93 -69.5 157t-243.5 132q-227 89 -318.5 171t-91.5 210q0 141 105 246q149 149 409 149q156 0 286.5 -60t211.5 -159l-82 -66q-162 189 -426 189q-178 0 -286.5 -86
t-108.5 -205q0 -96 78 -159t264 -134q204 -77 292.5 -162t88.5 -215q0 -149 -113 -262q-73 -73 -181.5 -114t-238.5 -41zM854 1587l254 242l123 -57l-268 -185h-109z" />
    <glyph glyph-name="sacute" unicode="&#x15b;" horiz-adv-x="1013" 
d="M444 -23q-123 0 -238.5 46.5t-203.5 134.5l72 71q165 -159 383 -159q105 0 187.5 58t82.5 148q0 64 -48.5 111t-178.5 96q-156 58 -224.5 120t-68.5 161q0 128 107 215.5t280 87.5q104 0 205 -39.5t172 -99.5l-66 -76q-65 54 -149.5 88.5t-171.5 34.5q-125 0 -198 -58
t-73 -137q0 -63 47.5 -106.5t188.5 -98.5q157 -62 221 -125t64 -157q0 -89 -53.5 -162t-142.5 -113.5t-194 -40.5zM612 1219l254 272l127 -61l-276 -211h-105z" />
    <glyph glyph-name="Scedilla" unicode="&#x15e;" horiz-adv-x="1306" 
d="M375 -303l-99 53l224 238q-149 18 -265.5 87t-193.5 179l82 59q94 -121 213 -179t287 -58q177 0 295 89t118 224q0 93 -69.5 157t-243.5 132q-227 89 -318.5 171t-91.5 210q0 141 105 246q149 149 409 149q156 0 286.5 -60t211.5 -159l-82 -66q-162 189 -426 189
q-178 0 -286.5 -86t-108.5 -205q0 -96 78 -159t264 -134q204 -77 292.5 -162t88.5 -215q0 -149 -113 -262q-73 -73 -181.5 -114t-238.5 -41h-22z" />
    <glyph glyph-name="scedilla" unicode="&#x15f;" horiz-adv-x="1013" 
d="M209 -303l-98 53l223 238q-193 31 -332 170l72 71q165 -159 383 -159q105 0 187.5 58t82.5 148q0 64 -48.5 111t-178.5 96q-156 58 -224.5 120t-68.5 161q0 128 107 215.5t280 87.5q104 0 205 -39.5t172 -99.5l-66 -76q-65 54 -149.5 88.5t-171.5 34.5q-125 0 -198 -58
t-73 -137q0 -63 47.5 -106.5t188.5 -98.5q157 -62 221 -125t64 -157q0 -89 -53.5 -162t-142.5 -113.5t-194 -40.5h-22z" />
    <glyph glyph-name="Scaron" unicode="&#x160;" horiz-adv-x="1306" 
d="M612 -20q-190 0 -334.5 72t-236.5 202l82 59q94 -121 213 -179t287 -58q177 0 295 89t118 224q0 93 -69.5 157t-243.5 132q-227 89 -318.5 171t-91.5 210q0 141 105 246q149 149 409 149q156 0 286.5 -60t211.5 -159l-82 -66q-162 189 -426 189q-178 0 -286.5 -86
t-108.5 -205q0 -96 78 -159t264 -134q204 -77 292.5 -162t88.5 -215q0 -149 -113 -262q-73 -73 -181.5 -114t-238.5 -41zM1245 1806l-270 -219h-94l-152 219h102l115 -125l184 125h115z" />
    <glyph glyph-name="scaron" unicode="&#x161;" horiz-adv-x="1013" 
d="M444 -23q-123 0 -238.5 46.5t-203.5 134.5l72 71q165 -159 383 -159q105 0 187.5 58t82.5 148q0 64 -48.5 111t-178.5 96q-156 58 -224.5 120t-68.5 161q0 128 107 215.5t280 87.5q104 0 205 -39.5t172 -99.5l-66 -76q-65 54 -149.5 88.5t-171.5 34.5q-125 0 -198 -58
t-73 -137q0 -63 47.5 -106.5t188.5 -98.5q157 -62 221 -125t64 -157q0 -89 -53.5 -162t-142.5 -113.5t-194 -40.5zM596 1219l-137 249h90l106 -139l197 139h98l-272 -249h-82z" />
    <glyph glyph-name="Tcommaaccent" unicode="&#x162;" horiz-adv-x="1259" 
d="M428 0l358 1335h-499l26 99h1106l-26 -99h-500l-358 -1335h-107zM266 -461v49q66 12 99.5 38t46.5 77h-66l39 145h147l-34 -127q-24 -90 -77.5 -130.5t-154.5 -51.5z" />
    <glyph glyph-name="tcommaaccent" unicode="&#x163;" horiz-adv-x="811" 
d="M422 -18q-111 0 -180.5 52t-69.5 154q0 47 12 101l178 663h-151l25 92h151l90 334h101l-91 -334h361l-25 -92h-360l-178 -665q-11 -50 -11 -88q0 -63 45 -94t125 -31q70 0 152 32l-27 -98q-71 -26 -147 -26zM113 -461v49q66 12 98.5 38t46.5 77h-65l38 145h148l-35 -127
q-24 -90 -77 -130.5t-154 -51.5z" />
    <glyph glyph-name="Tcaron" unicode="&#x164;" horiz-adv-x="1259" 
d="M428 0l358 1335h-499l26 99h1106l-26 -99h-500l-358 -1335h-107zM1233 1786l-270 -219h-95l-151 219h102l115 -125l184 125h115z" />
    <glyph glyph-name="tcaron" unicode="&#x165;" horiz-adv-x="811" 
d="M422 -18q-111 0 -180.5 52t-69.5 154q0 47 12 101l178 663h-151l25 92h151l90 334h101l-91 -334h361l-25 -92h-360l-178 -665q-11 -50 -11 -88q0 -63 45 -94t125 -31q70 0 152 32l-27 -98q-71 -26 -147 -26zM711 1190l114 305h125v-6l-180 -299h-59z" />
    <glyph glyph-name="Umacron" unicode="&#x16a;" horiz-adv-x="1548" 
d="M713 -23q-249 0 -382.5 125.5t-133.5 325.5q0 109 28 221l209 785h107l-222 -834q-18 -74 -18 -164q0 -162 106.5 -262t313.5 -100q203 0 350 147q134 134 201 381l223 832h107l-230 -854q-72 -267 -227 -422q-181 -181 -432 -181zM729 1610l27 100h635l-27 -100h-635z
" />
    <glyph glyph-name="umacron" unicode="&#x16b;" horiz-adv-x="1247" 
d="M473 -25q-155 0 -248.5 90.5t-93.5 241.5q0 54 23 148l155 589h101l-160 -598q-17 -66 -17 -129q0 -117 72 -184t197 -67q136 0 263.5 111t172.5 278l158 589h100l-278 -1044h-101l51 195q-87 -105 -180 -162.5t-215 -57.5zM489 1272l27 96h623l-27 -96h-623z" />
    <glyph glyph-name="Ubreve" unicode="&#x16c;" horiz-adv-x="1548" 
d="M713 -23q-249 0 -382.5 125.5t-133.5 325.5q0 109 28 221l209 785h107l-222 -834q-18 -74 -18 -164q0 -162 106.5 -262t313.5 -100q203 0 350 147q134 134 201 381l223 832h107l-230 -854q-72 -267 -227 -422q-181 -181 -432 -181zM1038 1552q-116 0 -175.5 55t-41.5 150
h86q2 -53 37 -79.5t117 -26.5q145 0 211 106h94q-33 -95 -122.5 -150t-205.5 -55z" />
    <glyph glyph-name="ubreve" unicode="&#x16d;" horiz-adv-x="1247" 
d="M473 -25q-155 0 -248.5 90.5t-93.5 241.5q0 54 23 148l155 589h101l-160 -598q-17 -66 -17 -129q0 -117 72 -184t197 -67q136 0 263.5 111t172.5 278l158 589h100l-278 -1044h-101l51 195q-87 -105 -180 -162.5t-215 -57.5zM793 1214q-118 0 -176.5 62t-36.5 168h77
q-2 -65 34 -98t120 -33q147 0 225 131h88q-36 -106 -126 -168t-205 -62z" />
    <glyph glyph-name="Uring" unicode="&#x16e;" horiz-adv-x="1548" 
d="M713 -23q-249 0 -382.5 125.5t-133.5 325.5q0 109 28 221l209 785h107l-222 -834q-18 -74 -18 -164q0 -162 106.5 -262t313.5 -100q203 0 350 147q134 134 201 381l223 832h107l-230 -854q-72 -267 -227 -422q-181 -181 -432 -181zM1110 1921q84 0 138.5 -48t54.5 -122
q0 -93 -75 -156t-173 -63q-84 0 -138.5 48t-54.5 122q0 93 75 156t173 63zM1063 1597q63 0 111.5 42.5t48.5 105.5q0 48 -32 79t-89 31q-64 0 -112 -42t-48 -105q0 -51 33.5 -81t87.5 -30z" />
    <glyph glyph-name="uring" unicode="&#x16f;" horiz-adv-x="1247" 
d="M473 -25q-155 0 -248.5 90.5t-93.5 241.5q0 54 23 148l155 589h101l-160 -598q-17 -66 -17 -129q0 -117 72 -184t197 -67q136 0 263.5 111t172.5 278l158 589h100l-278 -1044h-101l51 195q-87 -105 -180 -162.5t-215 -57.5zM1061 1425q0 -90 -73.5 -155.5t-168.5 -65.5
q-90 0 -147.5 54.5t-57.5 134.5q0 90 73.5 155.5t168.5 65.5q90 0 147.5 -54.5t57.5 -134.5zM688 1395q0 -54 36 -89.5t97 -35.5q67 0 116.5 44.5t49.5 108.5q0 54 -36 89.5t-97 35.5q-67 0 -116.5 -44.5t-49.5 -108.5z" />
    <glyph glyph-name="Uhungarumlaut" unicode="&#x170;" horiz-adv-x="1548" 
d="M713 -23q-249 0 -382.5 125.5t-133.5 325.5q0 109 28 221l209 785h107l-222 -834q-18 -74 -18 -164q0 -162 106.5 -262t313.5 -100q203 0 350 147q134 134 201 381l223 832h107l-230 -854q-72 -267 -227 -422q-181 -181 -432 -181zM797 1556l254 242l123 -57l-269 -185
h-108zM1083 1556l254 242l123 -57l-268 -185h-109z" />
    <glyph glyph-name="uhungarumlaut" unicode="&#x171;" horiz-adv-x="1247" 
d="M473 -25q-155 0 -248.5 90.5t-93.5 241.5q0 54 23 148l155 589h101l-160 -598q-17 -66 -17 -129q0 -117 72 -184t197 -67q136 0 263.5 111t172.5 278l158 589h100l-278 -1044h-101l51 195q-87 -105 -180 -162.5t-215 -57.5zM555 1219l256 272l96 -59l-264 -213h-88z
M866 1219l256 272l97 -59l-265 -213h-88z" />
    <glyph glyph-name="Uogonek" unicode="&#x172;" horiz-adv-x="1548" 
d="M698 -262l-18 -74q-113 8 -167 41t-54 94q0 93 135 189q-194 28 -295.5 146.5t-101.5 293.5q0 109 28 221l209 785h107l-222 -834q-18 -74 -18 -164q0 -162 106.5 -262t313.5 -100q203 0 350 147q134 134 201 381l223 832h107l-230 -854q-72 -267 -227 -422
q-181 -181 -432 -181h-19q-131 -91 -131 -161q0 -33 31 -51t104 -27z" />
    <glyph glyph-name="uogonek" unicode="&#x173;" horiz-adv-x="1247" 
d="M881 -262l-19 -74q-113 8 -167 41t-54 94q0 59 46 110.5t134 108.5l47 177q-87 -105 -180 -162.5t-215 -57.5q-155 0 -248.5 90.5t-93.5 241.5q0 54 23 148l155 589h101l-160 -598q-17 -66 -17 -129q0 -117 72 -184t197 -67q136 0 263.5 111t172.5 278l158 589h100
l-278 -1044h-9q-164 -106 -164 -184q0 -33 31.5 -51t104.5 -27z" />
    <glyph glyph-name="Wcircumflex" unicode="&#x174;" horiz-adv-x="2199" 
d="M440 -10l-133 1444h111l108 -1276l762 1280h82l78 -1280l793 1276h118l-907 -1444h-86l-86 1245l-754 -1245h-86zM1085 1567l271 219h94l152 -219h-103l-115 125l-184 -125h-115z" />
    <glyph glyph-name="wcircumflex" unicode="&#x175;" horiz-adv-x="1730" 
d="M303 -8l-100 1052h102l76 -909l559 914h80l72 -914l563 909h110l-665 -1052h-88l-72 895l-553 -895h-84zM774 1219l273 249h81l138 -249h-90l-107 139l-197 -139h-98z" />
    <glyph glyph-name="Ycircumflex" unicode="&#x176;" horiz-adv-x="1368" 
d="M479 0l156 582l-375 852h117l330 -770l745 770h143l-862 -879l-147 -555h-107zM657 1556l271 220h94l152 -220h-103l-115 125l-184 -125h-115z" />
    <glyph glyph-name="ycircumflex" unicode="&#x177;" horiz-adv-x="1163" 
d="M387 6l-213 1038h107l182 -933l629 933h120l-743 -1081q-112 -161 -212.5 -229t-215.5 -68q-117 0 -221 72l55 82q32 -26 84 -43t94 -17q82 0 161 56t173 190zM453 1219l272 249h82l137 -249h-90l-106 139l-197 -139h-98z" />
    <glyph glyph-name="Ydieresis" unicode="&#x178;" horiz-adv-x="1368" 
d="M479 0l156 582l-375 852h117l330 -770l745 770h143l-862 -879l-147 -555h-107zM676 1556l43 156h151l-43 -156h-151zM1036 1556l43 156h150l-43 -156h-150z" />
    <glyph glyph-name="Zacute" unicode="&#x179;" horiz-adv-x="1355" 
d="M-39 0l16 59l1303 1278h-926l27 97h1092l-17 -60l-1302 -1278h966l-26 -96h-1133zM846 1567l254 241l123 -57l-269 -184h-108z" />
    <glyph glyph-name="zacute" unicode="&#x17a;" horiz-adv-x="1118" 
d="M-35 0l17 57l972 897h-704l24 90h869l-17 -57l-972 -897h739l-25 -90h-903zM645 1219l254 272l127 -61l-276 -211h-105z" />
    <glyph glyph-name="Zdotaccent" unicode="&#x17b;" horiz-adv-x="1355" 
d="M-39 0l16 59l1303 1278h-926l27 97h1092l-17 -60l-1302 -1278h966l-26 -96h-1133zM829 1567l43 155h156l-43 -155h-156z" />
    <glyph glyph-name="zdotaccent" unicode="&#x17c;" horiz-adv-x="1118" 
d="M-35 0l17 57l972 897h-704l24 90h869l-17 -57l-972 -897h739l-25 -90h-903zM637 1214l47 175h135l-47 -175h-135z" />
    <glyph glyph-name="Zcaron" unicode="&#x17d;" horiz-adv-x="1355" 
d="M-39 0l16 59l1303 1278h-926l27 97h1092l-17 -60l-1302 -1278h966l-26 -96h-1133zM1239 1786l-270 -219h-95l-151 219h102l115 -125l184 125h115z" />
    <glyph glyph-name="zcaron" unicode="&#x17e;" horiz-adv-x="1118" 
d="M-35 0l17 57l972 897h-704l24 90h869l-17 -57l-972 -897h739l-25 -90h-903zM629 1219l-137 249h90l106 -139l197 139h98l-272 -249h-82z" />
    <glyph glyph-name="florin" unicode="&#x192;" horiz-adv-x="1077" 
d="M68 -20q-61 0 -115 16l27 88q42 -14 96 -14q71 0 125 52t106 167l219 497h-219l25 93h233l121 274q66 153 155 227t210 74q86 0 170 -31l-31 -86q-79 27 -143 27q-85 0 -150 -57t-119 -179l-110 -249h331l-24 -93h-346l-230 -522q-68 -156 -146.5 -220t-184.5 -64z" />
    <glyph glyph-name="Aringacute" unicode="&#x1fa;" horiz-adv-x="1554" 
d="M-70 0l1002 1370q-92 47 -92 148q0 93 74.5 156t172.5 63q84 0 138.5 -48t54.5 -122t-50.5 -132t-125.5 -79l264 -1356h-108l-74 401h-846l-291 -401h-119zM410 498h755l-153 829zM1040 1413q63 0 111.5 42.5t48.5 105.5q0 48 -32 79t-89 31q-63 0 -111 -42t-48 -105
q0 -51 33 -81t87 -30zM1071 1798l250 221l117 -57l-258 -164h-109z" />
    <glyph glyph-name="aringacute" unicode="&#x1fb;" horiz-adv-x="1169" 
d="M807 1679l248 242l112 -61l-262 -181h-98zM389 -25q-90 0 -166 31.5t-126 100t-50 161.5q0 148 100 248q131 131 371 131q190 0 402 -59l8 28q14 54 14 105q0 119 -81 182.5t-234 63.5q-143 0 -303 -56l-19 90q165 60 330 60q191 0 298 -87t107 -239q0 -59 -20 -137
l-160 -598h-98l47 180q-172 -205 -420 -205zM408 68q153 0 288.5 97t177.5 251l25 92q-192 49 -395 49q-179 0 -277 -98q-73 -73 -73 -178q0 -97 68.5 -155t185.5 -58zM1014 1436q0 -90 -73.5 -156t-168.5 -66q-90 0 -147.5 54.5t-57.5 134.5q0 90 73.5 155.5t168.5 65.5
q90 0 147.5 -54t57.5 -134zM641 1405q0 -54 36 -89.5t97 -35.5q67 0 116.5 45t49.5 109q0 54 -36 89.5t-97 35.5q-67 0 -116.5 -45t-49.5 -109z" />
    <glyph glyph-name="AEacute" unicode="&#x1fc;" horiz-adv-x="2154" 
d="M-66 0l1252 1434h1108l-27 -99h-883l-151 -563h790l-26 -98h-791l-153 -576h893l-27 -98h-999l108 401h-616l-349 -401h-129zM496 498h557l225 839h-55zM1485 1567l254 241l123 -57l-269 -184h-108z" />
    <glyph glyph-name="aeacute" unicode="&#x1fd;" horiz-adv-x="1980" 
d="M1350 -25q-154 0 -261.5 69t-156.5 187q-246 -256 -535 -256q-93 0 -171 31.5t-128.5 100t-50.5 161.5q0 148 100 248q131 131 371 131q190 0 402 -59l8 28q14 54 14 105q0 119 -81 182.5t-234 63.5q-143 0 -303 -56l-19 90q165 60 330 60t268 -65t129 -183
q86 116 206.5 186t254.5 70q126 0 217.5 -55.5t134.5 -144.5t43 -199q0 -101 -28 -183h-859q-4 -25 -4 -69q0 -157 95.5 -252.5t250.5 -95.5q110 0 191.5 35t165.5 104l59 -72q-196 -162 -409 -162zM414 68q256 0 491 256q-15 86 -2 182q-178 51 -399 51q-179 0 -277 -98
q-73 -73 -73 -178q0 -97 71 -155t189 -58zM1169 838q-107 -107 -149 -260h758q8 36 8 86q0 135 -75 224t-220 89q-183 0 -322 -139zM1065 1219l254 272l127 -61l-277 -211h-104z" />
    <glyph glyph-name="Oslashacute" unicode="&#x1fe;" horiz-adv-x="1732" 
d="M1022 1458q143 0 263 -54.5t206 -150.5l227 191h142l-316 -264q96 -151 96 -338q0 -175 -70.5 -339.5t-193.5 -287.5q-113 -113 -258.5 -177.5t-302.5 -64.5q-145 0 -264.5 53.5t-204.5 151.5l-227 -190h-142l314 262q-94 153 -94 340q0 175 70.5 339.5t193.5 287.5
q113 113 258 177t303 64zM815 70q137 0 259.5 54.5t219.5 151.5q111 111 173.5 260t62.5 306q0 144 -66 270l-1040 -870q68 -81 168 -126.5t223 -45.5zM307 590q0 -153 66 -273l1040 871q-144 174 -391 174q-137 0 -259.5 -55t-219.5 -152q-111 -111 -173.5 -259.5
t-62.5 -305.5zM1063 1587l254 242l123 -57l-269 -185h-108z" />
    <glyph glyph-name="oslashacute" unicode="&#x1ff;" horiz-adv-x="1296" 
d="M725 1069q216 0 346 -143l160 131h137l-244 -201q66 -113 66 -250q0 -124 -50.5 -239t-140.5 -205q-87 -87 -198.5 -137t-231.5 -50q-216 0 -348 142l-158 -129h-137l244 198q-66 111 -66 252q0 124 51 240t140 205q87 87 198.5 136.5t231.5 49.5zM715 975
q-93 0 -180.5 -40t-157.5 -110q-77 -77 -120.5 -176.5t-43.5 -206.5q0 -108 39 -188l743 608q-101 113 -280 113zM1081 602q0 106 -39 189l-743 -611q96 -110 281 -110q93 0 181 40t157 109q76 76 119.5 176t43.5 207zM762 1219l254 272l127 -61l-277 -211h-104z" />
    <glyph glyph-name="Scommaaccent" unicode="&#x218;" horiz-adv-x="1306" 
d="M612 -20q-190 0 -334.5 72t-236.5 202l82 59q94 -121 213 -179t287 -58q177 0 295 89t118 224q0 93 -69.5 157t-243.5 132q-227 89 -318.5 171t-91.5 210q0 141 105 246q149 149 409 149q156 0 286.5 -60t211.5 -159l-82 -66q-162 189 -426 189q-178 0 -286.5 -86
t-108.5 -205q0 -96 78 -159t264 -134q204 -77 292.5 -162t88.5 -215q0 -149 -113 -262q-73 -73 -181.5 -114t-238.5 -41zM274 -461v49q66 12 99.5 38t46.5 77h-66l39 145h148l-35 -127q-24 -90 -77.5 -130.5t-154.5 -51.5z" />
    <glyph glyph-name="scommaaccent" unicode="&#x219;" horiz-adv-x="1013" 
d="M444 -23q-123 0 -238.5 46.5t-203.5 134.5l72 71q165 -159 383 -159q105 0 187.5 58t82.5 148q0 64 -48.5 111t-178.5 96q-156 58 -224.5 120t-68.5 161q0 128 107 215.5t280 87.5q104 0 205 -39.5t172 -99.5l-66 -76q-65 54 -149.5 88.5t-171.5 34.5q-125 0 -198 -58
t-73 -137q0 -63 47.5 -106.5t188.5 -98.5q157 -62 221 -125t64 -157q0 -89 -53.5 -162t-142.5 -113.5t-194 -40.5zM129 -461v49q66 12 98.5 38t46.5 77h-65l39 145h147l-35 -127q-24 -90 -77 -130.5t-154 -51.5z" />
    <glyph glyph-name="schwa" unicode="&#x259;" horiz-adv-x="1193" 
d="M92 375q0 97 29 182h858q4 46 4 70q0 157 -95.5 252.5t-250.5 95.5q-110 0 -191 -35t-165 -104l-60 71q95 78 190.5 120t225.5 42q200 0 327.5 -122.5t127.5 -315.5q0 -131 -54 -257.5t-149 -221.5q-177 -177 -402 -177q-95 0 -171.5 32t-124.5 87.5t-73.5 127
t-25.5 153.5zM811 207q104 104 150 260h-758q-8 -36 -8 -86q0 -135 74.5 -224t219.5 -89q183 0 322 139z" />
    <glyph glyph-name="circumflex" unicode="&#x2c6;" horiz-adv-x="1024" 
d="M455 1219l272 249h82l137 -249h-90l-106 139l-197 -139h-98z" />
    <glyph glyph-name="caron" unicode="&#x2c7;" horiz-adv-x="1024" 
d="M657 1219l-137 249h90l107 -139l196 139h99l-273 -249h-82z" />
    <glyph glyph-name="breve" unicode="&#x2d8;" horiz-adv-x="1024" 
d="M696 1214q-118 0 -176.5 62t-36.5 168h78q-2 -65 34 -98t120 -33q147 0 225 131h88q-36 -106 -126.5 -168t-205.5 -62z" />
    <glyph glyph-name="dotaccent" unicode="&#x2d9;" horiz-adv-x="1024" 
d="M629 1214l47 175h135l-47 -175h-135z" />
    <glyph glyph-name="ring" unicode="&#x2da;" horiz-adv-x="1024" 
d="M979 1436q0 -90 -73.5 -156t-168.5 -66q-90 0 -147.5 54.5t-57.5 134.5q0 90 73.5 155.5t168.5 65.5q90 0 147.5 -54t57.5 -134zM606 1405q0 -54 36 -89.5t97 -35.5q67 0 116.5 45t49.5 109q0 54 -36 89.5t-97 35.5q-67 0 -116.5 -45t-49.5 -109z" />
    <glyph glyph-name="ogonek" unicode="&#x2db;" horiz-adv-x="1024" 
d="M449 -262l-19 -74q-113 8 -167 41t-54 94q0 62 54.5 118.5t156.5 119.5l61 -35q-168 -110 -168 -186q0 -33 31.5 -51t104.5 -27z" />
    <glyph glyph-name="tilde" unicode="&#x2dc;" horiz-adv-x="1024" 
d="M969 1427l71 -18q-48 -108 -93.5 -149t-108.5 -41q-41 0 -129 43q-84 41 -117 41q-37 0 -63 -22t-58 -81l-72 19q48 107 94 148.5t109 41.5q41 0 129 -43q84 -41 117 -41q37 0 63 22t58 80z" />
    <glyph glyph-name="hungarumlaut" unicode="&#x2dd;" horiz-adv-x="1024" 
d="M393 1219l256 272l96 -59l-264 -213h-88zM705 1219l256 272l96 -59l-264 -213h-88z" />
    <glyph glyph-name="commaaccent" unicode="&#x326;" horiz-adv-x="1024" 
d="M139 -461v49q66 12 99.5 38t46.5 77h-66l39 145h148l-35 -127q-24 -90 -77.5 -130.5t-154.5 -51.5z" />
    <glyph glyph-name="baht" unicode="&#xe3f;" horiz-adv-x="1290" 
d="M66 0l385 1434h407q28 0 82 -4l74 165h98l-82 -184q114 -32 174 -110t60 -193q0 -153 -108.5 -254t-285.5 -135q130 -26 201.5 -100t71.5 -197q0 -187 -161.5 -304.5t-434.5 -117.5h-146l-106 -242h-98l106 242h-237zM1042 422q0 252 -344 258l-260 -588h113
q233 0 362 87t129 243zM371 766h278l254 573q-8 0 -27 1t-28 1h-322zM1161 1098q0 180 -176 227l-248 -559q197 10 310.5 101t113.5 231zM190 92h160l260 588h-264z" />
    <glyph glyph-name="Wgrave" unicode="&#x1e80;" horiz-adv-x="2199" 
d="M440 -10l-133 1444h111l108 -1276l762 1280h82l78 -1280l793 1276h118l-907 -1444h-86l-86 1245l-754 -1245h-86zM1292 1567l-170 184l119 57l127 -241h-76z" />
    <glyph glyph-name="wgrave" unicode="&#x1e81;" horiz-adv-x="1730" 
d="M303 -8l-100 1052h102l76 -909l559 914h80l72 -914l563 909h110l-665 -1052h-88l-72 895l-553 -895h-84zM971 1219l-162 211l127 61l106 -272h-71z" />
    <glyph glyph-name="Wacute" unicode="&#x1e82;" horiz-adv-x="2199" 
d="M440 -10l-133 1444h111l108 -1276l762 1280h82l78 -1280l793 1276h118l-907 -1444h-86l-86 1245l-754 -1245h-86zM1298 1567l254 241l123 -57l-268 -184h-109z" />
    <glyph glyph-name="wacute" unicode="&#x1e83;" horiz-adv-x="1730" 
d="M303 -8l-100 1052h102l76 -909l559 914h80l72 -914l563 909h110l-665 -1052h-88l-72 895l-553 -895h-84zM969 1219l254 272l127 -61l-277 -211h-104z" />
    <glyph glyph-name="Wdieresis" unicode="&#x1e84;" horiz-adv-x="2199" 
d="M440 -10l-133 1444h111l108 -1276l762 1280h82l78 -1280l793 1276h118l-907 -1444h-86l-86 1245l-754 -1245h-86zM1104 1567l43 155h151l-43 -155h-151zM1464 1567l43 155h150l-43 -155h-150z" />
    <glyph glyph-name="wdieresis" unicode="&#x1e85;" horiz-adv-x="1730" 
d="M303 -8l-100 1052h102l76 -909l559 914h80l72 -914l563 909h110l-665 -1052h-88l-72 895l-553 -895h-84zM791 1219l45 163h141l-45 -163h-141zM1124 1219l45 163h142l-45 -163h-142z" />
    <glyph glyph-name="Ygrave" unicode="&#x1ef2;" horiz-adv-x="1368" 
d="M479 0l156 582l-375 852h117l330 -770l745 770h143l-862 -879l-147 -555h-107zM864 1556l-170 185l119 57l127 -242h-76z" />
    <glyph glyph-name="ygrave" unicode="&#x1ef3;" horiz-adv-x="1163" 
d="M387 6l-213 1038h107l182 -933l629 933h120l-743 -1081q-112 -161 -212.5 -229t-215.5 -68q-117 0 -221 72l55 82q32 -26 84 -43t94 -17q82 0 161 56t173 190zM651 1219l-162 211l127 61l107 -272h-72z" />
    <glyph glyph-name="enspace" unicode="&#x2002;" horiz-adv-x="1024" 
 />
    <glyph glyph-name="emspace" unicode="&#x2003;" horiz-adv-x="2048" 
 />
    <glyph glyph-name="threeperemspace" unicode="&#x2004;" horiz-adv-x="681" 
 />
    <glyph glyph-name="fourperemspace" unicode="&#x2005;" horiz-adv-x="512" 
 />
    <glyph glyph-name="figurespace" unicode="&#x2007;" 
 />
    <glyph glyph-name="thinspace" unicode="&#x2009;" horiz-adv-x="272" 
 />
    <glyph glyph-name="hairspace" unicode="&#x200a;" horiz-adv-x="153" 
 />
    <glyph glyph-name="endash" unicode="&#x2013;" horiz-adv-x="1081" 
d="M152 555l28 107h795l-29 -107h-794z" />
    <glyph glyph-name="emdash" unicode="&#x2014;" horiz-adv-x="1839" 
d="M152 555l28 107h1553l-29 -107h-1552z" />
    <glyph glyph-name="quoteleft" unicode="&#x2018;" horiz-adv-x="473" 
d="M301 1051l41 151q29 106 81 158t155 82l14 -49q-143 -50 -164 -168h55l-47 -174h-135z" />
    <glyph glyph-name="quoteright" unicode="&#x2019;" horiz-adv-x="473" 
d="M262 1042l-14 50q143 50 164 168h-56l47 174h136l-41 -152q-31 -106 -82.5 -158.5t-153.5 -81.5z" />
    <glyph glyph-name="quotesinglbase" unicode="&#x201a;" horiz-adv-x="473" 
d="M-66 -217l-14 49q143 50 164 168h-55l47 174h135l-41 -151q-31 -106 -82.5 -158.5t-153.5 -81.5z" />
    <glyph glyph-name="quotedblleft" unicode="&#x201c;" horiz-adv-x="841" 
d="M299 1051l41 151q29 106 81 158t154 82l15 -49q-143 -50 -164 -168h55l-47 -174h-135zM668 1051l41 151q29 106 81 158t154 82l14 -49q-142 -50 -163 -168h55l-47 -174h-135z" />
    <glyph glyph-name="quotedblright" unicode="&#x201d;" horiz-adv-x="841" 
d="M260 1042l-14 50q143 50 164 168h-56l47 174h136l-41 -152q-31 -106 -82.5 -158.5t-153.5 -81.5zM629 1042l-15 50q143 50 164 168h-55l47 174h135l-41 -152q-31 -107 -82 -159t-153 -81z" />
    <glyph glyph-name="quotedblbase" unicode="&#x201e;" horiz-adv-x="843" 
d="M-66 -217l-14 49q143 50 164 168h-55l47 174h135l-41 -151q-31 -106 -82.5 -158.5t-153.5 -81.5zM305 -217l-14 49q143 50 164 168h-56l47 174h136l-41 -151q-31 -106 -82.5 -158.5t-153.5 -81.5z" />
    <glyph glyph-name="dagger" unicode="&#x2020;" horiz-adv-x="839" 
d="M328 487l166 586l-258 -14l24 92l250 -14l65 297h103l-94 -297l258 14l-25 -92l-254 14l-145 -586h-90z" />
    <glyph glyph-name="daggerdbl" unicode="&#x2021;" horiz-adv-x="880" 
d="M211 0l94 297l-258 -14l25 92l252 -15l86 357l104 356l-258 -14l25 92l249 -14l66 297h102l-94 -297l258 14l-24 -92l-254 14l-84 -356l-107 -357l260 15l-24 -92l-250 14l-66 -297h-102z" />
    <glyph glyph-name="bullet" unicode="&#x2022;" horiz-adv-x="962" 
d="M553 987q95 0 155 -61t60 -162q0 -129 -92 -221q-88 -88 -201 -88q-95 0 -155 61t-60 162q0 129 92 221q88 88 201 88z" />
    <glyph glyph-name="ellipsis" unicode="&#x2026;" horiz-adv-x="1398" 
d="M29 0l47 174h135l-47 -174h-135zM492 0l47 174h135l-47 -174h-135zM954 0l47 174h136l-47 -174h-136z" />
    <glyph glyph-name="perthousand" unicode="&#x2030;" horiz-adv-x="2463" 
d="M471 709q-123 0 -202 84.5t-79 207.5q0 95 37.5 184t102.5 154q111 111 252 111q123 0 201.5 -84.5t78.5 -208.5q0 -96 -37 -184.5t-102 -153.5q-110 -110 -252 -110zM1204 -16q-123 0 -201.5 84.5t-78.5 207.5q0 96 37 184.5t102 153.5q111 111 252 111
q123 0 201.5 -84.5t78.5 -208.5q0 -96 -37 -184.5t-102 -153.5q-110 -110 -252 -110zM1987 -16q-123 0 -202 84.5t-79 207.5q0 96 37 184.5t102 153.5q111 111 252 111q123 0 202 -85t79 -208q0 -95 -37.5 -184t-102.5 -154q-110 -110 -251 -110zM1212 72q92 0 170 78
q53 53 83 125t30 147q0 98 -49.5 156.5t-138.5 58.5q-92 0 -170 -78q-53 -53 -83 -125t-30 -147q0 -98 49.5 -156.5t138.5 -58.5zM1995 72q92 0 170 78q53 52 82.5 124.5t29.5 147.5q0 98 -49.5 156.5t-138.5 58.5q-92 0 -170 -78q-53 -53 -83 -125t-30 -147
q0 -98 50 -156.5t139 -58.5zM479 797q93 0 170 77q53 53 83 125.5t30 147.5q0 98 -50 156.5t-139 58.5q-92 0 -170 -78q-53 -52 -82.5 -124.5t-29.5 -147.5q0 -98 49.5 -156.5t138.5 -58.5zM133 0l1397 1434h123l-1397 -1434h-123z" />
    <glyph glyph-name="guilsinglleft" unicode="&#x2039;" horiz-adv-x="636" 
d="M305 86l-213 428l4 16l443 428l73 -57l-393 -393l170 -377z" />
    <glyph glyph-name="guilsinglright" unicode="&#x203a;" horiz-adv-x="636" 
d="M330 958l213 -428l-4 -16l-443 -428l-73 57l393 394l-170 376z" />
    <glyph glyph-name="fraction" unicode="&#x2044;" horiz-adv-x="204" 
d="M-625 0l697 729l661 705h98l-698 -729l-659 -705h-99z" />
    <glyph glyph-name="zero.sup" unicode="&#x2070;" horiz-adv-x="819" 
d="M922 1430q0 -121 -51.5 -255.5t-139.5 -222.5q-100 -100 -217 -100q-100 0 -158.5 69.5t-58.5 184.5q0 121 51.5 255.5t138.5 221.5q100 100 218 100q100 0 158.5 -69t58.5 -184zM379 1112q0 -89 35.5 -138.5t107.5 -49.5q81 0 150 69q74 74 121 201t47 229q0 89 -36 139
t-108 50q-79 0 -149 -70q-74 -74 -121 -201t-47 -229z" />
    <glyph glyph-name="four.sup" unicode="&#x2074;" horiz-adv-x="819" 
d="M623 868l49 187h-389l-7 71l537 549h100l-147 -551h113l-19 -69h-112l-50 -187h-75zM371 1124h319l121 449z" />
    <glyph glyph-name="five.sup" unicode="&#x2075;" horiz-adv-x="819" 
d="M547 852q-97 0 -166 39t-107 102l68 39q67 -110 209 -110q102 0 165.5 57.5t63.5 146.5q0 72 -49.5 111t-126.5 39q-91 0 -172 -47l-59 45l131 389h440l-22 -80h-373l-92 -270q27 14 71 24.5t80 10.5q116 0 184 -59.5t68 -160.5q0 -116 -85.5 -196t-227.5 -80z" />
    <glyph glyph-name="six.sup" unicode="&#x2076;" horiz-adv-x="819" 
d="M526 854q-112 0 -182 70.5t-70 210.5q0 124 47.5 242t127.5 198q108 108 243 108q146 0 234 -110l-56 -51q-75 90 -180 90q-104 0 -186 -82q-97 -97 -142 -268q27 42 86 78t134 36q98 0 163.5 -60.5t65.5 -164.5q0 -117 -85.5 -207t-199.5 -90zM528 922q85 0 144 66.5
t59 154.5q0 74 -43 119t-117 45q-87 0 -151 -64q-62 -62 -62 -149q0 -76 46 -124t124 -48z" />
    <glyph glyph-name="seven.sup" unicode="&#x2077;" horiz-adv-x="819" 
d="M322 868l532 715h-448l20 80h543l-15 -59l-536 -736h-96z" />
    <glyph glyph-name="eight.sup" unicode="&#x2078;" horiz-adv-x="819" 
d="M555 852q-129 0 -210 61t-81 150q0 95 64.5 154t169.5 75q-48 22 -79.5 65.5t-31.5 102.5q0 96 82.5 159.5t202.5 63.5q114 0 188 -58t74 -148q0 -81 -56.5 -137t-140.5 -74q55 -20 92 -68.5t37 -114.5q0 -101 -89 -166t-222 -65zM557 922q100 0 162.5 48t62.5 120
q0 67 -56.5 111t-150.5 44q-103 0 -167 -48.5t-64 -121.5q0 -65 60 -109t153 -44zM647 1311q97 0 152 45.5t55 111.5q0 64 -52.5 106t-129.5 42q-89 0 -146 -45.5t-57 -114.5q0 -65 50 -105t128 -40z" />
    <glyph glyph-name="nine.sup" unicode="&#x2079;" horiz-adv-x="819" 
d="M528 852q-148 0 -245 123l55 51q49 -56 94.5 -79t97.5 -23q105 0 191 86q92 92 137 260q-27 -44 -85.5 -81.5t-133.5 -37.5q-97 0 -163 62t-66 167q0 117 81 209t197 92q113 0 185.5 -70.5t72.5 -209.5q0 -126 -46 -243t-124 -195q-111 -111 -248 -111zM649 1221
q89 0 150 61q63 63 63 156q0 78 -47 127t-125 49q-87 0 -144 -68.5t-57 -156.5q0 -76 43 -122t117 -46z" />
    <glyph glyph-name="zero.inf" unicode="&#x2080;" horiz-adv-x="819" 
d="M614 287q0 -121 -51.5 -255.5t-138.5 -221.5q-101 -101 -217 -101q-100 0 -158.5 69.5t-58.5 184.5q0 121 51.5 255.5t138.5 221.5q101 101 217 101q100 0 158.5 -69.5t58.5 -184.5zM72 -31q0 -89 35.5 -138.5t107.5 -49.5q81 0 150 69q74 74 120.5 201.5t46.5 229.5
q0 89 -35.5 138.5t-107.5 49.5q-79 0 -149 -70q-74 -74 -121 -201t-47 -229z" />
    <glyph glyph-name="one.inf" unicode="&#x2081;" horiz-adv-x="665" 
d="M125 -270l190 716l-200 -69v76l237 82h68l-215 -805h-80z" />
    <glyph glyph-name="two.inf" unicode="&#x2082;" horiz-adv-x="819" 
d="M-80 -270l17 67l444 338q71 54 107 100t36 103q0 61 -43.5 96t-115.5 35q-113 0 -222 -113l-51 45q126 140 281 140q103 0 167 -54.5t64 -142.5q0 -68 -42 -127.5t-132 -126.5l-375 -285h443l-21 -75h-557z" />
    <glyph glyph-name="three.inf" unicode="&#x2083;" horiz-adv-x="819" 
d="M227 -291q-98 0 -168.5 41t-105.5 111l63 37q33 -55 87 -86t120 -31q98 0 162 49t64 129q0 73 -52.5 109t-146.5 36h-35l-25 48l345 292h-408l23 76h512l-19 -65l-342 -289q97 -5 163 -55.5t66 -143.5q0 -110 -90 -184t-213 -74z" />
    <glyph glyph-name="four.inf" unicode="&#x2084;" horiz-adv-x="819" 
d="M315 -274l50 186h-390l-6 72l537 548h100l-147 -550h112l-18 -70h-113l-49 -186h-76zM63 -18h320l121 448z" />
    <glyph glyph-name="five.inf" unicode="&#x2085;" horiz-adv-x="819" 
d="M238 -291q-97 0 -166 39t-107 102l68 39q67 -110 209 -110q102 0 165.5 58t63.5 147q0 72 -49.5 110.5t-126.5 38.5q-91 0 -172 -47l-60 45l132 389h440l-23 -80h-372l-93 -270q27 14 71.5 24.5t80.5 10.5q116 0 184 -59t68 -160q0 -117 -85.5 -197t-227.5 -80z" />
    <glyph glyph-name="six.inf" unicode="&#x2086;" horiz-adv-x="819" 
d="M219 -289q-112 0 -182 70.5t-70 210.5q0 124 47 242t127 198q109 109 244 109q144 0 233 -111l-55 -51q-75 90 -180 90q-104 0 -186 -82q-97 -97 -142 -268q27 42 85.5 78t133.5 36q98 0 164 -60.5t66 -164.5q0 -117 -85.5 -207t-199.5 -90zM221 -221q85 0 144 66.5
t59 154.5q0 74 -43 119t-117 45q-87 0 -151 -64q-62 -62 -62 -149q0 -76 46 -124t124 -48z" />
    <glyph glyph-name="seven.inf" unicode="&#x2087;" horiz-adv-x="819" 
d="M37 -274l532 714h-448l20 80h543l-14 -59l-537 -735h-96z" />
    <glyph glyph-name="eight.inf" unicode="&#x2088;" horiz-adv-x="819" 
d="M248 -291q-129 0 -210 61t-81 150q0 95 64.5 154.5t168.5 75.5q-48 22 -79 65t-31 102q0 96 82.5 160t202.5 64q114 0 188 -58t74 -149q0 -81 -56.5 -137t-140.5 -74q55 -20 92 -68.5t37 -113.5q0 -101 -89 -166.5t-222 -65.5zM250 -221q100 0 162.5 48t62.5 120
q0 67 -56.5 111t-150.5 44q-103 0 -167 -48.5t-64 -121.5q0 -65 60 -109t153 -44zM340 168q97 0 152 45.5t55 112.5q0 64 -52.5 105.5t-129.5 41.5q-89 0 -146 -45.5t-57 -114.5q0 -65 50 -105t128 -40z" />
    <glyph glyph-name="nine.inf" unicode="&#x2089;" horiz-adv-x="819" 
d="M221 -291q-149 0 -246 123l56 51q49 -56 94.5 -79t97.5 -23q105 0 191 86q92 92 137 260q-27 -44 -85.5 -81.5t-133.5 -37.5q-97 0 -163.5 62.5t-66.5 167.5q0 116 81 208.5t198 92.5q113 0 185.5 -71t72.5 -210q0 -126 -46 -243t-124 -195q-111 -111 -248 -111zM342 78
q89 0 150 61q63 63 63 156q0 78 -47 127t-125 49q-87 0 -144 -68.5t-57 -156.5q0 -76 43 -122t117 -46z" />
    <glyph glyph-name="colonmonetary" unicode="&#x20a1;" 
d="M1239 1595h96l-121 -280q55 -49 86 -94l-69 -60q-32 40 -60 68l-493 -1147q72 2 139 24.5t104 45.5t89 61l49 -72q-193 -147 -414 -147h-2l-100 -236h-97l105 244q-101 15 -184 68l-136 -312h-96l156 369q-162 152 -162 420q0 203 72 383.5t198 306.5q94 94 211.5 147
t247.5 56l70 155h96l-70 -161q101 -14 187 -66zM233 545q3 -203 105 -324l487 1131q-194 -12 -350 -168q-115 -115 -180 -283.5t-62 -355.5zM401 160q85 -62 193 -74l512 1194q-89 57 -195 68z" />
    <glyph glyph-name="naira" unicode="&#x20a6;" horiz-adv-x="1679" 
d="M1565 487h-201l-129 -487h-133l-176 487h-533l-129 -487h-98l129 487h-201l25 86h198l80 295h-200l24 86h199l129 480h145l170 -480h527l129 480h98l-129 -480h203l-25 -86h-201l-80 -295h203zM496 868l-80 -295h485l-104 295h-301zM889 868l106 -295h293l80 295h-479z
M625 1346l-107 -396h248zM1024 492l139 -386l103 386h-242z" />
    <glyph glyph-name="rupee" unicode="&#x20a8;" horiz-adv-x="2191" 
d="M1921 276q0 64 -46.5 112t-170.5 95q-149 56 -215 119t-66 162q0 128 104.5 216.5t270.5 88.5q99 0 196.5 -39.5t168.5 -99.5l-66 -74q-65 54 -146.5 88.5t-162.5 34.5q-119 0 -189.5 -60t-70.5 -139q0 -63 45.5 -107.5t179.5 -97.5q151 -59 211.5 -123t60.5 -159
q0 -89 -51.5 -162t-137.5 -113.5t-187 -40.5q-117 0 -229.5 46.5t-200.5 134.5l69 71q167 -161 373 -161q99 0 179.5 59t80.5 149zM928 0l-246 582h-393l-156 -582h-100l385 1434h401q198 0 322.5 -94.5t124.5 -276.5q0 -97 -39.5 -180t-107 -141t-152 -96t-179.5 -54
l254 -592h-114zM313 672h330q84 0 159.5 14t142 44.5t114.5 76t76 112t28 148.5q0 132 -89 202t-251 70h-331z" />
    <glyph glyph-name="won" unicode="&#x20a9;" horiz-adv-x="2252" 
d="M2157 487h-373l-275 -493h-123l-18 493h-504l-280 -493h-123l-12 493h-369l22 84h344l-6 299h-258l23 84h233l-10 480h107l6 -480h487l272 484h136l8 -484h491l263 480h114l-268 -480h237l-22 -84h-262l-166 -299h348zM913 571h451l-8 299h-275zM539 870l2 -299h274
l164 299h-440zM1448 870l6 -299h275l157 299h-438zM543 90h8l217 397h-227zM1464 90h9l210 397h-227zM1337 1327l-209 -373h226l-8 373h-9z" />
    <glyph glyph-name="sheqel" unicode="&#x20aa;" horiz-adv-x="1269" 
d="M18 0l281 1044h287q297 0 297 -219q0 -53 -19 -127l-92 -348h-96l92 346q16 62 16 105q0 81 -50.5 116t-149.5 35h-213l-256 -952h-97zM719 0q-319 0 -287 332l37 383h90l-33 -361q-12 -139 35 -200.5t156 -61.5h180l256 952h96l-280 -1044h-250z" />
    <glyph glyph-name="Euro" unicode="&#x20ac;" horiz-adv-x="1400" 
d="M168 852l27 98h147q76 185 201 307q201 201 467 201q171 0 285 -90t163 -235l-92 -37q-55 130 -142.5 198t-232.5 68q-202 0 -368 -166q-104 -104 -166 -246h616l-26 -98h-627q-37 -110 -47 -252h608l-27 -98h-581q11 -194 113 -312t278 -118q126 0 224 50.5t188 149.5
l71 -61q-102 -114 -216.5 -175t-268.5 -61q-211 0 -349.5 142.5t-148.5 384.5h-188l26 98h162q6 131 43 252h-139z" />
    <glyph glyph-name="peso" unicode="&#x20b1;" horiz-adv-x="1454" 
d="M1505 936h-180q-27 -135 -121 -229q-93 -93 -241.5 -142t-339.5 -49h-240l-137 -516h-107l250 936h-199l25 88h197l110 410h322q266 0 395 -129q98 -98 98 -256v-25h193zM408 610h219q341 0 497 156q74 74 97 172h-725zM602 1337l-84 -315h715v22q0 117 -74 191
q-102 102 -317 102h-240z" />
    <glyph glyph-name="published" unicode="&#x2117;" horiz-adv-x="1699" 
d="M764 1108h246q122 0 195 -54.5t73 -160.5q0 -128 -101.5 -200t-271.5 -72h-182l-70 -263h-90zM1186 891q0 68 -47.5 100.5t-128.5 32.5h-179l-86 -319h168q273 0 273 186zM981 1458q195 0 346 -86.5t231 -234.5t80 -332q0 -164 -63.5 -320t-179.5 -272
q-238 -238 -572 -238q-195 0 -346 86.5t-231 235t-80 332.5q0 164 64 320t180 272q237 237 571 237zM829 33q299 0 514 215q110 110 170 254t60 305q0 122 -40.5 229.5t-115 189t-189 128.5t-253.5 47q-299 0 -514 -215q-110 -110 -170 -254t-60 -305q0 -122 40.5 -229.5
t115 -189t189 -128.5t253.5 -47z" />
    <glyph glyph-name="servicemark" unicode="&#x2120;" horiz-adv-x="1449" 
d="M420 793q-79 0 -148.5 33t-109.5 89l53 43q85 -102 211 -102q69 0 114.5 34.5t45.5 86.5q0 36 -27.5 61t-101.5 54q-94 36 -135 73t-41 97q0 65 49 114q68 68 188 68q67 0 124.5 -27t94.5 -71l-51 -48q-76 82 -178 82q-68 0 -111 -33.5t-43 -76.5q0 -38 32.5 -63
t113.5 -56q81 -30 120 -69t39 -97q0 -72 -53 -125q-67 -67 -186 -67zM774 803l180 631h66l147 -375l344 375h84l-180 -631h-72l146 504l-342 -365h-10l-146 365l-145 -504h-72z" />
    <glyph glyph-name="trademark" unicode="&#x2122;" horiz-adv-x="1413" 
d="M315 803l160 561h-207l21 70h485l-20 -70h-207l-160 -561h-72zM737 803l181 631h65l147 -375l345 375h84l-181 -631h-71l145 504l-342 -365h-10l-146 365l-145 -504h-72z" />
    <glyph glyph-name="onethird" unicode="&#x2153;" horiz-adv-x="1689" 
d="M1139 -20q-98 0 -169 40.5t-106 110.5l64 37q33 -55 87 -86t120 -31q98 0 161.5 48.5t63.5 129.5q0 73 -52.5 109.5t-146.5 36.5h-35l-24 47l344 293h-408l23 76h512l-19 -66l-342 -289q97 -5 163.5 -55t66.5 -143q0 -110 -90 -184t-213 -74zM45 0l696 729l662 705h98
l-698 -729l-660 -705h-98zM309 643l191 717l-201 -70v76l238 82h67l-215 -805h-80z" />
    <glyph glyph-name="twothirds" unicode="&#x2154;" horiz-adv-x="1843" 
d="M1292 -20q-98 0 -168.5 40.5t-105.5 110.5l63 37q33 -55 87 -86t120 -31q98 0 161.5 48.5t63.5 129.5q0 73 -52 109.5t-146 36.5h-35l-25 47l344 293h-407l22 76h512l-18 -66l-342 -289q97 -5 163 -55t66 -143q0 -110 -90 -184t-213 -74zM195 0l696 729l661 705h99
l-699 -729l-659 -705h-98zM94 643l17 68l444 338q72 54 107.5 99.5t35.5 102.5q0 61 -43.5 96t-115.5 35q-114 0 -222 -112l-51 45q125 139 281 139q103 0 167 -54.5t64 -142.5q0 -68 -42 -127t-132 -126l-375 -285h443l-21 -76h-557z" />
    <glyph glyph-name="onefifth" unicode="&#x2155;" horiz-adv-x="1689" 
d="M1149 -20q-97 0 -165.5 39t-106.5 102l67 39q67 -111 209 -111q102 0 165.5 58t63.5 147q0 72 -49.5 110.5t-126.5 38.5q-91 0 -172 -47l-59 45l131 390h440l-22 -80h-373l-92 -271q27 14 71 24.5t80 10.5q116 0 184 -59t68 -160q0 -116 -85.5 -196t-227.5 -80zM55 0
l697 729l661 705h98l-698 -729l-659 -705h-99zM309 643l191 717l-201 -70v76l238 82h67l-215 -805h-80z" />
    <glyph glyph-name="twofifths" unicode="&#x2156;" horiz-adv-x="1843" 
d="M1303 -20q-97 0 -166 39t-107 102l68 39q68 -111 209 -111q102 0 165.5 58t63.5 147q0 72 -49.5 110.5t-126.5 38.5q-91 0 -172 -47l-60 45l132 390h440l-23 -80h-372l-93 -271q27 14 71.5 24.5t80.5 10.5q116 0 184 -59t68 -160q0 -116 -85.5 -196t-227.5 -80zM215 0
l696 729l662 705h98l-698 -729l-660 -705h-98zM94 643l17 68l444 338q72 54 107.5 99.5t35.5 102.5q0 61 -43.5 96t-115.5 35q-114 0 -222 -112l-51 45q125 139 281 139q103 0 167 -54.5t64 -142.5q0 -68 -42 -127t-132 -126l-375 -285h443l-21 -76h-557z" />
    <glyph glyph-name="threefifths" unicode="&#x2157;" horiz-adv-x="1843" 
d="M1303 -20q-97 0 -166 39t-107 102l68 39q68 -111 209 -111q102 0 165.5 58t63.5 147q0 72 -49.5 110.5t-126.5 38.5q-91 0 -172 -47l-60 45l132 390h440l-23 -80h-372l-93 -271q27 14 71.5 24.5t80.5 10.5q116 0 184 -59t68 -160q0 -116 -85.5 -196t-227.5 -80zM184 0
l697 729l661 705h98l-698 -729l-659 -705h-99zM399 623q-98 0 -168.5 40.5t-105.5 110.5l63 37q33 -55 87 -86t120 -31q98 0 162 49t64 129q0 73 -52.5 109.5t-146.5 36.5h-35l-25 47l345 293h-408l23 76h512l-19 -66l-342 -289q97 -5 163 -55t66 -143q0 -110 -90 -184
t-213 -74z" />
    <glyph glyph-name="fourfifths" unicode="&#x2158;" horiz-adv-x="1843" 
d="M489 639l50 186h-389l-7 72l537 549h100l-147 -551h112l-18 -70h-113l-49 -186h-76zM1303 -20q-97 0 -166 39t-107 102l68 39q68 -111 209 -111q102 0 165.5 58t63.5 147q0 72 -49.5 110.5t-126.5 38.5q-91 0 -172 -47l-60 45l132 390h440l-23 -80h-372l-93 -271
q27 14 71.5 24.5t80.5 10.5q116 0 184 -59t68 -160q0 -116 -85.5 -196t-227.5 -80zM215 0l696 729l662 705h98l-698 -729l-660 -705h-98zM238 895h319l121 448z" />
    <glyph glyph-name="onesixth" unicode="&#x2159;" horiz-adv-x="1689" 
d="M1130 -18q-112 0 -181.5 70t-69.5 210q0 124 47 242t127 198q109 109 243 109q145 0 234 -111l-55 -51q-75 90 -181 90q-104 0 -186 -82q-96 -96 -141 -268q27 42 85.5 78.5t133.5 36.5q98 0 163.5 -60.5t65.5 -164.5q0 -117 -85.5 -207t-199.5 -90zM72 0l696 729
l662 705h98l-699 -729l-659 -705h-98zM1133 49q85 0 143.5 66.5t58.5 154.5q0 74 -42.5 119t-116.5 45q-89 0 -152 -63q-61 -61 -61 -150q0 -76 46 -124t124 -48zM309 643l191 717l-201 -70v76l238 82h67l-215 -805h-80z" />
    <glyph glyph-name="fivesixths" unicode="&#x215a;" horiz-adv-x="1843" 
d="M1284 -18q-112 0 -182 70t-70 210q0 124 47 242t127 198q109 109 244 109q144 0 233 -111l-55 -51q-75 90 -180 90q-104 0 -186 -82q-97 -97 -142 -268q27 42 85.5 78.5t133.5 36.5q98 0 164 -60.5t66 -164.5q0 -117 -85.5 -207t-199.5 -90zM412 623q-97 0 -166 39
t-107 102l68 39q68 -111 209 -111q102 0 165.5 58t63.5 147q0 72 -49.5 111t-126.5 39q-89 0 -172 -48l-59 45l131 390h440l-23 -80h-372l-92 -271q27 14 71 24.5t80 10.5q116 0 184 -59t68 -160q0 -116 -85.5 -196t-227.5 -80zM195 0l696 729l661 705h99l-699 -729
l-659 -705h-98zM1286 49q85 0 144 66.5t59 154.5q0 74 -43 119t-117 45q-88 0 -151 -63q-62 -62 -62 -150q0 -76 46 -124t124 -48z" />
    <glyph glyph-name="oneeighth" unicode="&#x215b;" horiz-adv-x="1689" 
d="M1161 -20q-129 0 -210 61t-81 149q0 95 65 154.5t169 75.5q-48 22 -79.5 65.5t-31.5 102.5q0 96 82.5 159.5t202.5 63.5q114 0 188 -58t74 -149q0 -81 -56.5 -137t-140.5 -74q55 -20 92.5 -68.5t37.5 -113.5q0 -100 -89.5 -165.5t-222.5 -65.5zM1163 49q100 0 163 48
t63 120q0 67 -57 111.5t-150 44.5q-103 0 -167.5 -48.5t-64.5 -121.5q0 -65 60 -109.5t153 -44.5zM1253 438q97 0 152 45.5t55 112.5q0 64 -52.5 105.5t-129.5 41.5q-89 0 -146 -45t-57 -114q0 -65 50.5 -105.5t127.5 -40.5zM72 0l696 729l662 705h98l-699 -729l-659 -705
h-98zM309 643l191 717l-201 -70v76l238 82h67l-215 -805h-80z" />
    <glyph glyph-name="threeeighths" unicode="&#x215c;" horiz-adv-x="1843" 
d="M1315 -20q-129 0 -210 61t-81 149q0 95 64.5 154.5t168.5 75.5q-48 22 -79 65.5t-31 102.5q0 96 82.5 159.5t202.5 63.5q114 0 188 -58t74 -149q0 -81 -56.5 -137t-140.5 -74q55 -20 92 -68.5t37 -113.5q0 -101 -89 -166t-222 -65zM1317 49q100 0 162.5 48t62.5 120
q0 67 -57 111.5t-150 44.5q-103 0 -167 -48.5t-64 -121.5q0 -65 60 -109.5t153 -44.5zM1407 438q97 0 152 45.5t55 112.5q0 64 -52.5 105.5t-129.5 41.5q-89 0 -146 -45t-57 -114q0 -65 50.5 -105.5t127.5 -40.5zM195 0l696 729l661 705h99l-699 -729l-659 -705h-98z
M399 623q-98 0 -168.5 40.5t-105.5 110.5l63 37q33 -55 87 -86t120 -31q98 0 162 49t64 129q0 73 -52.5 109.5t-146.5 36.5h-35l-25 47l345 293h-408l23 76h512l-19 -66l-342 -289q97 -5 163 -55t66 -143q0 -110 -90 -184t-213 -74z" />
    <glyph glyph-name="fiveeighths" unicode="&#x215d;" horiz-adv-x="1843" 
d="M1315 -20q-129 0 -210 61t-81 149q0 95 64.5 154.5t168.5 75.5q-48 22 -79 65.5t-31 102.5q0 96 82.5 159.5t202.5 63.5q114 0 188 -58t74 -149q0 -81 -56.5 -137t-140.5 -74q55 -20 92 -68.5t37 -113.5q0 -101 -89 -166t-222 -65zM1317 49q100 0 162.5 48t62.5 120
q0 67 -57 111.5t-150 44.5q-103 0 -167 -48.5t-64 -121.5q0 -65 60 -109.5t153 -44.5zM1407 438q97 0 152 45.5t55 112.5q0 64 -52.5 105.5t-129.5 41.5q-89 0 -146 -45t-57 -114q0 -65 50.5 -105.5t127.5 -40.5zM195 0l696 729l661 705h99l-699 -729l-659 -705h-98z
M412 623q-97 0 -166 39t-107 102l68 39q68 -111 209 -111q102 0 165.5 58t63.5 147q0 72 -49.5 111t-126.5 39q-89 0 -172 -48l-59 45l131 390h440l-23 -80h-372l-92 -271q27 14 71 24.5t80 10.5q116 0 184 -59t68 -160q0 -116 -85.5 -196t-227.5 -80z" />
    <glyph glyph-name="seveneighths" unicode="&#x215e;" horiz-adv-x="1843" 
d="M1315 -20q-129 0 -210 61t-81 149q0 95 64.5 154.5t168.5 75.5q-48 22 -79 65.5t-31 102.5q0 96 82.5 159.5t202.5 63.5q114 0 188 -58t74 -149q0 -81 -56.5 -137t-140.5 -74q55 -20 92 -68.5t37 -113.5q0 -101 -89 -166t-222 -65zM1317 49q100 0 162.5 48t62.5 120
q0 67 -57 111.5t-150 44.5q-103 0 -167 -48.5t-64 -121.5q0 -65 60 -109.5t153 -44.5zM1407 438q97 0 152 45.5t55 112.5q0 64 -52.5 105.5t-129.5 41.5q-89 0 -146 -45t-57 -114q0 -65 50.5 -105.5t127.5 -40.5zM133 0l696 729l662 705h98l-698 -729l-660 -705h-98z
M231 639l533 715h-449l21 80h543l-15 -60l-536 -735h-97z" />
    <glyph glyph-name="minus" unicode="&#x2212;" horiz-adv-x="1269" 
d="M180 670l27 102h991l-27 -102h-991z" />
    <glyph glyph-name="Q.alt" horiz-adv-x="1732" 
d="M1022 1458q133 0 248.5 -48t196.5 -130t127 -196t46 -242q0 -174 -71 -338.5t-195 -288.5l-33 -33l154 -166l-78 -65l-147 174q-207 -152 -455 -152q-178 0 -320 82t-220 222.5t-78 312.5q0 175 70.5 339.5t193.5 287.5q113 113 258 177t303 64zM815 70q210 0 389 129
l-239 266l77 67l234 -274l18 18q111 111 173.5 260t62.5 306q0 223 -141.5 371.5t-366.5 148.5q-137 0 -259.5 -55t-219.5 -152q-111 -111 -173.5 -259.5t-62.5 -305.5q0 -223 141.5 -371.5t366.5 -148.5z" />
    <glyph glyph-name="a.alt" horiz-adv-x="1339" 
d="M530 -27q-182 0 -300.5 124t-118.5 317q0 143 52 268t144 217q81 81 182.5 125.5t210.5 44.5q162 0 266.5 -83.5t149.5 -209.5l72 268h100l-278 -1044h-101l56 203q-191 -230 -435 -230zM543 68q94 0 185.5 42t166.5 117q78 78 124 178.5t46 204.5q0 154 -101 259.5
t-259 105.5q-187 0 -322 -135q-78 -78 -121 -186.5t-43 -227.5q0 -160 90.5 -259t233.5 -99z" />
    <glyph glyph-name="aacute.alt" horiz-adv-x="1339" 
d="M530 -27q-182 0 -300.5 124t-118.5 317q0 143 52 268t144 217q81 81 182.5 125.5t210.5 44.5q162 0 266.5 -83.5t149.5 -209.5l72 268h100l-278 -1044h-101l56 203q-191 -230 -435 -230zM543 68q94 0 185.5 42t166.5 117q78 78 124 178.5t46 204.5q0 154 -101 259.5
t-259 105.5q-187 0 -322 -135q-78 -78 -121 -186.5t-43 -227.5q0 -160 90.5 -259t233.5 -99zM760 1219l254 272l127 -61l-277 -211h-104z" />
    <glyph glyph-name="abreve.alt" horiz-adv-x="1339" 
d="M530 -27q-182 0 -300.5 124t-118.5 317q0 143 52 268t144 217q81 81 182.5 125.5t210.5 44.5q162 0 266.5 -83.5t149.5 -209.5l72 268h100l-278 -1044h-101l56 203q-191 -230 -435 -230zM543 68q94 0 185.5 42t166.5 117q78 78 124 178.5t46 204.5q0 154 -101 259.5
t-259 105.5q-187 0 -322 -135q-78 -78 -121 -186.5t-43 -227.5q0 -160 90.5 -259t233.5 -99zM825 1214q-118 0 -176.5 62t-36.5 168h78q-2 -65 34 -98t120 -33q147 0 225 131h88q-36 -106 -126.5 -168t-205.5 -62z" />
    <glyph glyph-name="acircumflex.alt" horiz-adv-x="1339" 
d="M530 -27q-182 0 -300.5 124t-118.5 317q0 143 52 268t144 217q81 81 182.5 125.5t210.5 44.5q162 0 266.5 -83.5t149.5 -209.5l72 268h100l-278 -1044h-101l56 203q-191 -230 -435 -230zM543 68q94 0 185.5 42t166.5 117q78 78 124 178.5t46 204.5q0 154 -101 259.5
t-259 105.5q-187 0 -322 -135q-78 -78 -121 -186.5t-43 -227.5q0 -160 90.5 -259t233.5 -99zM565 1219l273 249h82l137 -249h-90l-107 139l-196 -139h-99z" />
    <glyph glyph-name="adieresis.alt" horiz-adv-x="1339" 
d="M530 -27q-182 0 -300.5 124t-118.5 317q0 143 52 268t144 217q81 81 182.5 125.5t210.5 44.5q162 0 266.5 -83.5t149.5 -209.5l72 268h100l-278 -1044h-101l56 203q-191 -230 -435 -230zM543 68q94 0 185.5 42t166.5 117q78 78 124 178.5t46 204.5q0 154 -101 259.5
t-259 105.5q-187 0 -322 -135q-78 -78 -121 -186.5t-43 -227.5q0 -160 90.5 -259t233.5 -99zM582 1219l45 163h141l-45 -163h-141zM915 1219l46 163h141l-45 -163h-142z" />
    <glyph glyph-name="agrave.alt" horiz-adv-x="1339" 
d="M530 -27q-182 0 -300.5 124t-118.5 317q0 143 52 268t144 217q81 81 182.5 125.5t210.5 44.5q162 0 266.5 -83.5t149.5 -209.5l72 268h100l-278 -1044h-101l56 203q-191 -230 -435 -230zM543 68q94 0 185.5 42t166.5 117q78 78 124 178.5t46 204.5q0 154 -101 259.5
t-259 105.5q-187 0 -322 -135q-78 -78 -121 -186.5t-43 -227.5q0 -160 90.5 -259t233.5 -99zM762 1219l-162 211l127 61l107 -272h-72z" />
    <glyph glyph-name="amacron.alt" horiz-adv-x="1339" 
d="M530 -27q-182 0 -300.5 124t-118.5 317q0 143 52 268t144 217q81 81 182.5 125.5t210.5 44.5q162 0 266.5 -83.5t149.5 -209.5l72 268h100l-278 -1044h-101l56 203q-191 -230 -435 -230zM543 68q94 0 185.5 42t166.5 117q78 78 124 178.5t46 204.5q0 154 -101 259.5
t-259 105.5q-187 0 -322 -135q-78 -78 -121 -186.5t-43 -227.5q0 -160 90.5 -259t233.5 -99zM524 1272l27 96h623l-27 -96h-623z" />
    <glyph glyph-name="aogonek.alt" horiz-adv-x="1339" 
d="M973 -262l-19 -74q-113 8 -167 41t-54 94q0 59 46 110.5t134 108.5l52 185q-191 -230 -435 -230q-182 0 -300.5 124t-118.5 317q0 143 52 268t144 217q81 81 182.5 125.5t210.5 44.5q162 0 266.5 -83.5t149.5 -209.5l72 268h100l-278 -1044h-9q-163 -106 -163 -184
q0 -33 31 -51t104 -27zM543 68q94 0 185.5 42t166.5 117q78 78 124 178.5t46 204.5q0 154 -101 259.5t-259 105.5q-187 0 -322 -135q-78 -78 -121 -186.5t-43 -227.5q0 -160 90.5 -259t233.5 -99z" />
    <glyph glyph-name="aring.alt" horiz-adv-x="1339" 
d="M530 -27q-182 0 -300.5 124t-118.5 317q0 143 52 268t144 217q81 81 182.5 125.5t210.5 44.5q162 0 266.5 -83.5t149.5 -209.5l72 268h100l-278 -1044h-101l56 203q-191 -230 -435 -230zM543 68q94 0 185.5 42t166.5 117q78 78 124 178.5t46 204.5q0 154 -101 259.5
t-259 105.5q-187 0 -322 -135q-78 -78 -121 -186.5t-43 -227.5q0 -160 90.5 -259t233.5 -99zM1098 1436q0 -90 -73.5 -156t-168.5 -66q-90 0 -147.5 54.5t-57.5 134.5q0 90 73.5 155.5t168.5 65.5q90 0 147.5 -54t57.5 -134zM725 1405q0 -54 36 -89.5t97 -35.5
q67 0 116.5 45t49.5 109q0 54 -36 89.5t-97 35.5q-67 0 -116.5 -45t-49.5 -109z" />
    <glyph glyph-name="aring.alt2" horiz-adv-x="1169" 
d="M762 0l47 180q-172 -205 -420 -205q-90 0 -166 31.5t-126 100t-50 161.5q0 148 100 248q131 131 371 131q190 0 402 -59l8 28q14 54 14 105q0 119 -81 182.5t-234 63.5q-143 0 -303 -56l-19 90q137 49 254 56q-49 52 -49 125q0 90 73.5 155.5t168.5 65.5q90 0 147 -54
t57 -135q0 -59 -33.5 -108.5t-88.5 -77.5q100 -37 153 -112t53 -181q0 -59 -20 -137l-160 -598h-98zM717 1059q67 0 116.5 44.5t49.5 108.5q0 54 -36 89.5t-97 35.5q-67 0 -116.5 -44.5t-49.5 -108.5q0 -54 36 -89.5t97 -35.5zM408 68q153 0 288.5 97t177.5 251l25 92
q-192 49 -395 49q-179 0 -277 -98q-73 -73 -73 -178q0 -97 68.5 -155t185.5 -58z" />
    <glyph glyph-name="aringacute.alt" horiz-adv-x="1339" 
d="M891 1679l248 242l112 -61l-262 -181h-98zM530 -27q-182 0 -300.5 124t-118.5 317q0 143 52 268t144 217q81 81 182.5 125.5t210.5 44.5q162 0 266.5 -83.5t149.5 -209.5l72 268h100l-278 -1044h-101l56 203q-191 -230 -435 -230zM543 68q94 0 185.5 42t166.5 117
q78 78 124 178.5t46 204.5q0 154 -101 259.5t-259 105.5q-187 0 -322 -135q-78 -78 -121 -186.5t-43 -227.5q0 -160 90.5 -259t233.5 -99zM1098 1436q0 -90 -73.5 -156t-168.5 -66q-90 0 -147.5 54.5t-57.5 134.5q0 90 73.5 155.5t168.5 65.5q90 0 147.5 -54t57.5 -134z
M725 1405q0 -54 36 -89.5t97 -35.5q67 0 116.5 45t49.5 109q0 54 -36 89.5t-97 35.5q-67 0 -116.5 -45t-49.5 -109z" />
    <glyph glyph-name="aringacute.alt2" horiz-adv-x="1169" 
d="M760 1483l248 241l112 -61l-262 -180h-98zM762 0l47 180q-172 -205 -420 -205q-90 0 -166 31.5t-126 100t-50 161.5q0 148 100 248q131 131 371 131q190 0 402 -59l8 28q14 54 14 105q0 119 -81 182.5t-234 63.5q-143 0 -303 -56l-19 90q137 49 254 56q-49 52 -49 125
q0 90 73.5 155.5t168.5 65.5q90 0 147 -54t57 -135q0 -59 -33.5 -108.5t-88.5 -77.5q100 -37 153 -112t53 -181q0 -59 -20 -137l-160 -598h-98zM717 1059q67 0 116.5 44.5t49.5 108.5q0 54 -36 89.5t-97 35.5q-67 0 -116.5 -44.5t-49.5 -108.5q0 -54 36 -89.5t97 -35.5z
M408 68q153 0 288.5 97t177.5 251l25 92q-192 49 -395 49q-179 0 -277 -98q-73 -73 -73 -178q0 -97 68.5 -155t185.5 -58z" />
    <glyph glyph-name="atilde.alt" horiz-adv-x="1339" 
d="M530 -27q-182 0 -300.5 124t-118.5 317q0 143 52 268t144 217q81 81 182.5 125.5t210.5 44.5q162 0 266.5 -83.5t149.5 -209.5l72 268h100l-278 -1044h-101l56 203q-191 -230 -435 -230zM543 68q94 0 185.5 42t166.5 117q78 78 124 178.5t46 204.5q0 154 -101 259.5
t-259 105.5q-187 0 -322 -135q-78 -78 -121 -186.5t-43 -227.5q0 -160 90.5 -259t233.5 -99zM1094 1427l71 -18q-48 -108 -93.5 -149t-108.5 -41q-41 0 -129 43q-84 41 -117 41q-37 0 -63 -22t-58 -81l-72 19q48 107 94 148.5t109 41.5q41 0 129 -43q84 -41 117 -41
q37 0 63 22t58 80z" />
    <glyph glyph-name="three.alt" 
d="M532 -25q-178 0 -312 70t-206 188l92 56q142 -217 433 -217q181 0 297 91t116 224q0 98 -61 164.5t-157.5 95.5t-223.5 29h-61l24 94h82q253 0 398 86.5t145 237.5q0 121 -94 192.5t-242 71.5q-117 0 -210 -36t-179 -105l-66 71q205 166 455 166q122 0 222.5 -40.5
t163 -122t62.5 -191.5q0 -157 -114.5 -254.5t-317.5 -130.5q127 -37 207 -118t80 -206q0 -116 -71 -211.5t-193 -150t-269 -54.5z" />
    <glyph glyph-name="registered.alt" horiz-adv-x="1699" 
d="M981 1458q195 0 346 -86.5t231 -234.5t80 -332q0 -164 -63.5 -320t-179.5 -272q-238 -238 -572 -238q-195 0 -346 86.5t-231 235t-80 332.5q0 164 64 320t180 272q237 237 571 237zM829 33q299 0 514 215q110 110 170 254t60 305q0 122 -40.5 229.5t-115 189t-189 128.5
t-253.5 47q-299 0 -514 -215q-110 -110 -170 -254t-60 -305q0 -122 40.5 -229.5t115 -189t189 -128.5t253.5 -47zM692 664l-82 -302h-88l201 750h299q138 0 203 -65q51 -51 51 -129q0 -90 -68 -158q-66 -66 -194 -88l162 -310h-107l-156 302h-221zM713 745h213q153 0 217 64
q41 41 41 102q0 47 -27 74q-43 43 -156 43h-213z" />
    <glyph glyph-name="R_p" horiz-adv-x="2416" 
d="M33 0l385 1434h401q198 0 322.5 -94.5t124.5 -276.5q0 -97 -39.5 -180t-107 -141t-152 -96t-179.5 -54l254 -592h-114l-246 582h-393l-156 -582h-100zM1169 -328l371 1381h98l-53 -197q190 219 385 219q167 0 262 -116.5t95 -313.5q0 -151 -55 -285t-150 -229
q-156 -156 -342 -156q-250 0 -353 291l-159 -594h-99zM313 672h330q84 0 159.5 14t142 44.5t114.5 76t76 112t28 148.5q0 132 -89 202t-251 70h-331zM1778 63q145 0 262 117q82 82 130 203t48 250q0 165 -70.5 259.5t-201.5 94.5q-72 0 -146 -36t-137 -99
q-82 -82 -132 -193.5t-50 -226.5q0 -155 82 -262t215 -107z" />
    <glyph glyph-name="onehalf.alt" horiz-adv-x="1843" 
d="M987 0l17 68l444 338q72 54 107.5 99.5t35.5 102.5q0 61 -43.5 96t-115.5 35q-114 0 -222 -112l-51 45q125 139 281 139q103 0 167 -54.5t64 -142.5q0 -68 -42 -127.5t-132 -126.5l-375 -284h443l-21 -76h-557zM236 0l696 729l661 705h99l-699 -729l-659 -705h-98z
M147 643l19 70h227l172 647l-233 -76l2 76l268 88h68l-197 -735h227l-18 -70h-535z" />
    <glyph glyph-name="onethird.alt" horiz-adv-x="1843" 
d="M1292 -20q-98 0 -168.5 40.5t-105.5 110.5l63 37q33 -55 87 -86t120 -31q98 0 161.5 48.5t63.5 129.5q0 73 -52 109.5t-146 36.5h-35l-25 47l344 293h-407l22 76h512l-18 -66l-342 -289q97 -5 163 -55t66 -143q0 -110 -90 -184t-213 -74zM215 0l696 729l662 705h98
l-698 -729l-660 -705h-98zM147 643l19 70h227l172 647l-233 -76l2 76l268 88h68l-197 -735h227l-18 -70h-535z" />
    <glyph glyph-name="onequarter.alt" horiz-adv-x="1843" 
d="M1360 -4l49 186h-389l-6 72l536 549h101l-148 -551h113l-19 -70h-112l-49 -186h-76zM246 0l696 729l662 705h98l-698 -729l-660 -705h-98zM147 643l19 70h227l172 647l-233 -76l2 76l268 88h68l-197 -735h227l-18 -70h-535zM1108 252h319l121 448z" />
    <glyph glyph-name="onefifth.alt" horiz-adv-x="1843" 
d="M1303 -20q-97 0 -166 39t-107 102l68 39q68 -111 209 -111q102 0 165.5 58t63.5 147q0 72 -49.5 110.5t-126.5 38.5q-91 0 -172 -47l-60 45l132 390h440l-23 -80h-372l-93 -271q27 14 71.5 24.5t80.5 10.5q116 0 184 -59t68 -160q0 -116 -85.5 -196t-227.5 -80zM225 0
l697 729l661 705h98l-698 -729l-659 -705h-99zM147 643l19 70h227l172 647l-233 -76l2 76l268 88h68l-197 -735h227l-18 -70h-535z" />
    <glyph glyph-name="onesixth.alt" horiz-adv-x="1843" 
d="M1284 -18q-112 0 -182 70t-70 210q0 124 47 242t127 198q109 109 244 109q144 0 233 -111l-55 -51q-75 90 -180 90q-104 0 -186 -82q-97 -97 -142 -268q27 42 85.5 78.5t133.5 36.5q98 0 164 -60.5t66 -164.5q0 -117 -85.5 -207t-199.5 -90zM225 0l697 729l661 705h98
l-698 -729l-659 -705h-99zM147 643l19 70h227l172 647l-233 -76l2 76l268 88h68l-197 -735h227l-18 -70h-535zM1286 49q85 0 144 66.5t59 154.5q0 74 -43 119t-117 45q-88 0 -151 -63q-62 -62 -62 -150q0 -76 46 -124t124 -48z" />
    <glyph glyph-name="oneeighth.alt" horiz-adv-x="1843" 
d="M1315 -20q-129 0 -210 61t-81 149q0 95 64.5 154.5t168.5 75.5q-48 22 -79 65.5t-31 102.5q0 96 82.5 159.5t202.5 63.5q114 0 188 -58t74 -149q0 -81 -56.5 -137t-140.5 -74q55 -20 92 -68.5t37 -113.5q0 -101 -89 -166t-222 -65zM1317 49q100 0 162.5 48t62.5 120
q0 67 -57 111.5t-150 44.5q-103 0 -167 -48.5t-64 -121.5q0 -65 60 -109.5t153 -44.5zM1407 438q97 0 152 45.5t55 112.5q0 64 -52.5 105.5t-129.5 41.5q-89 0 -146 -45t-57 -114q0 -65 50.5 -105.5t127.5 -40.5zM225 0l697 729l661 705h98l-698 -729l-659 -705h-99z
M147 643l19 70h227l172 647l-233 -76l2 76l268 88h68l-197 -735h227l-18 -70h-535z" />
    <glyph glyph-name="one.sup_alt" horiz-adv-x="819" 
d="M270 872l19 70h227l172 647l-233 -76l2 76l268 88h68l-197 -735h227l-18 -70h-535z" />
    <glyph glyph-name="one.inf_alt" horiz-adv-x="819" 
d="M-37 -270l19 69h227l172 647l-234 -75l3 75l268 89h67l-196 -736h227l-18 -69h-535z" />
    <glyph glyph-name="zero.tab" 
d="M1153 969q0 -227 -85 -452t-230 -370q-172 -172 -377 -172q-181 0 -283 130t-102 360q0 227 85 451.5t230 369.5q172 172 377 172q181 0 283 -129.5t102 -359.5zM182 467q0 -194 73 -295.5t214 -101.5q156 0 289 133q131 131 210 343.5t79 420.5q0 194 -73 295.5
t-214 101.5q-156 0 -289 -133q-131 -131 -210 -343.5t-79 -420.5z" />
    <glyph glyph-name="one.tab" 
d="M0 0l25 98h444l326 1219l-430 -135l-5 100l492 162h82l-361 -1346h406l-27 -98h-952z" />
    <glyph glyph-name="two.tab" 
d="M-82 0l19 80l839 665q132 105 192 187.5t60 177.5q0 109 -83 178.5t-226 69.5q-223 0 -428 -223l-74 65q237 254 508 254q183 0 298.5 -95t115.5 -247q0 -119 -72.5 -217t-224.5 -219l-725 -574h827l-26 -102h-1000z" />
    <glyph glyph-name="three.tab" 
d="M471 -25q-176 0 -302.5 73t-188.5 200l88 49q123 -225 407 -225q183 0 305.5 101.5t122.5 258.5q0 132 -110 199t-291 67h-47l-35 64l653 571h-780l29 101h921l-24 -93l-639 -557q114 0 211.5 -38.5t161 -118.5t63.5 -187q0 -132 -75.5 -240t-200 -166.5t-269.5 -58.5z
" />
    <glyph glyph-name="three.tab_alt" 
d="M473 -25q-178 0 -312 70t-206 188l92 56q142 -217 432 -217q182 0 298 91t116 224q0 98 -61 164.5t-157.5 95.5t-223.5 29h-62l25 94h82q253 0 397.5 86.5t144.5 237.5q0 121 -94 192.5t-242 71.5q-117 0 -210 -36t-179 -105l-65 71q205 166 454 166q122 0 222.5 -40
t163.5 -122t63 -192q0 -157 -114.5 -254.5t-317.5 -130.5q127 -37 207 -118t80 -206q0 -116 -71 -211.5t-193 -150t-269 -54.5z" />
    <glyph glyph-name="four.tab" 
d="M651 0l92 346h-733l-6 94l1000 1002h133l-271 -1006h213l-24 -90h-213l-92 -346h-99zM129 436h639l238 885z" />
    <glyph glyph-name="five.tab" 
d="M489 -25q-174 0 -296.5 69.5t-192.5 184.5l90 52q133 -213 408 -213q202 0 324 117.5t122 285.5q0 145 -94.5 223t-249.5 78q-167 0 -328 -88l-65 51l237 699h775l-29 -103h-682l-182 -526q45 26 127.5 44.5t146.5 18.5q208 0 331.5 -106t123.5 -289q0 -101 -40 -191
t-111.5 -158.5t-179 -108.5t-235.5 -40z" />
    <glyph glyph-name="six.tab" 
d="M541 -25q-79 0 -163 31t-147 94q-137 137 -137 392q0 214 84 420.5t225 347.5q198 198 431 198q244 0 395 -178l-72 -70q-139 152 -326 152q-188 0 -350 -162q-105 -105 -176.5 -253t-87.5 -279q64 101 180 168t262 67q186 0 300 -110t114 -285q0 -102 -42 -199.5
t-112.5 -171t-169.5 -118t-208 -44.5zM549 68q113 0 210 61t152.5 161t55.5 212q0 138 -81 222.5t-243 84.5q-182 0 -311 -129q-117 -117 -117 -268q0 -160 98.5 -252t235.5 -92z" />
    <glyph glyph-name="seven.tab" 
d="M170 0l940 1331h-838l29 103h963l-23 -78l-948 -1356h-123z" />
    <glyph glyph-name="eight.tab" 
d="M514 -20q-222 0 -361 106t-139 266q0 162 118.5 270.5t297.5 137.5q-84 35 -140.5 110.5t-56.5 178.5q0 112 66 205.5t178 146.5t244 53q197 0 326 -100t129 -260q0 -144 -102.5 -247t-248.5 -132q95 -39 163.5 -121.5t68.5 -196.5q0 -118 -72 -214t-196.5 -149.5
t-274.5 -53.5zM520 72q188 0 307 95t119 239q0 118 -109 201t-284 83q-190 0 -309 -98.5t-119 -229.5q0 -132 108 -211t287 -79zM678 778q92 0 167 27t122 72t72.5 100.5t25.5 114.5q0 118 -96.5 194t-243.5 76q-168 0 -274.5 -90t-106.5 -221q0 -119 94 -196t240 -77z" />
    <glyph glyph-name="nine.tab" 
d="M391 -25q-245 0 -407 191l71 70q149 -164 338 -164q188 0 352 164q104 104 174.5 249t88.5 273q-65 -105 -181 -174.5t-262 -69.5q-186 0 -299.5 112t-113.5 292q0 98 41 195.5t110.5 173.5t170 123.5t210.5 47.5q79 0 162.5 -31t146.5 -94q137 -137 137 -391
q0 -214 -84 -420.5t-225 -347.5q-199 -199 -430 -199zM584 608q180 0 305 125q121 121 121 281q0 84 -28 152t-75.5 111t-106.5 66t-124 23q-112 0 -209.5 -63t-153 -165t-55.5 -214q0 -142 82 -229t244 -87z" />
    <glyph glyph-name="period.tab" horiz-adv-x="614" 
d="M33 0l53 195h168l-53 -195h-168z" />
    <glyph glyph-name="comma.tab" horiz-adv-x="614" 
d="M-47 -217l-14 49q142 50 163 168h-71l53 195h168l-47 -172q-28 -103 -87 -156t-165 -84z" />
    <glyph glyph-name="colon.tab" horiz-adv-x="614" 
d="M33 0l53 195h168l-53 -195h-168zM260 850l53 194h168l-53 -194h-168z" />
    <glyph glyph-name="semicolon.tab" horiz-adv-x="614" 
d="M-47 -217l-14 49q142 50 163 168h-71l53 195h168l-47 -172q-28 -103 -87 -156t-165 -84zM260 850l53 194h168l-53 -194h-168z" />
    <glyph glyph-name="twodotleader.tab" 
d="M35 0l49 182h160l-49 -182h-160zM649 0l49 182h160l-49 -182h-160z" />
    <glyph glyph-name="periodcentered.tab" horiz-adv-x="614" 
d="M168 512l53 195h168l-53 -195h-168z" />
    <glyph glyph-name="slash.tab" 
d="M-242 -262l1555 1896h112l-1554 -1896h-113z" />
    <glyph glyph-name="bar.tab" horiz-adv-x="614" 
d="M0 -262l510 1896h90l-510 -1896h-90z" />
    <glyph glyph-name="underscore.tab" 
d="M-283 -328l25 90h1235l-25 -90h-1235z" />
    <glyph glyph-name="dollar.tab" 
d="M807 1552h100l-37 -135q180 -34 334 -170l-61 -78q-125 122 -307 160l-152 -567q178 -64 257 -148.5t79 -207.5q0 -176 -143.5 -291t-370.5 -115h-27l-53 -201h-100l57 209q-260 35 -434 221l67 70q63 -72 162.5 -128.5t237.5 -74.5l159 600q-194 69 -275 150t-81 205
q0 164 135 273.5t338 109.5q28 0 82 -4zM324 1063q0 -88 61.5 -149.5t216.5 -120.5l148 548q-20 2 -66 2q-156 0 -258 -80.5t-102 -199.5zM915 395q0 84 -55.5 148.5t-202.5 122.5l-153 -576h22q160 0 274.5 84.5t114.5 220.5z" />
    <glyph glyph-name="sterling.tab" 
d="M-57 0l14 49l174 41l145 545h-167l26 92h168l68 264q55 218 157 320q69 69 147.5 103t180.5 34q204 0 336 -197l-82 -61q-58 80 -119.5 121t-144.5 41q-137 0 -238 -101q-88 -88 -135 -268l-67 -256h567l-27 -92h-567l-143 -541h716l-26 -94h-983z" />
    <glyph glyph-name="Euro.tab" 
d="M121 852l24 88h154q83 208 217 342q176 176 381 176q125 0 211 -63t131 -172l-84 -45q-88 190 -272 190q-150 0 -289 -139q-117 -117 -186 -289h516l-25 -88h-524q-39 -126 -51 -256h507l-24 -88h-488v-29q0 -202 87 -307.5t237 -105.5q162 0 297 141l64 -68
q-167 -164 -369 -164q-189 0 -304.5 132.5t-115.5 384.5v16h-186l24 88h166q12 136 49 256h-147z" />
    <glyph glyph-name="yen.tab" 
d="M141 553l23 86h344l-285 795h121l258 -760l670 760h139l-719 -795h328l-23 -86h-376l-60 -225h377l-25 -86h-374l-66 -242h-102l63 242h-377l25 86h375l59 225h-375z" />
    <glyph glyph-name="cent.tab" 
d="M965 1446l-76 -193q203 -49 285 -231l-82 -47q-85 154 -240 194l-356 -895q38 -6 75 -6q208 0 379 154l66 -66q-94 -86 -201.5 -132t-249.5 -46q-56 0 -100 8l-82 -198h-102l92 225q-125 50 -199 159t-74 249q0 132 50.5 252t142.5 212q88 88 202 137.5t242 49.5
q9 0 28 -1t28 -1l69 176h103zM207 623q0 -115 55 -200.5t150 -125.5l352 883q-10 2 -33 2q-101 0 -194.5 -41t-161.5 -109q-79 -79 -123.5 -185.5t-44.5 -223.5z" />
    <glyph glyph-name="numbersign.tab" 
d="M143 0l121 385h-207l25 92h213l154 488h-230l25 92h233l121 377h90l-121 -377h396l120 377h91l-121 -377h209l-25 -92h-213l-154 -488h230l-25 -92h-235l-121 -385h-90l121 385h-396l-121 -385h-90zM385 477h395l154 488h-395z" />
    <glyph glyph-name="paragraph.tab" 
d="M680 0l143 539h-102q-285 0 -412 127q-94 94 -94 247q0 197 135 332q91 91 236.5 140t331.5 49h256l-386 -1434h-108z" />
    <glyph glyph-name="section.tab" 
d="M510 -20q-126 0 -237.5 45.5t-180.5 111.5l68 72q52 -54 151 -95.5t211 -41.5q101 0 168.5 44t67.5 115q0 63 -62 110t-207 101q-193 71 -278.5 137t-85.5 162q0 118 109 190.5t276 72.5q-66 31 -109 81t-43 115q0 116 101.5 185t251.5 69q126 0 241 -48t181 -114
l-68 -71q-55 57 -154.5 99t-212.5 42q-101 0 -168 -44.5t-67 -115.5q0 -63 62 -110t206 -101q194 -71 279.5 -137.5t85.5 -161.5q0 -118 -109 -190t-276 -72q66 -30 108.5 -81t42.5 -116q0 -116 -101 -184.5t-251 -68.5zM711 502q121 0 201.5 53.5t80.5 128.5
q0 60 -58.5 107t-197.5 98q-119 43 -227 43q-121 0 -202 -53.5t-81 -128.5q0 -60 58.5 -107t197.5 -98q116 -43 228 -43z" />
    <glyph glyph-name="degree.tab" 
d="M756 1448q149 0 247.5 -97t98.5 -251q0 -92 -37 -176.5t-102 -149.5q-62 -62 -143.5 -97.5t-166.5 -35.5q-149 0 -247.5 97t-98.5 251q0 92 37 176.5t102 149.5q62 62 143.5 97.5t166.5 35.5zM659 727q138 0 240 102q113 113 113 273q0 115 -74.5 187.5t-187.5 72.5
q-138 0 -240 -102q-113 -113 -113 -273q0 -115 74.5 -187.5t187.5 -72.5z" />
    <glyph glyph-name="percent.tab" 
d="M449 1450q92 0 144 -68t52 -178q0 -101 -40.5 -199.5t-104.5 -162.5q-84 -84 -181 -84q-92 0 -144 68t-52 178q0 101 40.5 199.5t104.5 162.5q84 84 181 84zM782 -16q-92 0 -144 67.5t-52 177.5q0 102 41 201t104 162q84 84 180 84q92 0 144.5 -68t52.5 -178
q0 -101 -40.5 -199.5t-104.5 -162.5q-84 -84 -181 -84zM791 59q56 0 112 56q52 52 85.5 142.5t33.5 174.5q0 79 -29.5 123.5t-89.5 44.5q-57 0 -112 -55q-52 -52 -85.5 -143t-33.5 -175q0 -79 29.5 -123.5t89.5 -44.5zM440 1374q-57 0 -112 -55q-52 -52 -85.5 -143
t-33.5 -175q0 -79 29.5 -123t89.5 -44q57 0 112 55q52 52 85.5 142.5t33.5 174.5q0 79 -29.5 123.5t-89.5 44.5zM1122 1434h99l-576 -742l-536 -692h-99l574 739z" />
    <glyph glyph-name="quotedbl.tab" 
d="M348 913l254 521h129l-2 -11l-321 -510h-60zM778 913l254 521h129l-2 -11l-321 -510h-60z" />
    <glyph glyph-name="quotesingle.tab" horiz-adv-x="614" 
d="M256 913l254 521h129l-2 -11l-322 -510h-59z" />
    <glyph glyph-name="plus.tab" 
d="M432 231l119 441h-424l27 98h424l118 440h103l-119 -440h424l-27 -98h-424l-118 -441h-103z" />
    <glyph glyph-name="minus.tab" 
d="M127 670l27 102h950l-27 -102h-950z" />
    <glyph glyph-name="divide.tab" 
d="M403 236l50 182h163l-49 -182h-164zM127 672l27 98h950l-27 -98h-950zM614 1024l50 182h163l-49 -182h-164z" />
    <glyph glyph-name="equal.tab" 
d="M100 444l29 101h881l-29 -101h-881zM225 897l27 100h881l-27 -100h-881z" />
    <glyph glyph-name="multiply.tab" 
d="M137 279l-55 75l475 375l-274 369l84 63l270 -373l473 377l55 -78l-475 -372l275 -369l-84 -63l-271 372z" />
    <glyph glyph-name="less.tab" 
d="M901 199l-774 483l23 78l1021 483l-28 -115l-893 -415l678 -420z" />
    <glyph glyph-name="greater.tab" 
d="M330 1243l774 -483l-23 -78l-1022 -483l29 114l893 416l-678 420z" />
    <glyph glyph-name="plusminus.tab" 
d="M455 317l112 416h-424l27 98h424l111 416h102l-111 -416h424l-26 -98h-424l-113 -416h-102zM-51 0l26 98h949l-27 -98h-948z" />
    <glyph glyph-name="space.tab" horiz-adv-x="614" 
 />
    <glyph glyph-name="NUL" horiz-adv-x="0" 
 />
    <glyph glyph-name="hfjslug" horiz-adv-x="1421" 
d="M522 565h17l22 70h2l23 -70h16l29 97h-17l-20 -72h-2l-23 72h-14l-23 -72h-2l-20 72h-16zM657 795q41 0 60 49h2l24 -49l25 12l-35 65q16 40 27 80l-27 6q-9 -39 -16 -61h-2l-33 64q47 44 47 86q0 28 -14 45.5t-41 17.5q-26 0 -42 -18t-16 -45q0 -9 1 -16.5t4.5 -16.5
t6 -13.5t9 -16.5t8.5 -17q-47 -38 -47 -97q0 -34 16.5 -54.5t42.5 -20.5zM102 -410v621q28 0 47 18.5t19 46.5q0 27 -19.5 46.5t-46.5 19.5v1135h205l62 161h684l59 -161h207v-1887h-426l-16 29h-334l-17 -29h-424zM1071 567h16v25l17 16l31 -41h20l-41 54l37 41h-21
l-40 -50h-3v50h-16v-95zM395 567h70v15h-53v26h47v15h-47v24h53v15h-70v-95zM377 801h31v162h96v-162h31v352h-31v-162h-96v162h-31v-352zM270 567h17v66l51 -66h14v95h-16v-66l-51 66h-15v-95zM819 801h31v160h78v28h-78v135h88v29h-119v-352zM958 567h17v31h24l21 -31h18
l-24 35q20 8 20 29q0 13 -10 22t-25 9h-41v-95zM750 567h16v35l37 60h-19l-26 -46l-27 46h-18l37 -60v-35zM985 799q64 0 64 73v281h-33v-281q0 -45 -33 -45q-13 0 -41 11v-31q20 -8 43 -8zM975 612v35h22q21 0 21 -16q0 -8 -6 -13.5t-15 -5.5h-22zM659 823q-14 0 -23 14
t-9 37q0 40 32 72l41 -80q-16 -43 -41 -43zM670 981q-25 48 -25 66q0 17 8.5 27.5t20.5 10.5q26 0 26 -38q0 -31 -30 -66zM872 580q-14 0 -23 10t-9 24q0 13 9 24t23 11t23.5 -11t9.5 -24q0 -14 -9 -24t-24 -10zM872 565q22 0 36 14.5t14 34.5q0 19 -14.5 34.5t-35.5 15.5
t-35 -15t-14 -35q0 -21 14 -35t35 -14z" />
    <glyph glyph-name="i.dot" horiz-adv-x="512" 
d="M66 0l280 1044h100l-280 -1044h-100zM408 1317l36 137h125l-37 -137h-124z" />
    <glyph glyph-name="zero.num" horiz-adv-x="819" 
d="M809 1200q0 -120 -51.5 -254.5t-139.5 -222.5q-100 -100 -217 -100q-100 0 -158.5 69.5t-58.5 184.5q0 120 51.5 254.5t139.5 222.5q100 100 217 100q100 0 158.5 -69.5t58.5 -184.5zM266 883q0 -89 36 -139t108 -50q79 0 149 70q74 74 121 201t47 229q0 89 -35.5 138.5
t-107.5 49.5q-81 0 -150 -69q-74 -74 -121 -201t-47 -229z" />
    <glyph glyph-name="one.num" horiz-adv-x="665" 
d="M319 643l191 717l-201 -70v76l238 82h67l-215 -805h-80z" />
    <glyph glyph-name="one.num_alt" horiz-adv-x="819" 
d="M158 643l18 70h227l172 647l-233 -76l2 76l268 88h68l-197 -735h228l-19 -70h-534z" />
    <glyph glyph-name="two.num" horiz-adv-x="819" 
d="M115 643l16 68l444 338q72 54 108 99.5t36 102.5q0 61 -44 96t-116 35q-113 0 -221 -112l-51 45q125 139 280 139q103 0 167.5 -54.5t64.5 -142.5q0 -68 -42 -127t-132 -126l-375 -285h442l-20 -76h-557z" />
    <glyph glyph-name="three.num" horiz-adv-x="819" 
d="M420 623q-98 0 -169 40.5t-106 110.5l64 37q33 -55 87 -86t120 -31q98 0 161.5 48.5t63.5 129.5q0 73 -52.5 109.5t-146.5 36.5h-34l-25 47l344 293h-408l23 76h512l-18 -66l-342 -289q97 -5 163 -55t66 -143q0 -110 -90 -184t-213 -74z" />
    <glyph glyph-name="four.num" horiz-adv-x="819" 
d="M510 639l49 186h-389l-6 72l536 549h101l-148 -551h113l-18 -70h-113l-49 -186h-76zM258 895h320l120 448z" />
    <glyph glyph-name="five.num" horiz-adv-x="819" 
d="M432 623q-97 0 -165.5 39t-106.5 102l67 39q67 -111 209 -111q102 0 166 58t64 147q0 72 -50 111t-127 39q-89 0 -172 -48l-59 45l131 390h440l-22 -80h-373l-92 -271q27 14 71.5 24.5t80.5 10.5q116 0 183.5 -59t67.5 -160q0 -116 -85.5 -196t-227.5 -80z" />
    <glyph glyph-name="six.num" horiz-adv-x="819" 
d="M414 625q-112 0 -182 70t-70 210q0 124 47 242.5t127 198.5q108 108 244 108q144 0 233 -111l-55 -51q-75 90 -180 90t-187 -82q-96 -96 -141 -268q27 42 85.5 78.5t133.5 36.5q98 0 163.5 -60.5t65.5 -164.5q0 -117 -85 -207t-199 -90zM416 692q85 0 143.5 66.5
t58.5 154.5q0 74 -42.5 119t-116.5 45q-89 0 -152 -63q-61 -61 -61 -150q0 -76 46 -124t124 -48z" />
    <glyph glyph-name="seven.num" horiz-adv-x="819" 
d="M231 639l533 715h-449l21 80h543l-15 -60l-536 -735h-97z" />
    <glyph glyph-name="eight.num" horiz-adv-x="819" 
d="M442 623q-129 0 -209.5 61t-80.5 150q0 95 64.5 154t168.5 75q-48 22 -79.5 65.5t-31.5 102.5q0 96 82.5 159.5t202.5 63.5q114 0 188 -58t74 -149q0 -81 -56 -137t-140 -74q55 -20 92 -68.5t37 -113.5q0 -100 -89.5 -165.5t-222.5 -65.5zM444 692q100 0 163 48t63 120
q0 67 -57 111.5t-150 44.5q-103 0 -167.5 -48.5t-64.5 -121.5q0 -65 60 -109.5t153 -44.5zM535 1081q97 0 151.5 45.5t54.5 112.5q0 64 -52.5 105.5t-129.5 41.5q-89 0 -146 -45t-57 -114q0 -65 50.5 -105.5t128.5 -40.5z" />
    <glyph glyph-name="nine.num" horiz-adv-x="819" 
d="M414 623q-150 0 -246 122l55 52q90 -103 193 -103q104 0 190 86q92 92 137 260q-27 -44 -85.5 -81t-133.5 -37q-97 0 -163 62t-66 167q0 117 81 209t197 92q113 0 185.5 -71t72.5 -210q0 -126 -46 -243.5t-123 -194.5q-110 -110 -248 -110zM535 991q87 0 149 62
q64 64 64 155q0 78 -47.5 127t-125.5 49q-87 0 -143.5 -68.5t-56.5 -156.5q0 -76 43 -122t117 -46z" />
    <glyph glyph-name="zero.den" horiz-adv-x="819" 
d="M637 557q0 -120 -51.5 -254.5t-139.5 -222.5q-100 -100 -217 -100q-100 0 -158.5 69t-58.5 184q0 121 51.5 255.5t139.5 222.5q100 100 217 100q100 0 158.5 -69.5t58.5 -184.5zM94 240q0 -89 36 -139t108 -50q79 0 149 70q74 74 121 201t47 229q0 89 -35.5 138.5
t-107.5 49.5q-81 0 -150 -69q-74 -74 -121 -201t-47 -229z" />
    <glyph glyph-name="one.den" horiz-adv-x="665" 
d="M147 0l191 717l-201 -70v76l238 82h67l-215 -805h-80z" />
    <glyph glyph-name="one.den_alt" horiz-adv-x="819" 
d="M-14 0l18 70h227l172 647l-233 -76l2 76l268 88h68l-197 -735h228l-19 -70h-534z" />
    <glyph glyph-name="two.den" horiz-adv-x="819" 
d="M-57 0l16 68l444 338q72 54 108 99.5t36 102.5q0 61 -44 96t-116 35q-113 0 -221 -112l-51 45q125 139 280 139q103 0 167.5 -54.5t64.5 -142.5q0 -68 -42 -127.5t-132 -126.5l-375 -284h442l-20 -76h-557z" />
    <glyph glyph-name="three.den" horiz-adv-x="819" 
d="M248 -20q-98 0 -169 40.5t-106 110.5l64 37q33 -55 87 -86t120 -31q98 0 161.5 48.5t63.5 129.5q0 73 -52.5 109.5t-146.5 36.5h-34l-25 47l344 293h-408l23 76h512l-18 -66l-342 -289q97 -5 163 -55t66 -143q0 -110 -90 -184t-213 -74z" />
    <glyph glyph-name="four.den" horiz-adv-x="819" 
d="M336 -4l49 186h-389l-6 72l536 549h101l-148 -551h113l-19 -70h-112l-49 -186h-76zM84 252h319l121 448z" />
    <glyph glyph-name="five.den" horiz-adv-x="819" 
d="M258 -20q-97 0 -165.5 39t-106.5 102l67 39q68 -111 209 -111q102 0 166 58t64 147q0 72 -50 110.5t-127 38.5q-91 0 -172 -47l-59 45l131 390h440l-22 -80h-373l-92 -271q27 14 71 24.5t80 10.5q116 0 184 -59t68 -160q0 -116 -85.5 -196t-227.5 -80z" />
    <glyph glyph-name="six.den" horiz-adv-x="819" 
d="M240 -18q-112 0 -182 70t-70 210q0 124 47 242t127 198q109 109 244 109q144 0 233 -111l-55 -51q-75 90 -181 90q-104 0 -186 -82q-96 -96 -141 -268q27 42 85.5 78.5t133.5 36.5q98 0 163.5 -60.5t65.5 -164.5q0 -117 -85 -207t-199 -90zM242 49q85 0 143.5 66.5
t58.5 154.5q0 74 -42.5 119t-116.5 45q-89 0 -152 -63q-61 -61 -61 -150q0 -76 46 -124t124 -48z" />
    <glyph glyph-name="seven.den" horiz-adv-x="819" 
d="M59 -4l533 715h-449l21 80h543l-15 -60l-536 -735h-97z" />
    <glyph glyph-name="eight.den" horiz-adv-x="819" 
d="M270 -20q-129 0 -209.5 61t-80.5 149q0 95 64.5 154.5t168.5 75.5q-48 22 -79.5 65.5t-31.5 102.5q0 96 82.5 159.5t202.5 63.5q114 0 188 -58t74 -149q0 -81 -56 -137t-140 -74q55 -20 92 -68.5t37 -113.5q0 -100 -89.5 -165.5t-222.5 -65.5zM272 49q100 0 163 48
t63 120q0 67 -57 111.5t-150 44.5q-103 0 -167.5 -48.5t-64.5 -121.5q0 -65 60 -109.5t153 -44.5zM362 438q97 0 152 45.5t55 112.5q0 64 -52.5 105.5t-129.5 41.5q-89 0 -146 -45t-57 -114q0 -65 50.5 -105.5t127.5 -40.5z" />
    <glyph glyph-name="nine.den" horiz-adv-x="819" 
d="M242 -20q-150 0 -246 122l55 52q90 -103 193 -103q104 0 190 86q92 92 137 260q-27 -44 -85.5 -81t-133.5 -37q-97 0 -163 62t-66 167q0 117 81 209t197 92q113 0 185.5 -71t72.5 -210q0 -126 -46 -243t-124 -195q-110 -110 -247 -110zM362 348q88 0 150 62q63 63 63 155
q0 78 -47 127t-125 49q-87 0 -143.5 -68.5t-56.5 -156.5q0 -76 42.5 -122t116.5 -46z" />
    <glyph glyph-name="caron.alt" horiz-adv-x="1024" 
d="M614 1190l115 305h125v-6l-180 -299h-60z" />
    <glyph glyph-name="acute.cap" horiz-adv-x="1024" 
d="M662 1567l253 241l123 -57l-268 -184h-108z" />
    <glyph glyph-name="hungarumlaut.cap" horiz-adv-x="1024" 
d="M487 1567l254 241l123 -57l-268 -184h-109zM774 1567l254 241l123 -57l-268 -184h-109z" />
    <glyph glyph-name="grave.cap" horiz-adv-x="1024" 
d="M829 1567l-170 184l119 57l127 -241h-76z" />
    <glyph glyph-name="circumflex.cap" horiz-adv-x="1024" 
d="M532 1567l271 219h94l152 -219h-103l-115 125l-184 -125h-115z" />
    <glyph glyph-name="caron.cap" horiz-adv-x="1024" 
d="M1108 1786l-270 -219h-95l-151 219h102l115 -125l184 125h115z" />
    <glyph glyph-name="breve.cap" horiz-adv-x="1024" 
d="M788 1563q-116 0 -175.5 54.5t-41.5 149.5h86q2 -53 37 -79.5t117 -26.5q145 0 211 106h94q-33 -95 -122.5 -149.5t-205.5 -54.5z" />
    <glyph glyph-name="tilde.cap" horiz-adv-x="1024" 
d="M563 1548l-74 21q45 97 91.5 138.5t105.5 41.5q38 0 127 -39q5 -2 25 -10.5t27 -11.5t22 -8t25.5 -7t19.5 -2q36 0 61 20t58 74l73 -20q-45 -97 -90.5 -137.5t-105.5 -40.5q-38 0 -127 39q-5 2 -25 10.5t-27 11.5t-22 8t-25.5 7t-19.5 2q-36 0 -61 -21t-58 -76z" />
    <glyph glyph-name="macron.cap" horiz-adv-x="1024" 
d="M489 1620l27 100h635l-27 -100h-635z" />
    <glyph glyph-name="dieresis.cap" horiz-adv-x="1024" 
d="M535 1567l43 155h151l-43 -155h-151zM895 1567l43 155h149l-43 -155h-149z" />
    <glyph glyph-name="dotaccent.cap" horiz-adv-x="1024" 
d="M713 1567l43 155h155l-43 -155h-155z" />
    <glyph glyph-name="ring.cap" horiz-adv-x="1024" 
d="M868 1952q84 0 138.5 -48t54.5 -122q0 -93 -75 -156t-173 -63q-84 0 -138 48t-54 122q0 93 74.5 156t172.5 63zM821 1628q63 0 111.5 42.5t48.5 105.5q0 48 -32 79t-89 31q-64 0 -112 -42t-48 -105q0 -51 33.5 -81t87.5 -30z" />
    </font>
</defs>
</svg>
