<?xml version="1.0" encoding="utf-8"?>
<!-- Generator: Adobe Illustrator 24.1.2, SVG Export Plug-In . SVG Version: 6.00 Build 0)  -->
<svg version="1.1" id="Layer_1" xmlns="http://www.w3.org/2000/svg" xmlns:xlink="http://www.w3.org/1999/xlink" x="0px" y="0px"
	 viewBox="0 0 319 79" style="enable-background:new 0 0 319 79;" xml:space="preserve">
<style type="text/css">
	.st0{fill:#F7F7F7;}
	.st1{fill:#ED2127;fill-opacity:0.87;}
</style>
<path class="st0" d="M67.5,7.2H73l11,34.4h-5l-2.9-9.3h-12l-2.9,9.3h-4.9L67.5,7.2z M75,28.3l-3.3-10.6c-0.5-1.4-1-3.5-1.5-5.5
	c-0.4,1.9-1,4-1.4,5.5l-3.3,10.6H75z"/>
<path class="st0" d="M88,25.4c0-6.9,4.6-10.6,10.2-10.6c5.5,0,10.1,3.7,10.1,10.6v16.3h-4.7v-16c0-4.5-2.2-6.8-5.4-6.8
	c-3.2,0-5.5,2.2-5.5,6.8v16H88V25.4z"/>
<path class="st0" d="M114.1,8c0-1.6,1.3-2.9,3-2.9s3,1.3,3,2.9c0,1.6-1.4,2.9-3,2.9C115.5,10.9,114.1,9.7,114.1,8z M114.7,15.4h4.7
	v26.2h-4.7V15.4z"/>
<path class="st1" d="M23.3,0.5C10.5,0.5,0,10.9,0,23.8S10.5,47,23.3,47s23.3-10.4,23.3-23.3S36.2,0.5,23.3,0.5z M23.3,43.8
	c-11.1,0-20.2-9-20.2-20.1s9-20.1,20.2-20.1c11.1,0,20.2,9,20.2,20.1S34.4,43.8,23.3,43.8z"/>
<path class="st1" d="M41.1,23.8c0,9.8-8,17.7-17.8,17.7c-9.8,0-17.8-7.9-17.8-17.7S13.5,6,23.3,6C33.1,6,41.1,13.9,41.1,23.8z"/>
<path class="st0" d="M64.7,71.8H56l-2,6.7h-3.3L59,52.9h2.8L70,78.5h-3.3L64.7,71.8z M56.9,69h7l-3.5-11.6L56.9,69z M76.1,78.5h-3.2
	V52.9h3.2V78.5z M104.7,70.4c-0.1,2.7-0.9,4.8-2.3,6.3c-1.4,1.5-3.4,2.2-5.9,2.2c-2.6,0-4.6-1-6.1-2.9C88.8,74,88,71.3,88,68v-4.6
	c0-3.3,0.8-6,2.3-7.9c1.6-1.9,3.7-2.9,6.4-2.9c2.5,0,4.4,0.7,5.7,2.2c1.4,1.5,2.1,3.6,2.2,6.3h-3.3c-0.1-2.1-0.6-3.6-1.3-4.5
	c-0.7-0.9-1.9-1.3-3.4-1.3c-1.7,0-3.1,0.7-4,2.1c-0.9,1.4-1.4,3.4-1.4,6v4.7c0,2.6,0.4,4.6,1.3,6c0.9,1.4,2.2,2.1,3.8,2.1
	c1.7,0,2.9-0.4,3.6-1.2c0.7-0.8,1.2-2.3,1.4-4.5H104.7z M116,68.1h-4.5v10.4h-3.2V52.9h7.2c2.5,0,4.4,0.7,5.7,2
	c1.3,1.3,1.9,3.2,1.9,5.7c0,1.6-0.4,3-1.1,4.1c-0.7,1.2-1.7,2.1-3,2.7l5,10.9v0.2h-3.5L116,68.1z M111.5,65.4h3.9
	c1.3,0,2.4-0.4,3.2-1.3c0.8-0.9,1.2-2,1.2-3.5c0-3.3-1.5-4.9-4.5-4.9h-3.9V65.4z M139,66.7h-9.1v9.1h10.5v2.8h-13.8V52.9h13.6v2.8
	h-10.4v8.2h9.1V66.7z M155.8,71.8h-8.6l-2,6.7h-3.3l8.2-25.6h2.8l8.3,25.6h-3.3L155.8,71.8z M148,69h7l-3.5-11.6L148,69z
	 M176.6,55.7h-6.7v22.8h-3.2V55.7h-6.7v-2.8h16.7V55.7z M195.8,68c0,3.5-0.7,6.2-2.2,8.1c-1.5,1.9-3.6,2.8-6.3,2.8
	c-2.6,0-4.7-0.9-6.3-2.7c-1.5-1.8-2.3-4.4-2.4-7.8v-4.8c0-3.4,0.8-6.1,2.3-8c1.5-1.9,3.6-2.9,6.3-2.9c2.7,0,4.8,0.9,6.3,2.8
	c1.5,1.9,2.3,4.5,2.3,7.9V68z M192.6,63.5c0-2.7-0.4-4.7-1.3-6c-0.9-1.3-2.2-2-4.1-2c-1.8,0-3.1,0.7-4,2c-0.9,1.3-1.4,3.3-1.4,5.9
	V68c0,2.6,0.5,4.6,1.4,6c0.9,1.4,2.3,2.1,4.1,2.1c1.8,0,3.1-0.6,4-1.9c0.9-1.3,1.3-3.2,1.4-5.8V63.5z M207.8,68.1h-4.5v10.4h-3.2
	V52.9h7.2c2.5,0,4.4,0.7,5.7,2c1.3,1.3,1.9,3.2,1.9,5.7c0,1.6-0.4,3-1.1,4.1c-0.7,1.2-1.7,2.1-3,2.7l5,10.9v0.2h-3.5L207.8,68.1z
	 M203.3,65.4h3.9c1.3,0,2.4-0.4,3.2-1.3c0.8-0.9,1.2-2,1.2-3.5c0-3.3-1.5-4.9-4.5-4.9h-3.9V65.4z M226,78.5V52.9h7.3
	c2.3,0,4.1,0.6,5.3,1.7c1.2,1.1,1.8,2.8,1.8,5.1c0,1.2-0.3,2.3-0.9,3.2c-0.6,0.9-1.4,1.6-2.4,2.1c1.2,0.4,2.1,1.1,2.8,2.2
	c0.7,1.1,1,2.4,1,3.9c0,2.3-0.6,4.1-1.9,5.4c-1.3,1.3-3,2-5.4,2H226z M229.2,66.5v9.2h4.4c1.2,0,2.2-0.4,2.9-1.2
	c0.7-0.8,1.1-1.9,1.1-3.4c0-3.1-1.3-4.6-3.9-4.6H229.2z M229.2,63.8h4.1c1.1,0,2-0.4,2.7-1.1c0.7-0.8,1-1.7,1-3
	c0-1.4-0.3-2.4-0.9-3.1c-0.6-0.6-1.6-1-2.8-1h-4.1V63.8z M260.2,52.9v18.2c0,2.4-0.7,4.3-2.1,5.7s-3.3,2.1-5.8,2.1
	c-2.5,0-4.5-0.7-5.8-2c-1.3-1.3-2-3.3-2-5.7V52.9h3.2V71c0,1.7,0.4,3,1.1,3.9c0.7,0.8,1.9,1.3,3.6,1.3c1.6,0,2.8-0.4,3.6-1.3
	c0.7-0.9,1.1-2.1,1.1-3.9V52.9H260.2z M264.4,78.5V52.9h6.1c3,0,5.3,0.9,7,2.8c1.7,1.9,2.5,4.5,2.5,7.9v4.3c0,3.4-0.8,6-2.5,7.9
	c-1.7,1.8-4.1,2.8-7.3,2.8H264.4z M267.6,55.7v20.1h2.6c2.3,0,3.9-0.6,5-1.9c1-1.3,1.6-3.2,1.6-5.8v-4.5c0-2.7-0.5-4.7-1.6-5.9
	c-1-1.3-2.6-1.9-4.7-1.9H267.6z M284.3,78.5V52.9h6.1c3,0,5.3,0.9,7,2.8c1.7,1.9,2.5,4.5,2.5,7.9v4.3c0,3.4-0.8,6-2.5,7.9
	c-1.7,1.8-4.1,2.8-7.3,2.8H284.3z M287.5,55.7v20.1h2.6c2.3,0,3.9-0.6,5-1.9c1-1.3,1.6-3.2,1.6-5.8v-4.5c0-2.7-0.5-4.7-1.6-5.9
	c-1-1.3-2.6-1.9-4.7-1.9H287.5z M310,65.8l5.2-12.8h3.6l-7.3,16v9.5h-3.2V69l-7.3-16h3.7L310,65.8z"/>
</svg>
