<svg width="315" height="113" viewBox="0 0 315 113" fill="none" xmlns="http://www.w3.org/2000/svg">
<g clip-path="url(#clip0_1_309)">
<path d="M67.4715 7.3717H73.0412L84.0251 41.8094H79.0696L76.208 32.5374H64.2529L61.3913 41.8094H56.4876L67.4715 7.3717ZM74.9816 28.4611L71.7112 17.815C71.2525 16.3892 70.74 14.2994 70.2295 12.3646C69.8207 14.3013 69.2584 16.3376 68.7996 17.815L65.4793 28.4611H74.9816Z" fill="black"/>
<path d="M88.0114 25.558C88.0114 18.6303 92.6599 14.9119 98.1777 14.9119C103.696 14.9119 108.294 18.6303 108.294 25.558V41.8094H103.594V25.8144C103.594 21.2808 101.346 19.0398 98.1777 19.0398C95.009 19.0398 92.7117 21.2808 92.7117 25.8144V41.8094H88.0114V25.558Z" fill="black"/>
<path d="M114.121 8.187C114.121 6.60817 115.449 5.33362 117.084 5.33362C118.72 5.33362 120.048 6.60625 120.048 8.187C120.048 9.76775 118.668 11.0901 117.084 11.0901C115.501 11.0901 114.121 9.81751 114.121 8.187ZM114.733 15.574H119.433V41.8095H114.733V15.574Z" fill="black"/>
<path d="M125.871 25.3035C125.871 18.3757 130.264 14.9119 135.475 14.9119C138.847 14.9119 141.401 16.7969 142.779 19.9048C144.211 16.7969 146.766 14.9119 150.086 14.9119C155.45 14.9119 159.742 18.3757 159.742 25.3035V41.8094H155.041V25.8144C155.041 21.2808 153.101 19.0398 150.086 19.0398C147.071 19.0398 145.13 21.6387 145.13 26.6814V41.8114H140.482V26.6814C140.482 21.6387 138.54 19.0398 135.475 19.0398C132.41 19.0398 130.571 21.2808 130.571 25.8144V41.8094H125.871V25.3035Z" fill="black"/>
<path d="M192.035 18.9365H187.694L187.592 15.574H192.035V7.48657H196.686V15.574H201.845V18.9365H196.686V41.8095H192.035V18.9365Z" fill="black"/>
<path d="M213.391 26.0173H218.552V24.5916C218.552 21.0263 216.815 19.0379 213.494 19.0379C211.195 19.0379 207.719 19.7671 205.522 20.4292V16.3396C208.078 15.5243 210.786 14.9138 213.494 14.9138C219.369 14.9138 223.2 18.5825 223.2 24.5935V33.967C223.2 38.7552 218.857 42.4736 213.596 42.4736C208.026 42.4736 203.839 38.7552 203.839 33.967C203.839 28.821 207.721 26.0192 213.393 26.0192M213.598 38.3475C216.561 38.3475 218.554 36.3094 218.554 33.967V29.6879H213.393C210.021 29.6879 208.642 31.5729 208.642 33.9153C208.642 36.2577 210.481 38.3475 213.598 38.3475Z" fill="black"/>
<path d="M175.079 31.3661H169.918V32.7919C169.918 36.3572 171.655 38.3455 174.975 38.3455C177.274 38.3455 180.736 37.4327 182.934 36.7705L182.946 41.0439C180.391 41.8592 177.683 42.4696 174.975 42.4696C169.1 42.4696 165.267 38.801 165.267 32.79V23.4165C165.267 18.6283 169.611 14.9099 174.871 14.9099C180.441 14.9099 184.631 18.6283 184.631 23.4165C184.631 28.5625 180.748 31.3642 175.077 31.3642M174.871 19.0359C171.908 19.0359 169.916 21.0741 169.916 23.4165V27.6956H175.077C178.449 27.6956 179.827 25.8106 179.827 23.4681C179.827 21.1257 177.988 19.0359 174.871 19.0359Z" fill="black"/>
<path d="M23.3171 0.652588C10.46 0.652588 0 11.0825 0 23.9026C0 36.7227 10.46 47.1526 23.3171 47.1526C36.1742 47.1526 46.6341 36.7227 46.6341 23.9026C46.6341 11.0825 36.1761 0.652588 23.3171 0.652588ZM23.3171 44.0026C12.2026 44.0026 3.1591 34.987 3.1591 23.9026C3.1591 12.8182 12.2026 3.8026 23.3171 3.8026C34.4315 3.8026 43.4731 12.8201 43.4731 23.9026C43.4731 34.985 34.4315 44.0026 23.3171 44.0026Z" fill="#ED2127"/>
<path d="M41.1143 23.9026C41.1143 33.7028 33.1456 41.6487 23.3171 41.6487C13.4885 41.6487 5.51978 33.7028 5.51978 23.9026C5.51978 14.1023 13.4885 6.15649 23.3171 6.15649C33.1456 6.15649 41.1143 14.1023 41.1143 23.9026Z" fill="#ED2127"/>
</g>
<path d="M68.8086 69.8792C68.668 72.6213 67.8945 74.719 66.4883 76.1721C65.0938 77.6252 63.1191 78.3518 60.5645 78.3518C57.998 78.3518 55.959 77.3792 54.4473 75.4338C52.9355 73.4768 52.1797 70.8284 52.1797 67.4885V62.8479C52.1797 59.5198 52.9531 56.8889 54.5 54.9553C56.0586 53.0217 58.1797 52.0549 60.8633 52.0549C63.3359 52.0549 65.2461 52.7991 66.5938 54.2874C67.9531 55.7639 68.6914 57.8792 68.8086 60.6331H65.5566C65.416 58.5471 64.9766 57.0588 64.2383 56.1682C63.5 55.2776 62.375 54.8323 60.8633 54.8323C59.1172 54.8323 57.7754 55.5178 56.8379 56.8889C55.9004 58.2483 55.4316 60.2463 55.4316 62.8831V67.5764C55.4316 70.1663 55.8652 72.1526 56.7324 73.5354C57.6113 74.9182 58.8887 75.6096 60.5645 75.6096C62.2402 75.6096 63.4473 75.1936 64.1855 74.3616C64.9238 73.5295 65.3809 72.0354 65.5566 69.8792H68.8086ZM80.1999 67.6467H75.6999V78.0002H72.4655V52.4065H79.6374C82.1452 52.4065 84.0437 53.0627 85.3327 54.3752C86.6218 55.676 87.2663 57.5862 87.2663 60.1057C87.2663 61.6877 86.9148 63.0706 86.2116 64.2542C85.5202 65.426 84.5359 66.3108 83.2585 66.9084L88.2155 77.7893V78.0002H84.7527L80.1999 67.6467ZM75.6999 64.887H79.6023C80.9499 64.887 82.0222 64.4534 82.8191 63.5862C83.6277 62.719 84.032 61.5588 84.032 60.1057C84.032 56.8245 82.5437 55.1838 79.5671 55.1838H75.6999V64.887ZM103.14 66.1702H94.0873V75.2405H104.634V78.0002H90.8705V52.4065H104.458V55.1838H94.0873V63.4104H103.14V66.1702ZM119.981 71.3206H111.332L109.346 78.0002H106.041L114.285 52.4065H117.045L125.307 78.0002H122.002L119.981 71.3206ZM112.176 68.5432H119.154L115.656 56.9065L112.176 68.5432ZM140.741 55.1838H134.009V78.0002H130.792V55.1838H124.077V52.4065H140.741V55.1838ZM159.955 67.4534C159.955 70.9456 159.211 73.635 157.722 75.5217C156.234 77.4084 154.119 78.3518 151.377 78.3518C148.74 78.3518 146.654 77.4377 145.119 75.6096C143.595 73.7698 142.804 71.1741 142.746 67.8225V63.0061C142.746 59.5842 143.502 56.9065 145.013 54.9729C146.525 53.0276 148.634 52.0549 151.341 52.0549C154.037 52.0549 156.134 52.9866 157.634 54.8499C159.146 56.7014 159.92 59.3499 159.955 62.7952V67.4534ZM156.738 62.9709C156.738 60.2639 156.293 58.2542 155.402 56.9417C154.523 55.6174 153.17 54.9553 151.341 54.9553C149.572 54.9553 148.23 55.6233 147.316 56.9592C146.414 58.2952 145.957 60.2639 145.945 62.8655V67.4534C145.945 70.0667 146.396 72.0588 147.298 73.4299C148.213 74.801 149.572 75.4866 151.377 75.4866C153.181 75.4866 154.517 74.8538 155.384 73.5881C156.252 72.3225 156.703 70.3831 156.738 67.7698V62.9709ZM171.944 67.6467H167.444V78.0002H164.209V52.4065H171.381C173.889 52.4065 175.787 53.0627 177.076 54.3752C178.366 55.676 179.01 57.5862 179.01 60.1057C179.01 61.6877 178.659 63.0706 177.955 64.2542C177.264 65.426 176.28 66.3108 175.002 66.9084L179.959 77.7893V78.0002H176.496L171.944 67.6467ZM167.444 64.887H171.346C172.694 64.887 173.766 64.4534 174.563 63.5862C175.371 62.719 175.776 61.5588 175.776 60.1057C175.776 56.8245 174.287 55.1838 171.311 55.1838H167.444V64.887ZM55.9766 101.981V112H52.7598V86.4065H60.916C63.2949 86.4065 65.1641 87.1213 66.5234 88.551C67.8828 89.969 68.5625 91.8616 68.5625 94.2288C68.5625 96.6897 67.9121 98.5881 66.6113 99.9241C65.3223 101.248 63.5 101.934 61.1445 101.981H55.9766ZM55.9766 99.2209H60.916C62.3457 99.2209 63.4414 98.7932 64.2031 97.9377C64.9648 97.0823 65.3457 95.8577 65.3457 94.2639C65.3457 92.7288 64.9531 91.4983 64.168 90.5725C63.3828 89.6467 62.3047 89.1838 60.9336 89.1838H55.9766V99.2209ZM81.5183 105.321H72.8698L70.8835 112H67.5788L75.823 86.4065H78.5827L86.8445 112H83.5398L81.5183 105.321ZM73.7136 102.543H80.6921L77.1941 90.9065L73.7136 102.543ZM97.3393 101.647H92.8393V112H89.6049V86.4065H96.7768C99.2846 86.4065 101.183 87.0627 102.472 88.3752C103.761 89.676 104.406 91.5862 104.406 94.1057C104.406 95.6877 104.054 97.0706 103.351 98.2542C102.66 99.426 101.675 100.311 100.398 100.908L105.355 111.789V112H101.892L97.3393 101.647ZM92.8393 98.887H96.7416C98.0893 98.887 99.1616 98.4534 99.9584 97.5862C100.767 96.719 101.171 95.5588 101.171 94.1057C101.171 90.8245 99.683 89.1838 96.7065 89.1838H92.8393V98.887ZM121.563 89.1838H114.83V112H111.613V89.1838H104.899V86.4065H121.563V89.1838ZM141.339 112H138.104L127.856 92.2776V112H124.622V86.4065H127.856L138.14 106.217V86.4065H141.339V112ZM158.461 100.17H149.408V109.24H159.955V112H146.191V86.4065H159.779V89.1838H149.408V97.4104H158.461V100.17ZM171.1 101.647H166.6V112H163.366V86.4065H170.537C173.045 86.4065 174.944 87.0627 176.233 88.3752C177.522 89.676 178.166 91.5862 178.166 94.1057C178.166 95.6877 177.815 97.0706 177.112 98.2542C176.42 99.426 175.436 100.311 174.159 100.908L179.116 111.789V112H175.653L171.1 101.647ZM166.6 98.887H170.502C171.85 98.887 172.922 98.4534 173.719 97.5862C174.528 96.719 174.932 95.5588 174.932 94.1057C174.932 90.8245 173.444 89.1838 170.467 89.1838H166.6V98.887ZM192.95 105.531C192.95 104.254 192.605 103.276 191.913 102.596C191.222 101.916 189.974 101.254 188.169 100.61C186.364 99.9651 184.981 99.2913 184.021 98.5881C183.071 97.8733 182.356 97.0647 181.876 96.1624C181.407 95.2483 181.173 94.2053 181.173 93.0334C181.173 91.0061 181.847 89.3362 183.194 88.0237C184.554 86.7112 186.329 86.0549 188.521 86.0549C190.021 86.0549 191.356 86.3948 192.528 87.0745C193.7 87.7424 194.603 88.6741 195.235 89.8694C195.868 91.0647 196.185 92.3772 196.185 93.8069H192.95C192.95 92.2249 192.569 91.0002 191.808 90.1331C191.046 89.2659 189.95 88.8323 188.521 88.8323C187.22 88.8323 186.212 89.1956 185.497 89.9221C184.782 90.6487 184.425 91.6682 184.425 92.9807C184.425 94.0588 184.812 94.9612 185.585 95.6877C186.358 96.4143 187.554 97.0647 189.171 97.6389C191.69 98.4709 193.489 99.4963 194.567 100.715C195.657 101.934 196.202 103.528 196.202 105.496C196.202 107.571 195.528 109.235 194.181 110.489C192.833 111.731 190.999 112.352 188.679 112.352C187.19 112.352 185.814 112.03 184.548 111.385C183.294 110.729 182.304 109.815 181.577 108.643C180.862 107.459 180.505 106.106 180.505 104.582H183.739C183.739 106.164 184.179 107.395 185.058 108.274C185.948 109.153 187.155 109.592 188.679 109.592C190.097 109.592 191.163 109.229 191.878 108.502C192.593 107.776 192.95 106.785 192.95 105.531ZM216.47 112H213.236V100.17H202.935V112H199.719V86.4065H202.935V97.4104H213.236V86.4065H216.47V112ZM224.68 112H221.463V86.4065H224.68V112ZM232.82 101.981V112H229.603V86.4065H237.759C240.138 86.4065 242.007 87.1213 243.366 88.551C244.726 89.969 245.405 91.8616 245.405 94.2288C245.405 96.6897 244.755 98.5881 243.454 99.9241C242.165 101.248 240.343 101.934 237.988 101.981H232.82ZM232.82 99.2209H237.759C239.189 99.2209 240.284 98.7932 241.046 97.9377C241.808 97.0823 242.189 95.8577 242.189 94.2639C242.189 92.7288 241.796 91.4983 241.011 90.5725C240.226 89.6467 239.148 89.1838 237.777 89.1838H232.82V99.2209ZM260.031 105.531C260.031 104.254 259.685 103.276 258.994 102.596C258.303 101.916 257.055 101.254 255.25 100.61C253.445 99.9651 252.062 99.2913 251.101 98.5881C250.152 97.8733 249.437 97.0647 248.957 96.1624C248.488 95.2483 248.254 94.2053 248.254 93.0334C248.254 91.0061 248.928 89.3362 250.275 88.0237C251.635 86.7112 253.41 86.0549 255.601 86.0549C257.101 86.0549 258.437 86.3948 259.609 87.0745C260.781 87.7424 261.684 88.6741 262.316 89.8694C262.949 91.0647 263.266 92.3772 263.266 93.8069H260.031C260.031 92.2249 259.65 91.0002 258.889 90.1331C258.127 89.2659 257.031 88.8323 255.601 88.8323C254.301 88.8323 253.293 89.1956 252.578 89.9221C251.863 90.6487 251.506 91.6682 251.506 92.9807C251.506 94.0588 251.893 94.9612 252.666 95.6877C253.439 96.4143 254.635 97.0647 256.252 97.6389C258.771 98.4709 260.57 99.4963 261.648 100.715C262.738 101.934 263.283 103.528 263.283 105.496C263.283 107.571 262.609 109.235 261.262 110.489C259.914 111.731 258.08 112.352 255.76 112.352C254.271 112.352 252.894 112.03 251.629 111.385C250.375 110.729 249.385 109.815 248.658 108.643C247.943 107.459 247.586 106.106 247.586 104.582H250.82C250.82 106.164 251.26 107.395 252.139 108.274C253.029 109.153 254.236 109.592 255.76 109.592C257.178 109.592 258.244 109.229 258.959 108.502C259.674 107.776 260.031 106.785 260.031 105.531Z" fill="#7B7B7B"/>
<defs>
<clipPath id="clip0_1_309">
<rect width="223.2" height="46.5" fill="white" transform="translate(0 0.652588)"/>
</clipPath>
</defs>
</svg>
