<svg width="225" height="81" viewBox="0 0 225 81" fill="none" xmlns="http://www.w3.org/2000/svg">
<path d="M55.7598 80.3223V54.7285H63.0547C65.3867 54.7285 67.1387 55.2969 68.3105 56.4336C69.4941 57.5703 70.0859 59.2754 70.0859 61.5488C70.0859 62.7441 69.7871 63.7988 69.1895 64.7129C68.5918 65.627 67.7832 66.3359 66.7637 66.8398C67.9355 67.1914 68.8613 67.9121 69.541 69.002C70.2324 70.0918 70.5781 71.4043 70.5781 72.9395C70.5781 75.2363 69.9453 77.041 68.6797 78.3535C67.4258 79.666 65.6328 80.3223 63.3008 80.3223H55.7598ZM58.9766 68.3516V77.5625H63.3711C64.5898 77.5625 65.5566 77.1641 66.2715 76.3672C66.9863 75.5586 67.3438 74.4277 67.3438 72.9746C67.3438 69.8926 66.043 68.3516 63.4414 68.3516H58.9766ZM58.9766 65.6445H63.1074C64.2207 65.6445 65.1172 65.2695 65.7969 64.5195C66.4883 63.7695 66.834 62.7734 66.834 61.5312C66.834 60.125 66.5234 59.1055 65.9023 58.4727C65.2812 57.8281 64.332 57.5059 63.0547 57.5059H58.9766V65.6445ZM82.4265 69.9688H77.9265V80.3223H74.6921V54.7285H81.864C84.3718 54.7285 86.2702 55.3848 87.5593 56.6973C88.8484 57.998 89.4929 59.9082 89.4929 62.4277C89.4929 64.0098 89.1413 65.3926 88.4382 66.5762C87.7468 67.748 86.7624 68.6328 85.4851 69.2305L90.4421 80.1113V80.3223H86.9792L82.4265 69.9688ZM77.9265 67.209H81.8288C83.1765 67.209 84.2488 66.7754 85.0456 65.9082C85.8542 65.041 86.2585 63.8809 86.2585 62.4277C86.2585 59.1465 84.7702 57.5059 81.7937 57.5059H77.9265V67.209ZM105.033 73.6426H96.3842L94.3979 80.3223H91.0932L99.3373 54.7285H102.097L110.359 80.3223H107.054L105.033 73.6426ZM97.228 70.8652H104.206L100.708 59.2285L97.228 70.8652ZM129.836 80.3223H126.602L116.354 60.5996V80.3223H113.119V54.7285H116.354L126.637 74.5391V54.7285H129.836V80.3223ZM134.688 80.3223V54.7285H140.788C143.776 54.7285 146.097 55.666 147.749 57.541C149.401 59.4043 150.227 62.0293 150.227 65.416V69.7051C150.227 73.0918 149.39 75.7109 147.714 77.5625C146.038 79.4023 143.606 80.3223 140.419 80.3223H134.688ZM137.905 57.5059V77.5625H140.489C142.751 77.5625 144.403 76.918 145.446 75.6289C146.489 74.3281 147.022 72.4062 147.046 69.8633V65.3281C147.046 62.6328 146.524 60.6582 145.481 59.4043C144.45 58.1387 142.886 57.5059 140.788 57.5059H137.905ZM165.714 73.8535C165.714 72.5762 165.369 71.5977 164.677 70.918C163.986 70.2383 162.738 69.5762 160.933 68.9316C159.129 68.2871 157.746 67.6133 156.785 66.9102C155.836 66.1953 155.121 65.3867 154.64 64.4844C154.171 63.5703 153.937 62.5273 153.937 61.3555C153.937 59.3281 154.611 57.6582 155.959 56.3457C157.318 55.0332 159.093 54.377 161.285 54.377C162.785 54.377 164.121 54.7168 165.293 55.3965C166.464 56.0645 167.367 56.9961 168 58.1914C168.632 59.3867 168.949 60.6992 168.949 62.1289H165.714C165.714 60.5469 165.334 59.3223 164.572 58.4551C163.81 57.5879 162.714 57.1543 161.285 57.1543C159.984 57.1543 158.976 57.5176 158.261 58.2441C157.546 58.9707 157.189 59.9902 157.189 61.3027C157.189 62.3809 157.576 63.2832 158.349 64.0098C159.123 64.7363 160.318 65.3867 161.935 65.9609C164.455 66.793 166.254 67.8184 167.332 69.0371C168.421 70.2559 168.966 71.8496 168.966 73.8184C168.966 75.8926 168.293 77.5566 166.945 78.8105C165.597 80.0527 163.763 80.6738 161.443 80.6738C159.955 80.6738 158.578 80.3516 157.312 79.707C156.058 79.0508 155.068 78.1367 154.341 76.9648C153.627 75.7812 153.269 74.4277 153.269 72.9043H156.504C156.504 74.4863 156.943 75.7168 157.822 76.5957C158.713 77.4746 159.92 77.9141 161.443 77.9141C162.861 77.9141 163.927 77.5508 164.642 76.8242C165.357 76.0977 165.714 75.1074 165.714 73.8535ZM187.442 57.5059H180.709V80.3223H177.493V57.5059H170.778V54.7285H187.442V57.5059ZM201.03 73.6426H192.382L190.396 80.3223H187.091L195.335 54.7285H198.095L206.356 80.3223H203.052L201.03 73.6426ZM193.226 70.8652H200.204L196.706 59.2285L193.226 70.8652ZM216.851 69.9688H212.351V80.3223H209.117V54.7285H216.289C218.797 54.7285 220.695 55.3848 221.984 56.6973C223.273 57.998 223.918 59.9082 223.918 62.4277C223.918 64.0098 223.566 65.3926 222.863 66.5762C222.172 67.748 221.187 68.6328 219.91 69.2305L224.867 80.1113V80.3223H221.404L216.851 69.9688ZM212.351 67.209H216.254C217.601 67.209 218.674 66.7754 219.47 65.9082C220.279 65.041 220.683 63.8809 220.683 62.4277C220.683 59.1465 219.195 57.5059 216.219 57.5059H212.351V67.209Z" fill="#7B7B7B"/>
<g clip-path="url(#clip0_1_292)">
<path d="M67.1088 6.68298H72.6485L83.5733 40.9356H78.6445L75.7982 31.7133H63.9075L61.0612 40.9356H56.1839L67.1088 6.68298ZM74.5784 27.659L71.3256 17.0701C70.8694 15.652 70.3597 13.5735 69.8519 11.6491C69.4453 13.5754 68.886 15.6006 68.4297 17.0701L65.1273 27.659H74.5784Z" fill="black"/>
<path d="M87.5382 24.7715C87.5382 17.881 92.1617 14.1826 97.6499 14.1826C103.138 14.1826 107.712 17.881 107.712 24.7715V40.9356H103.037V25.0266C103.037 20.5173 100.802 18.2884 97.6499 18.2884C94.4982 18.2884 92.2132 20.5173 92.2132 25.0266V40.9356H87.5382V24.7715Z" fill="black"/>
<path d="M113.507 7.49393C113.507 5.92358 114.828 4.65588 116.455 4.65588C118.081 4.65588 119.402 5.92168 119.402 7.49393C119.402 9.06618 118.03 10.3815 116.455 10.3815C114.88 10.3815 113.507 9.11566 113.507 7.49393ZM114.116 14.8412H118.791V40.9356H114.116V14.8412Z" fill="black"/>
<path d="M125.194 24.5183C125.194 17.6279 129.563 14.1826 134.746 14.1826C138.1 14.1826 140.641 16.0575 142.012 19.1487C143.436 16.0575 145.977 14.1826 149.279 14.1826C154.614 14.1826 158.883 17.6279 158.883 24.5183V40.9356H154.208V25.0266C154.208 20.5173 152.278 18.2884 149.279 18.2884C146.28 18.2884 144.35 20.8732 144.35 25.8888V40.9375H139.727V25.8888C139.727 20.8732 137.795 18.2884 134.746 18.2884C131.698 18.2884 129.869 20.5173 129.869 25.0266V40.9356H125.194V24.5183Z" fill="black"/>
<path d="M191.003 18.1856H186.685L186.583 14.8412H191.003V6.79724H195.628V14.8412H200.759V18.1856H195.628V40.9356H191.003V18.1856Z" fill="black"/>
<path d="M212.243 25.2284H217.377V23.8103C217.377 20.2642 215.649 18.2865 212.346 18.2865C210.06 18.2865 206.602 19.0117 204.417 19.6703V15.6026C206.959 14.7918 209.653 14.1846 212.346 14.1846C218.19 14.1846 222 17.8335 222 23.8122V33.1353C222 37.8977 217.68 41.5961 212.448 41.5961C206.908 41.5961 202.743 37.8977 202.743 33.1353C202.743 28.0169 206.604 25.2303 212.245 25.2303M212.45 37.4923C215.397 37.4923 217.378 35.4651 217.378 33.1353V28.8792H212.245C208.891 28.8792 207.521 30.7541 207.521 33.0839C207.521 35.4137 209.349 37.4923 212.45 37.4923Z" fill="black"/>
<path d="M174.137 30.5484H169.004V31.9665C169.004 35.5126 170.732 37.4903 174.034 37.4903C176.321 37.4903 179.765 36.5824 181.95 35.9238L181.962 40.1742C179.421 40.985 176.728 41.5922 174.034 41.5922C168.191 41.5922 164.379 37.9433 164.379 31.9646V22.6415C164.379 17.8791 168.699 14.1807 173.931 14.1807C179.471 14.1807 183.638 17.8791 183.638 22.6415C183.638 27.7599 179.776 30.5465 174.135 30.5465M173.931 18.2845C170.984 18.2845 169.002 20.3117 169.002 22.6415V26.8976H174.135C177.489 26.8976 178.86 25.0227 178.86 22.6929C178.86 20.3631 177.031 18.2845 173.931 18.2845Z" fill="black"/>
<path d="M23.1917 0C10.4037 0 0 10.3738 0 23.125C0 35.8762 10.4037 46.25 23.1917 46.25C35.9797 46.25 46.3834 35.8762 46.3834 23.125C46.3834 10.3738 35.9816 0 23.1917 0ZM23.1917 43.1169C12.137 43.1169 3.14211 34.1498 3.14211 23.125C3.14211 12.1002 12.137 3.13308 23.1917 3.13308C34.2464 3.13308 43.2394 12.1021 43.2394 23.125C43.2394 34.1479 34.2464 43.1169 23.1917 43.1169Z" fill="#ED2127"/>
<path d="M40.8933 23.125C40.8933 32.8726 32.9674 40.7757 23.1917 40.7757C13.416 40.7757 5.49011 32.8726 5.49011 23.125C5.49011 13.3775 13.416 5.47437 23.1917 5.47437C32.9674 5.47437 40.8933 13.3775 40.8933 23.125Z" fill="#ED2127"/>
</g>
<defs>
<clipPath id="clip0_1_292">
<rect width="222" height="46.25" fill="white"/>
</clipPath>
</defs>
</svg>
