<svg width="202" height="68" viewBox="0 0 202 68" fill="none" xmlns="http://www.w3.org/2000/svg">
<g clip-path="url(#clip0_1_325)">
<path d="M185.12 9.58497e-05H16.4831C15.8684 9.58497e-05 15.261 9.58498e-05 14.648 0.00344846C14.1347 0.00680108 13.6256 0.0165404 13.1075 0.0247376C11.9819 0.0379834 10.8589 0.13701 9.74836 0.320958C8.63935 0.50891 7.56509 0.863253 6.5619 1.372C5.55993 1.88506 4.64441 2.55172 3.84854 3.3478C3.04849 4.14164 2.38159 5.05922 1.87348 6.06524C1.36397 7.06927 1.01067 8.14517 0.82579 9.25579C0.639152 10.365 0.53872 11.487 0.525396 12.6118C0.50984 13.1257 0.508197 13.6414 0.5 14.1554V52.902C0.508197 53.4225 0.50984 53.9267 0.525396 54.4474C0.538724 55.5721 0.639156 56.694 0.82579 57.8032C1.01016 58.9145 1.36348 59.991 1.87348 60.9954C2.38136 61.9982 3.04836 62.912 3.84854 63.7015C4.64139 64.5011 5.55751 65.1682 6.5619 65.6773C7.56508 66.1874 8.63923 66.5439 9.74836 66.7347C10.8591 66.9172 11.982 67.0163 13.1075 67.0311C13.6256 67.0425 14.1347 67.049 14.648 67.049C15.261 67.0524 15.8684 67.0524 16.4831 67.0524H185.12C185.722 67.0524 186.334 67.0524 186.937 67.049C187.448 67.049 187.971 67.0425 188.482 67.0311C189.606 67.0171 190.726 66.918 191.835 66.7347C192.948 66.5425 194.026 66.1862 195.034 65.6773C196.037 65.1679 196.952 64.5008 197.745 63.7015C198.543 62.9089 199.211 61.9957 199.725 60.9954C200.231 59.9903 200.581 58.9138 200.763 57.8032C200.95 56.6939 201.054 55.5722 201.074 54.4474C201.081 53.9267 201.081 53.4225 201.081 52.902C201.094 52.293 201.094 51.6874 201.094 51.0685V15.9856C201.094 15.3717 201.094 14.7627 201.081 14.1554C201.081 13.6414 201.081 13.1257 201.074 12.6117C201.054 11.4869 200.95 10.3651 200.763 9.25573C200.581 8.14575 200.231 7.06993 199.725 6.06518C198.69 4.04871 197.05 2.40732 195.034 1.37185C194.026 0.864345 192.947 0.510096 191.835 0.320807C190.727 0.136049 189.606 0.0369876 188.482 0.0245029C187.971 0.0163225 187.448 0.00649934 186.937 0.00323054C186.334 -0.00012207 185.722 -0.00012207 185.12 -0.00012207V9.58497e-05Z" fill="#A6A6A6"/>
<path d="M14.6561 65.5855C14.1453 65.5855 13.6469 65.579 13.1402 65.5676C12.0905 65.5539 11.0432 65.4625 10.007 65.2942C9.04072 65.1278 8.10469 64.8182 7.22975 64.3757C6.36283 63.9369 5.57214 63.3615 4.88795 62.6716C4.19386 61.9898 3.61599 61.199 3.17726 60.3306C2.73369 59.4566 2.42672 58.5197 2.26703 57.5527C2.09457 56.5135 2.00127 55.4628 1.98792 54.4096C1.97729 54.0561 1.96338 52.8789 1.96338 52.8789V14.1553C1.96338 14.1553 1.9782 12.9963 1.988 12.6558C2.00079 11.6042 2.09355 10.5551 2.26548 9.51762C2.42547 8.54791 2.73268 7.60834 3.17649 6.73143C3.61361 5.86363 4.18827 5.07227 4.87818 4.38803C5.56731 3.6973 6.36054 3.11894 7.22893 2.67406C8.10186 2.233 9.03611 1.92563 10.0004 1.76225C11.04 1.59221 12.091 1.50029 13.1443 1.48723L14.6569 1.46677H186.929L188.459 1.48806C189.503 1.50046 190.544 1.59157 191.574 1.76061C192.549 1.92603 193.493 2.23555 194.375 2.67897C196.115 3.57554 197.531 4.99399 198.424 6.73552C198.86 7.60637 199.163 8.53828 199.321 9.49961C199.495 10.5456 199.592 11.603 199.612 12.6632C199.617 13.1379 199.617 13.6478 199.617 14.1553C199.63 14.7839 199.63 15.3822 199.63 15.9855V51.0684C199.63 51.6774 199.63 52.2716 199.617 52.8707C199.617 53.4159 199.617 53.9152 199.611 54.4292C199.591 55.4705 199.495 56.5089 199.324 57.5362C199.168 58.5103 198.862 59.4545 198.419 60.3357C197.977 61.1946 197.402 61.9786 196.716 62.6585C196.032 63.3522 195.239 63.9309 194.371 64.3726C193.49 64.8184 192.547 65.1291 191.574 65.2942C190.538 65.4634 189.491 65.5548 188.441 65.5676C187.95 65.579 187.436 65.5855 186.937 65.5855L185.12 65.5889L14.6561 65.5855Z" fill="black"/>
<path d="M71.4116 45.4944H63.4769L61.5714 51.1208H58.2106L65.7262 30.3044H69.2179L76.7335 51.1208H73.3154L71.4116 45.4944ZM64.2987 42.8981H70.5882L67.4877 33.7668H67.4009L64.2987 42.8981Z" fill="white"/>
<path d="M92.9646 43.5332C92.9646 48.2495 90.4403 51.2796 86.631 51.2796C85.666 51.3301 84.7063 51.1078 83.8618 50.6382C83.0173 50.1686 82.3221 49.4707 81.8558 48.6243H81.7837V56.1415H78.6685V35.944H81.6839V38.4683H81.7412C82.2289 37.626 82.9359 36.9317 83.7868 36.4592C84.6378 35.9868 85.6009 35.7538 86.5737 35.7852C90.4255 35.7852 92.9646 38.8301 92.9646 43.5332ZM89.7626 43.5332C89.7626 40.4606 88.1747 38.4405 85.7519 38.4405C83.3717 38.4405 81.7706 40.5031 81.7706 43.5332C81.7706 46.5912 83.3717 48.6391 85.7519 48.6391C88.1747 48.6391 89.7626 46.6337 89.7626 43.5332Z" fill="white"/>
<path d="M109.669 43.5332C109.669 48.2495 107.144 51.2796 103.335 51.2796C102.37 51.3301 101.41 51.1078 100.566 50.6382C99.7213 50.1686 99.0261 49.4707 98.5598 48.6243H98.4877V56.1415H95.3725V35.944H98.3879V38.4683H98.4452C98.9329 37.626 99.6398 36.9317 100.491 36.4592C101.342 35.9868 102.305 35.7538 103.278 35.7852C107.13 35.7852 109.669 38.8301 109.669 43.5332ZM106.467 43.5332C106.467 40.4605 104.879 38.4404 102.456 38.4404C100.076 38.4404 98.4747 40.5031 98.4747 43.5332C98.4747 46.5912 100.076 48.6391 102.456 48.6391C104.879 48.6391 106.467 46.6337 106.467 43.5332H106.467Z" fill="white"/>
<path d="M120.709 45.3208C120.94 47.3851 122.945 48.7405 125.685 48.7405C128.311 48.7405 130.2 47.3851 130.2 45.5238C130.2 43.908 129.061 42.9406 126.363 42.2776L123.665 41.6277C119.843 40.7044 118.068 38.9167 118.068 36.0159C118.068 32.4243 121.198 29.9573 125.643 29.9573C130.041 29.9573 133.057 32.4243 133.158 36.0159H130.014C129.825 33.9386 128.108 32.6846 125.599 32.6846C123.089 32.6846 121.372 33.9533 121.372 35.7999C121.372 37.2716 122.469 38.1375 125.152 38.8005L127.445 39.3636C131.716 40.3736 133.491 42.0893 133.491 45.1341C133.491 49.0286 130.388 51.4677 125.454 51.4677C120.838 51.4677 117.721 49.0858 117.52 45.3207L120.709 45.3208Z" fill="white"/>
<path d="M140.214 32.3524V35.944H143.1V38.411H140.214V46.7778C140.214 48.0776 140.792 48.6833 142.06 48.6833C142.403 48.6773 142.745 48.6533 143.085 48.6112V51.0635C142.515 51.1701 141.935 51.2183 141.355 51.2076C138.282 51.2076 137.084 50.0534 137.084 47.1101V38.411H134.877V35.944H137.084V32.3524H140.214Z" fill="white"/>
<path d="M144.771 43.5333C144.771 38.7581 147.584 35.7574 151.969 35.7574C156.37 35.7574 159.169 38.758 159.169 43.5333C159.169 48.3215 156.384 51.3091 151.969 51.3091C147.556 51.3091 144.771 48.3215 144.771 43.5333ZM155.995 43.5333C155.995 40.2576 154.494 38.3243 151.969 38.3243C149.445 38.3243 147.946 40.2723 147.946 43.5333C147.946 46.822 149.445 48.7406 151.969 48.7406C154.494 48.7406 155.995 46.822 155.995 43.5333H155.995Z" fill="white"/>
<path d="M161.737 35.944H164.709V38.5272H164.781C164.982 37.7204 165.454 37.0074 166.119 36.5081C166.784 36.0087 167.6 35.7535 168.431 35.7852C168.79 35.7839 169.148 35.8229 169.499 35.9014V38.8153C169.045 38.6768 168.573 38.6133 168.099 38.6271C167.646 38.6087 167.195 38.6885 166.776 38.861C166.357 39.0335 165.981 39.2945 165.673 39.6262C165.364 39.958 165.131 40.3525 164.99 40.7828C164.848 41.213 164.801 41.6688 164.853 42.1188V51.1208H161.737L161.737 35.944Z" fill="white"/>
<path d="M183.862 46.6632C183.443 49.4183 180.76 51.3091 177.327 51.3091C172.912 51.3091 170.171 48.351 170.171 43.6053C170.171 38.8448 172.926 35.7574 177.196 35.7574C181.395 35.7574 184.035 38.6418 184.035 43.2435V44.3108H173.316V44.4991C173.267 45.0576 173.336 45.6203 173.521 46.1498C173.706 46.6792 174.001 47.1633 174.387 47.5699C174.773 47.9765 175.242 48.2962 175.761 48.508C176.28 48.7197 176.838 48.8185 177.399 48.7979C178.135 48.8669 178.874 48.6964 179.505 48.3118C180.137 47.9271 180.627 47.349 180.904 46.6632L183.862 46.6632ZM173.331 42.1336H180.918C180.946 41.6314 180.87 41.1288 180.695 40.6574C180.519 40.186 180.248 39.756 179.899 39.3943C179.549 39.0326 179.129 38.7471 178.663 38.5556C178.198 38.3641 177.699 38.2709 177.196 38.2817C176.688 38.2787 176.186 38.3761 175.716 38.5685C175.247 38.7608 174.82 39.0442 174.461 39.4024C174.101 39.7605 173.816 40.1862 173.623 40.655C173.429 41.1238 173.329 41.6263 173.331 42.1336V42.1336Z" fill="white"/>
<path d="M63.9083 14.6359C64.5614 14.589 65.2168 14.6877 65.8272 14.9247C66.4375 15.1618 66.9877 15.5314 67.4379 16.0069C67.8881 16.4823 68.2272 17.0517 68.4307 17.6741C68.6342 18.2965 68.6971 18.9563 68.6147 19.6058C68.6147 22.8013 66.8877 24.6381 63.9083 24.6381H60.2954V14.6359H63.9083ZM61.8489 23.2236H63.7348C64.2015 23.2515 64.6685 23.175 65.1019 22.9996C65.5353 22.8242 65.9241 22.5544 66.2401 22.2098C66.5561 21.8652 66.7912 21.4545 66.9285 21.0076C67.0657 20.5607 67.1015 20.0888 67.0334 19.6262C67.0966 19.1655 67.0571 18.6965 66.9178 18.2529C66.7784 17.8092 66.5427 17.4019 66.2274 17.06C65.9122 16.7182 65.5252 16.4503 65.0943 16.2756C64.6633 16.1008 64.1991 16.0236 63.7348 16.0493H61.8489V23.2236Z" fill="white"/>
<path d="M70.3696 20.8605C70.3221 20.3645 70.3789 19.864 70.5362 19.3912C70.6935 18.9183 70.9479 18.4836 71.283 18.1148C71.6182 17.7461 72.0267 17.4514 72.4824 17.2498C72.9381 17.0482 73.4309 16.9441 73.9293 16.9441C74.4276 16.9441 74.9204 17.0482 75.3761 17.2498C75.8318 17.4514 76.2403 17.7461 76.5755 18.1148C76.9107 18.4836 77.1651 18.9183 77.3224 19.3912C77.4797 19.864 77.5364 20.3645 77.489 20.8605C77.5373 21.3571 77.4812 21.8583 77.3244 22.3319C77.1675 22.8055 76.9132 23.241 76.578 23.6105C76.2427 23.98 75.8339 24.2752 75.3777 24.4773C74.9216 24.6794 74.4282 24.7837 73.9293 24.7837C73.4304 24.7837 72.937 24.6794 72.4808 24.4773C72.0246 24.2752 71.6158 23.98 71.2805 23.6105C70.9453 23.241 70.6911 22.8055 70.5342 22.3319C70.3773 21.8583 70.3212 21.3571 70.3696 20.8605ZM75.9567 20.8605C75.9567 19.2244 75.2217 18.2675 73.9317 18.2675C72.6368 18.2675 71.9084 19.2244 71.9084 20.8606C71.9084 22.5099 72.6369 23.4593 73.9317 23.4593C75.2217 23.4593 75.9567 22.5033 75.9567 20.8605H75.9567Z" fill="white"/>
<path d="M86.9526 24.638H85.4073L83.8472 19.0786H83.7293L82.1758 24.638H80.6452L78.5645 17.0897H80.0755L81.4277 22.8495H81.539L83.0909 17.0897H84.52L86.0719 22.8495H86.1898L87.5354 17.0897H89.0251L86.9526 24.638Z" fill="white"/>
<path d="M90.775 17.0897H92.2091V18.2888H92.3204C92.5092 17.8581 92.8277 17.4971 93.2315 17.256C93.6353 17.015 94.1042 16.9059 94.5729 16.944C94.9402 16.9164 95.309 16.9717 95.6519 17.106C95.9949 17.2403 96.3033 17.45 96.5542 17.7196C96.8051 17.9892 96.9921 18.3119 97.1014 18.6636C97.2107 19.0153 97.2395 19.3871 97.1856 19.7515V24.6379H95.6959V20.1255C95.6959 18.9125 95.1688 18.3093 94.0671 18.3093C93.8177 18.2977 93.5688 18.3401 93.3374 18.4337C93.1059 18.5273 92.8975 18.6698 92.7263 18.8515C92.5551 19.0332 92.4252 19.2497 92.3455 19.4863C92.2659 19.7229 92.2383 19.9739 92.2647 20.2221V24.638H90.775L90.775 17.0897Z" fill="white"/>
<path d="M99.5593 14.143H101.049V24.638H99.5593V14.143Z" fill="white"/>
<path d="M103.12 20.8605C103.072 20.3645 103.129 19.8639 103.287 19.3911C103.444 18.9182 103.698 18.4835 104.034 18.1147C104.369 17.7459 104.777 17.4513 105.233 17.2497C105.689 17.0481 106.182 16.9439 106.68 16.9439C107.178 16.9439 107.671 17.0481 108.127 17.2497C108.583 17.4513 108.991 17.7459 109.326 18.1147C109.662 18.4835 109.916 18.9182 110.073 19.3911C110.231 19.8639 110.287 20.3645 110.24 20.8605C110.288 21.3571 110.232 21.8583 110.075 22.3319C109.918 22.8055 109.664 23.241 109.329 23.6105C108.993 23.98 108.585 24.2752 108.128 24.4773C107.672 24.6793 107.179 24.7837 106.68 24.7837C106.181 24.7837 105.688 24.6793 105.231 24.4773C104.775 24.2752 104.366 23.98 104.031 23.6105C103.696 23.241 103.442 22.8055 103.285 22.3319C103.128 21.8583 103.072 21.3571 103.12 20.8605ZM108.707 20.8605C108.707 19.2243 107.972 18.2675 106.682 18.2675C105.387 18.2675 104.659 19.2243 104.659 20.8606C104.659 22.5099 105.387 23.4593 106.682 23.4593C107.972 23.4593 108.707 22.5033 108.707 20.8605H108.707Z" fill="white"/>
<path d="M111.808 22.5033C111.808 21.1446 112.82 20.3613 114.616 20.25L116.66 20.1321V19.4806C116.66 18.6834 116.133 18.2332 115.115 18.2332C114.283 18.2332 113.707 18.5385 113.542 19.0722H112.1C112.252 17.7756 113.472 16.944 115.184 16.944C117.076 16.944 118.144 17.8861 118.144 19.4806V24.638H116.71V23.5772H116.592C116.352 23.9577 116.016 24.2679 115.618 24.4762C115.22 24.6844 114.773 24.7831 114.324 24.7624C114.008 24.7953 113.687 24.7615 113.384 24.6631C113.081 24.5647 112.802 24.4039 112.565 24.1911C112.328 23.9783 112.138 23.7181 112.008 23.4274C111.878 23.1367 111.81 22.8219 111.808 22.5033ZM116.66 21.8583V21.2273L114.817 21.3451C113.778 21.4147 113.306 21.7683 113.306 22.4338C113.306 23.1131 113.895 23.5085 114.706 23.5085C114.943 23.5325 115.183 23.5085 115.411 23.438C115.639 23.3674 115.851 23.2517 116.033 23.0977C116.215 22.9438 116.365 22.7547 116.473 22.5418C116.58 22.3289 116.644 22.0965 116.66 21.8583Z" fill="white"/>
<path d="M120.101 20.8606C120.101 18.4754 121.328 16.9645 123.235 16.9645C123.706 16.9427 124.175 17.0557 124.585 17.2902C124.994 17.5247 125.329 17.8711 125.549 18.2887H125.661V14.143H127.15V24.638H125.723V23.4454H125.605C125.368 23.8603 125.021 24.2023 124.604 24.4344C124.186 24.6666 123.712 24.78 123.235 24.7624C121.314 24.7624 120.101 23.2514 120.101 20.8606ZM121.64 20.8606C121.64 22.4616 122.395 23.425 123.657 23.425C124.913 23.425 125.689 22.4477 125.689 20.8671C125.689 19.2939 124.905 18.3027 123.657 18.3027C122.403 18.3027 121.64 19.2727 121.64 20.8606H121.64Z" fill="white"/>
<path d="M133.314 20.8605C133.266 20.3645 133.323 19.864 133.48 19.3912C133.638 18.9183 133.892 18.4836 134.227 18.1148C134.562 17.7461 134.971 17.4514 135.427 17.2498C135.882 17.0482 136.375 16.9441 136.873 16.9441C137.372 16.9441 137.865 17.0482 138.32 17.2498C138.776 17.4514 139.185 17.7461 139.52 18.1148C139.855 18.4836 140.109 18.9183 140.267 19.3912C140.424 19.864 140.481 20.3645 140.433 20.8605C140.482 21.3571 140.425 21.8583 140.269 22.3319C140.112 22.8055 139.857 23.241 139.522 23.6105C139.187 23.98 138.778 24.2752 138.322 24.4773C137.866 24.6794 137.372 24.7837 136.873 24.7837C136.375 24.7837 135.881 24.6794 135.425 24.4773C134.969 24.2752 134.56 23.98 134.225 23.6105C133.89 23.241 133.635 22.8055 133.478 22.3319C133.321 21.8583 133.265 21.3571 133.314 20.8605ZM138.901 20.8605C138.901 19.2244 138.166 18.2675 136.876 18.2675C135.581 18.2675 134.853 19.2244 134.853 20.8606C134.853 22.5099 135.581 23.4593 136.876 23.4593C138.166 23.4593 138.901 22.5033 138.901 20.8605Z" fill="white"/>
<path d="M142.432 17.0897H143.866V18.2888H143.977C144.166 17.8581 144.485 17.4971 144.888 17.256C145.292 17.015 145.761 16.9059 146.23 16.944C146.597 16.9164 146.966 16.9717 147.309 17.106C147.652 17.2403 147.96 17.45 148.211 17.7196C148.462 17.9892 148.649 18.3119 148.758 18.6636C148.868 19.0153 148.896 19.3871 148.843 19.7515V24.6379H147.353V20.1255C147.353 18.9125 146.826 18.3093 145.724 18.3093C145.475 18.2977 145.226 18.3401 144.994 18.4337C144.763 18.5273 144.554 18.6698 144.383 18.8515C144.212 19.0332 144.082 19.2497 144.003 19.4863C143.923 19.7229 143.895 19.9739 143.922 20.2221V24.638H142.432V17.0897Z" fill="white"/>
<path d="M157.26 15.2104V17.124H158.896V18.3788H157.26V22.2602C157.26 23.0509 157.586 23.3971 158.327 23.3971C158.517 23.3965 158.707 23.385 158.896 23.3627V24.6036C158.628 24.6514 158.357 24.6769 158.085 24.6797C156.429 24.6797 155.769 24.0969 155.769 22.6416V18.3787H154.57V17.124H155.769V15.2104H157.26Z" fill="white"/>
<path d="M160.93 14.143H162.407V18.3027H162.525C162.723 17.868 163.05 17.5049 163.462 17.263C163.874 17.021 164.35 16.9119 164.826 16.9505C165.192 16.9307 165.557 16.9916 165.896 17.1292C166.235 17.2667 166.54 17.4774 166.788 17.7461C167.036 18.0149 167.222 18.3352 167.332 18.6841C167.443 19.033 167.475 19.4019 167.426 19.7646V24.638H165.935V20.1321C165.935 18.9264 165.373 18.3158 164.321 18.3158C164.065 18.2948 163.807 18.33 163.566 18.4189C163.325 18.5079 163.106 18.6484 162.925 18.8307C162.744 19.0129 162.605 19.2326 162.518 19.4742C162.431 19.7158 162.397 19.9736 162.42 20.2295V24.6379H160.93L160.93 14.143Z" fill="white"/>
<path d="M176.112 22.5999C175.91 23.2897 175.471 23.8865 174.873 24.2857C174.275 24.6849 173.556 24.8612 172.841 24.7836C172.344 24.7968 171.85 24.7015 171.393 24.5045C170.936 24.3075 170.528 24.0134 170.196 23.6427C169.864 23.272 169.617 22.8336 169.472 22.3578C169.326 21.8821 169.286 21.3804 169.354 20.8876C169.288 20.3932 169.329 19.8905 169.474 19.4133C169.619 18.9361 169.865 18.4956 170.195 18.1216C170.525 17.7477 170.931 17.449 171.387 17.2459C171.842 17.0427 172.336 16.9397 172.835 16.944C174.935 16.944 176.202 18.3789 176.202 20.7492V21.269H170.872V21.3525C170.849 21.6295 170.883 21.9083 170.974 22.1711C171.065 22.4338 171.209 22.6747 171.399 22.8783C171.588 23.0819 171.818 23.2437 172.073 23.3533C172.329 23.463 172.604 23.518 172.882 23.5149C173.238 23.5577 173.6 23.4935 173.919 23.3306C174.239 23.1676 174.503 22.9133 174.678 22.5998L176.112 22.5999ZM170.872 20.1673H174.684C174.703 19.9139 174.669 19.6595 174.583 19.4202C174.498 19.181 174.363 18.9623 174.188 18.7781C174.014 18.5939 173.802 18.4484 173.567 18.3509C173.333 18.2534 173.08 18.206 172.826 18.2118C172.569 18.2086 172.313 18.257 172.074 18.3541C171.836 18.4513 171.619 18.5952 171.437 18.7774C171.255 18.9597 171.111 19.1765 171.014 19.4152C170.917 19.6539 170.869 19.9096 170.872 20.1673H170.872Z" fill="white"/>
<path d="M42.0204 34.0301C42.0385 32.631 42.4101 31.2591 43.1008 30.0422C43.7915 28.8253 44.7787 27.8028 45.9707 27.07C45.2135 25.9885 44.2145 25.0985 43.0531 24.4706C41.8917 23.8427 40.5999 23.4943 39.2803 23.453C36.4654 23.1576 33.7365 25.1374 32.302 25.1374C30.8398 25.1374 28.6313 23.4824 26.2531 23.5313C24.7148 23.581 23.2156 24.0283 21.9016 24.8297C20.5875 25.6311 19.5035 26.7592 18.7551 28.104C15.5131 33.717 17.9313 41.9662 21.0369 46.5033C22.5906 48.725 24.4066 51.2067 26.7826 51.1187C29.1078 51.0223 29.9762 49.6361 32.7828 49.6361C35.5634 49.6361 36.3781 51.1187 38.8024 51.0628C41.2974 51.0223 42.8694 48.8312 44.3686 46.5885C45.485 45.0054 46.3441 43.2558 46.914 41.4045C45.4645 40.7914 44.2275 39.7652 43.3573 38.4538C42.4871 37.1425 42.0221 35.6039 42.0204 34.0301Z" fill="white"/>
<path d="M37.4414 20.4691C38.8018 18.836 39.472 16.737 39.3097 14.6178C37.2314 14.8361 35.3116 15.8294 33.9328 17.3998C33.2587 18.167 32.7424 19.0595 32.4134 20.0263C32.0845 20.9932 31.9493 22.0154 32.0156 23.0345C33.0552 23.0452 34.0836 22.8199 35.0234 22.3755C35.9633 21.9312 36.79 21.2793 37.4414 20.4691Z" fill="white"/>
</g>
<defs>
<clipPath id="clip0_1_325">
<rect width="200.594" height="67.0523" fill="white" transform="translate(0.5)"/>
</clipPath>
</defs>
</svg>
