<svg width="227" height="68" viewBox="0 0 227 68" fill="none" xmlns="http://www.w3.org/2000/svg">
<g clip-path="url(#clip0_1_326)">
<path fill-rule="evenodd" clip-rule="evenodd" d="M217.977 67.0523H8.51151C3.87213 67.0523 0.09375 63.2733 0.09375 58.6708V8.38154C0.09375 3.76229 3.87213 0 8.51151 0H217.977C222.613 0 226.395 3.76229 226.395 8.38154V58.6708C226.395 63.2733 222.613 67.0523 217.977 67.0523Z" fill="black"/>
<path fill-rule="evenodd" clip-rule="evenodd" d="M217.977 1.34188C221.869 1.34188 225.054 4.50638 225.054 8.38154V58.6708C225.054 62.5459 221.89 65.7104 217.977 65.7104H8.51151C4.62028 65.7104 1.43541 62.5459 1.43541 58.6708V8.38154C1.43541 4.50638 4.59938 1.34188 8.51151 1.34188H217.977ZM217.977 0H8.51151C3.87213 0 0.09375 3.77901 0.09375 8.38154V58.6708C0.09375 63.29 3.87213 67.0523 8.51151 67.0523H217.977C222.613 67.0523 226.395 63.29 226.395 58.6708V8.38154C226.395 3.77901 222.613 0 217.977 0Z" fill="#A6A6A6"/>
<path d="M114.311 36.4107C110.368 36.4107 107.154 39.408 107.154 43.5401C107.154 47.6453 110.368 50.6694 114.311 50.6694C118.253 50.6694 121.467 47.6453 121.467 43.5401C121.467 39.408 118.253 36.4107 114.311 36.4107ZM114.311 47.8616C112.15 47.8616 110.286 46.0797 110.286 43.5401C110.286 40.9736 112.15 39.2186 114.311 39.2186C116.471 39.2186 118.334 40.9736 118.334 43.5401C118.334 46.078 116.471 47.8616 114.311 47.8616ZM98.6975 36.4107C94.7548 36.4107 91.5414 39.408 91.5414 43.5401C91.5414 47.6453 94.7548 50.6694 98.6975 50.6694C102.64 50.6694 105.854 47.6453 105.854 43.5401C105.855 39.408 102.64 36.4107 98.6975 36.4107ZM98.6975 47.8616C96.5367 47.8616 94.6744 46.0797 94.6744 43.5401C94.6744 40.9736 96.5384 39.2186 98.6975 39.2186C100.858 39.2186 102.721 40.9736 102.721 43.5401C102.722 46.078 100.858 47.8616 98.6975 47.8616ZM80.1274 38.5983V41.6224H87.3657C87.1494 43.3238 86.5828 44.566 85.7179 45.4309C84.6651 46.4837 83.0173 47.6453 80.1274 47.6453C75.6717 47.6453 72.1884 44.053 72.1884 39.5974C72.1884 35.1418 75.6717 31.5494 80.1274 31.5494C82.5312 31.5494 84.2863 32.4949 85.5821 33.7102L87.716 31.5763C85.9073 29.848 83.5035 28.5237 80.1274 28.5237C74.0239 28.5237 68.8928 33.4923 68.8928 39.5957C68.8928 45.6992 74.0239 50.6677 80.1274 50.6677C83.4213 50.6677 85.9073 49.5882 87.8518 47.5615C89.85 45.5634 90.4719 42.7539 90.4719 40.4858C90.4719 39.7835 90.4182 39.1347 90.3093 38.595H80.1274V38.5983ZM156.078 40.9468C155.484 39.3527 153.674 36.4091 149.974 36.4091C146.301 36.4091 143.25 39.299 143.25 43.5384C143.25 47.5347 146.274 50.6677 150.326 50.6677C153.593 50.6677 155.484 48.6696 156.267 47.5079L153.836 45.8869C153.027 47.0754 151.919 47.8582 150.326 47.8582C148.732 47.8582 147.599 47.129 146.87 45.6975L156.403 41.7548L156.078 40.9468ZM146.355 43.3238C146.274 40.5697 148.489 39.1649 150.081 39.1649C151.324 39.1649 152.376 39.7851 152.728 40.6769L146.355 43.3238ZM138.604 50.2369H141.737V29.2814H138.604V50.2369ZM133.473 38.0032H133.365C132.663 37.1668 131.313 36.4091 129.612 36.4091C126.046 36.4091 122.779 39.5421 122.779 43.5652C122.779 47.5615 126.046 50.6677 129.612 50.6677C131.313 50.6677 132.663 49.9117 133.365 49.0467H133.473V50.0726C133.473 52.8 132.014 54.2584 129.664 54.2584C127.746 54.2584 126.558 52.8805 126.072 51.7205L123.344 52.8553C124.127 54.7462 126.207 57.0679 129.664 57.0679C133.337 57.0679 136.443 54.9071 136.443 49.6418V36.8415H133.473V38.0032ZM129.882 47.8616C127.721 47.8616 125.912 46.0529 125.912 43.5669C125.912 41.0558 127.721 39.2186 129.882 39.2186C132.016 39.2186 133.689 41.0541 133.689 43.5669C133.689 46.0512 132.016 47.8616 129.882 47.8616ZM170.752 29.2814H163.257V50.2369H166.383V42.2979H170.75C174.217 42.2979 177.625 39.7885 177.625 35.7905C177.625 31.7925 174.219 29.2814 170.752 29.2814ZM170.832 39.3812H166.383V32.1982H170.832C173.171 32.1982 174.498 34.1343 174.498 35.7905C174.498 37.4132 173.171 39.3812 170.832 39.3812ZM190.164 36.3722C187.899 36.3722 185.554 37.3696 184.583 39.5806L187.361 40.7406C187.954 39.5806 189.059 39.2035 190.219 39.2035C191.837 39.2035 193.481 40.174 193.508 41.899V42.1152C192.941 41.7917 191.728 41.3056 190.246 41.3056C187.253 41.3056 184.206 42.95 184.206 46.0244C184.206 48.8288 186.66 50.6342 189.409 50.6342C191.513 50.6342 192.671 49.6904 193.399 48.5858H193.506V50.2034H196.525V42.1689C196.525 38.4475 193.749 36.3722 190.164 36.3722ZM189.785 47.8566C188.76 47.8566 187.331 47.3436 187.331 46.078C187.331 44.4604 189.111 43.8401 190.646 43.8401C192.021 43.8401 192.668 44.1368 193.504 44.5408C193.263 46.482 191.592 47.8566 189.785 47.8566ZM207.525 36.8298L203.939 45.9154H203.832L200.112 36.8298H196.743L202.323 49.5278L199.142 56.5918H202.404L211.005 36.8298H207.525ZM179.351 50.2369H182.479V29.2814H179.351V50.2369Z" fill="white"/>
<path d="M34.8217 32.5611L16.9741 51.5034C16.9758 51.5068 16.9758 51.5101 16.9774 51.5135C17.5239 53.572 19.4031 55.0857 21.6325 55.0857C22.5243 55.0857 23.3608 54.8443 24.0783 54.4219L24.1353 54.3883L44.2241 42.7967L34.8217 32.5611Z" fill="#EB4335"/>
<path d="M52.8774 29.336L52.8606 29.3242L44.1874 24.2953L34.4162 32.9903L44.2209 42.7934L52.8489 37.8164C54.3609 37.0001 55.3868 35.4059 55.3868 33.567C55.3868 31.7415 54.3743 30.154 52.8774 29.336Z" fill="#FABC13"/>
<path d="M16.9742 15.5517C16.8669 15.9473 16.8099 16.3613 16.8099 16.7921V50.263C16.8099 50.6938 16.8652 51.1095 16.9742 51.5034L35.4353 33.0456L16.9742 15.5517Z" fill="#547DBF"/>
<path d="M34.9525 33.5267L44.1906 24.2919L24.1235 12.6583C23.3943 12.2208 22.5445 11.9694 21.6326 11.9694C19.4031 11.9694 17.5222 13.4864 16.9741 15.5466V15.5516L34.9525 33.5267Z" fill="#30A851"/>
<path d="M79.5088 16.4127H74.6341V17.6213H78.2868C78.1879 18.6037 77.7939 19.3764 77.1352 19.938C76.4747 20.4996 75.6315 20.7812 74.6341 20.7812C73.5378 20.7812 72.6108 20.4023 71.8531 19.643C71.1088 18.8702 70.7283 17.9164 70.7283 16.7631C70.7283 15.6114 71.1088 14.6559 71.8531 13.8832C72.6108 13.1255 73.5378 12.7466 74.6341 12.7466C75.1957 12.7466 75.7304 12.8439 76.2216 13.0551C76.7127 13.2663 77.1067 13.5613 77.4151 13.9402L78.3421 13.0132C77.9213 12.5354 77.3866 12.17 76.7278 11.9035C76.0673 11.6369 75.3784 11.5095 74.6341 11.5095C73.1724 11.5095 71.9369 12.0158 70.9261 13.0266C69.9136 14.0391 69.4091 15.2879 69.4091 16.7631C69.4091 18.2382 69.9136 19.4887 70.9261 20.4996C71.9369 21.512 73.1724 22.0166 74.6341 22.0166C76.1646 22.0166 77.3866 21.5255 78.3287 20.5281C79.1568 19.7 79.5792 18.5752 79.5792 17.1704C79.5792 16.9324 79.5507 16.6793 79.5088 16.4127Z" fill="white"/>
<path d="M81.4333 11.7342V21.792H87.3054V20.5566H82.7257V17.3682H86.8544V16.1596H82.7257V12.9713H87.3054V11.7342H81.4333Z" fill="white"/>
<path d="M95.5628 12.9713V11.7342H88.6514V12.9713H91.4609V21.792H92.7533V12.9713H95.5628Z" fill="white"/>
<path d="M101.857 11.7342H100.565V21.792H101.857V11.7342Z" fill="white"/>
<path d="M110.398 12.9713V11.7342H103.487V12.9713H106.296V21.792H107.589V12.9713H110.398Z" fill="white"/>
<path d="M123.477 13.0417C122.479 12.0158 121.257 11.5095 119.796 11.5095C118.335 11.5095 117.112 12.0158 116.114 13.0266C115.117 14.024 114.626 15.2745 114.626 16.7631C114.626 18.2533 115.117 19.5022 116.114 20.4996C117.112 21.512 118.335 22.0166 119.796 22.0166C121.242 22.0166 122.479 21.512 123.477 20.4996C124.474 19.5022 124.965 18.2533 124.965 16.7631C124.965 15.2879 124.474 14.0391 123.477 13.0417ZM117.043 13.8832C117.787 13.1255 118.699 12.7466 119.796 12.7466C120.892 12.7466 121.804 13.1255 122.535 13.8832C123.279 14.6291 123.644 15.598 123.644 16.7631C123.644 17.9298 123.279 18.8987 122.535 19.643C121.804 20.4023 120.892 20.7812 119.796 20.7812C118.699 20.7812 117.787 20.4023 117.043 19.643C116.312 18.8853 115.947 17.9298 115.947 16.7631C115.947 15.598 116.312 14.6425 117.043 13.8832Z" fill="white"/>
<path d="M128.07 15.5276L128.014 13.5881H128.07L133.184 21.792H134.532V11.7342H133.239V17.6213L133.296 19.5592H133.239L128.351 11.7342H126.779V21.792H128.07V15.5276Z" fill="white"/>
</g>
<defs>
<clipPath id="clip0_1_326">
<rect width="226.301" height="67.0523" fill="white" transform="translate(0.09375)"/>
</clipPath>
</defs>
</svg>
