<svg width="220" height="46" viewBox="0 0 220 46" fill="none" xmlns="http://www.w3.org/2000/svg">
<g clip-path="url(#clip0_7_6662)">
<path d="M66.5042 6.70703H71.994L82.8204 40.651H77.936L75.1154 31.5119H63.3317L60.5111 40.651H55.6777L66.5042 6.70703ZM73.9065 27.4941L70.683 17.0006C70.2309 15.5953 69.7258 13.5354 69.2226 11.6284C68.8197 13.5373 68.2654 15.5444 67.8133 17.0006L64.5405 27.4941H73.9065Z" fill="#F7F7F7"/>
<path d="M86.7495 24.6322C86.7495 17.8038 91.3313 14.1387 96.7701 14.1387C102.209 14.1387 106.741 17.8038 106.741 24.6322V40.6506H102.109V24.8849C102.109 20.4163 99.8933 18.2074 96.7701 18.2074C93.6468 18.2074 91.3824 20.4163 91.3824 24.8849V40.6506H86.7495V24.6322Z" fill="#F7F7F7"/>
<path d="M112.485 7.50974C112.485 5.95354 113.794 4.69727 115.406 4.69727C117.017 4.69727 118.327 5.95166 118.327 7.50974C118.327 9.06782 116.966 10.3713 115.406 10.3713C113.845 10.3713 112.485 9.11687 112.485 7.50974ZM113.088 14.7909H117.721V40.6502H113.088V14.7909Z" fill="#F7F7F7"/>
<path d="M124.066 24.3813C124.066 17.5529 128.396 14.1387 133.532 14.1387C136.856 14.1387 139.374 15.9967 140.732 19.06C142.143 15.9967 144.661 14.1387 147.934 14.1387C153.221 14.1387 157.451 17.5529 157.451 24.3813V40.6506H152.818V24.8849C152.818 20.4163 150.906 18.2074 147.934 18.2074C144.962 18.2074 143.05 20.769 143.05 25.7394V40.6525H138.468V25.7394C138.468 20.769 136.553 18.2074 133.532 18.2074C130.511 18.2074 128.699 20.4163 128.699 24.8849V40.6506H124.066V24.3813Z" fill="#F7F7F7"/>
<path d="M189.282 18.1061H185.003L184.903 14.7918H189.282V6.82031H193.866V14.7918H198.951V18.1061H193.866V40.6511H189.282V18.1061Z" fill="#F7F7F7"/>
<path d="M210.331 25.0849H215.418V23.6796C215.418 20.1655 213.706 18.2056 210.433 18.2056C208.167 18.2056 204.741 18.9243 202.575 19.5769V15.5459C205.095 14.7424 207.764 14.1406 210.433 14.1406C216.224 14.1406 220 17.7567 220 23.6815V32.9206C220 37.6402 215.719 41.3052 210.534 41.3052C205.044 41.3052 200.916 37.6402 200.916 32.9206C200.916 27.8484 204.743 25.0868 210.333 25.0868M210.536 37.2384C213.456 37.2384 215.42 35.2295 215.42 32.9206V28.7029H210.333C207.009 28.7029 205.651 30.5609 205.651 32.8697C205.651 35.1785 207.463 37.2384 210.536 37.2384Z" fill="#F7F7F7"/>
<path d="M172.569 30.357H167.482V31.7623C167.482 35.2765 169.194 37.2364 172.466 37.2364C174.733 37.2364 178.145 36.3366 180.311 35.6839L180.323 39.896C177.805 40.6996 175.136 41.3013 172.466 41.3013C166.676 41.3013 162.898 37.6853 162.898 31.7604V22.5213C162.898 17.8018 167.179 14.1367 172.364 14.1367C177.854 14.1367 181.984 17.8018 181.984 22.5213C181.984 27.5936 178.157 30.3551 172.567 30.3551M172.364 18.2036C169.443 18.2036 167.48 20.2125 167.48 22.5213V26.7391H172.567C175.89 26.7391 177.249 24.8811 177.249 22.5723C177.249 20.2634 175.436 18.2036 172.364 18.2036Z" fill="#F7F7F7"/>
<path d="M22.9828 0.0839844C10.31 0.0839844 0 10.3643 0 23.0007C0 35.637 10.31 45.9173 22.9828 45.9173C35.6555 45.9173 45.9655 35.637 45.9655 23.0007C45.9655 10.3643 35.6574 0.0839844 22.9828 0.0839844ZM22.9828 42.8125C12.0277 42.8125 3.11381 33.9261 3.11381 23.0007C3.11381 12.0752 12.0277 3.18884 22.9828 3.18884C33.9378 3.18884 42.8498 12.0771 42.8498 23.0007C42.8498 33.9242 33.9378 42.8125 22.9828 42.8125Z" fill="#ED2127"/>
<path d="M40.5252 23.0014C40.5252 32.6612 32.6706 40.4931 22.983 40.4931C13.2954 40.4931 5.44092 32.6612 5.44092 23.0014C5.44092 13.3417 13.2954 5.50977 22.983 5.50977C32.6706 5.50977 40.5252 13.3417 40.5252 23.0014Z" fill="#ED2127"/>
</g>
<defs>
<clipPath id="clip0_7_6662">
<rect width="220" height="45.8333" fill="white" transform="translate(0 0.0839844)"/>
</clipPath>
</defs>
</svg>
